<svg width="344" height="224" viewBox="0 0 344 224" fill="none" xmlns="http://www.w3.org/2000/svg">
<path d="M339.796 44.6738C340.467 42.7291 341.522 40.9203 342.059 38.9347C342.778 36.276 342.516 33.4608 342.207 30.7205C342.173 29.5208 341.836 28.3501 341.226 27.3205C340.313 26.0558 338.715 25.5322 337.486 24.6006C334.49 22.3226 334.074 18.1067 333.026 14.4892C331.657 9.80809 328.931 5.65088 325.202 2.55543C322.852 0.617468 319.501 -0.892114 316.848 0.610657C315.726 1.24305 314.907 2.34464 313.759 2.92263C312.268 3.67742 310.562 3.4462 308.863 3.351C308.649 3.09022 308.383 2.87722 308.084 2.72543C306.485 1.95024 303.497 2.86143 301.992 3.49382C300.724 3.95922 299.661 4.86524 298.991 6.05055C298.848 6.35528 298.738 6.67439 298.661 7.00255C298.46 7.81854 298.393 8.6753 298.144 9.49129C297.944 10.1032 297.661 10.6844 297.305 11.2185C296.304 12.7212 294.833 13.9792 293.819 15.5092C293.345 16.2267 292.966 17.0039 292.691 17.8211C291.957 20.2264 291.677 22.75 291.865 25.2602C291.999 28.6601 292.402 32.0601 291.59 35.358C291.334 36.3712 290.972 37.398 290.67 38.3771C290.616 38.5403 290.555 38.7171 290.508 38.8803L290.388 39.3699C290.334 39.6079 290.28 39.8459 290.24 40.0839C290.159 40.5735 290.112 41.0699 290.079 41.5731C290.079 41.8179 290.079 42.0695 290.079 42.3211C290.079 42.8243 290.079 43.3274 290.018 43.8306C289.993 44.5799 289.894 45.3248 289.723 46.0542C289.506 46.8747 289.186 47.6633 288.769 48.4001C288.306 49.2433 287.762 50.0389 287.224 50.8277L285.425 53.4729C283.289 53.3029 281.113 53.3369 279.286 54.3772C277.6 55.4269 276.355 57.0679 275.787 58.9875C275.638 59.0418 275.499 59.1223 275.378 59.2255C275.008 59.5383 274.605 60.6603 274.216 62.0747C274.216 62.0747 274.216 62.0747 274.216 62.1087C273.423 65.0258 272.705 69.1738 272.47 70.0985C271.932 72.1385 271.509 74.2669 271.127 76.3748C270.361 80.6927 269.837 85.0515 269.112 89.3762C268.964 90.2601 268.004 96.1148 267.057 99.474C267.057 99.5624 267.016 99.644 266.99 99.7256C266.62 100.977 266.264 101.827 265.955 101.827H266.392H266.896C266.728 102.228 266.567 102.643 266.419 103.058C266.12 103.914 265.867 104.785 265.66 105.669C265.658 105.687 265.658 105.705 265.66 105.723C265.065 108.449 264.69 111.218 264.538 114.005C263.339 130.233 263.294 146.526 264.404 162.76C264.465 165.166 264.87 167.551 265.606 169.839C266.039 171.009 266.678 172.09 267.493 173.028L267.614 173.164C267.54 173.491 267.473 173.803 267.393 174.13C265.154 184.153 262.535 194.085 259.535 203.927C259.468 204.138 259.407 204.355 259.334 204.566C259.152 205.178 258.964 205.797 258.776 206.409C258.662 206.803 258.541 207.198 258.434 207.599C258.353 207.857 258.286 208.116 258.219 208.36C257.716 210.142 257.355 211.961 257.137 213.8C256.84 217.209 257.026 220.644 257.688 224H279.085C279.085 223.85 279.045 223.708 279.031 223.558C278.615 220.525 278.111 217.37 279.065 214.473C279.676 212.603 280.844 210.985 281.811 209.278C283.826 205.763 284.954 201.798 286.788 198.215C289.474 192.979 293.578 188.416 295.471 182.915C295.673 182.335 295.848 181.743 295.995 181.14C297.298 185.064 297.291 189.042 297.533 193.163C298.141 203.59 299.82 213.925 302.543 224H324.148C323.792 218.275 323.288 212.542 322.973 206.837C322.707 203.716 322.768 200.575 323.154 197.467C323.56 195.203 324.126 192.972 324.846 190.789C327.284 182.874 329.863 174.925 330.669 166.684C331.475 158.442 332.053 146.801 327.573 139.838C327.49 139.704 327.393 139.578 327.284 139.464C327.378 138.84 327.378 138.205 327.284 137.58C326.069 126.245 319.662 115.365 321.515 104.111C322.09 101.161 322.97 98.28 324.141 95.5164C326.868 88.5466 329.903 81.3999 331.569 74.1445C332.296 72.1123 332.822 70.0122 333.14 67.875C333.465 65.9907 333.636 64.0825 333.651 62.1699C333.649 61.443 333.588 60.7176 333.47 60.0007C335.706 60.7895 337.895 62.3399 340.273 62.6459C340.475 62.6747 340.679 62.6929 340.884 62.7003C340.853 62.6574 340.826 62.6119 340.803 62.5643C340.527 62.1189 340.372 61.6075 340.353 61.0819C340.772 61.1771 341.201 61.2115 341.629 61.1839C342.469 61.1477 343.286 60.8924 344 60.4427C341.88 58.4991 340.356 55.9792 339.611 53.1834C338.866 50.3876 338.93 47.4337 339.796 44.6738ZM274.652 146.352C274.29 147.127 273.981 147.909 273.645 148.712V148.623C272.573 145.457 272.357 142.057 273.02 138.777C273.074 138.573 273.121 138.369 273.168 138.172C273.215 137.975 273.302 137.655 273.37 137.39C273.593 138.394 274.025 139.338 274.638 140.159C275.25 140.98 276.029 141.659 276.922 142.15C276.728 142.47 276.533 142.782 276.345 143.102C275.715 144.155 275.139 145.24 274.619 146.352H274.652ZM277.654 123.865C277.05 125.075 276.311 126.211 275.579 127.374C276.69 121.379 277.43 115.32 277.795 109.232C277.856 108.246 277.903 107.253 277.943 106.267C278.447 108.544 278.764 110.859 278.89 113.189C279.132 116.242 279.367 119.398 278.346 122.281C278.143 122.826 277.901 123.356 277.621 123.865H277.654Z" fill="url(#paint0_linear)"/>
<path d="M301.283 5.108C300.068 5.56906 299.05 6.46921 298.414 7.64601C297.926 8.70748 297.945 9.94586 297.614 11.0482C296.911 13.4161 294.803 14.9742 293.495 17.0359C291.719 19.8325 291.543 23.398 291.628 26.7593C291.712 30.1206 292.142 33.5636 291.361 36.8024C290.983 38.3878 290.333 39.9052 290.06 41.5178C289.741 43.4774 290.008 45.5255 289.546 47.4511C289.024 49.1736 288.216 50.7861 287.158 52.2141L283 58.583C284.862 58.1205 286.696 57.5411 288.491 56.8479C287.939 58.6726 286.912 60.3006 285.525 61.5496L288.531 57.7392C289.142 56.8641 289.9 56.1124 290.769 55.521C291.875 54.8406 293.183 54.7589 294.419 54.5004C296.807 53.9901 299.188 52.7108 300.359 50.4722C301.914 47.4851 300.919 43.7292 301.791 40.4495C302.441 38.0544 303.997 36.0811 305.077 33.8698C307.536 28.8754 307.386 22.9829 308.154 17.4238C308.594 15.0817 308.877 12.7103 309 10.3269C309 8.56457 308.831 5.21006 307.048 4.3187C305.552 3.57023 302.702 4.4752 301.283 5.108Z" fill="#1F2421"/>
<path d="M329.452 167.46C328.659 175.662 326.093 183.571 323.728 191.446C323.013 193.616 322.456 195.836 322.062 198.089C321.682 201.182 321.622 204.307 321.881 207.413C322.183 212.926 322.66 218.453 323.003 223.973H301.652C299.058 214.109 297.453 204.005 296.862 193.814C296.64 190.064 296.633 186.429 295.646 182.849C295.559 182.516 295.458 182.169 295.35 181.849C293.845 188.131 289.19 193.079 286.301 198.864C284.493 202.451 283.372 206.351 281.41 209.87C280.456 211.572 279.3 213.185 278.722 215.036C277.789 217.902 278.279 221.012 278.682 224H257.6C257.01 220.829 256.854 217.59 257.137 214.376C257.419 212.067 257.907 209.789 258.594 207.57C258.702 207.168 258.823 206.773 258.937 206.379C259.125 205.766 259.313 205.147 259.495 204.534C262.536 194.447 265.187 184.238 267.449 173.906C267.516 173.586 267.59 173.225 267.657 172.933C268.043 171.163 268.414 169.391 268.773 167.617C270.002 161.525 271.178 155.236 273.408 149.485C273.549 149.138 273.684 148.804 273.832 148.444C274.147 147.675 274.503 146.912 274.859 146.17C275.389 145.08 275.977 144.019 276.62 142.992C277.225 142.012 277.887 141.069 278.602 140.167C290.406 139.133 302.66 133.164 314.208 135.934C316.129 136.358 317.961 137.118 319.623 138.18C321.599 139.473 324.655 138.718 326.154 140.372C326.257 140.489 326.351 140.614 326.436 140.746C330.809 147.675 330.245 159.259 329.452 167.46Z" fill="#1F2421"/>
<path d="M299.47 45.6597C299.218 48.5806 298.623 52.0178 296.038 53.2405C294.577 53.9198 292.872 53.6821 291.285 53.9198C288.284 54.4225 285.824 56.7932 284.429 59.5647C283.035 62.3362 282.565 65.4949 282.241 68.5992C281.838 72.4847 281.706 76.7031 283.782 79.9773C285.461 82.6333 288.363 84.2432 291.338 85.0651C294.331 85.8671 297.46 85.9822 300.501 85.4022C303.543 84.8223 306.423 83.5615 308.937 81.7095C311.335 79.7813 313.509 77.5748 315.415 75.134C319.726 69.9782 324.069 64.3265 324.948 57.588C325.054 56.8204 325.048 55.8966 324.433 55.4414C324.013 55.1989 323.529 55.1013 323.051 55.1629L318.913 55.2376C317.861 55.2376 316.678 55.2376 315.971 54.4293C315.263 53.6209 315.31 52.5952 315.31 51.6034L315.627 39.288C315.693 38.8533 315.596 38.4091 315.356 38.0449C315.094 37.7985 314.758 37.6501 314.404 37.6237C312.13 37.2297 309.776 37.6237 307.515 36.9852C305.393 36.3874 302.068 33.8809 300.507 36.4554C299.198 38.6834 299.688 43.1803 299.47 45.6597Z" fill="#FFC1C7"/>
<path opacity="0.1" d="M299.47 45.6597C299.218 48.5806 298.623 52.0178 296.038 53.2405C294.577 53.9198 292.872 53.6821 291.285 53.9198C288.284 54.4225 285.824 56.7932 284.429 59.5647C283.035 62.3362 282.565 65.4949 282.241 68.5992C281.838 72.4847 281.706 76.7031 283.782 79.9773C285.461 82.6333 288.363 84.2432 291.338 85.0651C294.331 85.8671 297.46 85.9822 300.501 85.4022C303.543 84.8223 306.423 83.5615 308.937 81.7095C311.335 79.7813 313.509 77.5748 315.415 75.134C319.726 69.9782 324.069 64.3265 324.948 57.588C325.054 56.8204 325.048 55.8966 324.433 55.4414C324.013 55.1989 323.529 55.1013 323.051 55.1629L318.913 55.2376C317.861 55.2376 316.678 55.2376 315.971 54.4293C315.263 53.6209 315.31 52.5952 315.31 51.6034L315.627 39.288C315.693 38.8533 315.596 38.4091 315.356 38.0449C315.094 37.7985 314.758 37.6501 314.404 37.6237C312.13 37.2297 309.776 37.6237 307.515 36.9852C305.393 36.3874 302.068 33.8809 300.507 36.4554C299.198 38.6834 299.688 43.1803 299.47 45.6597Z" fill="black"/>
<path d="M310 44.3964C318.837 44.3964 326 37.1684 326 28.2522C326 19.336 318.837 12.108 310 12.108C301.163 12.108 294 19.336 294 28.2522C294 37.1684 301.163 44.3964 310 44.3964Z" fill="#FFC1C7"/>
<path d="M293.009 73.245C290.405 73.299 287.463 72.5689 286.201 70.2771C285.337 68.7086 285.486 66.8021 285.648 65.0241L286.586 55.0725C284.055 54.8089 281.336 54.579 279.123 55.8365C276.194 57.4996 275.135 61.1909 274.804 64.5509C274.19 70.8585 275.189 77.2269 274.845 83.5548C274.555 88.8822 273.334 94.3717 274.892 99.4422C275.567 101.565 276.66 103.499 277.369 105.628C278.157 108.336 278.61 111.131 278.718 113.95C278.961 116.966 279.19 120.082 278.185 122.935C277.342 125.328 275.702 127.336 274.528 129.581C272.605 133.286 272.193 138.275 275.081 141.283C277.719 144.035 282.099 144.15 285.803 143.312C289.507 142.473 293.063 140.783 296.862 140.607C303.569 140.323 309.547 144.664 316.113 146.097C316.993 146.339 317.917 146.372 318.812 146.192C319.599 145.937 320.332 145.536 320.971 145.008L324.561 142.426C325.277 141.993 325.874 141.386 326.295 140.661C326.602 139.858 326.679 138.985 326.517 138.14C325.316 126.937 318.987 116.175 320.816 105.053C321.388 102.141 322.259 99.2957 323.414 96.5622C327.968 84.8934 333.427 72.765 331.659 60.3593C331.268 57.6145 330.465 54.8021 328.575 52.774C326.686 50.7458 323.495 49.7317 321.045 51.0297C318.596 52.3278 317.712 55.2213 316.653 57.743C314.565 62.6205 311.258 66.8767 307.051 70.1013C305.27 71.4534 303.124 73.2112 300.796 73.2788C298.259 73.3667 295.6 73.1976 293.009 73.245Z" fill="#F2F2F2"/>
<path d="M269.891 98.1695C266.072 102.532 265.32 108.815 264.897 114.678C263.744 130.776 263.702 146.938 264.772 163.042C264.827 165.429 265.221 167.795 265.94 170.065C266.751 172.297 268.281 174.367 270.432 175.256C271.81 175.826 273.73 175.676 274.389 174.285C274.963 173.01 274.112 171.571 273.466 170.357C271.996 167.508 271.505 164.232 272.074 161.061C272.859 161.658 273.129 162.71 273.354 163.687L274.587 169.115C276.282 168.857 276.915 166.734 277.186 164.997C277.681 161.848 278.156 158.503 276.929 155.579C276.269 154.018 275.181 152.688 274.528 151.134C272.879 147.213 272.226 142.734 273.288 138.602C276.861 124.664 278.417 110.261 277.905 95.8557C275.451 97.2727 272.703 98.0659 269.891 98.1695Z" fill="#FFC1C7"/>
<path d="M266 103.047C270.609 103.095 275.195 103.73 279.658 104.937C280.245 101.888 279.961 98.7306 279.658 95.6342L277.719 74.3456C277.577 72.7601 277.849 58.2876 274.941 60.842C273.869 61.7838 272.519 70.2532 272.183 71.6151C271.679 73.6477 271.278 75.7413 270.891 77.8282C270.167 82.1103 269.67 86.4263 268.952 90.7016C268.784 91.9483 267.04 103.053 266 103.047Z" fill="#F2F2F2"/>
<path d="M304.028 7.77669C304.006 7.27176 304.12 6.77016 304.36 6.32534C304.57 6.06027 304.832 5.84153 305.13 5.6828C305.428 5.52408 305.756 5.42882 306.092 5.403C308.427 5.04356 310.985 5.98625 313.096 4.9147C314.24 4.33824 315.045 3.25312 316.162 2.6224C318.787 1.13715 322.103 2.6224 324.431 4.55526C328.138 7.63448 330.84 11.7567 332.186 16.3898C333.215 19.9706 333.634 24.1551 336.598 26.4135C337.823 27.3494 339.407 27.8648 340.3 29.1263C340.914 30.1526 341.252 31.3209 341.281 32.5172C341.586 35.23 341.843 38.031 341.132 40.6556C340.598 42.6223 339.542 44.4128 338.892 46.3456C338.01 49.0847 337.927 52.0196 338.655 54.804C339.383 57.5884 340.891 60.106 343 62.0594C341.923 62.7393 340.622 62.966 339.38 62.6901C339.406 63.262 339.589 63.8157 339.907 64.2907C336.118 64.1754 332.829 60.4792 329.127 61.2863C326.306 61.8966 324.729 64.8264 322.618 66.8068C319.911 69.3703 315.681 70.4419 312.271 68.9228C308.86 67.4036 306.789 63.0903 308.21 59.645C309.855 55.7183 314.937 54.172 316.703 50.2927C318.056 47.2883 317.055 43.7888 317.346 40.4996C317.596 37.6783 318.814 35.074 319.572 32.3206C320.33 29.5671 320.574 26.4745 319.031 24.1008C317.4 21.5847 314.294 20.6014 311.411 19.6654C305.023 17.5427 303.785 14.2941 304.028 7.77669Z" fill="#1F2421"/>
<path d="M307.65 66.1767C307.197 63.8989 306.751 61.4779 307.55 59.3092C309.034 55.2582 313.9 53.9965 317.269 51.3914C319.22 49.8739 320.718 47.8284 321.596 45.4854C322.208 43.835 322.261 41.5777 320.783 40.7115C320.198 40.4292 319.55 40.3137 318.906 40.3774C313.661 40.5001 308.854 43.4258 304.834 46.8767C302.49 48.8885 300.267 51.1936 299.102 54.0852C298.368 56.1714 297.92 58.3518 297.771 60.564L296.952 67.8749C296.402 72.0563 296.084 76.2664 296 80.4847C295.997 82.8992 296.143 85.3115 296.439 87.7069C296.652 89.4118 296.965 91.1645 297.937 92.5626C299.755 95.161 303.263 95.7406 306.365 95.8293C307.545 95.9016 308.73 95.8261 309.893 95.6042C315.072 94.4517 319.006 87.0113 315.085 82.4147C313.414 80.4642 310.911 80.4165 309.966 77.7363C308.701 74.1832 308.368 69.8935 307.65 66.1767Z" fill="#FFC1C7"/>
<path d="M312.469 66.8503L308.497 73.6614C308.259 74.0122 308.094 74.4116 308.013 74.8339C307.903 75.7217 308.529 76.501 309.033 77.2262C312.456 82.1261 311.617 88.8762 310.557 94.8469C316.018 93.0325 320.88 89.6401 324.587 85.0587C328.294 80.4773 330.696 74.8924 331.516 68.9445C332.02 65.3865 332.808 59.5174 329.811 57.1996C322.558 51.622 315.873 61.0287 312.469 66.8503Z" fill="#F2F2F2"/>
<path d="M291.634 53.42C293.247 53.1656 294.994 53.42 296.466 52.7504C299.093 51.5451 299.698 48.1568 299.953 45.2774C299.953 45.0163 299.993 44.7217 300 44.4136C299.063 43.4343 298.042 42.5381 296.949 41.7352C295.961 41.1743 294.913 40.7251 293.825 40.3959L290.962 39.3513C290.68 40.1262 290.456 40.9207 290.291 41.7285C289.961 43.657 290.237 45.6725 289.76 47.5675C289.221 49.2626 288.387 50.8495 287.294 52.2549L283 58.5225C283.779 58.335 284.545 58.1274 285.318 57.9065C286.003 56.7649 286.918 55.777 288.005 55.0049C289.092 54.2328 290.328 53.6932 291.634 53.42Z" fill="#1F2421"/>
<path d="M125.683 130.338C121.58 132.001 112.038 132.187 107.808 132.18C106.519 132.18 105.719 132.18 105.719 132.18L103 126.283L105.719 121.36C105.719 121.36 108.204 120.644 111.521 119.992C116.41 119.053 123.097 118.315 126.294 120.429C131.625 123.89 131.014 128.139 125.683 130.338Z" fill="#A0616A"/>
<path opacity="0.1" d="M108.078 132.18C106.716 132.18 105.872 132.18 105.872 132.18L103 126.322L105.872 121.432C105.872 121.432 108.496 120.72 112 120.072C109.184 122.158 102.34 126.692 108.078 132.18Z" fill="black"/>
<path d="M62.4612 62.9465L63.6711 61.5497C63.6711 61.5497 69.8829 71.4639 70.5385 75.1775C71.1942 78.8911 72.0188 83.2247 72.0188 83.2247C72.0188 83.2247 73.6005 88.0899 74.6212 90.2431C75.6418 92.3963 76.5678 94.4473 76.6489 95.3876C76.7301 96.3279 76.2772 98.3789 78.2239 99.6872C80.1705 100.995 80.6369 104.552 80.6369 104.552C80.6369 104.552 87.6937 111.475 91.4045 111.666C95.1154 111.857 105.788 113.71 105.417 115.591C105.045 117.471 109.871 118.589 111.818 119.052C113.764 119.516 99.2927 125.137 107.762 132.339C107.762 132.339 102.355 133.464 101.821 134.772C101.287 136.08 95.6088 134.022 95.6088 134.022C95.6088 134.022 94.3989 131.12 90.2014 130.936C86.0038 130.752 83.8949 128.892 83.8949 128.599C83.8949 128.306 79.7177 125.975 77.3992 125.321C75.0808 124.667 71.9918 124.388 71.9174 123.733C71.8431 123.079 58 62.9193 58 62.9193L62.4612 62.9465Z" fill="#192534"/>
<path d="M62.4612 62.9465L63.6711 61.5497C63.6711 61.5497 69.8829 71.4639 70.5385 75.1775C71.1942 78.8911 72.0188 83.2247 72.0188 83.2247C72.0188 83.2247 73.6005 88.0899 74.6212 90.2431C75.6418 92.3963 76.5678 94.4473 76.6489 95.3876C76.7301 96.3279 76.2772 98.3789 78.2239 99.6872C80.1705 100.995 80.6369 104.552 80.6369 104.552C80.6369 104.552 87.6937 111.475 91.4045 111.666C95.1154 111.857 105.788 113.71 105.417 115.591C105.045 117.471 109.871 118.589 111.818 119.052C113.764 119.516 99.2927 125.137 107.762 132.339C107.762 132.339 102.355 133.464 101.821 134.772C101.287 136.08 95.6088 134.022 95.6088 134.022C95.6088 134.022 94.3989 131.12 90.2014 130.936C86.0038 130.752 83.8949 128.892 83.8949 128.599C83.8949 128.306 79.7177 125.975 77.3992 125.321C75.0808 124.667 71.9918 124.388 71.9174 123.733C71.8431 123.079 58 62.9193 58 62.9193L62.4612 62.9465Z" fill="#E4572E"/>
<path d="M92 222.991H63.6368C62.1725 220.345 60.9623 217.713 61.2164 216.819C61.8315 214.805 60.9355 211.568 60.9355 211.568C60.9355 211.568 60.053 210.037 58.9832 208.21C57.6793 205.967 56.1014 203.274 55.5665 202.435C54.8978 201.367 53.2664 196.827 52.357 194.215C51.9692 193.107 51.6884 192.341 51.6884 192.341C51.6884 192.341 50.5852 212.669 49.6224 214.744C49.2078 215.638 48.693 219.217 48.2851 222.991H26.0198C25.8998 222.342 25.6999 221.71 25.4247 221.111C24.395 219.096 26.4544 212.186 26.4544 212.186C26.4544 212.186 24.4485 198.755 24.5287 196.7C24.609 194.645 22.8104 188.466 22.8104 188.466C22.8104 188.466 21.0185 185.29 21.433 184.316C21.8476 183.342 20.0556 180.864 20.537 179.756C21.0184 178.648 20.1225 175.264 19.1998 173.256C18.7384 172.228 18.1768 169.394 17.7288 166.883C17.6753 166.601 17.6285 166.325 17.5817 166.057C17.2407 164.042 17 162.397 17 162.397L20.624 159.462L20.7777 159.334L28.36 153.203L38.6903 150.483L39.3188 150.315L56.7031 145.735L64.145 143.331L66.2311 142.66L67.4212 142.27L77.8184 158.723C77.8184 158.723 78.7077 160.147 79.5836 161.9L79.8443 162.43C80.6601 164.143 81.3889 166.05 81.2618 167.232C81.0828 168.735 81.4227 170.255 82.2246 171.537C82.2246 171.537 88.4228 191.247 88.2824 196.921C88.142 202.596 90.4889 215.053 90.4889 215.053C90.4889 215.053 91.9933 219.754 92 222.991Z" fill="#1F2421"/>
<path d="M50.0156 63.5676C49.5683 63.3863 19.2139 50.9681 23.3954 48.5046C25.8758 47.0345 28.9254 40.8322 31.0195 35.9723C32.4834 32.5757 33.4728 29.837 33.4728 29.837C33.4728 29.837 57.8363 25.5544 49.1142 40.3489C47.7392 42.616 46.705 45.0695 46.0442 47.632C43.5435 57.7075 49.7987 63.3796 50.0156 63.5676Z" fill="#A0616A"/>
<path opacity="0.1" d="M49.1124 40.223C47.736 42.4644 46.7008 44.89 46.0394 47.4234C42.945 47.2116 39.9684 46.1776 37.4305 44.4327C34.8926 42.6879 32.8897 40.2984 31.6377 37.522C31.3953 36.9917 31.1824 36.4489 31 35.8961C32.4653 32.5381 33.4557 29.8305 33.4557 29.8305C33.4557 29.8305 57.8429 25.5965 49.1124 40.223Z" fill="black"/>
<path d="M64 30.2595C64.0027 34.5992 62.375 38.7787 59.445 41.9556C56.515 45.1326 52.5005 47.0708 48.2104 47.3798C43.9204 47.6888 39.6737 46.3456 36.3262 43.6208C32.9787 40.896 30.7792 36.9922 30.1709 32.6961C29.5627 28.3999 30.5909 24.0309 33.0484 20.4693C35.5058 16.9078 39.2099 14.4185 43.4141 13.5031C47.6183 12.5877 52.0101 13.3142 55.7045 15.5363C59.3989 17.7583 62.1213 21.3108 63.323 25.4777C63.7709 27.0315 63.9988 28.6413 64 30.2595Z" fill="#A0616A"/>
<path opacity="0.1" d="M80 162.186C78.2364 163.773 77.5524 166.796 77.5524 166.796C77.5524 166.796 69.2709 172.409 69.8208 168.849C70.3706 165.288 65.5425 150.913 65.5425 150.913L66.0924 170.523C66.0924 170.523 39.5781 169.294 37.6468 167.38C35.7156 165.467 24.3897 161.767 24.3897 161.767C24.3897 161.767 20.9228 164.524 17.7309 166.617C17.3085 164.258 17 162.179 17 162.179L28.3997 153.078L56.8452 145.691L67.5743 142.27L78.0017 158.552C78.7284 159.73 79.3953 160.942 80 162.186Z" fill="black"/>
<path d="M80.5302 160.556C78.339 161.958 77.5223 165.743 77.5223 165.743C77.5223 165.743 69.3154 171.494 69.8599 167.846C70.4044 164.197 65.6237 149.468 65.6237 149.468L66.1681 169.514C66.1681 169.514 39.9141 168.254 38.0019 166.294C36.0896 164.334 24.8749 160.542 24.8749 160.542C24.8749 160.542 15.1674 168.533 13.3879 167.832C11.6084 167.131 16.5286 153.538 16.5286 153.538L21.5881 73.8995C21.5881 73.8995 20.227 50.2122 22.2521 49.3954C22.57 49.2667 22.8625 49.0799 23.1153 48.844C24.4433 47.5984 24.8749 45.0731 24.9877 42.9494C25.1272 40.4241 28.4073 41.6834 28.4073 41.6834L26.495 44.2086L43.4399 54.7727L43.586 54.8611C44.2472 54.506 44.9278 54.1901 45.6244 53.915C47.125 53.3228 49.117 52.7715 50.425 53.3228C51.1553 53.7012 51.7741 54.2721 52.2178 54.9769C53.1843 56.4569 53.9609 58.0583 54.5285 59.7416L60.677 70.3941C60.677 70.3941 63.8243 84.5521 63.8243 85.117C63.8243 85.682 64.7804 98.5739 65.876 99.9761C66.9716 101.378 68.0671 108.382 67.6555 110.486C67.2438 112.589 68.3195 120.437 68.3195 120.437C72.8279 124.222 75.1519 137.12 75.1519 137.12C75.1519 137.12 82.2632 151.557 82.8143 153.245C83.3654 154.934 82.7147 159.154 80.5302 160.556Z" fill="#F2F2F2"/>
<path opacity="0.1" d="M43 55.5715C41.36 58.0579 36.6426 61.5495 36.6426 61.5495L23 49.7343C24.3068 48.5079 24.7315 46.0215 24.8425 43.9306C24.9797 41.4442 28.2074 42.6908 28.2074 42.6908L27.8154 43.2068C27.6283 43.4545 27.4944 43.7399 27.4223 44.0444C27.3503 44.3489 27.3417 44.6656 27.3972 44.9737C27.4527 45.2818 27.5711 45.5744 27.7445 45.8324C27.9179 46.0903 28.1424 46.3078 28.4035 46.4706L43 55.5715Z" fill="black"/>
<path d="M43 55.2581C41.36 57.8678 36.6426 61.5496 36.6426 61.5496L23 49.1147C24.3068 47.824 24.7315 45.2072 24.8425 43.0066C24.9797 40.3899 28.2074 41.6947 28.2074 41.6947L27.8154 42.2378C27.6283 42.4985 27.4944 42.7989 27.4223 43.1194C27.3503 43.4398 27.3417 43.7731 27.3972 44.0974C27.4527 44.4216 27.5711 44.7296 27.7445 45.0011C27.9179 45.2726 28.1424 45.5014 28.4035 45.6727L43 55.2581Z" fill="#F2F2F2"/>
<path opacity="0.1" d="M50 56.7198C48.1434 58.9582 45.5236 61.4876 45.6405 60.1848C45.7574 58.8819 44.0727 56.1099 43 54.8556C44.6817 54.3178 46.4944 54.3691 48.1434 55.0011C48.9039 55.3959 49.5452 55.9895 50 56.7198Z" fill="black"/>
<path d="M50 56.1691C48.3746 58.1237 46.0665 60.3452 46.1692 59.2344C46.2719 58.1237 44.9607 56.3209 44 55.2222C45.3656 54.6942 47.1783 54.1964 48.3686 54.6881C49.0344 55.0265 49.5977 55.5379 50 56.1691Z" fill="#F2F2F2"/>
<path d="M46 67.6037C46.5523 67.6037 47 67.152 47 66.5947C47 66.0374 46.5523 65.5857 46 65.5857C45.4477 65.5857 45 66.0374 45 66.5947C45 67.152 45.4477 67.6037 46 67.6037Z" fill="#192534"/>
<path d="M54 97.8738C54.5523 97.8738 55 97.422 55 96.8647C55 96.3075 54.5523 95.8557 54 95.8557C53.4477 95.8557 53 96.3075 53 96.8647C53 97.422 53.4477 97.8738 54 97.8738Z" fill="#192534"/>
<path d="M63.5 128.144C64.3284 128.144 65 127.693 65 127.135C65 126.578 64.3284 126.126 63.5 126.126C62.6716 126.126 62 126.578 62 127.135C62 127.693 62.6716 128.144 63.5 128.144Z" fill="#192534"/>
<path d="M64 161.441C64.5523 161.441 65 160.99 65 160.432C65 159.875 64.5523 159.423 64 159.423C63.4477 159.423 63 159.875 63 160.432C63 160.99 63.4477 161.441 64 161.441Z" fill="#192534"/>
<path d="M50.5 81.7297C51.3284 81.7297 52 81.2779 52 80.7207C52 80.1634 51.3284 79.7117 50.5 79.7117C49.6716 79.7117 49 80.1634 49 80.7207C49 81.2779 49.6716 81.7297 50.5 81.7297Z" fill="#192534"/>
<path d="M58 113.009C58.5523 113.009 59 112.557 59 112C59 111.443 58.5523 110.991 58 110.991C57.4477 110.991 57 111.443 57 112C57 112.557 57.4477 113.009 58 113.009Z" fill="#192534"/>
<path d="M65 143.279C65.5523 143.279 66 142.828 66 142.27C66 141.713 65.5523 141.261 65 141.261C64.4477 141.261 64 141.713 64 142.27C64 142.828 64.4477 143.279 65 143.279Z" fill="#192534"/>
<path d="M64 165.477C64.5523 165.477 65 165.026 65 164.468C65 163.911 64.5523 163.459 64 163.459C63.4477 163.459 63 163.911 63 164.468C63 165.026 63.4477 165.477 64 165.477Z" fill="#192534"/>
<path opacity="0.1" d="M22.9465 49.9277C22.9465 49.9277 23.131 48.2474 20.6908 51.1338C18.2505 54.0202 13.6571 56.5543 13.6571 56.5543C13.6571 56.5543 3.2399 63.8109 2.67256 67.1649C2.10521 70.5188 -1.26466 85.0254 0.512555 89.8632C2.28977 94.701 15.906 117.86 15.906 117.86C15.906 117.86 12.3379 122.047 13.1718 126.98C14.0057 131.913 15.0515 138.702 14.5799 140.186C14.1082 141.67 15.1404 145.396 13.5477 146.697C11.9551 147.998 10.2599 150.234 15.2361 153.215C15.2361 153.215 16.1725 155.722 15.3318 156.285C14.491 156.847 27.8133 162.606 33.0697 159.537C38.3262 156.467 47.8001 131.906 47.9915 126.418C48.1829 120.929 45.0933 102.777 43.3776 98.4953C41.6619 94.2131 36.6173 77.5654 34.4915 73.8456C32.3657 70.1258 22.9465 49.9277 22.9465 49.9277Z" fill="black"/>
<path d="M22.447 49.9278C22.447 49.9278 22.6343 48.2472 20.2466 51.134C17.859 54.0207 13.3579 56.5551 13.3579 56.5551C13.3579 56.5551 3.16529 63.8127 2.61687 67.167C2.06845 70.5214 -1.24215 85.0297 0.503434 89.8681C2.24902 94.7065 15.5717 117.855 15.5717 117.855C15.5717 117.855 12.0805 122.043 12.8964 126.976C13.7124 131.909 14.729 138.699 14.2742 140.183C13.8194 141.667 14.8226 145.394 13.2643 146.695C11.706 147.996 10.0473 150.233 14.9162 153.214C14.9162 153.214 15.8325 155.722 15.0032 156.284C14.1739 156.846 27.2156 162.606 32.3922 159.537C37.5688 156.467 46.8117 131.902 46.9923 126.413C47.1728 120.925 44.1498 102.784 42.4979 98.5013C40.8459 94.2186 35.8834 77.5689 33.7699 73.8486C31.6565 70.1283 22.447 49.9278 22.447 49.9278Z" fill="#E4572E"/>
<path opacity="0.1" d="M19 65.5857C19 65.5857 26.2451 74.657 25.9936 80.7208C25.9936 80.7208 26.0795 70.9517 19 65.5857Z" fill="black"/>
<path opacity="0.1" d="M30 80.7207C30 81.0005 35.3058 100.752 35.0074 103.223C34.7089 105.695 36.5461 113.009 36.5461 113.009L39 112.343C39 112.343 37.0899 102.191 36.7251 98.4403C36.3604 94.6899 30 80.7207 30 80.7207Z" fill="black"/>
<path opacity="0.1" d="M32 138.234C31.8071 138.504 19.0422 152.331 22.6382 153.325C26.2341 154.319 32 138.234 32 138.234Z" fill="black"/>
<path opacity="0.1" d="M22 134.198C21.704 134.385 16.6497 144.279 16.0504 141.624C15.4511 138.968 20.3826 148.855 21.2057 141.53L22 134.198Z" fill="black"/>
<path opacity="0.1" d="M45.231 53.0772C45.231 53.0772 50.4352 49.9067 56.9642 58.0361C56.9642 58.0361 61.7199 60.7459 63.1195 61.3827C64.519 62.0195 66.102 79.3351 66.102 79.3351C66.102 79.3351 69.1797 86.787 68.344 91.0549C67.5084 95.3228 70.7695 110.023 70.7695 110.023C70.7695 110.023 76.2046 136.444 75.994 137.182C75.7834 137.921 70.4909 128.904 70.5589 124.44C70.6268 119.975 66.0816 106.027 65.4294 105.186C64.7772 104.346 60.3 80.4461 60.3 80.4461C60.3 80.4461 56.6652 70.2844 54.3281 66.9581C51.991 63.6318 49.1103 57.2841 47.8942 56.1663C47.0216 55.4153 46.0473 54.7904 45 54.3101L45.231 53.0772Z" fill="black"/>
<path d="M45.1668 53.0753C45.1668 53.0753 50.8919 49.9173 57.3043 58.0088C57.3043 58.0088 61.9751 60.7195 63.3496 61.3566C64.7242 61.9936 66.2855 79.3151 66.2855 79.3151C66.2855 79.3151 69.3082 86.7696 68.4808 91.039C67.6534 95.3084 70.8629 110.014 70.8629 110.014C70.8629 110.014 76.201 136.444 75.9941 137.182C75.7873 137.921 70.5893 128.901 70.6561 124.435C70.7228 119.969 66.2589 106.016 65.6183 105.175C64.9777 104.335 60.5738 80.4265 60.5738 80.4265C60.5738 80.4265 57.004 70.2613 54.7153 66.9339C52.4266 63.6065 49.5841 57.2566 48.3897 56.1384C47.3723 55.3278 46.2258 54.6997 45 54.2816L45.1668 53.0753Z" fill="#E4572E"/>
<path d="M71 111.561C71 111.561 81.8434 104.402 87.0793 107.934C92.3152 111.467 100.882 116.478 92.4545 120.104C84.0267 123.73 72.367 123.048 72.367 123.048L71 111.561Z" fill="#A0616A"/>
<path opacity="0.1" d="M63.4314 181.721C61.8123 185.289 60.4851 203.189 59.576 208.865C58.2821 206.586 56.716 203.858 56.1852 203.005C55.5216 201.92 53.9025 197.309 53 194.655C54.0285 192.084 56.8819 184.709 56.8819 182.001C56.8819 178.699 62.0777 174.559 62.0777 174.559C63.0118 175.452 63.6461 176.626 63.8894 177.913C64.1327 179.201 63.9723 180.534 63.4314 181.721Z" fill="black"/>
<path opacity="0.1" d="M63 25.6109C62.7407 25.7573 62.4668 25.8747 62.1831 25.9612C60.8908 26.3183 59.6252 25.4255 58.4735 24.7113C57.3218 23.9971 55.7416 23.4684 54.7506 24.3954C53.4516 25.5972 54.389 28.1793 53.0565 29.3467C52.2062 30.0884 50.867 29.8343 49.9229 30.4455C48.9787 31.0567 48.7042 32.3752 48.4631 33.5289C48.2221 34.6825 47.7534 35.9804 46.6552 36.3169C45.5571 36.6534 44.546 35.9186 43.4613 35.9599C43.2403 35.9599 42.9792 35.9942 42.7917 35.8294C42.6952 35.6772 42.657 35.4937 42.6846 35.3143C42.8257 33.9307 42.7075 32.5321 42.3364 31.194C42.1434 30.5324 41.7826 29.9352 41.2908 29.4635C40.7991 28.9917 40.194 28.6623 39.5375 28.5089C37.5957 28.1999 35.9686 29.9373 34.8503 31.5717C33.6547 33.2947 32.5656 35.0928 31.5894 36.9556C31.5425 37.0517 31.489 37.1822 31.4287 37.3333C30.499 35.1695 30.0128 32.8327 30.0002 30.4682C29.9877 28.1036 30.4491 25.7616 31.3559 23.5875C32.2626 21.4134 33.5954 19.4537 35.2713 17.8298C36.9473 16.206 38.9308 14.9527 41.0988 14.1477C43.2667 13.3428 45.5728 13.0034 47.874 13.1505C50.1751 13.2977 52.4222 13.9282 54.4759 15.0031C56.5295 16.078 58.3459 17.5743 59.8122 19.399C61.2785 21.2238 62.3636 23.3382 63 25.6109Z" fill="black"/>
<path d="M34.8129 31.1301C35.9517 29.4896 37.5796 27.7457 39.5022 28.0559C40.1585 28.2112 40.7632 28.5422 41.255 29.0156C41.7467 29.4889 42.1081 30.0876 42.3024 30.751C42.6737 32.0941 42.792 33.4979 42.6508 34.8867C42.6357 34.9764 42.638 35.0682 42.6575 35.1569C42.6771 35.2457 42.7135 35.3295 42.7647 35.4037C42.9121 35.5691 43.1733 35.5416 43.3944 35.5347C44.4729 35.4933 45.5515 36.2239 46.5898 35.8931C47.6282 35.5622 48.1574 34.2457 48.3986 33.0877C48.6398 31.9297 48.8876 30.6269 49.859 29.9997C50.8303 29.3724 52.1434 29.6412 52.9941 28.8968C54.334 27.725 53.3827 25.1333 54.6823 23.9201C55.6805 22.9965 57.2681 23.5272 58.4137 24.2441C59.5592 24.961 60.832 25.857 62.1249 25.4986C62.5539 25.3378 62.9743 25.1538 63.3844 24.9472C65.4276 24.1476 68.0737 25.5055 69.7619 24.0649C70.3722 23.437 70.8112 22.6549 71.0347 21.7971C71.496 20.6374 71.809 19.421 71.9659 18.1783C72.1138 16.9232 71.7771 15.6584 71.028 14.6561C69.9361 13.3257 68.0871 12.9949 66.687 12.0161C65.5518 11.0985 64.6085 9.95434 63.9136 8.65236C63.2261 7.34914 62.3187 6.18215 61.234 5.20591C60.0884 4.30984 58.4673 3.88248 57.2145 4.55109C56.8051 4.84047 56.3526 5.05931 55.8747 5.19902C55.3594 5.20855 54.8524 5.06495 54.4143 4.78545C49.6245 2.46943 44.0576 2.87612 38.8122 3.56541C36.6996 3.74343 34.627 4.25972 32.6692 5.09563C31.6917 5.52134 30.8151 6.15932 30.0994 6.96592C29.3837 7.77252 28.8458 8.7287 28.5225 9.76902C28.0937 11.4371 28.422 13.2155 27.9062 14.8904C27.5578 16.0071 26.841 16.9583 26.4324 18.0543C25.3136 21.0458 26.6535 24.3337 27.2229 27.4906C27.8392 30.9371 27.5243 34.6662 28.9512 37.9196C29.2326 38.5606 29.5407 39.6842 30.2441 39.2568C30.7667 38.9466 31.2691 37.1269 31.584 36.5617C32.5513 34.6849 33.6296 32.871 34.8129 31.1301Z" fill="#1F2421"/>
<path d="M4.49499 85.5769L2 92.7072C2 92.7072 7.91133 114.752 10.682 119.38C13.4528 124.008 17.5147 129.944 17.5147 129.944C22.1496 132.036 27.305 132.68 32.3098 131.792C40.2521 130.221 63.4267 126.052 63.4267 126.052C63.4267 126.052 65.3702 126.423 66.3857 124.939C67.4012 123.455 72.6602 122.719 72.6602 122.719C72.6602 122.719 78.7531 113.828 71.2748 110.118C71.2748 110.118 70.3535 112.142 66.3857 110.793C62.4179 109.444 61.2141 111.899 61.2141 111.899C61.2141 111.899 54.7513 113.201 51.1265 112.735C47.5017 112.27 38.5709 112.061 37.6764 111.346C37.4425 111.137 37.1357 111.03 36.8231 111.048C36.5105 111.065 36.2176 111.206 36.0086 111.44C36.0086 111.44 33.7961 110.604 33.0563 109.774C32.3165 108.944 31.3011 110.698 31.3011 110.698C31.3011 110.698 30.0099 109.956 30.3797 109.032C30.7496 108.108 29.176 104.587 29.176 104.587C28.763 103.237 28.6686 101.81 28.9002 100.418C29.3643 98.5626 26.5935 91.8977 26.5935 91.8977C26.555 90.7725 26.6796 89.6477 26.9634 88.5585C27.4274 86.8923 23.4529 83.5599 23.4529 83.5599C23.4529 83.5599 19.5793 64.6716 11.3478 70.871C3.11636 77.0704 4.49499 85.5769 4.49499 85.5769Z" fill="#E4572E"/>
<path d="M4.45441 85.5771L2 92.7075C2 92.7075 7.82425 114.753 10.5573 119.381C13.2903 124.008 17.297 129.945 17.297 129.945C21.8691 132.036 26.954 132.68 31.8907 131.793C39.725 130.221 62.5842 126.052 62.5842 126.052C62.5842 126.052 64.4946 126.423 65.4963 124.939C66.4979 123.455 71.692 122.72 71.692 122.72C71.692 122.72 77.702 113.829 70.3255 110.119C70.3255 110.119 69.4167 112.142 65.4963 110.793C61.5758 109.444 60.3951 111.9 60.3951 111.9C60.3951 111.9 54.0202 113.201 50.4448 112.736C46.8693 112.271 38.0599 112.061 37.1445 111.346C36.9149 111.138 36.6133 111.031 36.306 111.049C35.9988 111.066 35.711 111.207 35.506 111.441C35.506 111.441 33.3236 110.604 32.5939 109.775C31.8642 108.945 30.8625 110.699 30.8625 110.699C30.8625 110.699 29.5889 109.957 29.9538 109.033C30.3186 108.108 28.7663 104.587 28.7663 104.587C28.3553 103.238 28.2622 101.81 28.4944 100.418C28.9521 98.5629 26.2191 91.898 26.2191 91.898C26.1811 90.7728 26.304 89.648 26.5839 88.5588C27.035 86.8925 23.1212 83.56 23.1212 83.56C23.1212 83.56 19.2936 64.6716 11.1808 70.871C3.068 77.0705 4.45441 85.5771 4.45441 85.5771Z" fill="#E4572E"/>
<path opacity="0.1" d="M63.7515 116.036C63.6449 116.653 61.3458 119.005 62.1832 119.425C63.0206 119.845 64.3757 119.598 63.1196 120.95C61.8635 122.302 61.97 124.345 62.8075 124.086C63.6449 123.826 65 120.783 65 119.598C65 118.413 63.7515 116.036 63.7515 116.036Z" fill="black"/>
<path opacity="0.1" d="M37 114.018C37 114.018 36.3786 120.893 31.347 122.86C26.3155 124.827 37 114.018 37 114.018Z" fill="black"/>
<path opacity="0.1" d="M27 112C26.7496 112.1 21.1306 115.62 23.6469 117.7C26.1633 119.781 27 112 27 112Z" fill="black"/>
<path opacity="0.1" d="M27 106.955C27 106.955 17.4439 108.961 20.6624 110.66C23.8809 112.36 27 106.955 27 106.955Z" fill="black"/>
<defs>
<linearGradient id="paint0_linear" x1="300.428" y1="224.082" x2="300.428" y2="-0.00813428" gradientUnits="userSpaceOnUse">
<stop stop-color="#808080" stop-opacity="0.25"/>
<stop offset="0.54" stop-color="#808080" stop-opacity="0.12"/>
<stop offset="1" stop-color="#808080" stop-opacity="0.1"/>
</linearGradient>
</defs>
</svg>
