<svg width="324" height="231" viewBox="0 0 324 231" fill="none" xmlns="http://www.w3.org/2000/svg">
<path d="M284.366 199.194H228.879V199.857H284.366V199.194Z" fill="#1F2421"/>
<path d="M145.679 70.2278L45.7053 20.8038L4.40374 104.058L104.377 153.482L145.679 70.2278Z" fill="#CFCCE0"/>
<path d="M141.275 56.1603L41.3016 6.73633L5.68626e-05 89.9909L99.9738 139.415L141.275 56.1603Z" fill="white"/>
<path d="M98.4325 75.2673L98.1947 74.8541L70.8674 90.5356V74.5991L95.9852 61.0263L95.7582 60.6072L70.8674 74.0575V58.5381L85.1763 45.2519L84.8516 44.9028L70.8674 57.8872V39.5615H70.39V57.9071L55.1296 44.494L54.8143 44.8518L70.39 58.5422V74.0546L44.1182 59.6482L43.8883 60.0656L70.39 74.5982V90.53L41.4519 77.2775L41.2528 77.711L70.39 91.0544V109.353H70.8674V91.0854L98.4325 75.2673Z" fill="#CFCCE0"/>
<path d="M75.2515 111.098H75.2467L75.23 111.036L74.9794 110.067C75.1728 110.026 75.3661 109.979 75.5546 109.929C72.674 109.064 69.8243 109.29 67.4782 109.831H67.4735C66.8768 109.967 66.316 110.126 65.7933 110.293C66.0964 110.346 66.3995 110.396 66.7074 110.436L66.5625 111.036H66.5427L65.3494 115.494L69.0272 115.48L76.3804 115.449L75.2515 111.098Z" fill="#1F2421"/>
<path d="M131.139 115.661H18.8569V22.1572H131.139V115.661ZM19.4441 115.075H130.551V22.7434H19.4441V115.075Z" fill="#3F3D56"/>
<path d="M136.573 25.071C136.573 25.2354 136.568 25.3974 136.554 25.557C136.482 26.5464 136.189 27.5073 135.698 28.3696C135.207 29.2319 134.529 29.974 133.714 30.5417C132.899 31.1095 131.968 31.4887 130.987 31.6516C130.007 31.8146 129.003 31.7572 128.048 31.4837C127.092 31.2102 126.21 30.7274 125.465 30.0706C124.721 29.4137 124.132 28.5993 123.743 27.6867C123.353 26.774 123.172 25.7862 123.214 24.795C123.255 23.8038 123.517 22.8343 123.981 21.9571C124.125 21.6822 124.289 21.4186 124.473 21.1685C125.272 20.062 126.392 19.2268 127.681 18.7755C128.971 18.3242 130.368 18.2786 131.684 18.6448C133.001 19.0109 134.173 19.7713 135.043 20.8232C135.913 21.8752 136.438 23.1682 136.549 24.5278C136.566 24.7065 136.573 24.8876 136.573 25.071Z" fill="#CFCCE0"/>
<path d="M138.702 21.8641C138.702 22.0285 138.697 22.1905 138.683 22.3501C138.611 23.3395 138.318 24.3004 137.827 25.1627C137.336 26.025 136.658 26.7671 135.843 27.3348C135.028 27.9026 134.097 28.2817 133.116 28.4447C132.136 28.6076 131.132 28.5503 130.177 28.2768C129.221 28.0033 128.339 27.5205 127.595 26.8636C126.85 26.2068 126.261 25.3924 125.872 24.4798C125.482 23.5671 125.301 22.5792 125.343 21.5881C125.384 20.5969 125.646 19.6274 126.11 18.7502C126.254 18.4753 126.418 18.2116 126.602 17.9616C127.401 16.8551 128.521 16.0199 129.81 15.5686C131.1 15.1173 132.497 15.0717 133.813 15.4378C135.13 15.804 136.302 16.5644 137.172 17.6163C138.042 18.6683 138.567 19.9613 138.678 21.3209C138.695 21.4996 138.702 21.6806 138.702 21.8641Z" fill="white"/>
<path d="M138.702 21.8642C138.702 22.0286 138.697 22.1906 138.683 22.3502L128.678 21.1494L138.678 21.3209C138.695 21.4996 138.702 21.6807 138.702 21.8642Z" fill="#3F3D56"/>
<path d="M136.315 25.2258L127.06 26.3385C126.797 26.0461 126.561 25.7312 126.354 25.3974L136.315 25.2258Z" fill="#3F3D56"/>
<path d="M133.69 17.8401L126.11 18.7502C126.254 18.4753 126.418 18.2117 126.602 17.9616L133.69 17.8401Z" fill="#3F3D56"/>
<path d="M112.137 119.656C114.51 119.656 116.433 117.736 116.433 115.368C116.433 112.999 114.51 111.079 112.137 111.079C109.765 111.079 107.841 112.999 107.841 115.368C107.841 117.736 109.765 119.656 112.137 119.656Z" fill="#1F2421"/>
<path d="M75.0665 27.2153C77.439 27.2153 79.3624 25.2953 79.3624 22.9268C79.3624 20.5583 77.439 18.6383 75.0665 18.6383C72.6939 18.6383 70.7705 20.5583 70.7705 22.9268C70.7705 25.2953 72.6939 27.2153 75.0665 27.2153Z" fill="#1F2421"/>
<path d="M19.2192 56.2689C21.5917 56.2689 23.5151 54.3489 23.5151 51.9804C23.5151 49.6119 21.5917 47.6919 19.2192 47.6919C16.8466 47.6919 14.9232 49.6119 14.9232 51.9804C14.9232 54.3489 16.8466 56.2689 19.2192 56.2689Z" fill="#E4572E"/>
<path d="M266.908 188.132H253.533V201.484H266.908V188.132Z" fill="#CFCCE0"/>
<path d="M265.148 199.728H251.069V185.673H265.148V199.728ZM251.773 199.025H264.444V186.376H251.773L251.773 199.025Z" fill="#1F2421"/>
<path d="M213.257 9.88559C207.677 0.474116 196.638 0.0355019 196.638 0.0355019C196.638 0.0355019 185.882 -1.33767 178.981 12.9961C172.55 26.3564 163.673 39.256 177.552 42.3835L180.059 34.5942L181.612 42.9634C183.588 43.1053 185.57 43.1391 187.55 43.0648C202.414 42.5857 216.569 43.2049 216.113 37.8805C215.507 30.8025 218.625 18.9413 213.257 9.88559Z" fill="#1F2421"/>
<path d="M184.323 99.3529L179.917 95.169L170.89 83.5828L164.34 86.6549L174.974 100.318L179.582 106.4L179.595 106.433C179.595 106.433 187.117 115.445 192.276 111.583C197.434 107.721 184.323 99.3529 184.323 99.3529Z" fill="#FFB9B9"/>
<path d="M222.366 84.9774L217.96 80.7935L213.017 85.9429L217.625 92.024L217.638 92.0579C217.638 92.0579 225.161 101.069 230.319 97.2073C235.477 93.3452 222.366 84.9774 222.366 84.9774Z" fill="#FFB9B9"/>
<path d="M213.232 75.0004L220.969 82.081L216.026 84.8702L208.933 76.2878L213.232 75.0004Z" fill="white"/>
<path d="M213.662 41.7435C213.662 41.7435 216.671 39.1688 217.96 47.5367C219.25 55.9045 215.811 58.9083 215.811 58.9083L213.662 41.7435Z" fill="white"/>
<path d="M195.822 32.5174C202.113 32.5174 207.214 27.4262 207.214 21.1457C207.214 14.8653 202.113 9.77405 195.822 9.77405C189.531 9.77405 184.431 14.8653 184.431 21.1457C184.431 27.4262 189.531 32.5174 195.822 32.5174Z" fill="#FFB9B9"/>
<path d="M188.944 27.5825C188.944 27.5825 187.44 34.8776 181.422 35.7358C175.404 36.594 165.947 39.5979 167.236 45.391C168.526 51.1841 204.634 50.5405 204.634 50.5405L211.082 40.6707C211.082 40.6707 197.757 37.2377 199.046 29.5136L188.944 27.5825Z" fill="#FFB9B9"/>
<path d="M206.676 39.0616C206.676 39.0616 198.186 45.3911 178.198 44.962C178.198 44.962 166.902 46.7791 168.574 40.9357C168.574 40.9357 167.236 38.9543 165.946 45.1765C164.657 51.3988 154.985 72.6402 155.845 73.4985L159.069 76.7169L166.161 90.4487L173.684 86.1576L171.105 80.579C171.105 80.579 176.048 84.6556 178.413 78.6479C178.413 78.6479 180.347 84.4411 184.431 84.6556C188.514 84.8702 214.951 77.3606 214.951 77.3606C214.951 77.3606 213.447 71.3529 214.951 68.7782C216.456 66.2034 218.82 61.054 217.745 57.1919L215.811 41.7436C215.811 41.7436 207.751 38.4179 206.676 39.0616Z" fill="white"/>
<path d="M184.753 84.3337L185.505 90.4487C185.505 90.4487 178.628 95.5981 179.702 114.05L158.209 203.522C158.209 203.522 162.293 208.886 173.039 208.457C183.786 208.028 204.634 122.633 204.634 122.633C204.634 122.633 198.831 206.311 205.924 208.457C213.017 210.602 223.119 209.53 223.119 209.53L229.782 97.5291C229.782 97.5291 223.119 86.372 219.25 84.2264C215.381 82.0808 213.877 76.7168 213.877 76.7168L184.753 84.3337Z" fill="#1F2421"/>
<path d="M159.284 202.449L158.209 210.388C158.209 210.388 148.322 231.629 157.349 230.986C166.376 230.342 166.591 217.254 166.591 217.254L168.311 206.097L159.284 202.449Z" fill="#1F2421"/>
<path d="M215.596 202.449L216.671 210.388C216.671 210.388 226.558 231.629 217.53 230.986C208.503 230.342 208.288 217.254 208.288 217.254L206.569 206.097L215.596 202.449Z" fill="#1F2421"/>
<path d="M210.79 9.40735L199.884 3.70471L184.824 6.03758L181.708 19.776L189.464 19.4783L191.631 14.4309V19.395L195.21 19.2576L197.287 11.2218L198.586 19.776L211.309 19.5166L210.79 9.40735Z" fill="#1F2421"/>
<path d="M269.813 111.808C263.423 111.945 258.34 116.568 258.34 116.568C258.34 116.568 263.617 120.969 270.007 120.832C276.397 120.695 281.48 116.072 281.48 116.072C281.48 116.072 276.203 111.672 269.813 111.808Z" fill="#575656"/>
<path d="M301.939 90.0337C296.166 92.7717 289.546 90.915 289.546 90.915C289.546 90.915 292.286 84.6193 298.059 81.8813C303.832 79.1434 310.452 81 310.452 81C310.452 81 307.712 87.2958 301.939 90.0337Z" fill="#575656"/>
<path d="M301.352 87.3129C294.987 86.7322 289.416 90.7556 289.416 90.7556C289.416 90.7556 294.164 95.7204 300.529 96.3011C306.894 96.8818 312.466 92.8584 312.466 92.8584C312.466 92.8584 307.717 87.8936 301.352 87.3129Z" fill="#1F2421"/>
<path d="M278.02 88.413C278.63 94.7643 274.625 100.344 274.625 100.344C274.625 100.344 269.63 95.6258 269.02 89.2745C268.41 82.9232 272.415 77.3436 272.415 77.3436C272.415 77.3436 277.41 82.0616 278.02 88.413Z" fill="#1F2421"/>
<path d="M248.044 127.365C251.382 132.806 250.234 139.574 250.234 139.574C250.234 139.574 243.672 137.521 240.334 132.08C236.995 126.639 238.144 119.871 238.144 119.871C238.144 119.871 244.705 121.925 248.044 127.365Z" fill="#1F2421"/>
<path d="M257.729 186.522L257.243 186.194C258.958 183.709 259.894 180.772 259.933 177.755C259.919 173.342 257.748 169.261 255.648 165.313C255.258 164.581 254.87 163.85 254.496 163.12C252.927 160.144 251.677 157.011 250.766 153.774C247.509 141.69 250.716 127.434 259.345 115.638C266.19 106.281 276.393 98.0981 290.539 90.6227L290.814 91.1407C276.749 98.5735 266.61 106.7 259.819 115.984C251.294 127.638 248.122 141.708 251.333 153.621C252.234 156.819 253.469 159.914 255.019 162.854C255.391 163.581 255.778 164.308 256.167 165.038C258.3 169.049 260.506 173.196 260.52 177.754C260.481 180.888 259.51 183.94 257.729 186.522Z" fill="#1F2421"/>
<path d="M318.422 92.3929C321.503 92.3929 324 89.8999 324 86.8245C324 83.7492 321.503 81.2561 318.422 81.2561C315.341 81.2561 312.844 83.7492 312.844 86.8245C312.844 89.8999 315.341 92.3929 318.422 92.3929Z" fill="#1F2421"/>
</svg>
