<svg width="331" height="239" viewBox="0 0 331 239" fill="none" xmlns="http://www.w3.org/2000/svg">
<g clip-path="url(#clip0)">
<path d="M64.8667 40.0494C71.2478 40.0494 76.4207 34.8613 76.4207 28.4614C76.4207 22.0615 71.2478 16.8734 64.8667 16.8734C58.4857 16.8734 53.3128 22.0615 53.3128 28.4614C53.3128 34.8613 58.4857 40.0494 64.8667 40.0494Z" fill="#1F2421"/>
<path d="M56.711 35.4293C56.711 35.4293 57.6172 45.1239 55.5027 47.8505C53.3883 50.5771 56.862 55.8788 56.862 55.8788L63.2054 63.4527L72.5694 59.2113L73.9287 51.3345L73.0225 45.8813C73.0225 45.8813 69.8508 42.7003 71.2101 36.9441C72.5694 31.1879 56.711 35.4293 56.711 35.4293Z" fill="#FFB9B9"/>
<path opacity="0.1" d="M56.711 35.4293C56.711 35.4293 57.6172 45.1239 55.5027 47.8505C53.3883 50.5771 56.862 55.8788 56.862 55.8788L63.2054 63.4527L72.5694 59.2113L73.9287 51.3345L73.0225 45.8813C73.0225 45.8813 69.8508 42.7003 71.2101 36.9441C72.5694 31.1879 56.711 35.4293 56.711 35.4293Z" fill="black"/>
<path d="M62.1482 216.748V222.959L70.4549 224.625L69.6997 214.325L62.1482 216.748Z" fill="#FFB9B9"/>
<path d="M87.0686 214.325L85.256 222.959L88.8809 225.534L95.2244 220.838L94.4692 213.415L87.0686 214.325Z" fill="#FFB9B9"/>
<path d="M71.2101 223.868C71.2101 223.868 68.0384 218.491 62.1482 221.861C62.1482 221.861 61.0909 227.806 60.0337 228.26C58.9765 228.715 53.0862 237.349 60.0337 238.106C66.9812 238.864 70.455 236.592 70.455 236.592C70.455 236.592 69.0957 237.765 71.2101 237.159C73.3246 236.553 72.4184 233.22 72.4184 233.22L71.2101 223.868Z" fill="#F2F2F2"/>
<path d="M91.9015 220.232C91.9015 220.232 87.2195 223.565 86.4643 222.05C85.7092 220.535 84.5009 220.687 84.5009 220.687C84.5009 220.687 80.272 236.675 82.9906 237.433C84.7411 237.865 86.5799 237.77 88.2767 237.159C88.2767 237.159 91.9015 234.613 91.9015 236.582C91.9015 238.551 102.021 238.409 106.25 238.258C110.478 238.106 108.213 234.925 108.213 234.925L102.625 229.472L96.2814 220.232C96.2814 220.232 93.4118 217.657 91.9015 220.232Z" fill="#F2F2F2"/>
<path d="M47.347 118.894L53.6903 179.939C53.6903 179.939 57.1641 217.203 57.7682 217.808C58.3723 218.414 62.2992 220.384 70.908 217.808L68.9446 169.033L72.5694 138.737L80.8761 159.641C80.8761 159.641 82.8396 215.839 84.1988 215.839C85.5581 215.839 93.8649 218.566 95.8283 215.233C97.7917 211.901 97.4897 176.001 97.4897 176.001C97.4897 176.001 96.5835 119.348 89.9381 117.53C83.2926 115.712 47.347 118.894 47.347 118.894Z" fill="#1F2421"/>
<path d="M64.8667 41.034C70.6222 41.034 75.2879 36.3545 75.2879 30.5821C75.2879 24.8096 70.6222 20.1301 64.8667 20.1301C59.1112 20.1301 54.4455 24.8096 54.4455 30.5821C54.4455 36.3545 59.1112 41.034 64.8667 41.034Z" fill="#FFB9B9"/>
<path d="M65.4709 59.6658C65.4709 59.6658 64.4136 53.1523 64.4136 51.9405C64.4136 50.7286 59.7316 49.9712 59.7316 49.9712C59.7316 49.9712 56.1069 45.8814 55.3517 46.4873C54.5965 47.0932 43.1181 54.8185 41.3057 55.8789C39.4933 56.9392 37.5299 61.4835 37.6809 61.7865C37.832 62.0895 47.196 81.7816 47.196 81.7816C47.196 81.7816 51.2738 93.8998 48.4042 100.262C45.5346 106.624 41.9098 119.197 47.196 121.772C52.4821 124.347 78.1576 129.951 82.8396 125.104C87.5216 120.257 90.8443 118.894 92.0525 118.894C93.2608 118.894 87.0685 97.8382 88.4278 95.869C89.7871 93.8998 87.8236 81.6301 87.8236 81.6301L94.7711 62.0895C94.7711 62.0895 94.167 51.1831 80.4231 48.7594L72.2009 44.7611L65.4709 59.6658Z" fill="#E4572E"/>
<path d="M37.2278 121.62C37.2278 121.62 36.4727 128.891 36.4727 131.012C36.4727 133.132 32.8479 145.554 38.134 147.068C43.4201 148.583 42.9671 130.557 42.9671 130.557V121.317L37.2278 121.62Z" fill="#FFB9B9"/>
<path d="M99.9062 114.804C99.9062 114.804 100.812 121.772 100.359 123.286C99.9062 124.801 104.739 137.98 98.2449 138.737C91.7505 139.494 93.4118 122.983 93.4118 122.983V114.804L99.9062 114.804Z" fill="#FFB9B9"/>
<path d="M39.9464 59.9688L37.6809 61.7865C37.6809 61.7865 34.6603 109.956 35.4154 113.592C36.1706 117.227 32.6969 122.378 35.7175 122.832C38.7382 123.286 42.3629 125.256 44.0243 124.044C45.6857 122.832 45.9877 118.439 46.5918 117.379C47.196 116.318 48.2532 103.746 48.2532 103.746C48.2532 103.746 51.4249 91.1732 49.4614 81.7815C47.498 72.3899 45.6856 62.8468 45.6856 62.8468L39.9464 59.9688Z" fill="#E4572E"/>
<path d="M87.8236 56.1818L94.7711 62.0894L100.057 92.9909C100.057 92.9909 103.38 117.076 100.812 117.379C98.2449 117.682 94.318 116.924 92.6567 117.379C90.9953 117.833 89.636 116.621 89.636 116.621C89.636 116.621 87.8236 106.927 87.8236 106.775C87.8236 106.624 86.6154 95.566 86.6154 95.566L85.1051 83.1448L87.3706 69.5119L87.8236 56.1818Z" fill="#E4572E"/>
<path d="M56.8662 24.2041C56.8662 24.2041 54.5073 18.0528 57.9277 16.0418L58.8713 18.7626C58.8713 18.7626 67.4813 13.5576 69.7223 14.7406L67.5993 17.5796C67.5993 17.5796 77.6247 17.5796 78.3324 21.4833L74.794 21.6016C74.794 21.6016 78.5683 24.0858 78.6862 28.1078L71.1377 28.581L74.794 30.7102C74.794 30.7102 61.1123 32.6029 57.8098 27.1614L56.8662 24.2041Z" fill="#1F2421"/>
<path d="M54.8231 24.4473C54.8231 24.4473 57.5417 29.9004 61.1665 28.5371C64.7912 27.1738 61.1665 22.1751 61.1665 22.1751L58.7499 20.9633L54.8231 24.4473Z" fill="#1F2421"/>
<path d="M289.252 110.477L239.956 48.6937C237.718 50.7468 234.96 52.1434 231.984 52.7311C222.703 54.5642 213.64 48.208 211.741 38.5341C211.086 35.3348 211.315 32.017 212.402 28.9386C213.49 25.8602 215.395 23.1381 217.913 21.0663L201.104 0L105.344 82.0831L193.492 192.56L289.252 110.477Z" fill="#F2F2F2"/>
<path d="M228 49.7958C235.675 49.7958 241.897 43.5553 241.897 35.8574C241.897 28.1594 235.675 21.919 228 21.919C220.325 21.919 214.103 28.1594 214.103 35.8574C214.103 43.5553 220.325 49.7958 228 49.7958Z" fill="#1F2421"/>
<path d="M141.042 97.9644L136.79 102.9L151.116 115.315L155.368 110.38L141.042 97.9644Z" fill="#1F2421"/>
<path d="M233.134 186.23L228.881 191.165L241.58 202.17L245.832 197.235L233.134 186.23Z" fill="#84BD00"/>
<path d="M256.078 149.468V149.851C256.069 150.812 256.042 151.768 255.995 152.721C255.169 169.019 248.158 184.383 236.401 195.664C224.643 206.945 209.029 213.289 192.758 213.396C176.487 213.503 160.792 207.364 148.888 196.238C136.984 185.112 129.774 169.842 128.735 153.556C128.648 152.203 128.605 150.841 128.605 149.468C128.582 136.228 132.679 123.311 140.325 112.518C140.936 111.648 141.572 110.794 142.233 109.957C142.688 109.374 143.156 108.804 143.629 108.239C154.388 95.4552 169.714 87.41 186.32 85.8296C202.925 84.2492 219.487 89.2594 232.452 99.7853C233.219 100.407 233.974 101.051 234.711 101.707C235.3 102.234 235.88 102.771 236.449 103.321C247.664 114.08 254.567 128.582 255.857 144.093C256.004 145.867 256.078 147.659 256.078 149.468Z" fill="#575656"/>
<path d="M192.341 221.437C152.774 221.437 120.584 189.152 120.584 149.468C120.56 131.312 127.403 113.822 139.73 100.526L141.32 102.005C129.364 114.899 122.729 131.86 122.752 149.468C122.752 187.953 153.97 219.263 192.341 219.263C201.665 219.294 210.898 217.432 219.484 213.787C228.07 210.142 235.831 204.791 242.299 198.056L243.856 199.57C237.186 206.514 229.183 212.032 220.33 215.791C211.476 219.549 201.955 221.47 192.341 221.437Z" fill="#1F2421"/>
<path d="M202.747 219.915H184.537V238.179H202.747V219.915Z" fill="#1F2421"/>
<path d="M142.233 109.957C142.264 109.97 142.293 109.987 142.319 110.009C142.662 110.292 142.233 110.835 142.285 111.283C142.345 111.857 143.108 111.983 143.685 112.04C144.262 112.101 144.99 112.566 144.717 113.079C143.269 113.579 141.803 113.088 140.325 112.518C132.679 123.311 128.582 136.228 128.605 149.468C128.605 150.842 128.648 152.205 128.735 153.556C128.856 153.644 128.989 153.716 129.13 153.769C129.563 153.934 130.066 153.904 130.465 154.138C130.782 154.325 130.994 154.656 131.311 154.83C132.217 155.326 133.474 154.373 134.32 154.965C134.538 155.164 134.745 155.376 134.94 155.599C135.72 156.278 137.004 155.821 137.905 156.33C138.486 156.656 138.786 157.308 139.098 157.9C139.874 159.378 141.131 160.831 142.792 160.948C143.316 160.924 143.84 160.942 144.361 161C144.873 161.118 145.376 161.566 145.294 162.083C145.151 162.975 145.588 163.949 145.471 164.84C145.259 166.471 142.957 167.184 142.762 168.815C142.761 169.174 142.741 169.532 142.701 169.889C142.597 170.315 142.276 170.663 142.163 171.089C141.946 171.894 142.523 172.698 143.152 173.237C143.785 173.781 144.539 174.251 144.886 175.007C145.25 175.812 145.073 176.747 145.19 177.621C145.45 179.53 147.093 180.943 148.784 181.856C149.326 182.083 149.807 182.435 150.189 182.883C150.622 183.513 150.579 184.344 150.726 185.096C151.082 186.935 152.626 188.453 152.669 190.327C152.699 191.662 151.962 192.871 151.52 194.128C151.065 195.445 150.93 196.853 151.125 198.233C153.598 200.336 156.225 202.248 158.986 203.951C159.136 203.729 159.246 203.482 159.311 203.221C159.364 202.933 159.328 202.635 159.208 202.368C159.088 202.101 158.889 201.877 158.639 201.725C159.105 201.548 159.529 201.276 159.884 200.925C160.058 200.745 160.173 200.516 160.213 200.269C160.253 200.022 160.217 199.768 160.109 199.542C160.872 199.638 161.778 199.685 162.281 199.098C162.685 198.629 162.659 197.924 162.498 197.329C162.278 196.749 162.132 196.144 162.065 195.528C163.833 195.615 165.605 195.555 167.363 195.35C167.108 194.49 166.53 193.763 165.75 193.323C166.548 193.189 167.272 192.232 167.523 191.462C167.741 190.677 167.753 189.849 167.558 189.057C167.498 188.854 167.489 188.639 167.532 188.431C167.66 188.156 167.886 187.937 168.165 187.818C169.483 187.057 170.801 186.298 172.119 185.539C172.354 185.421 172.568 185.263 172.752 185.074C173.164 184.583 173.103 183.848 172.891 183.243C172.679 182.639 172.34 182.069 172.258 181.434C172.015 179.534 174.044 178.169 174.729 176.377C174.962 175.662 175.088 174.916 175.102 174.164C175.159 173.355 175.163 172.42 174.547 171.902C173.953 171.402 173.03 171.515 172.41 171.05C171.842 170.624 171.647 169.802 171.027 169.458C170.463 169.145 169.761 169.345 169.132 169.198C168.031 168.941 167.337 167.667 166.21 167.549C165.577 167.48 164.857 167.793 164.336 167.423C163.877 167.093 163.86 166.436 163.773 165.88C163.619 165.013 163.204 164.214 162.584 163.59C161.964 162.967 161.168 162.549 160.304 162.392C159.649 162.288 158.938 162.327 158.379 161.966C157.815 161.601 157.56 160.918 157.113 160.409C156.402 159.596 155.275 159.304 154.221 159.057C152.79 158.722 151.361 158.385 149.933 158.048C149.174 157.865 148.194 157.769 147.782 158.439C147.661 158.694 147.576 158.965 147.531 159.244C147.376 159.745 147.067 160.185 146.648 160.501C146.229 160.816 145.722 160.991 145.198 161C144.84 160.386 144.259 159.935 143.577 159.739C143.131 159.664 142.691 159.56 142.259 159.426C142.033 159.315 141.832 159.16 141.669 158.968C141.505 158.777 141.383 158.554 141.308 158.314C141.233 158.073 141.208 157.82 141.235 157.569C141.261 157.318 141.338 157.076 141.461 156.856C141.707 156.415 141.801 155.905 141.73 155.404C141.659 154.904 141.425 154.441 141.066 154.086C140.338 153.43 139.284 153.269 138.304 153.334C138.049 152.773 138.478 152.142 138.937 151.734C139.401 151.329 139.961 150.929 140.06 150.32C140.221 149.364 139.002 148.637 138.079 148.92C137.155 149.207 136.566 150.107 136.175 150.994C135.986 151.518 135.728 152.014 135.408 152.468C135.244 152.694 135.021 152.869 134.764 152.975C134.507 153.081 134.226 153.113 133.951 153.069C133.188 152.873 132.898 151.964 132.729 151.199C132.458 150.176 132.321 149.122 132.321 148.063C132.328 146.994 132.751 145.971 133.5 145.211C134.762 144.045 136.704 144.158 138.408 144.345C138.226 144.101 138.138 143.799 138.162 143.494C138.186 143.19 138.32 142.905 138.539 142.693C138.767 142.49 139.041 142.346 139.337 142.273C139.633 142.2 139.942 142.201 140.238 142.275C140.752 142.382 141.215 142.659 141.552 143.062C142.037 143.654 142.176 144.458 142.54 145.128C142.909 145.802 143.733 146.376 144.405 146.015C144.99 145.702 145.081 144.893 144.938 144.245C144.791 143.602 144.483 142.971 144.535 142.31C144.635 141.053 145.94 140.292 147.089 139.775C148.238 139.257 149.551 138.557 149.734 137.305C149.742 137.061 149.789 136.821 149.872 136.592C149.999 136.387 150.177 136.22 150.388 136.105C153.74 133.883 157.152 131.63 160.985 130.417C161.184 130.352 161.206 130.421 161.41 130.373C161.696 130.208 161.505 129.751 161.232 129.569C160.959 129.386 160.595 129.243 160.525 128.921C160.478 128.686 160.616 128.451 160.651 128.212C160.66 128.068 160.634 127.923 160.574 127.791C160.515 127.659 160.424 127.544 160.309 127.456C160.195 127.367 160.061 127.308 159.919 127.284C159.777 127.26 159.63 127.271 159.493 127.316C159.186 126.907 159.793 126.433 160.287 126.294C161.767 125.888 163.286 125.64 164.818 125.555C164.995 125.526 165.176 125.556 165.334 125.642C165.446 125.751 165.513 125.899 165.521 126.056C165.528 126.213 165.475 126.367 165.373 126.486C165.164 126.718 164.933 126.929 164.683 127.116C164.435 127.359 164.257 127.665 164.17 128.001C164.083 128.338 164.089 128.692 164.189 129.025C164.991 129.434 165.858 129.856 166.747 129.712C167.632 129.569 168.417 128.569 168 127.773C167.614 127.029 166.448 126.86 166.249 126.046C166.015 125.094 167.359 124.246 167.055 123.316C166.925 122.907 166.517 122.663 166.205 122.372C165.838 122.009 165.588 121.544 165.488 121.036C165.388 120.529 165.443 120.003 165.646 119.528C165.138 119.617 164.617 119.583 164.125 119.428C163.633 119.274 163.186 119.004 162.819 118.641C162.143 117.958 161.605 116.875 160.642 116.91C159.762 116.936 159.003 117.967 158.18 117.654C157.976 117.575 157.763 117.419 157.568 117.51C157.504 117.552 157.45 117.607 157.41 117.673C157.37 117.738 157.346 117.812 157.339 117.889C157.13 118.893 157.49 120.037 156.944 120.906C156.35 121.85 154.976 121.981 154.256 122.833C153.866 123.294 153.714 123.916 153.354 124.403C152.994 124.89 152.235 125.203 151.802 124.777C152.014 124.34 152.072 123.844 151.967 123.37C151.861 122.896 151.598 122.472 151.221 122.168C150.821 121.905 150.39 121.694 149.937 121.541C149.432 121.327 148.95 121.059 148.502 120.741C148.279 120.605 148.097 120.409 147.978 120.176C147.883 119.883 147.895 119.565 148.012 119.28C148.232 118.652 148.618 118.096 149.129 117.671C149.64 117.247 150.257 116.97 150.913 116.871C151.485 116.793 152.153 116.819 152.534 116.38C152.734 116.149 152.838 115.797 153.133 115.706C153.319 115.667 153.512 115.69 153.683 115.771C154.399 116.023 155.11 116.275 155.825 116.527C156.064 116.637 156.327 116.681 156.588 116.654C156.718 116.637 156.836 116.571 156.919 116.47C157.002 116.369 157.043 116.24 157.035 116.11C156.966 115.753 156.419 115.584 156.471 115.223C156.497 115.105 156.559 114.998 156.649 114.918C157.422 114.093 158.368 113.45 159.418 113.034C160.468 112.619 161.597 112.441 162.724 112.514C162.992 112.962 162.568 113.488 162.208 113.866C161.852 114.249 161.566 114.927 162 115.218C162.174 115.31 162.37 115.355 162.568 115.349C163.095 115.42 163.607 115.576 164.085 115.81C164.826 116.132 165.555 116.488 166.266 116.871C166.161 116.405 166.179 115.919 166.318 115.462C166.396 115.238 166.555 115.05 166.764 114.937C166.972 114.824 167.215 114.792 167.445 114.849C167.87 115.014 168.087 115.579 168.542 115.632C169.145 115.701 169.383 114.805 169.132 114.249C168.88 113.692 168.377 113.231 168.338 112.618C168.308 112.209 168.464 111.7 168.139 111.453C168.023 111.376 167.891 111.328 167.753 111.313C165.03 110.813 162.306 110.312 159.58 109.809C159.095 109.718 158.396 109.787 158.375 110.278C158.362 110.557 158.609 110.831 158.501 111.083C158.383 111.353 158.002 111.331 157.724 111.427C157.516 111.521 157.344 111.682 157.234 111.883C157.125 112.085 157.084 112.317 157.117 112.544C157.192 112.996 157.366 113.426 157.629 113.801C157.096 113.579 156.294 113.54 155.76 113.314C155.683 112.694 155.525 112.088 155.292 111.509C155.279 111.417 155.245 111.329 155.194 111.251C155.144 111.173 155.076 111.108 154.997 111.059C154.918 111.01 154.83 110.979 154.738 110.968C154.645 110.957 154.552 110.967 154.464 110.996C153.762 111.105 153.059 111.209 152.357 111.318C152.18 111.326 152.011 111.392 151.875 111.505C151.602 111.796 151.871 112.261 151.862 112.662C151.837 112.885 151.743 113.095 151.593 113.263C151.443 113.431 151.245 113.547 151.026 113.596C150.584 113.686 150.129 113.68 149.69 113.579C148.706 113.427 147.726 113.275 146.742 113.122C147.611 112.845 148.383 112.326 148.97 111.627C149.361 111.166 149.569 110.305 149.005 110.087C148.839 110.041 148.665 110.028 148.493 110.048C147.158 110.057 146.104 108.939 144.856 108.465C144.463 108.318 144.048 108.242 143.629 108.239L142.233 109.957Z" fill="#84BD00"/>
<path d="M255.995 152.721C255.842 152.926 255.642 153.092 255.41 153.202C255.179 153.311 254.924 153.363 254.669 153.351C253.311 153.234 252.739 151.273 251.395 151.051C251.276 151.02 251.15 151.033 251.04 151.086C250.84 151.194 250.805 151.464 250.792 151.69C250.736 152.812 250.688 153.977 251.126 155.012C251.764 156.526 253.416 157.795 253.069 159.4C251.204 158.535 250.233 156.434 249.795 154.421C249.353 152.408 249.284 150.294 248.494 148.389C247.892 149.159 246.634 148.524 246.088 147.715C245.568 146.95 245.247 146.063 244.744 145.285C244.241 144.51 243.469 143.815 242.55 143.771C241.583 143.728 240.742 144.393 240.005 145.024C239.364 145.499 238.825 146.099 238.422 146.789C237.906 147.833 238.041 149.059 238.015 150.22C237.989 151.473 237.724 152.799 236.87 153.721C236.016 154.638 234.442 154.96 233.501 154.13C233.046 153.654 232.722 153.068 232.56 152.429C231.537 149.439 230.686 146.393 230.011 143.306C229.855 144.01 229.235 144.919 228.645 144.506C228.513 144.394 228.407 144.254 228.333 144.097C227.232 142.232 225.198 141.11 223.139 140.436C221.083 139.766 218.92 139.453 216.886 138.714C215.746 138.298 214.657 137.754 213.639 137.092C213.38 137.474 213.229 137.918 213.202 138.379C213.175 138.84 213.272 139.3 213.483 139.71C213.711 140.111 214.066 140.425 214.491 140.604C214.916 140.782 215.387 140.815 215.833 140.697C216.284 140.549 216.665 140.236 217.112 140.079C217.558 139.927 218.161 140.001 218.356 140.436C218.547 140.849 218.261 141.349 218.404 141.784C218.616 142.441 219.609 142.493 219.956 143.093C220.058 143.33 220.082 143.595 220.023 143.847C219.964 144.099 219.827 144.325 219.631 144.493C219.232 144.819 218.792 145.091 218.322 145.302C216.865 146.115 215.828 147.502 214.554 148.581C213.279 149.664 211.48 150.451 209.962 149.759C210.322 147.92 208.141 146.572 207.738 144.741C207.603 144.137 207.673 143.497 207.486 142.91C207.213 142.058 206.459 141.475 205.843 140.832C205.095 140.041 204.512 139.109 204.129 138.09C203.745 137.071 203.569 135.985 203.61 134.896C203.645 134.139 203.784 133.369 203.61 132.63C203.441 131.895 202.83 131.182 202.075 131.213C200.354 131.291 198.182 131.421 197.28 129.947C196.955 129.421 196.816 128.651 197.284 128.247C197.467 128.13 197.672 128.052 197.885 128.015C198.099 127.979 198.317 127.985 198.529 128.034C199.825 128.16 201.117 128.29 202.413 128.416C203.32 128.503 204.3 128.577 205.08 128.103C205.86 127.629 206.199 126.364 205.475 125.803C204.95 125.394 204.005 125.416 203.849 124.768C203.723 124.224 204.321 123.611 203.996 123.155C203.766 122.833 203.246 122.92 202.929 123.163C202.653 123.451 202.353 123.714 202.032 123.95C201.412 124.272 200.675 123.963 200.007 123.755C199.339 123.546 198.446 123.529 198.125 124.15C197.761 124.842 198.442 125.755 198.086 126.451C197.609 127.368 196.005 126.847 195.337 127.638C194.574 128.542 195.858 129.899 195.602 131.056C195.273 131.22 194.906 131.295 194.539 131.275C194.172 131.254 193.817 131.138 193.508 130.939C193.204 130.732 192.963 130.446 192.808 130.112C192.654 129.778 192.593 129.408 192.632 129.043C192.693 128.521 192.966 127.986 192.784 127.494C192.587 127.115 192.263 126.818 191.869 126.655C190.611 125.955 189.354 125.258 188.097 124.564C187.745 125.216 188.188 126.02 188.743 126.512C189.293 126.999 189.987 127.368 190.351 128.012C190.582 128.458 190.634 128.975 190.497 129.459C190.36 129.942 190.044 130.355 189.614 130.612C189.56 130.65 189.498 130.675 189.433 130.686C189.368 130.698 189.301 130.695 189.237 130.678C189.177 130.642 189.124 130.595 189.083 130.539C189.041 130.483 189.011 130.419 188.994 130.351C188.331 128.642 187.329 126.96 185.734 126.068C184.134 125.172 181.84 125.359 180.791 126.86C180.544 127.216 180.375 127.625 180.158 128.003C179.009 130.008 176.537 130.956 174.231 130.895C174.005 130.91 173.78 130.857 173.585 130.743C173.212 130.486 173.229 129.938 173.286 129.486C173.368 128.847 173.446 128.212 173.528 127.573C173.53 127.182 173.681 126.808 173.949 126.525C174.378 126.185 174.994 126.399 175.54 126.39C175.953 126.371 176.349 126.226 176.676 125.973C177.002 125.72 177.243 125.372 177.366 124.977C177.475 124.578 177.475 124.156 177.363 123.758C177.251 123.359 177.033 122.999 176.733 122.715C176.485 122.481 176.152 122.185 176.282 121.867C176.334 121.78 176.406 121.705 176.49 121.648C176.575 121.591 176.671 121.553 176.772 121.537C177.747 121.254 178.783 121.18 179.742 120.841C180.704 120.506 181.636 119.819 181.866 118.823C181.935 118.519 181.966 118.149 182.239 117.997C182.377 117.942 182.524 117.912 182.673 117.91C183.194 117.835 183.668 117.567 184.003 117.16C184.338 116.752 184.508 116.233 184.481 115.705C184.94 115.384 185.586 115.623 186.033 115.966C186.475 116.31 186.87 116.762 187.412 116.91C188.422 117.188 189.397 116.288 190.447 116.284C190.889 116.284 191.344 116.44 191.756 116.288C192.177 116.136 192.428 115.718 192.749 115.41C193.074 115.097 193.638 114.91 193.937 115.244C193.85 114.614 193.768 113.988 193.681 113.362C194.192 113.491 194.724 113.508 195.243 113.414C195.761 113.319 196.253 113.115 196.686 112.814C195.593 112.444 194.505 112.074 193.412 111.705C193.298 111.676 193.192 111.62 193.105 111.539C192.866 111.283 193.105 110.883 193.295 110.591C193.759 109.891 193.837 108.739 193.074 108.391C192.554 108.152 191.96 108.439 191.461 108.717C190.663 109.161 189.866 109.609 189.068 110.052C188.994 110.509 189.549 110.77 189.892 111.074C190.1 111.26 190.248 111.505 190.316 111.776C190.383 112.048 190.367 112.333 190.269 112.596C190.172 112.858 189.997 113.084 189.769 113.245C189.54 113.406 189.269 113.493 188.99 113.496C189.147 113.702 189.256 113.94 189.309 114.194C189.363 114.448 189.359 114.71 189.298 114.962C188.764 115.001 188.227 115.04 187.689 115.079C187.6 115.097 187.508 115.097 187.419 115.079C187.329 115.061 187.244 115.026 187.169 114.975C186.995 114.823 187.021 114.553 186.978 114.327C186.907 114.057 186.756 113.814 186.546 113.63C186.336 113.447 186.075 113.33 185.799 113.296C185.246 113.234 184.687 113.286 184.155 113.448C183.924 113.53 183.671 113.524 183.444 113.431C183.316 113.346 183.218 113.22 183.167 113.075C183.072 112.776 183.056 112.459 183.12 112.153C183.184 111.846 183.326 111.562 183.531 111.326C183.947 110.863 184.406 110.439 184.901 110.061C186.023 109.076 186.848 107.795 187.282 106.365C188.166 105.991 189.081 105.486 189.97 105.112C190.684 104.78 191.433 104.528 192.203 104.36C192.927 104.249 193.661 104.214 194.392 104.256C195.39 104.273 196.391 104.29 197.388 104.312C198.278 104.275 199.168 104.403 200.011 104.69C200.831 105.03 201.555 105.765 201.611 106.652C201.628 106.753 201.619 106.857 201.585 106.953C201.551 107.05 201.493 107.136 201.416 107.204C201.301 107.268 201.17 107.298 201.039 107.291C200.211 107.317 199.86 107.526 199.032 107.556C199.556 108.117 200.146 108.709 200.909 108.809C202.253 108.982 203.22 107.587 203.84 106.373C203.862 106.682 204.004 106.97 204.235 107.176C204.465 107.381 204.767 107.488 205.076 107.474C205.408 107.416 205.725 107.292 206.008 107.108C208.675 105.646 211.662 104.872 214.701 104.856C214.671 104.625 214.728 104.391 214.86 104.2C214.992 104.009 215.191 103.874 215.417 103.821C216.037 103.699 216.592 104.234 216.891 104.79C217.186 105.347 217.372 105.991 217.849 106.408C218.322 106.826 219.236 106.804 219.423 106.204C219.605 105.625 219.002 105.13 218.504 104.786C218.001 104.447 217.476 103.816 217.814 103.312C220.364 102.742 222.935 102.177 225.549 102.064C225.994 102.077 226.436 102 226.85 101.838C227.055 101.751 227.226 101.598 227.335 101.404C227.445 101.21 227.488 100.985 227.457 100.764C226.887 100.897 226.289 100.858 225.741 100.65C225.193 100.443 224.719 100.077 224.379 99.5982C227.063 99.3765 229.872 99.1808 232.452 99.7852L234.711 101.707C234.282 102.155 233.709 102.577 234.021 103.025C234.124 103.128 234.249 103.206 234.387 103.253C234.524 103.301 234.671 103.316 234.815 103.299C235.361 103.308 235.908 103.321 236.45 103.321C247.664 114.08 254.567 128.582 255.857 144.093C254.946 144.058 254.109 145.215 254.226 146.224C254.365 147.394 255.206 148.333 255.809 149.342C255.909 149.506 255.998 149.676 256.078 149.851L255.995 152.721Z" fill="#84BD00"/>
<path d="M136.557 29.9172C139.595 29.9172 142.057 27.4474 142.057 24.4008C142.057 21.3543 139.595 18.8845 136.557 18.8845C133.519 18.8845 131.057 21.3543 131.057 24.4008C131.057 27.4474 133.519 29.9172 136.557 29.9172Z" stroke="#1F2421" stroke-width="2" stroke-miterlimit="10"/>
<path d="M299.075 134.968C302.113 134.968 304.575 132.498 304.575 129.452C304.575 126.405 302.113 123.936 299.075 123.936C296.037 123.936 293.575 126.405 293.575 129.452C293.575 132.498 296.037 134.968 299.075 134.968Z" stroke="#1F2421" stroke-width="2" stroke-miterlimit="10"/>
<path d="M261.527 80.0127C264.564 80.0127 267.027 77.5429 267.027 74.4964C267.027 71.4498 264.564 68.98 261.527 68.98C258.489 68.98 256.027 71.4498 256.027 74.4964C256.027 77.5429 258.489 80.0127 261.527 80.0127Z" stroke="#1F2421" stroke-width="2" stroke-miterlimit="10"/>
<path d="M225.441 127.288C228.85 127.288 231.613 124.516 231.613 121.097C231.613 117.678 228.85 114.906 225.441 114.906C222.032 114.906 219.268 117.678 219.268 121.097C219.268 124.516 222.032 127.288 225.441 127.288Z" fill="#1F2421"/>
<path d="M245.268 109.36C249.761 109.36 253.404 105.706 253.404 101.199C253.404 96.6926 249.761 93.0391 245.268 93.0391C240.774 93.0391 237.131 96.6926 237.131 101.199C237.131 105.706 240.774 109.36 245.268 109.36Z" fill="white"/>
<path d="M253.496 92.7397C251.312 90.6031 248.372 89.4241 245.321 89.4619C242.27 89.4998 239.36 90.7516 237.23 92.9418C232.793 97.5027 226.46 120.536 226.46 120.536C226.46 120.536 249.261 113.615 253.697 109.054C255.828 106.864 257.003 103.915 256.966 100.855C256.928 97.7955 255.68 94.8764 253.496 92.7397ZM241.545 105.026C240.791 104.288 240.271 103.342 240.053 102.307C239.834 101.273 239.926 100.197 240.318 99.2147C240.709 98.2329 241.382 97.3894 242.251 96.7911C243.121 96.1928 244.147 95.8665 245.202 95.8534C246.256 95.8403 247.29 96.141 248.174 96.7176C249.058 97.2941 249.751 98.1205 250.167 99.0924C250.582 100.064 250.701 101.138 250.508 102.177C250.315 103.217 249.82 104.176 249.083 104.933C248.096 105.948 246.747 106.528 245.334 106.545C243.92 106.563 242.557 106.017 241.545 105.026Z" fill="#E4572E"/>
</g>
<defs>
<clipPath id="clip0">
<rect width="331" height="238.5" fill="white"/>
</clipPath>
</defs>
</svg>
