<svg width="40" height="44" viewBox="0 0 40 44" fill="none" xmlns="http://www.w3.org/2000/svg">
<path d="M13.5 19.8333H9.16667V24.1667H13.5V19.8333ZM22.1667 19.8333H17.8333V24.1667H22.1667V19.8333ZM30.8333 19.8333H26.5V24.1667H30.8333V19.8333ZM35.1667 4.66666H33V0.333328H28.6667V4.66666H11.3333V0.333328H7V4.66666H4.83333C2.42833 4.66666 0.521667 6.61666 0.521667 9L0.5 39.3333C0.5 41.7167 2.42833 43.6667 4.83333 43.6667H35.1667C37.55 43.6667 39.5 41.7167 39.5 39.3333V9C39.5 6.61666 37.55 4.66666 35.1667 4.66666ZM35.1667 39.3333H4.83333V15.5H35.1667V39.3333Z" fill="#84BD00"/>
</svg>
