<svg width="240" height="226" viewBox="0 0 240 226" fill="none" xmlns="http://www.w3.org/2000/svg">
<g clip-path="url(#clip0)">
<path d="M7.10852 134.247C7.10852 134.247 6.90422 133.649 6.57373 132.535" stroke="#1F2421" stroke-width="9" stroke-miterlimit="10"/>
<path d="M5.60611 129.064C-1.69766 101.051 -24.4683 -28.0514 203.796 52.5442" stroke="#1F2421" stroke-width="9" stroke-miterlimit="10" stroke-dasharray="12.04 12.04"/>
<path d="M205.506 53.1428L207.204 53.7414" stroke="#1F2421" stroke-width="9" stroke-miterlimit="10"/>
<path d="M179.244 152.71C179.246 146.657 176.98 140.821 172.89 136.345C168.8 131.868 163.18 129.073 157.13 128.506C151.08 127.94 145.035 129.642 140.179 133.28C135.323 136.919 132.004 142.232 130.873 148.179L55.8855 146.153L56.7087 158.986C56.7087 158.986 46.0159 183.562 102.214 190.111V214.951H167.182V173.65C170.85 171.51 173.894 168.452 176.01 164.779C178.126 161.105 179.241 156.945 179.244 152.71Z" fill="url(#paint0_linear)"/>
<path d="M59.2836 159.524C59.2836 159.524 49.0445 183.06 102.863 189.338V213.137H165.082V150.109L58.4844 147.233L59.2836 159.524Z" fill="#F6B9AD"/>
<path d="M90.3794 61.3101C88.7571 63.8602 86.1876 65.6671 83.2321 66.3361C80.2767 67.0051 77.1755 66.4818 74.6062 64.8805L41.1999 42.9524C38.6399 41.3363 36.8259 38.7767 36.1543 35.8328C35.4828 32.8888 36.0081 29.7997 37.6156 27.2403C39.2378 24.6935 41.8051 22.8889 44.7577 22.2201C47.7102 21.5512 50.8085 22.0724 53.3769 23.6699L86.7831 45.598C89.3452 47.2121 91.1616 49.7708 91.8355 52.715C92.5093 55.6591 91.9859 58.7493 90.3794 61.3101Z" fill="url(#paint1_linear)"/>
<path d="M88.5287 60.11C87.0207 62.4803 84.6323 64.1599 81.8851 64.7818C79.138 65.4037 76.2554 64.9173 73.8671 63.429L42.8043 43.0451C40.4247 41.543 38.7386 39.1638 38.1143 36.4273C37.49 33.6908 37.9782 30.8194 39.4724 28.4403C40.9804 26.07 43.3688 24.3904 46.1159 23.7685C48.8631 23.1466 51.7457 23.633 54.134 25.1213L85.1908 45.5082C87.5706 47.0093 89.2573 49.3875 89.8827 52.1234C90.5081 54.8592 90.0214 57.7304 88.5287 60.11Z" fill="#F6B9AD"/>
<path d="M153.268 176.787C166.172 176.787 176.633 166.366 176.633 153.512C176.633 140.657 166.172 130.237 153.268 130.237C140.364 130.237 129.903 140.657 129.903 153.512C129.903 166.366 140.364 176.787 153.268 176.787Z" fill="#F6B9AD"/>
<path d="M149.062 0H59.5537C57.5211 0 55.8733 1.6414 55.8733 3.66616V170.502C55.8733 172.527 57.5211 174.168 59.5537 174.168H149.062C151.094 174.168 152.742 172.527 152.742 170.502V3.66616C152.742 1.6414 151.094 0 149.062 0Z" fill="url(#paint2_linear)"/>
<path d="M147.334 2.35535H61.2814C59.0181 2.35535 57.1833 4.18299 57.1833 6.4375V167.736C57.1833 169.991 59.0181 171.819 61.2814 171.819H147.334C149.598 171.819 151.432 169.991 151.432 167.736V6.4375C151.432 4.18299 149.598 2.35535 147.334 2.35535Z" fill="white"/>
<path d="M127.986 6.60205C127.713 8.39921 126.804 10.0398 125.422 11.2272C124.041 12.4145 122.278 13.0701 120.454 13.0754H87.9037C86.0796 13.0694 84.3178 12.4135 82.9369 11.2262C81.556 10.0389 80.6471 8.39871 80.3746 6.60205H63.1291C62.659 6.60166 62.1933 6.69357 61.7589 6.87252C61.3244 7.05147 60.9296 7.31396 60.597 7.64498C60.2644 7.97601 60.0005 8.36908 59.8205 8.80173C59.6405 9.23438 59.5479 9.69812 59.5479 10.1665V163.996C59.5475 164.464 59.6397 164.928 59.8194 165.36C59.999 165.793 60.2625 166.187 60.5948 166.518C60.9272 166.849 61.3218 167.112 61.7561 167.291C62.1904 167.471 62.656 167.563 63.1261 167.563H145.49C145.96 167.563 146.425 167.471 146.86 167.292C147.294 167.113 147.689 166.851 148.022 166.52C148.354 166.189 148.618 165.796 148.798 165.363C148.978 164.931 149.071 164.467 149.071 163.999V10.1695C149.071 9.70112 148.979 9.23729 148.799 8.80449C148.62 8.37169 148.356 7.9784 148.024 7.6471C147.692 7.3158 147.297 7.05298 146.863 6.87366C146.428 6.69435 145.963 6.60205 145.493 6.60205H127.986Z" fill="#84BD00"/>
<path d="M114.343 8.6311H94.5406C94.2087 8.6311 93.9397 8.89909 93.9397 9.22966V9.34039C93.9397 9.67097 94.2087 9.93895 94.5406 9.93895H114.343C114.675 9.93895 114.944 9.67097 114.944 9.34039V9.22966C114.944 8.89909 114.675 8.6311 114.343 8.6311Z" fill="#DBDBDB"/>
<path d="M119.405 9.93895C119.84 9.93895 120.192 9.58789 120.192 9.15484C120.192 8.72179 119.84 8.37073 119.405 8.37073C118.97 8.37073 118.618 8.72179 118.618 9.15484C118.618 9.58789 118.97 9.93895 119.405 9.93895Z" fill="#DBDBDB"/>
<path d="M168.374 157.615C161.593 159.177 156.94 154.772 155.371 148.02L139.79 90.3911C139.046 87.1351 139.624 83.7179 141.4 80.8857C143.176 78.0534 146.005 76.0362 149.269 75.2745C152.538 74.5327 155.968 75.1093 158.812 76.8784C161.655 78.6475 163.68 81.4654 164.445 84.7168L177.159 143.824C178.728 150.588 175.152 156.053 168.374 157.615Z" fill="url(#paint3_linear)"/>
<path d="M162.696 86.1304C161.374 80.4311 155.665 76.8784 149.943 78.1952C144.221 79.5121 140.655 85.1998 141.977 90.8992L156.304 152.668C157.626 158.367 163.336 161.92 169.058 160.603C174.779 159.286 178.346 153.599 177.024 147.899L162.696 86.1304Z" fill="#F6B9AD"/>
<path d="M176.538 205.35H87.6064V226H176.538V205.35Z" fill="url(#paint4_linear)"/>
<path d="M174.134 207.744H90.0098V223.905H174.134V207.744Z" fill="white"/>
<path d="M124.149 54.5823L117.257 49.4138L120.261 45.5232L115.247 41.6026L112.113 45.5591L105.026 40.2469C104.756 40.0451 104.428 39.936 104.09 39.936C103.753 39.936 103.424 40.0451 103.154 40.2469L84.3675 54.1783C83.6554 54.7769 82.9885 55.4622 82.9824 57.0304H82.9614L82.9133 78.4947V79.4494C82.9125 79.7567 82.9725 80.0612 83.0899 80.3455C83.2072 80.6297 83.3796 80.8881 83.5972 81.106C83.8148 81.3239 84.0734 81.4969 84.3581 81.6153C84.6429 81.7336 84.9483 81.7949 85.2568 81.7957H86.1822L103.995 81.8346L122.737 81.8765C123.046 81.8773 123.351 81.8176 123.637 81.7007C123.922 81.5838 124.181 81.4121 124.4 81.1953C124.619 80.9785 124.793 80.721 124.911 80.4373C125.03 80.1537 125.092 79.8495 125.093 79.5422L125.144 57.1621H125.183C125.183 55.5909 124.861 55.1809 124.149 54.5823Z" fill="url(#paint5_linear)"/>
<path d="M123.332 57.4884C123.332 56.0578 123.032 55.6927 122.389 55.1391L104.942 42.0696C104.695 41.8853 104.395 41.7856 104.087 41.7856C103.779 41.7856 103.479 41.8853 103.232 42.0696L86.092 54.7829C85.6797 55.0763 85.3481 55.4682 85.1276 55.9227C84.9071 56.3772 84.8048 56.8795 84.8302 57.3837H84.8122L84.7671 76.9684V77.8393C84.7663 78.4055 84.9911 78.9489 85.3922 79.3501C85.7933 79.7513 86.3378 79.9776 86.9062 79.9792H87.7505L104.004 80.0151L121.103 80.054C121.671 80.0548 122.217 79.8308 122.619 79.4313C123.022 79.0318 123.249 78.4893 123.251 77.9231L123.296 57.5034L123.332 57.4884Z" fill="url(#paint6_linear)"/>
<path d="M85.1272 57.462L122.932 57.5475L122.885 78.2665C122.884 78.4307 122.851 78.5933 122.788 78.745C122.725 78.8966 122.632 79.0343 122.515 79.1502C122.398 79.2661 122.259 79.3579 122.107 79.4205C121.954 79.483 121.791 79.515 121.626 79.5146L86.4742 79.4351C86.1069 79.4343 85.7549 79.2882 85.4958 79.0288C85.2366 78.7695 85.0915 78.4183 85.0923 78.0524L85.1392 57.4621L85.1272 57.462Z" fill="#84BD00"/>
<path opacity="0.2" d="M85.1272 57.462L122.932 57.5475L122.885 78.2665C122.884 78.4307 122.851 78.5933 122.788 78.745C122.725 78.8966 122.632 79.0343 122.515 79.1502C122.398 79.2661 122.259 79.3579 122.107 79.4205C121.954 79.483 121.791 79.515 121.626 79.5146L86.4742 79.4351C86.1069 79.4343 85.7549 79.2882 85.4958 79.0288C85.2366 78.7695 85.0915 78.4183 85.0923 78.0524L85.1392 57.4621L85.1272 57.462Z" fill="white"/>
<path d="M85.1305 57.4554L85.0884 76.4866C85.0876 76.8705 85.1627 77.2509 85.3095 77.606C85.4563 77.961 85.6719 78.2838 85.9439 78.5559C86.2159 78.8279 86.539 79.044 86.8949 79.1916C87.2507 79.3393 87.6322 79.4157 88.0177 79.4165L119.952 79.4883" fill="#F5F5F5"/>
<path d="M122.938 57.5393L122.896 76.5824C122.895 76.9664 122.819 77.3464 122.671 77.7009C122.522 78.0553 122.305 78.3772 122.032 78.6482C121.759 78.9191 121.435 79.1338 121.079 79.2801C120.722 79.4263 120.34 79.5011 119.955 79.5003L88.0208 79.4285" fill="white"/>
<path d="M103.229 42.5663L86.4045 54.9265C86.0003 55.2096 85.6746 55.5899 85.4577 56.0321C85.2407 56.4742 85.1396 56.9638 85.1636 57.4554L122.986 57.5751C122.986 56.1835 122.686 55.8183 122.061 55.2916L104.921 42.5723C104.677 42.3891 104.381 42.2894 104.076 42.2883C103.771 42.2873 103.474 42.3848 103.229 42.5663Z" fill="#84BD00"/>
<path opacity="0.2" d="M103.229 42.5663L86.4045 54.9265C86.0003 55.2096 85.6746 55.5899 85.4577 56.0321C85.2407 56.4742 85.1396 56.9638 85.1636 57.4554L122.986 57.5751C122.986 56.1835 122.686 55.8183 122.061 55.2916L104.921 42.5723C104.677 42.3891 104.381 42.2894 104.076 42.2883C103.771 42.2873 103.474 42.3848 103.229 42.5663Z" fill="black"/>
<path d="M118.843 46.867L114.268 43.2936L103.208 57.2459L97.2655 52.655L93.543 57.3686L102.193 63.9498L104.338 65.6646L118.843 46.867Z" fill="url(#paint7_linear)"/>
<path d="M118.507 46.7803L114.361 43.6139L103.374 57.8865L97.2715 53.2267L94.0898 57.3568L102.265 63.5937L104.362 65.1589L118.507 46.7803Z" fill="white"/>
<path d="M83.2046 92.7194C81.5941 95.2502 79.0436 97.0434 76.1102 97.7074C73.1768 98.3713 70.0988 97.852 67.5485 96.2628L39.1567 77.8482C36.616 76.2439 34.8158 73.7033 34.1493 70.7813C33.4828 67.8593 34.0041 64.7933 35.5994 62.2528C37.21 59.722 39.7604 57.9288 42.6938 57.2649C45.6272 56.6009 48.7052 57.1203 51.2555 58.7094L79.6474 77.124C82.1881 78.7283 83.9883 81.2689 84.6548 84.1909C85.3213 87.1129 84.7999 90.179 83.2046 92.7194Z" fill="url(#paint8_linear)"/>
<path d="M81.6965 91.7498C80.1885 94.1201 77.8001 95.7997 75.0529 96.4216C72.3058 97.0435 69.4232 96.5571 67.0349 95.0688L40.4427 77.8213C38.0631 76.3192 36.377 73.94 35.7527 71.2035C35.1284 68.467 35.6166 65.5956 37.1108 63.2166C38.6188 60.8462 41.0072 59.1666 43.7544 58.5448C46.5015 57.9229 49.3841 58.4092 51.7724 59.8976L78.3646 77.145C80.7442 78.6471 82.4303 81.0263 83.0546 83.7628C83.6789 86.4993 83.1907 89.3707 81.6965 91.7498Z" fill="#F6B9AD"/>
<path d="M77.4123 123.132C75.8096 125.652 73.271 127.437 70.351 128.098C67.4309 128.76 64.3669 128.243 61.8283 126.66L39.4212 112.22C36.8917 110.624 35.0992 108.095 34.4355 105.186C33.7718 102.278 34.2907 99.2255 35.879 96.6967C37.4816 94.1769 40.0203 92.3914 42.9403 91.7303C45.8603 91.0691 48.9244 91.5861 51.463 93.1682L73.867 107.611C76.3963 109.207 78.1888 111.735 78.853 114.643C79.5173 117.551 78.9993 120.603 77.4123 123.132Z" fill="url(#paint9_linear)"/>
<path d="M71.7878 153.7C70.1709 156.243 67.6094 158.045 64.6628 158.713C61.7163 159.38 58.6243 158.858 56.0626 157.262L42.1852 147.176C39.6324 145.565 37.8234 143.014 37.1535 140.079C36.4836 137.144 37.0072 134.064 38.6099 131.512C40.2287 128.971 42.7912 127.171 45.7376 126.506C48.684 125.841 51.7749 126.365 54.3351 127.962L68.2126 138.045C70.7628 139.656 72.5701 142.206 73.2399 145.139C73.9097 148.072 73.3877 151.149 71.7878 153.7Z" fill="url(#paint10_linear)"/>
<path d="M70.6672 152.949C69.1592 155.319 66.7708 156.999 64.0236 157.621C61.2765 158.243 58.3939 157.756 56.0056 156.268L43.0655 146.865C40.6859 145.363 38.9998 142.983 38.3755 140.247C37.7512 137.51 38.2394 134.639 39.7336 132.26C41.2416 129.89 43.63 128.21 46.3772 127.588C49.1243 126.966 52.0069 127.453 54.3952 128.941L67.3353 138.344C69.7149 139.847 71.401 142.226 72.0253 144.962C72.6496 147.699 72.1613 150.57 70.6672 152.949Z" fill="#F6B9AD"/>
<path d="M134.953 96.8375H73.6626V115.093H134.953V96.8375Z" fill="url(#paint11_linear)"/>
<path d="M132.85 98.6332H75.7659V111.801H132.85V98.6332Z" fill="#1F2421"/>
<path d="M238.921 64.2012L240 64.3688L239.832 64.2102H239.922L239.781 64.1623L220.225 45.6879L215.478 53.1489L211.53 59.9545L213.36 60.2388L212.549 63.9259L238.921 64.2012Z" fill="url(#paint12_linear)"/>
<path d="M216.298 53.5379L212.693 59.7659L239.132 64.0546L222.103 52.2421L216.298 53.5379Z" fill="#84BD00"/>
<path d="M216.298 53.5379L212.693 59.7659L239.132 64.0546L222.103 52.2421L216.298 53.5379Z" fill="#979797"/>
<path d="M220.639 46.7144L239.132 64.0545L216.298 53.5379L220.639 46.7144Z" fill="white"/>
<path d="M213.666 63.426L239.06 63.9079L215.355 55.5221L213.666 63.426Z" fill="white"/>
<path d="M76.1805 122.351C74.6725 124.721 72.284 126.401 69.5369 127.023C66.7898 127.645 63.9072 127.158 61.5189 125.67L40.4398 112.083C38.0602 110.581 36.3741 108.201 35.7498 105.465C35.1255 102.728 35.6137 99.8571 37.1078 97.478C38.6134 95.1052 41.0008 93.4225 43.7481 92.7978C46.4954 92.1731 49.3793 92.6571 51.7695 94.1441L72.8486 107.731C75.2323 109.234 76.9213 111.616 77.5458 114.356C78.1703 117.096 77.6794 119.971 76.1805 122.351Z" fill="#F6B9AD"/>
</g>
<defs>
<linearGradient id="paint0_linear" x1="117.569" y1="214.963" x2="117.569" y2="128.402" gradientUnits="userSpaceOnUse">
<stop stop-color="#808080" stop-opacity="0.25"/>
<stop offset="0.54" stop-color="#808080" stop-opacity="0.12"/>
<stop offset="1" stop-color="#808080" stop-opacity="0.1"/>
</linearGradient>
<linearGradient id="paint1_linear" x1="23175.1" y1="13205.7" x2="23175.1" y2="6532.49" gradientUnits="userSpaceOnUse">
<stop stop-color="#808080" stop-opacity="0.25"/>
<stop offset="0.54" stop-color="#808080" stop-opacity="0.12"/>
<stop offset="1" stop-color="#808080" stop-opacity="0.1"/>
</linearGradient>
<linearGradient id="paint2_linear" x1="52840.2" y1="113952" x2="52840.2" y2="12593.3" gradientUnits="userSpaceOnUse">
<stop stop-color="#808080" stop-opacity="0.25"/>
<stop offset="0.54" stop-color="#808080" stop-opacity="0.12"/>
<stop offset="1" stop-color="#808080" stop-opacity="0.1"/>
</linearGradient>
<linearGradient id="paint3_linear" x1="27760.7" y1="49868.8" x2="27760.7" y2="26863.2" gradientUnits="userSpaceOnUse">
<stop stop-color="#808080" stop-opacity="0.25"/>
<stop offset="0.54" stop-color="#808080" stop-opacity="0.12"/>
<stop offset="1" stop-color="#808080" stop-opacity="0.1"/>
</linearGradient>
<linearGradient id="paint4_linear" x1="56760.8" y1="17273.2" x2="56760.8" y2="15848.3" gradientUnits="userSpaceOnUse">
<stop stop-color="#808080" stop-opacity="0.25"/>
<stop offset="0.54" stop-color="#808080" stop-opacity="0.12"/>
<stop offset="1" stop-color="#808080" stop-opacity="0.1"/>
</linearGradient>
<linearGradient id="paint5_linear" x1="104.046" y1="81.8735" x2="104.046" y2="39.9327" gradientUnits="userSpaceOnUse">
<stop stop-opacity="0.12"/>
<stop offset="0.55" stop-opacity="0.09"/>
<stop offset="1" stop-opacity="0.02"/>
</linearGradient>
<linearGradient id="paint6_linear" x1="21089.1" y1="13047.7" x2="21089.1" y2="8154.67" gradientUnits="userSpaceOnUse">
<stop stop-color="#808080" stop-opacity="0.25"/>
<stop offset="0.54" stop-color="#808080" stop-opacity="0.12"/>
<stop offset="1" stop-color="#808080" stop-opacity="0.1"/>
</linearGradient>
<linearGradient id="paint7_linear" x1="13968.3" y1="6584.17" x2="13972.1" y2="4910.15" gradientUnits="userSpaceOnUse">
<stop stop-opacity="0.12"/>
<stop offset="0.55" stop-opacity="0.09"/>
<stop offset="1" stop-opacity="0.02"/>
</linearGradient>
<linearGradient id="paint8_linear" x1="20260.8" y1="16453.8" x2="20260.8" y2="10834.7" gradientUnits="userSpaceOnUse">
<stop stop-color="#808080" stop-opacity="0.25"/>
<stop offset="0.54" stop-color="#808080" stop-opacity="0.12"/>
<stop offset="1" stop-color="#808080" stop-opacity="0.1"/>
</linearGradient>
<linearGradient id="paint9_linear" x1="17436.3" y1="18608" x2="17436.3" y2="14050.9" gradientUnits="userSpaceOnUse">
<stop stop-color="#808080" stop-opacity="0.25"/>
<stop offset="0.54" stop-color="#808080" stop-opacity="0.12"/>
<stop offset="1" stop-color="#808080" stop-opacity="0.1"/>
</linearGradient>
<linearGradient id="paint10_linear" x1="14042" y1="19909.9" x2="14042" y2="16320.5" gradientUnits="userSpaceOnUse">
<stop stop-color="#808080" stop-opacity="0.25"/>
<stop offset="0.54" stop-color="#808080" stop-opacity="0.12"/>
<stop offset="1" stop-color="#808080" stop-opacity="0.1"/>
</linearGradient>
<linearGradient id="paint11_linear" x1="21352.5" y1="7117.54" x2="21352.5" y2="6003.92" gradientUnits="userSpaceOnUse">
<stop stop-opacity="0.12"/>
<stop offset="0.55" stop-opacity="0.09"/>
<stop offset="1" stop-opacity="0.02"/>
</linearGradient>
<linearGradient id="paint12_linear" x1="19889.2" y1="19809.3" x2="20539.6" y2="18779" gradientUnits="userSpaceOnUse">
<stop stop-color="#808080" stop-opacity="0.25"/>
<stop offset="0.54" stop-color="#808080" stop-opacity="0.12"/>
<stop offset="1" stop-color="#808080" stop-opacity="0.1"/>
</linearGradient>
<clipPath id="clip0">
</clipPath>
</defs>
</svg>
