<svg width="361" height="206" viewBox="0 0 361 206" fill="none" xmlns="http://www.w3.org/2000/svg">
<path d="M78.8099 95.5962C93.9035 95.5962 106.139 83.3483 106.139 68.2397C106.139 53.131 93.9035 40.8831 78.8099 40.8831C63.7164 40.8831 51.4807 53.131 51.4807 68.2397C51.4807 83.3483 63.7164 95.5962 78.8099 95.5962Z" fill="#E4572E"/>
<path d="M349.687 194.611C348.08 196.059 346.39 197.411 344.625 198.66C340.436 201.609 335.909 204.045 331.141 205.916C311.327 205.439 282.2 203.006 245.432 201.708C242.69 200.77 239.885 199.754 237.017 198.66C233.223 197.213 229.32 195.623 225.307 193.889C208.643 186.681 191.533 181.995 174.586 179.196C170.944 178.595 167.312 178.079 163.689 177.65C87.1611 168.489 16.5882 195.406 8.41481 198.66H7.62671L12.654 188.914L98.1945 23.0693L118.199 74.4806L124.583 90.8914L142.179 66.7222L151.264 54.2431L192.639 101.726L204.334 75.8739L285.298 142.013L289.814 145.7L294.383 149.435L295.839 150.624L339.124 185.984L349.687 194.611Z" fill="#F2F2F2"/>
<path opacity="0.1" d="M90.5679 56.4701L98.8302 38.3384L110.27 64.7407L100.419 45.6547L90.5679 56.4701Z" fill="black"/>
<path opacity="0.1" d="M174.586 179.196C170.944 178.595 167.312 178.08 163.689 177.65L124.583 90.8916L174.586 179.196Z" fill="black"/>
<path opacity="0.1" d="M142.179 66.7222L151.264 59.6511L192.576 107.366L150.628 66.6493L142.179 66.7222Z" fill="black"/>
<path opacity="0.1" d="M192.638 101.725L275.199 180.847L263.906 183.513L192.638 101.725Z" fill="black"/>
<path d="M361 198.819C361 204.981 350.526 206.384 331.141 205.916C311.328 205.439 282.2 203.006 245.432 201.708C231.526 201.218 216.524 200.887 200.52 200.887C100.832 200.887 0 213.665 0 198.819C0 195.32 4.48708 191.98 12.6541 188.914C36.869 179.823 93.4278 173.165 161.185 172.093C164.268 172.042 167.372 172.005 170.499 171.981C173.811 171.953 177.144 171.939 180.5 171.94C207.438 171.94 233.001 172.818 255.96 174.393C256.034 174.399 256.103 174.405 256.177 174.408C258.02 174.536 259.845 174.667 261.652 174.803C263.625 174.952 265.578 175.106 267.509 175.264C267.906 175.296 268.303 175.328 268.697 175.363C268.983 175.385 269.269 175.41 269.552 175.436C270.073 175.477 270.594 175.522 271.109 175.57C271.127 175.569 271.145 175.57 271.163 175.573C272.11 175.655 273.051 175.738 273.985 175.821C274.084 175.83 274.182 175.84 274.281 175.846C301.435 178.312 323.877 181.814 339.124 185.984C353.075 189.798 361 194.169 361 198.819Z" fill="#323232"/>
<path d="M22.5266 145.748C22.5266 166.111 35.2888 182.589 51.0605 182.589L22.5266 145.748Z" fill="#575656"/>
<path d="M51.0605 182.589C51.0605 161.997 65.3024 145.334 82.9027 145.334L51.0605 182.589Z" fill="#84BD00"/>
<path d="M32.8647 147.594C32.8647 166.937 41.003 182.589 51.0603 182.589L32.8647 147.594Z" fill="#84BD00"/>
<path d="M51.0605 182.589C51.0605 156.277 67.522 134.985 87.8651 134.985L51.0605 182.589Z" fill="#575656"/>
<path d="M45.0576 182.849C45.0576 182.849 49.1042 182.724 50.3237 181.855C51.5433 180.985 56.5484 179.947 56.8509 181.342C57.1535 182.736 62.9322 188.275 58.3636 188.312C53.795 188.349 47.7483 187.6 46.5311 186.858C45.3139 186.116 45.0576 182.849 45.0576 182.849Z" fill="#A8A8A8"/>
<path opacity="0.2" d="M58.4451 187.827C53.8766 187.864 47.8298 187.115 46.6126 186.373C45.6857 185.807 45.3163 183.779 45.1927 182.844C45.1071 182.847 45.0576 182.849 45.0576 182.849C45.0576 182.849 45.3139 186.116 46.5311 186.858C47.7483 187.6 53.795 188.349 58.3636 188.312C59.6824 188.302 60.1379 187.832 60.1129 187.136C59.9297 187.557 59.4267 187.819 58.4451 187.827Z" fill="black"/>
<path d="M242.431 142.885C242.431 163.248 255.194 179.726 270.965 179.726L242.431 142.885Z" fill="#575656"/>
<path d="M270.965 179.726C270.965 159.134 285.207 142.471 302.807 142.471L270.965 179.726Z" fill="#84BD00"/>
<path d="M252.77 144.731C252.77 164.074 260.908 179.726 270.965 179.726L252.77 144.731Z" fill="#84BD00"/>
<path d="M270.965 179.726C270.965 153.414 287.427 132.122 307.77 132.122L270.965 179.726Z" fill="#575656"/>
<path d="M264.962 179.986C264.962 179.986 269.009 179.861 270.229 178.992C271.448 178.123 276.453 177.085 276.756 178.479C277.058 179.873 282.837 185.413 278.268 185.449C273.7 185.486 267.653 184.737 266.436 183.995C265.219 183.253 264.962 179.986 264.962 179.986Z" fill="#A8A8A8"/>
<path opacity="0.2" d="M278.35 184.964C273.781 185.001 267.735 184.252 266.517 183.51C265.59 182.944 265.221 180.916 265.097 179.981C265.012 179.984 264.962 179.986 264.962 179.986C264.962 179.986 265.219 183.253 266.436 183.995C267.653 184.737 273.7 185.486 278.268 185.449C279.587 185.439 280.043 184.969 280.018 184.274C279.834 184.694 279.332 184.956 278.35 184.964Z" fill="black"/>
<path d="M158.573 140.116H152.853V150.323H158.573V140.116Z" fill="#84BD00"/>
<path d="M155.713 143.975C156.331 143.975 156.832 143.474 156.832 142.855C156.832 142.236 156.331 141.735 155.713 141.735C155.095 141.735 154.594 142.236 154.594 142.855C154.594 143.474 155.095 143.975 155.713 143.975Z" fill="#F2F2F2"/>
<path d="M156.407 131.394C156.407 131.394 154.666 141.502 157.799 141.85C160.933 142.199 158.148 131.045 158.148 131.045L156.407 131.394Z" fill="#FFB9B9"/>
<path d="M158.496 96.8887C158.496 96.8887 154.84 131.568 155.884 132.091C156.929 132.614 159.714 133.311 160.237 132.788C160.759 132.265 162.848 110.83 162.848 110.83L161.281 99.677L158.496 96.8887Z" fill="#575A89"/>
<path d="M158.496 96.8887C158.496 96.8887 154.84 131.568 155.884 132.091C156.929 132.614 159.714 133.311 160.237 132.788C160.759 132.265 162.848 110.83 162.848 110.83L161.281 99.677L158.496 96.8887Z" fill="#575656"/>
<path d="M176.166 81.2917H165.198V93.1421H176.166V81.2917Z" fill="#2F2E41"/>
<path d="M167.723 86.6069C167.723 86.6069 167.374 94.2748 164.937 94.7976C162.5 95.3204 167.2 104.208 167.2 104.208L174.512 103.511L176.253 93.0549C176.253 93.0549 172.249 92.3578 173.642 86.9555L167.723 86.6069Z" fill="#FFB9B9"/>
<path opacity="0.1" d="M167.723 86.6069C167.723 86.6069 167.374 94.2748 164.937 94.7976C162.5 95.3204 167.2 104.208 167.2 104.208L174.512 103.511L176.253 93.0549C176.253 93.0549 172.249 92.3578 173.642 86.9555L167.723 86.6069Z" fill="black"/>
<path d="M168.071 174.264L168.593 177.227L171.727 176.53L171.031 173.567L168.071 174.264Z" fill="#FFB9B9"/>
<path d="M177.994 169.733L176.95 172.87L180.257 174.613L180.432 171.999L177.994 169.733Z" fill="#FFB9B9"/>
<path d="M164.415 122.681C164.415 122.681 160.237 134.879 161.107 140.63C161.978 146.381 165.459 173.741 165.459 173.741C165.459 173.741 169.464 176.355 171.901 173.393L170.16 150.041C170.16 150.041 170.508 135.925 171.901 137.319C173.294 138.713 178.691 155.095 178.691 155.095L177.646 169.908C177.646 169.908 178.168 174.439 181.302 172.522L185.654 156.14C185.654 156.14 184.262 134.182 183.565 133.311C182.869 132.44 178.342 122.332 178.342 122.332L164.415 122.681Z" fill="#1F2421"/>
<path d="M171.292 90.0051C174.08 90.0051 176.34 87.7424 176.34 84.9513C176.34 82.1601 174.08 79.8975 171.292 79.8975C168.503 79.8975 166.243 82.1601 166.243 84.9513C166.243 87.7424 168.503 90.0051 171.292 90.0051Z" fill="#FFB9B9"/>
<path d="M166.156 97.4115C166.156 97.4115 168.071 100.2 170.508 98.2829C172.945 96.3659 174.338 96.1917 174.338 96.1917L177.298 97.9343L176.601 104.731L177.646 123.552C177.646 123.552 164.937 124.598 164.241 123.203C163.544 121.809 165.111 115.884 165.111 115.884L162.848 103.162V97.4115H166.156Z" fill="white"/>
<path d="M170.16 102.465C170.16 102.465 167.026 92.8806 165.982 92.7064C164.937 92.5321 161.978 94.6233 161.978 94.6233C161.978 94.6233 157.625 96.0175 157.625 96.8888C157.625 97.7602 158.322 97.7602 158.322 97.7602L160.759 102.465C160.759 102.465 161.804 106.648 161.455 109.436C161.245 111.112 161.187 112.804 161.281 114.49C161.281 114.49 157.451 137.494 159.366 138.191C161.281 138.888 161.281 139.585 161.281 139.585C161.281 139.585 164.067 141.153 164.589 140.456C165.111 139.759 170.16 109.785 170.16 109.785C170.16 109.785 172.772 104.731 170.16 102.465Z" fill="#575656"/>
<path d="M170.856 102.465C170.856 102.465 172.423 98.8056 171.553 96.3658C171.553 96.3658 172.423 96.1916 172.771 95.6688C173.12 95.146 172.771 92.5319 173.642 92.3577C174.512 92.1834 180.954 92.3577 181.302 92.7062C181.65 93.0547 182.695 95.4945 182.695 95.4945H182.173L178.342 101.768C178.342 101.768 180.257 113.619 179.909 115.535C179.561 117.452 184.958 125.469 185.654 125.992C186.351 126.514 189.485 134.879 188.092 135.751C186.699 136.622 174.512 142.199 173.99 139.41C173.468 136.622 169.812 119.892 169.812 119.892C169.812 119.892 169.638 110.656 170.16 108.39C170.682 106.125 170.856 102.465 170.856 102.465Z" fill="#575656"/>
<path d="M179.039 130.348C179.039 130.348 175.383 142.373 179.039 141.85C182.695 141.327 181.824 130 181.824 130L179.039 130.348Z" fill="#FFB9B9"/>
<path d="M171.387 176.536C171.387 176.536 174.273 177.361 174.067 179.219C174.002 179.758 173.797 180.271 173.471 180.706C173.145 181.141 172.711 181.482 172.211 181.695C171.909 181.892 171.67 182.172 171.524 182.501C171.378 182.831 171.33 183.196 171.387 183.552C171.593 184.791 169.737 186.648 166.645 185.823C163.552 184.997 164.171 184.172 164.171 184.172C164.339 183.256 164.856 182.442 165.614 181.901C166.851 181.076 168.294 178.187 168.294 177.98C168.294 177.774 168.706 176.329 168.706 176.329C168.706 176.329 170.356 175.297 171.387 176.536Z" fill="white"/>
<path d="M177.472 172.521C177.472 172.521 174.338 173.916 175.035 175.658C175.731 177.401 177.994 179.841 178.342 182.455C178.691 185.069 181.65 187.334 183.739 185.94C185.828 184.546 183.391 181.758 183.391 181.758C183.391 181.758 180.78 176.878 180.606 175.833C180.431 174.787 180.954 173.741 179.909 173.393C178.865 173.044 177.472 172.521 177.472 172.521Z" fill="white"/>
<path opacity="0.1" d="M182.086 97.3242C182.086 97.3242 181.65 95.3201 182.173 96.54C182.695 97.7599 186.525 112.573 183.043 121.46C183.043 121.46 182.695 132.439 182.347 132.439C181.999 132.439 177.82 132.265 177.994 131.045C178.168 129.825 178.517 110.133 178.517 108.913C178.517 107.693 179.126 99.764 179.126 99.764L182.086 97.3242Z" fill="black"/>
<path d="M181.302 94.2747C181.86 94.9679 182.328 95.7291 182.695 96.5402C183.217 97.76 187.047 112.573 183.565 121.461C183.565 121.461 183.217 132.44 182.869 132.44C182.521 132.44 178.343 132.265 178.517 131.045C178.691 129.826 179.039 110.133 179.039 108.913C179.039 107.693 177.994 99.5027 177.994 99.5027L181.302 94.2747Z" fill="#575656"/>
<path d="M168.446 76.0538C166.619 76.6254 165.255 78.1193 163.984 79.5514C163.489 80.0578 163.07 80.6325 162.739 81.2579C162.416 82.0552 162.245 82.9061 162.236 83.7664C162.151 85.0997 162.124 86.435 162.154 87.7724C162.184 89.0534 162.262 90.3667 161.869 91.5861C161.488 92.765 160.697 93.7616 160.153 94.8745C159.285 96.6498 159.085 98.8041 159.886 100.611C160.327 101.605 161.04 102.451 161.573 103.399C162.516 105.087 162.865 107.043 162.565 108.954L165.072 105.703C166.677 103.621 168.334 101.427 168.785 98.8359C169.441 95.0775 167.438 91.3963 167.043 87.6016C166.932 86.5435 166.969 85.4008 167.568 84.5216C168.451 83.2237 170.372 82.7652 170.903 81.2875C170.98 81.9063 174.683 83.8771 175.129 83.4937C175.403 84.2346 175.483 85.0336 175.36 85.8142C175.238 86.5947 174.917 87.3308 174.429 87.9518C174.071 88.3973 173.63 88.7721 173.281 89.2246C172.375 90.3964 172.169 91.9765 172.297 93.4525C172.425 94.9284 172.849 96.3618 173.074 97.8261C173.263 99.2841 173.354 100.753 173.345 102.224C173.361 103.241 173.334 104.377 172.62 105.103C173.79 104.693 174.858 104.037 175.754 103.18C176.24 102.651 176.763 102.155 177.317 101.697C178.439 100.888 179.958 100.647 180.873 99.6094C181.69 98.6827 181.82 97.3231 181.628 96.1023C181.436 94.8814 180.968 93.7198 180.733 92.5066C180.435 90.9635 180.519 89.371 180.975 87.8674C181.308 86.7753 181.84 85.7226 181.905 84.5826C182.037 82.2575 180.246 80.3126 178.524 78.7464C175.944 76.4001 171.949 74.9572 168.446 76.0538Z" fill="#1F2421"/>
<path d="M316.318 33.199C314.775 33.7694 312.065 34.236 308.929 34.6127C300.4 35.6372 288.711 36.0009 288.711 36.0009C288.711 36.0009 228.642 40.9884 183.619 22.44C183.619 22.44 177.07 19.0025 183.153 14.3783C184.088 13.6862 185.082 13.0786 186.124 12.5626C186.124 12.5626 186.149 12.537 186.199 12.4894C186.89 11.8497 187.637 11.2733 188.431 10.7672C190.763 9.25816 194.702 7.46771 199.495 8.27865L317.739 27.4239C317.739 27.4239 322.058 31.0768 316.318 33.199Z" fill="#F2F2F2"/>
<path d="M292.757 24.5231L317.512 6.94141L328.423 8.83019L317.739 27.4238C317.739 27.4238 293.041 27.6205 292.757 24.5231Z" fill="#F2F2F2"/>
<path d="M230.433 13.8428L279.741 0L287.69 1.66239L265.416 11.6921L258.454 19.4881L230.433 13.8428Z" fill="#F2F2F2"/>
<path d="M308.929 34.6127C300.4 35.6371 288.711 36.0008 288.711 36.0008C288.711 36.0008 228.642 40.9883 183.619 22.44C183.619 22.44 177.07 19.0024 183.153 14.3782L183.174 14.4627C183.174 14.4627 192.888 21.0352 239.306 26.523L308.929 34.6127Z" fill="#F2F2F2"/>
<path d="M301.002 34.2326L323.049 43.2423L328.586 42.6268L315.4 32.7071C315.4 32.7071 299.451 29.3022 301.002 34.2326Z" fill="#F2F2F2"/>
<path d="M191.159 15.4251C190.107 15.4435 187.697 13.6769 186.199 12.4892C186.89 11.8495 187.637 11.2732 188.431 10.7671C189.638 11.6949 191.788 13.1972 192.983 13.1437C194.708 13.0664 192.743 15.3976 191.159 15.4251Z" fill="#F2F2F2"/>
<path d="M291.311 65.3796L277.158 66.1202L237.365 39.2597L229.978 34.2732L226.387 31.8498C233.12 26.1536 260.586 34.0074 260.586 34.0074C261.112 34.4518 261.278 35.1898 261.255 36.0048C261.209 37.5323 260.493 39.3302 260.216 39.97C260.15 40.1242 260.109 40.211 260.109 40.211L291.311 65.3796Z" fill="#F2F2F2"/>
<path d="M316.318 33.199C314.775 33.7694 312.065 34.236 308.929 34.6127C300.4 35.6372 288.711 36.0009 288.711 36.0009C288.711 36.0009 228.642 40.9884 183.619 22.44C183.619 22.44 177.07 19.0025 183.153 14.3783C184.088 13.6862 185.082 13.0786 186.124 12.5626C186.124 12.5626 186.149 12.537 186.199 12.4894C186.89 11.8497 187.637 11.2733 188.431 10.7672C190.763 9.25816 194.702 7.46771 199.495 8.27865L317.739 27.4239C317.739 27.4239 322.058 31.0768 316.318 33.199Z" fill="#1F2421"/>
<path d="M292.757 24.5231L317.512 6.94141L328.423 8.83019L317.739 27.4238C317.739 27.4238 293.041 27.6205 292.757 24.5231Z" fill="#1F2421"/>
<path d="M230.433 13.8428L279.741 0L287.69 1.66239L265.416 11.6921L258.454 19.4881L230.433 13.8428Z" fill="#1F2421"/>
<path d="M308.929 34.6127C300.4 35.6371 288.711 36.0008 288.711 36.0008C288.711 36.0008 228.642 40.9883 183.619 22.44C183.619 22.44 177.07 19.0024 183.153 14.3782L183.174 14.4627C183.174 14.4627 192.888 21.0352 239.306 26.523L308.929 34.6127Z" fill="white"/>
<path d="M301.002 34.2326L323.049 43.2423L328.586 42.6268L315.4 32.7071C315.4 32.7071 299.451 29.3022 301.002 34.2326Z" fill="#1F2421"/>
<path d="M191.159 15.4251C190.107 15.4435 187.697 13.6769 186.199 12.4892C186.89 11.8495 187.637 11.2732 188.431 10.7671C189.638 11.6949 191.788 13.1972 192.983 13.1437C194.708 13.0664 192.743 15.3976 191.159 15.4251Z" fill="white"/>
<path d="M291.311 65.3796L277.158 66.1202L237.365 39.2597L229.978 34.2732L226.387 31.8498C233.12 26.1536 260.586 34.0074 260.586 34.0074C261.112 34.4518 261.278 35.1898 261.255 36.0048C261.209 37.5323 260.493 39.3302 260.216 39.97C260.15 40.1242 260.109 40.211 260.109 40.211L291.311 65.3796Z" fill="#1F2421"/>
</svg>
