<svg width="292" height="305" viewBox="0 0 292 305" fill="none" xmlns="http://www.w3.org/2000/svg">
<path d="M242.248 144.964L146.748 121.896V302.411L242.248 277.341V144.964Z" fill="#535461"/>
<path opacity="0.3" d="M242.248 144.964L146.748 121.896V302.411L242.248 277.341V144.964Z" fill="black"/>
<path d="M51.2512 144.964L146.748 121.896V302.411L51.2512 277.839V144.964Z" fill="#535461"/>
<path opacity="0.2" d="M51.2512 144.166L146.748 121.098V302.411L51.2512 277.839V144.166Z" fill="#212121"/>
<path d="M145.952 122.694L196.249 80.7802L291.749 105.352L241.453 145.762L145.952 122.694Z" fill="#575656"/>
<path d="M3.04736 106.648L52.0469 145.762L147.544 122.694L99.0453 81.578L3.04736 106.648Z" fill="#535461"/>
<path opacity="0.7" d="M2.25171 105.85L52.4447 145.762L147.941 122.694L98.2497 80.7802L2.25171 105.85Z" fill="#353535"/>
<path d="M51.2512 144.964V277.839L146.748 302.411L148.037 170.537L51.2512 144.964Z" fill="#565559"/>
<path d="M242.248 277.341L146.748 302.411V170.537L242.248 144.964V277.341Z" fill="#535461"/>
<path opacity="0.7" d="M242.248 277.341L146.748 302.411V170.537L242.248 144.964V277.341Z" fill="#373737"/>
<path opacity="0.07" d="M204.249 233.216V276.838L242.249 266.31V222.684L204.249 233.216Z" fill="black"/>
<path opacity="0.1" d="M50.002 213.911L103.501 227.447L146.501 192.347V170.788L51.0005 146.719L50.002 213.911Z" fill="black"/>
<path opacity="0.1" d="M243 213.911L189.501 227.447L146.501 192.347V170.788L242.002 146.719L243 213.911Z" fill="black"/>
<path d="M51.2512 144.964L2.25171 185.577L97.7484 209.646L146.748 170.537L51.2512 144.964Z" fill="#565559"/>
<path d="M242.248 144.964L291.749 185.577L196.75 209.646L146.748 170.537L242.248 144.964Z" fill="#535461"/>
<path opacity="0.7" d="M242.248 144.964L291.749 185.577L196.75 209.646L146.748 170.537L242.248 144.964Z" fill="#3E3E3E"/>
</svg>
