<svg width="42" height="44" viewBox="0 0 42 44" fill="none" xmlns="http://www.w3.org/2000/svg">
<path d="M20.9998 19.6167C19.729 19.6167 18.7082 20.6783 18.7082 22C18.7082 23.3217 19.729 24.3834 20.9998 24.3834C22.2707 24.3834 23.2915 23.3217 23.2915 22C23.2915 20.6783 22.2707 19.6167 20.9998 19.6167ZM20.9998 0.333344C9.49984 0.333344 0.166504 10.04 0.166504 22C0.166504 33.96 9.49984 43.6667 20.9998 43.6667C32.4998 43.6667 41.8332 33.96 41.8332 22C41.8332 10.04 32.4998 0.333344 20.9998 0.333344ZM25.5623 26.745L8.49984 35L16.4373 17.255L33.4998 9.00001L25.5623 26.745Z" fill="#84BD00"/>
</svg>
