<svg width="38" height="24" viewBox="0 0 38 24" fill="none" xmlns="http://www.w3.org/2000/svg">
<path d="M27.3332 0.333252H3.99984C2.1665 0.333252 0.666504 1.81659 0.666504 3.66659V18.6666H3.99984C3.99984 21.4166 6.23317 23.6666 8.99984 23.6666C11.7665 23.6666 13.9998 21.4166 13.9998 18.6666H23.1665C23.1665 21.4166 25.3998 23.6666 28.1665 23.6666C30.9332 23.6666 33.1665 21.4166 33.1665 18.6666H37.3332V10.3333L27.3332 0.333252ZM3.99984 10.3333V3.66659H10.6665V10.3333H3.99984ZM8.99984 21.1666C7.6165 21.1666 6.49984 20.0499 6.49984 18.6666C6.49984 17.2833 7.6165 16.1666 8.99984 16.1666C10.3832 16.1666 11.4998 17.2833 11.4998 18.6666C11.4998 20.0499 10.3832 21.1666 8.99984 21.1666ZM20.6665 10.3333H13.9998V3.66659H20.6665V10.3333ZM28.1665 21.1666C26.7832 21.1666 25.6665 20.0499 25.6665 18.6666C25.6665 17.2833 26.7832 16.1666 28.1665 16.1666C29.5498 16.1666 30.6665 17.2833 30.6665 18.6666C30.6665 20.0499 29.5498 21.1666 28.1665 21.1666ZM23.9998 10.3333V3.66659H25.6665L32.3332 10.3333H23.9998Z" fill="white"/>
</svg>
