<svg width="38" height="32" viewBox="0 0 38 32" fill="none" xmlns="http://www.w3.org/2000/svg">
<path d="M27.6832 12L20.3832 1.0667C20.0665 0.600033 19.5332 0.366699 18.9998 0.366699C18.4665 0.366699 17.9332 0.600033 17.6165 1.08337L10.3165 12H2.33317C1.4165 12 0.666504 12.75 0.666504 13.6667C0.666504 13.8167 0.683171 13.9667 0.733171 14.1167L4.9665 29.5667C5.34984 30.9667 6.63317 32 8.1665 32H29.8332C31.3665 32 32.6498 30.9667 33.0498 29.5667L37.2832 14.1167L37.3332 13.6667C37.3332 12.75 36.5832 12 35.6665 12H27.6832ZM13.9998 12L18.9998 4.6667L23.9998 12H13.9998ZM18.9998 25.3334C17.1665 25.3334 15.6665 23.8334 15.6665 22C15.6665 20.1667 17.1665 18.6667 18.9998 18.6667C20.8332 18.6667 22.3332 20.1667 22.3332 22C22.3332 23.8334 20.8332 25.3334 18.9998 25.3334Z" fill="white"/>
</svg>
