<svg width="40" height="40" viewBox="0 0 40 40" fill="none" xmlns="http://www.w3.org/2000/svg">
<path d="M35 8.33335L20 1.66669L5 8.33335V18.3334C5 27.5834 11.4 36.2333 20 38.3334C23.8333 37.4 27.2167 35.1667 29.8 32.15L24.6 26.95C21.3667 29.1 16.9667 28.7334 14.1167 25.8834C10.8667 22.6334 10.8667 17.35 14.1167 14.1C17.3667 10.85 22.65 10.85 25.9 14.1C28.75 16.95 29.1 21.35 26.9667 24.5834L31.8 29.4167C33.8167 26.15 35 22.3 35 18.3334V8.33335Z" fill="#84BD00"/>
<path d="M20 25C22.7614 25 25 22.7614 25 20C25 17.2386 22.7614 15 20 15C17.2386 15 15 17.2386 15 20C15 22.7614 17.2386 25 20 25Z" fill="#84BD00"/>
</svg>
