<svg width="33" height="33" viewBox="0 0 33 33" fill="none" xmlns="http://www.w3.org/2000/svg">
<path d="M16.5 0.25C7.53 0.25 0.25 7.53 0.25 16.5C0.25 25.47 7.53 32.75 16.5 32.75C25.47 32.75 32.75 25.47 32.75 16.5C32.75 7.53 25.47 0.25 16.5 0.25ZM18.125 27.875H14.875V24.625H18.125V27.875ZM21.4888 15.2812L20.0263 16.7763C18.8563 17.9625 18.125 18.9375 18.125 21.375H14.875V20.5625C14.875 18.775 15.6062 17.15 16.7763 15.9637L18.7913 13.9163C19.3925 13.3313 19.75 12.5188 19.75 11.625C19.75 9.8375 18.2875 8.375 16.5 8.375C14.7125 8.375 13.25 9.8375 13.25 11.625H10C10 8.03375 12.9087 5.125 16.5 5.125C20.0912 5.125 23 8.03375 23 11.625C23 13.055 22.415 14.355 21.4888 15.2812Z" fill="#84BD00"/>
</svg>
