<svg width="240" height="184" viewBox="0 0 240 184" fill="none" xmlns="http://www.w3.org/2000/svg">
<path opacity="0.1" d="M6.38683 168.862C9.62685 168.862 12.2534 168.5 12.2534 168.054C12.2534 167.608 9.62685 167.247 6.38683 167.247C3.14682 167.247 0.520264 167.608 0.520264 168.054C0.520264 168.5 3.14682 168.862 6.38683 168.862Z" fill="#84BD00"/>
<path opacity="0.1" d="M28.8602 171.143C32.1002 171.143 34.7268 170.782 34.7268 170.336C34.7268 169.89 32.1002 169.528 28.8602 169.528C25.6202 169.528 22.9937 169.89 22.9937 170.336C22.9937 170.782 25.6202 171.143 28.8602 171.143Z" fill="#84BD00"/>
<path opacity="0.1" d="M55.3326 168.054C58.5726 168.054 61.1992 167.693 61.1992 167.247C61.1992 166.801 58.5726 166.439 55.3326 166.439C52.0926 166.439 49.4661 166.801 49.4661 167.247C49.4661 167.693 52.0926 168.054 55.3326 168.054Z" fill="#84BD00"/>
<path opacity="0.1" d="M19.8649 177.406C22.1688 177.406 24.0365 177.149 24.0365 176.832C24.0365 176.516 22.1688 176.259 19.8649 176.259C17.561 176.259 15.6934 176.516 15.6934 176.832C15.6934 177.149 17.561 177.406 19.8649 177.406Z" fill="#84BD00"/>
<path opacity="0.1" d="M43.1926 176.832C45.4965 176.832 47.3642 176.576 47.3642 176.259C47.3642 175.943 45.4965 175.686 43.1926 175.686C40.8887 175.686 39.021 175.943 39.021 176.259C39.021 176.576 40.8887 176.832 43.1926 176.832Z" fill="#84BD00"/>
<path d="M28.9875 170.154C28.9875 170.154 20.7579 143.149 30.2735 132.333C37.3943 124.239 45.4739 125.208 49.0933 126.209C50.0298 126.459 50.901 126.91 51.6464 127.53C52.3917 128.15 52.9936 128.925 53.4103 129.801C54.6759 132.53 54.4464 136.968 45.5148 142.146C30.5598 150.814 29.6305 162.704 29.6305 162.704L28.9875 170.154Z" fill="white"/>
<path d="M47.8051 130.04C47.8051 130.04 23.5481 137.633 28.9876 170.154" stroke="#565987" stroke-miterlimit="10"/>
<path d="M33.6384 132.763C33.6384 132.763 36.9784 135.014 35.9105 138.401" stroke="#565987" stroke-miterlimit="10"/>
<path d="M45.3717 134.764C45.3717 134.764 43.3268 132.685 40.8457 133.832" stroke="#565987" stroke-miterlimit="10"/>
<path d="M35.7834 145.228C35.7834 145.228 32.198 143.408 31.271 145.683" stroke="#565987" stroke-miterlimit="10"/>
<path d="M26.9106 149.022C26.9106 149.022 29.6031 148.808 29.6531 150.098" stroke="#565987" stroke-miterlimit="10"/>
<path d="M28.6602 170.37C28.6602 170.37 38.2984 150.742 40.9454 151.172C42.2019 151.376 42.7813 152.614 43.0448 153.858C43.3715 155.471 43.188 157.145 42.52 158.649C41.1567 161.776 37.4714 167.747 28.6602 170.37Z" fill="white"/>
<path d="M40.866 154.898C40.866 154.898 30.7506 169.583 28.7966 170.227" stroke="#565987" stroke-miterlimit="10"/>
<path d="M41.7977 157.188H39.437" stroke="#565987" stroke-miterlimit="10"/>
<path d="M38.9687 162.561L35.2698 162.72" stroke="#565987" stroke-miterlimit="10"/>
<path d="M36.7173 158.264L37.1194 160.193" stroke="#565987" stroke-miterlimit="10"/>
<path d="M32.7817 164.137L32.8544 165.891" stroke="#565987" stroke-miterlimit="10"/>
<path d="M28.9399 170.37C28.9399 170.37 19.3016 150.742 16.6546 151.172C15.3982 151.376 14.8188 152.614 14.5552 153.858C14.2311 155.467 14.4154 157.136 15.0823 158.635C16.4479 161.776 20.1219 167.747 28.9399 170.37Z" fill="white"/>
<path d="M16.7271 154.898C16.7271 154.898 26.8425 169.583 28.7965 170.227" stroke="#565987" stroke-miterlimit="10"/>
<path d="M15.7979 157.188H18.1586" stroke="#565987" stroke-miterlimit="10"/>
<path d="M18.6245 162.561L22.3258 162.72" stroke="#565987" stroke-miterlimit="10"/>
<path d="M20.8782 158.264L20.4761 160.193" stroke="#565987" stroke-miterlimit="10"/>
<path d="M24.8137 164.137L24.741 165.891" stroke="#565987" stroke-miterlimit="10"/>
<path d="M45.4875 174.954C45.7503 174.74 45.942 174.451 46.0373 174.126C46.0795 173.962 46.0644 173.789 45.9945 173.636C45.9246 173.482 45.8042 173.357 45.6533 173.282C45.3011 173.145 44.924 173.391 44.64 173.637C44.3559 173.882 44.0265 174.167 43.6539 174.114C43.8441 173.939 43.9858 173.717 44.0655 173.471C44.1451 173.225 44.1598 172.962 44.1083 172.708C44.0926 172.603 44.0486 172.504 43.981 172.422C43.7856 172.213 43.4312 172.304 43.1972 172.467C42.4519 172.991 42.2452 174.003 42.2406 174.915C42.1997 174.58 42.1951 174.243 42.227 173.907C42.227 173.571 42.1316 173.195 41.8475 173.016C41.6718 172.919 41.4731 172.872 41.2727 172.879C40.9364 172.879 40.5661 172.9 40.3366 173.145C40.0526 173.45 40.1253 173.96 40.3729 174.296C40.6492 174.608 40.9765 174.87 41.3409 175.072C41.614 175.239 41.8469 175.464 42.0225 175.732C42.0428 175.769 42.0596 175.809 42.0725 175.85H44.1696C44.6479 175.613 45.0913 175.311 45.4875 174.954Z" fill="white"/>
<path d="M8.76338 167.049C9.0264 166.835 9.21819 166.546 9.31323 166.221C9.35514 166.057 9.33991 165.884 9.27008 165.73C9.20025 165.576 9.07999 165.451 8.92924 165.375C8.57707 165.241 8.20217 165.486 7.91588 165.732C7.6296 165.978 7.30469 166.26 6.92979 166.207C7.12055 166.032 7.2627 165.811 7.34235 165.565C7.422 165.318 7.43642 165.055 7.38421 164.802C7.36718 164.697 7.32246 164.599 7.2547 164.517C7.0593 164.308 6.70485 164.397 6.47083 164.563C5.72558 165.086 5.51882 166.098 5.51427 167.01C5.47334 166.675 5.46877 166.337 5.50064 166C5.50064 165.664 5.40748 165.291 5.12347 165.111C4.94688 165.014 4.74749 164.967 4.54636 164.974C4.21236 164.961 3.83973 164.995 3.61025 165.241C3.32624 165.545 3.40122 166.055 3.64661 166.378C3.92252 166.692 4.2508 166.955 4.61679 167.156C4.89064 167.322 5.12363 167.547 5.29842 167.816C5.31897 167.854 5.33645 167.893 5.35068 167.934H7.44783C7.92439 167.7 8.36697 167.402 8.76338 167.049Z" fill="white"/>
<path d="M21.0033 174.954C21.2661 174.74 21.4579 174.451 21.5532 174.126C21.5954 173.962 21.5803 173.789 21.5104 173.636C21.4405 173.482 21.32 173.357 21.1692 173.282C20.817 173.145 20.4398 173.391 20.1558 173.637C19.8718 173.882 19.5424 174.167 19.1697 174.114C19.3599 173.939 19.5017 173.717 19.5813 173.471C19.6609 173.225 19.6757 172.962 19.6242 172.708C19.6085 172.603 19.5645 172.504 19.4969 172.422C19.3015 172.213 18.9471 172.304 18.713 172.467C17.9678 172.991 17.761 174.003 17.7565 174.915C17.7156 174.58 17.711 174.243 17.7429 173.907C17.7429 173.571 17.6497 173.195 17.3657 173.016C17.189 172.919 16.9897 172.872 16.7886 172.879C16.4546 172.879 16.0819 172.9 15.8525 173.145C15.5685 173.45 15.6412 173.96 15.8888 174.296C16.1651 174.608 16.4924 174.87 16.8567 175.072C17.1299 175.239 17.3627 175.464 17.5384 175.732C17.5587 175.769 17.5754 175.809 17.5884 175.85H19.6855C20.1638 175.613 20.6072 175.311 21.0033 174.954Z" fill="white"/>
<path d="M55.7143 158.974C55.7143 158.974 56.5004 160.004 55.3507 161.558C54.201 163.111 53.2558 164.424 53.6376 165.393C53.6376 165.393 55.3712 162.506 56.7822 162.465C58.1931 162.425 57.2661 160.709 55.7143 158.974Z" fill="white"/>
<path opacity="0.1" d="M55.7143 158.974C55.7827 159.073 55.837 159.182 55.8756 159.297C57.2525 160.916 57.9841 162.427 56.6617 162.465C55.428 162.502 53.9511 164.708 53.5967 165.266C53.608 165.309 53.6217 165.35 53.6376 165.393C53.6376 165.393 55.3712 162.506 56.7822 162.465C58.1931 162.425 57.2661 160.709 55.7143 158.974Z" fill="black"/>
<path d="M57.1752 160.286C57.1752 160.648 57.1343 160.941 57.0843 160.941C57.0343 160.941 56.9934 160.648 56.9934 160.286C56.9934 159.925 57.0457 160.095 57.0957 160.095C57.1456 160.095 57.1752 159.925 57.1752 160.286Z" fill="#FFD037"/>
<path d="M57.6774 160.719C57.3593 160.891 57.0821 160.996 57.0594 160.946C57.0367 160.896 57.2729 160.719 57.591 160.552C57.9091 160.386 57.7819 160.505 57.8069 160.552C57.8319 160.6 57.9955 160.546 57.6774 160.719Z" fill="#FFD037"/>
<path d="M51.5609 158.974C51.5609 158.974 50.7748 160.004 51.9245 161.558C53.0742 163.111 54.0216 164.424 53.6376 165.393C53.6376 165.393 51.904 162.506 50.4931 162.465C49.0821 162.425 50.0182 160.709 51.5609 158.974Z" fill="white"/>
<path opacity="0.1" d="M51.5609 158.974C51.4928 159.073 51.4392 159.182 51.4019 159.297C50.025 160.916 49.2911 162.427 50.6135 162.465C51.8472 162.502 53.3264 164.708 53.6808 165.266C53.6672 165.309 53.6535 165.35 53.6376 165.393C53.6376 165.393 51.904 162.506 50.4931 162.465C49.0821 162.425 50.0182 160.709 51.5609 158.974Z" fill="black"/>
<path d="M50.0999 160.286C50.0999 160.648 50.1408 160.941 50.1907 160.941C50.2407 160.941 50.2816 160.648 50.2816 160.286C50.2816 159.925 50.2316 160.095 50.1817 160.095C50.1317 160.095 50.0999 159.925 50.0999 160.286Z" fill="#FFD037"/>
<path d="M49.5977 160.719C49.9158 160.891 50.193 160.996 50.218 160.946C50.243 160.896 50.0022 160.719 49.6864 160.552C49.3705 160.386 49.4932 160.505 49.4591 160.552C49.4251 160.6 49.2819 160.546 49.5977 160.719Z" fill="#FFD037"/>
<path d="M50.3499 165.257C50.3499 165.257 52.5493 165.191 53.2104 164.717C53.8716 164.244 56.5913 163.68 56.7572 164.438C56.9231 165.195 60.0586 168.205 57.5774 168.225C55.0963 168.245 51.8131 167.838 51.1519 167.436C50.4907 167.033 50.3499 165.257 50.3499 165.257Z" fill="#A8A8A8"/>
<path opacity="0.2" d="M57.6229 167.961C55.1417 167.982 51.8563 167.574 51.1951 167.172C50.6907 166.865 50.4907 165.764 50.4248 165.254H50.3499C50.3499 165.254 50.4907 167.031 51.1519 167.433C51.8131 167.836 55.0963 168.243 57.5774 168.223C58.2954 168.223 58.5408 167.961 58.5272 167.584C58.4249 167.816 58.1545 167.957 57.6229 167.961Z" fill="black"/>
<path opacity="0.1" d="M139.141 184C180.479 184 213.989 182.478 213.989 180.602C213.989 178.725 180.479 177.203 139.141 177.203C97.8041 177.203 64.2937 178.725 64.2937 180.602C64.2937 182.478 97.8041 184 139.141 184Z" fill="black"/>
<path d="M131.516 78.9978C131.516 78.9978 136.288 88.0352 136.658 89.3249C136.754 89.683 136.962 90.0009 137.252 90.2325C137.541 90.464 137.897 90.5971 138.267 90.6124C138.267 90.6124 143.02 91.7498 144.156 91.9022C145.292 92.0546 155.139 92.8871 155.139 92.8871C155.139 92.8871 157.639 92.9645 157.941 92.0546C158.218 91.222 163.046 86.8478 165.841 90.6647C166.099 91.0178 166.27 91.4267 166.34 91.8583C166.41 92.2899 166.378 92.732 166.245 93.1487C165.732 94.7865 164.678 97.3865 163.546 95.7692C161.956 93.4945 160.106 94.1337 160.106 95.3461C160.106 96.5585 157.561 96.1081 156.73 96.2787C156.275 96.372 154.712 96.7882 153.36 97.1522C151.791 97.5768 150.184 97.8442 148.562 97.9506C145.878 98.1257 141.923 98.2713 140.521 97.7413C138.828 97.0976 135.876 96.9497 134.613 96.9156C134.195 96.9055 133.791 96.7603 133.461 96.5016C131.708 95.1275 130.225 93.439 129.087 91.5223C127.118 88.1103 123.066 81.0451 123.339 78.9978C123.612 76.9506 131.516 78.9978 131.516 78.9978Z" fill="#EFB7B9"/>
<path opacity="0.05" d="M131.516 78.9978C131.516 78.9978 136.288 88.0352 136.658 89.3249C136.754 89.683 136.962 90.0009 137.252 90.2325C137.541 90.464 137.897 90.5971 138.267 90.6124C138.267 90.6124 143.02 91.7498 144.156 91.9022C145.292 92.0546 155.139 92.8871 155.139 92.8871C155.139 92.8871 157.639 92.9645 157.941 92.0546C158.218 91.222 163.046 86.8478 165.841 90.6647C166.099 91.0178 166.27 91.4267 166.34 91.8583C166.41 92.2899 166.378 92.732 166.245 93.1487C165.732 94.7865 164.678 97.3865 163.546 95.7692C161.956 93.4945 160.106 94.1337 160.106 95.3461C160.106 96.5585 157.561 96.1081 156.73 96.2787C156.275 96.372 154.712 96.7882 153.36 97.1522C151.791 97.5768 150.184 97.8442 148.562 97.9506C145.878 98.1257 141.923 98.2713 140.521 97.7413C138.828 97.0976 135.876 96.9497 134.613 96.9156C134.195 96.9055 133.791 96.7603 133.461 96.5016C131.708 95.1275 130.225 93.439 129.087 91.5223C127.118 88.1103 123.066 81.0451 123.339 78.9978C123.612 76.9506 131.516 78.9978 131.516 78.9978Z" fill="black"/>
<path d="M204.841 163.653C204.833 168.486 202.962 173.13 199.618 176.617C196.275 180.104 191.716 182.164 186.893 182.369C182.069 182.575 177.352 180.909 173.725 177.719C170.098 174.529 167.84 170.06 167.422 165.245C167.395 164.94 167.375 164.636 167.365 164.335V164.319C167.356 164.093 167.352 163.866 167.352 163.637C167.352 158.66 169.327 153.887 172.842 150.367C176.357 146.848 181.125 144.871 186.097 144.871C191.068 144.871 195.836 146.848 199.351 150.367C202.867 153.887 204.841 158.66 204.841 163.637V163.653Z" fill="#65617D"/>
<path d="M186.097 173.878C191.743 173.878 196.321 169.295 196.321 163.641C196.321 157.988 191.743 153.405 186.097 153.405C180.45 153.405 175.872 157.988 175.872 163.641C175.872 169.295 180.45 173.878 186.097 173.878Z" fill="#DCE0ED"/>
<path d="M186.097 169.783C189.485 169.783 192.231 167.033 192.231 163.641C192.231 160.25 189.485 157.5 186.097 157.5C182.709 157.5 179.962 160.25 179.962 163.641C179.962 167.033 182.709 169.783 186.097 169.783Z" fill="#65617D"/>
<path d="M136.869 128.004L91.7317 128.914V122.253C92.1361 116.892 97.6392 115.011 102.638 114.422C106.546 113.978 110.502 114.275 114.3 115.297C123.877 117.836 129.978 118.327 132.984 118.375C133.644 118.385 134.28 118.623 134.785 119.048C135.29 119.473 135.633 120.06 135.756 120.709C135.899 121.471 136.04 122.301 136.172 123.12C136.272 123.762 136.367 124.394 136.453 124.983C136.703 126.68 136.869 128.004 136.869 128.004Z" fill="#65617D"/>
<path d="M172.88 164.854H79.1124C78.3884 164.861 77.6783 164.655 77.0703 164.262C76.4623 163.868 75.9833 163.305 75.6928 162.641C74.9862 160.951 75.9746 159.872 77.0288 159.24C79.1864 157.96 80.8219 155.957 81.6458 153.585C82.6455 150.628 83.6225 146.001 84.0065 138.772C84.4018 131.295 87.1056 127.599 90.0275 125.806C93.8015 123.495 97.939 124.362 97.939 124.362L135.958 124.667C136.635 124.974 137.261 125.383 137.814 125.879C141.202 129.037 136.263 133.158 136.263 133.158C125.659 144.379 133.686 155.753 133.686 155.753H153.14C156.774 155.772 160.329 154.682 163.33 152.63C165.959 150.81 166.965 149.052 167.37 147.987C167.67 147.173 167.974 146.361 168.338 145.574C173.441 134.494 167.286 116.469 164.63 109.729C163.971 108.053 163.528 107.074 163.528 107.074L169.628 106.619L173.491 106.326H173.53C182.032 121.007 185.192 136.093 186.253 147.271C186.353 148.324 186.435 149.345 186.501 150.325C186.621 152.189 186.358 154.058 185.728 155.816C185.098 157.574 184.114 159.184 182.837 160.546C181.56 161.908 180.017 162.993 178.305 163.734C176.592 164.475 174.746 164.856 172.88 164.854Z" fill="#E4572E"/>
<path opacity="0.1" d="M136.456 124.983H91.7317V123.12H136.174C136.274 123.75 136.369 124.383 136.456 124.983Z" fill="black"/>
<path opacity="0.1" d="M137.817 125.893H90.3888C90.2654 125.893 90.1433 125.869 90.0298 125.82C93.8037 123.509 97.9412 124.376 97.9412 124.376L135.96 124.681C136.637 124.988 137.263 125.397 137.817 125.893Z" fill="black"/>
<path d="M138.212 123.564H73.7933C73.2801 123.564 72.864 123.98 72.864 124.494V124.496C72.864 125.01 73.2801 125.427 73.7933 125.427H138.212C138.725 125.427 139.141 125.01 139.141 124.496V124.494C139.141 123.98 138.725 123.564 138.212 123.564Z" fill="#DCE0ED"/>
<path opacity="0.1" d="M186.253 147.275C184.092 149.627 182.502 150.553 182.577 148.071C182.804 140.565 169.626 106.626 169.626 106.626L173.523 106.331C182.027 121 185.19 136.086 186.253 147.275Z" fill="black"/>
<path opacity="0.1" d="M204.728 161.585C202.49 162.122 199.729 162.668 196.321 163.177C195.053 163.364 193.69 163.543 192.231 163.714C188.748 164.128 184.72 164.49 180.066 164.767C178.749 164.846 177.38 164.918 175.961 164.984C173.302 165.105 170.457 165.197 167.424 165.261L167.368 164.351V164.335C171.605 162.622 178.274 158.053 179.346 146.149C182.024 145.116 184.903 144.712 187.762 144.968C190.621 145.224 193.382 146.134 195.834 147.627C198.287 149.12 200.364 151.156 201.906 153.579C203.448 156.002 204.414 158.748 204.73 161.603L204.728 161.585Z" fill="black"/>
<path d="M163.832 164.854C163.832 164.854 185.349 162.516 177.937 129.694C177.937 129.694 188.569 139.452 195.183 144.875C201.797 150.298 213.587 157.775 213.587 157.775C213.587 157.775 206.548 164.36 163.832 164.854Z" fill="#84BD00"/>
<path d="M163.832 164.854C163.832 164.854 185.349 162.516 177.937 129.694C177.937 129.694 188.569 139.452 195.183 144.875C201.797 150.298 213.587 157.775 213.587 157.775C213.587 157.775 206.548 164.36 163.832 164.854Z" fill="#E4572E"/>
<path d="M106.348 182.408C116.701 182.408 125.093 174.006 125.093 163.641C125.093 153.277 116.701 144.875 106.348 144.875C95.9956 144.875 87.6033 153.277 87.6033 163.641C87.6033 174.006 95.9956 182.408 106.348 182.408Z" fill="#65617D"/>
<path d="M106.348 173.878C111.995 173.878 116.572 169.295 116.572 163.641C116.572 157.988 111.995 153.405 106.348 153.405C100.701 153.405 96.1235 157.988 96.1235 163.641C96.1235 169.295 100.701 173.878 106.348 173.878Z" fill="#DCE0ED"/>
<path d="M106.348 169.783C109.736 169.783 112.483 167.033 112.483 163.641C112.483 160.25 109.736 157.5 106.348 157.5C102.96 157.5 100.213 160.25 100.213 163.641C100.213 167.033 102.96 169.783 106.348 169.783Z" fill="#65617D"/>
<path opacity="0.1" d="M127.365 158.005C127.365 145.888 117.752 136.063 105.894 136.063C94.0356 136.063 84.4224 145.888 84.4224 158.005C84.4224 158.517 84.4398 159.025 84.4746 159.527H127.313C127.348 159.025 127.365 158.517 127.365 158.005Z" fill="black"/>
<path d="M126.57 157.627C126.57 145.958 117.313 136.498 105.894 136.498C94.4741 136.498 85.2175 145.958 85.2175 157.627C85.2175 158.121 85.2357 158.608 85.2675 159.092H126.52C126.552 158.608 126.57 158.121 126.57 157.627Z" fill="#84BD00"/>
<path d="M126.57 157.627C126.57 157.966 126.57 158.31 126.545 158.637C126.545 158.79 126.529 158.94 126.52 159.092H85.2675C85.2675 158.94 85.2493 158.79 85.2425 158.637C85.2266 158.303 85.2175 157.955 85.2175 157.627C85.2175 145.958 94.4741 136.498 105.894 136.498C117.313 136.498 126.57 145.958 126.57 157.627Z" fill="#E4572E"/>
<path opacity="0.1" d="M126.545 158.649C126.545 158.801 126.529 158.951 126.52 159.103H85.2674C85.2674 158.951 85.2492 158.801 85.2424 158.649H126.545Z" fill="black"/>
<path opacity="0.1" d="M129.296 159.547H78.5965C77.2575 159.547 76.1721 160.633 76.1721 161.973C76.1721 163.313 77.2575 164.399 78.5965 164.399H129.296C130.635 164.399 131.72 163.313 131.72 161.973C131.72 160.633 130.635 159.547 129.296 159.547Z" fill="black"/>
<path d="M129.296 159.092H78.5965C77.2575 159.092 76.1721 160.178 76.1721 161.518C76.1721 162.858 77.2575 163.944 78.5965 163.944H129.296C130.635 163.944 131.72 162.858 131.72 161.518C131.72 160.178 130.635 159.092 129.296 159.092Z" fill="#DCE0ED"/>
<path opacity="0.1" d="M182.555 127.447C183.925 126.827 183.772 123.526 182.212 120.074C180.653 116.621 178.279 114.325 176.909 114.945C175.539 115.565 175.693 118.866 177.252 122.319C178.811 125.771 181.186 128.067 182.555 127.447Z" fill="black"/>
<path d="M182.782 127.219C184.152 126.599 183.999 123.298 182.439 119.845C180.88 116.393 178.506 114.097 177.136 114.717C175.766 115.337 175.92 118.638 177.479 122.091C179.038 125.543 181.413 127.839 182.782 127.219Z" fill="#DCE0ED"/>
<path opacity="0.1" d="M173.489 106.331V109.895H166.559C165.913 109.896 165.269 109.844 164.632 109.74C163.973 108.064 163.53 107.086 163.53 107.086L169.631 106.631L173.489 106.331Z" fill="black"/>
<path d="M173.489 109.431H166.559C160.472 109.431 155.539 104.882 155.539 99.2472V98.3032C155.539 92.6801 160.472 88.1216 166.559 88.1216L173.489 88.7517V109.431Z" fill="#E4572E"/>
<path d="M162.072 94.1496C162.072 94.1496 166.218 96.3674 163.832 100.121C163.832 100.121 160.906 104.925 156.305 104.47L154.63 94.1496C154.63 94.1496 160.14 93.6378 162.072 94.1496Z" fill="#84BD00"/>
<path d="M160.479 93.9494C161.138 93.9744 161.783 94.1473 162.366 94.4551C162.95 94.763 163.457 95.198 163.85 95.7282C164.589 96.7518 165.03 98.244 163.837 100.121C163.837 100.121 160.91 104.925 156.309 104.47L154.635 94.1496C154.635 94.1496 158.082 93.8198 160.479 93.9494Z" fill="#CD4E29"/>
<path opacity="0.1" d="M173.261 88.7517H174.597C175.72 88.7517 176.796 89.198 177.589 89.9923C178.382 90.7866 178.828 91.8639 178.828 92.9872V105.198C178.828 106.321 178.382 107.398 177.589 108.193C176.796 108.987 175.72 109.433 174.597 109.433H173.261V88.7517Z" fill="black"/>
<path d="M173.489 88.7517H174.825C175.947 88.7517 177.023 89.198 177.816 89.9923C178.61 90.7866 179.055 91.8639 179.055 92.9872V105.198C179.055 106.321 178.61 107.398 177.816 108.193C177.023 108.987 175.947 109.433 174.825 109.433H173.489V88.7517Z" fill="#DCE0ED"/>
<path d="M124.289 115.311C124.289 115.311 125.359 115.702 126.788 116.248C129.06 117.124 132.264 118.402 133.377 119.103C134.49 119.804 138.641 120.955 141.75 121.764C144.054 122.362 146.427 122.655 148.807 122.636C151.224 122.613 154.153 122.59 154.962 122.59C155.103 122.589 155.245 122.6 155.385 122.622C156.234 122.763 156.2 123.334 156.18 123.47V123.5C151.181 126.532 145.121 140.105 144.744 142.38C144.46 144.086 141.963 148.815 140.732 151.076C140.318 151.834 140.05 152.314 140.05 152.314L141.566 154.056L145.958 156.028L150.122 157.848C150.122 157.848 154.517 158.075 154.592 157.848C154.667 157.62 154.667 155.271 154.667 155.271C154.132 154.925 153.624 154.539 153.149 154.115C152.141 153.237 151.205 152.279 150.35 151.251C147.928 148.369 152.774 142.835 152.774 142.835L162.09 130.704C162.09 130.704 162.846 129.339 166.482 123.88C170.117 118.421 166.482 115.463 166.482 115.463L160.083 112.804C148.986 108.646 135.601 105.314 135.601 105.314L135.411 105.289L132.573 104.934L124.289 115.311Z" fill="#EFB7B9"/>
<path d="M152.879 156.028C152.879 156.028 153.674 156.967 153.078 157.052C152.483 157.136 150.92 156.797 150.92 156.797L141.007 151.565C141.007 151.565 139.928 150.796 139.673 152.304C139.419 153.812 139.246 153.669 139.246 153.669C139.246 153.669 137.939 156.483 139.246 157.065C140.552 157.648 148.4 159.952 148.4 159.952C148.4 159.952 159.79 162.54 160.869 159.554C161.949 156.567 158.938 157.081 158.938 157.081C158.938 157.081 155.189 156.171 153.91 154.352C153.901 154.352 152.056 154.863 152.879 156.028Z" fill="#444053"/>
<path opacity="0.05" d="M166.472 115.463L160.074 112.804C148.977 108.646 135.592 105.314 135.592 105.314L135.401 105.289L132.564 104.934L124.289 115.311C124.289 115.311 125.359 115.702 126.788 116.248C129.06 117.124 132.264 118.402 133.377 119.103C134.49 119.804 138.641 120.955 141.75 121.764C144.054 122.362 146.427 122.655 148.807 122.636C151.224 122.613 154.153 122.59 154.962 122.59C155.104 122.589 155.245 122.6 155.385 122.622C156.234 122.763 156.2 123.334 156.18 123.47V123.5C151.181 126.532 145.122 140.105 144.744 142.38C144.46 144.086 141.963 148.815 140.732 151.076L140.566 151.381C140.236 151.326 139.825 151.445 139.68 152.304C139.423 153.81 139.253 153.669 139.253 153.669C139.253 153.669 137.946 156.483 139.253 157.065C140.559 157.648 148.4 159.952 148.4 159.952C148.4 159.952 159.79 162.54 160.869 159.554C161.949 156.567 158.938 157.081 158.938 157.081C158.938 157.081 155.189 156.171 153.91 154.352C153.797 154.385 153.686 154.426 153.578 154.474C153.444 154.365 153.301 154.247 153.149 154.115C152.141 153.237 151.205 152.279 150.35 151.251C147.928 148.369 152.774 142.835 152.774 142.835L162.09 130.704C162.09 130.704 162.846 129.339 166.482 123.88C170.117 118.421 166.472 115.463 166.472 115.463Z" fill="black"/>
<path d="M116.659 64.5808L117.004 65.0176L117.197 65.2609L118.402 66.7782C118.402 66.7782 121.276 67.7017 123.796 68.2999C126.42 68.9209 128.658 69.1916 126.879 67.7062C125.775 66.785 125.702 65.2427 126.104 63.589C126.443 62.3165 126.928 61.0875 127.549 59.9268C127.638 59.7539 127.727 59.5856 127.815 59.4218C128.379 58.3768 129.004 57.3658 129.687 56.3942C128.072 55.2742 126.396 54.2438 124.668 53.3074C122.587 52.2292 120.878 51.7584 121.962 53.892C122.657 55.2568 122.43 56.79 121.78 58.2572C121.73 58.3732 121.676 58.4846 121.619 58.6052C121.036 59.7421 120.315 60.8032 119.474 61.7647C118.612 62.7771 117.671 63.7188 116.659 64.5808Z" fill="#EFB7B9"/>
<path d="M131.05 99.2313L132.591 100.639L134.079 106.372H131.596L128.853 102.8L131.05 99.2313Z" fill="#444053"/>
<path opacity="0.1" d="M128.853 102.8L130.512 104.959L131.596 106.372H134.079L133.825 105.391L132.741 101.215L132.591 100.639L131.05 99.2313L128.946 102.648L128.853 102.8Z" fill="black"/>
<path opacity="0.1" d="M128.853 102.8L130.512 104.959L131.596 106.372H134.079L133.825 105.391L132.741 101.215L132.591 100.639L131.05 99.2313L128.946 102.648L128.853 102.8Z" fill="black"/>
<path d="M120.599 117.884C120.599 117.884 121.669 118.275 123.098 118.821C125.37 119.697 128.574 120.975 129.687 121.676C130.8 122.376 134.951 123.527 138.06 124.337C140.364 124.935 142.736 125.229 145.117 125.211C147.534 125.188 150.463 125.165 151.272 125.165C151.414 125.164 151.555 125.175 151.695 125.197C152.544 125.338 152.51 125.909 152.49 126.045V126.075C147.491 129.107 141.432 142.68 141.054 144.955C140.77 146.661 138.273 151.39 137.042 153.651C136.628 154.408 136.36 154.888 136.36 154.888L137.876 156.631L142.265 158.601L146.43 160.42C146.43 160.42 150.824 160.648 150.899 160.42C150.974 160.193 150.974 157.843 150.974 157.843C150.44 157.498 149.932 157.111 149.457 156.688C148.449 155.809 147.513 154.852 146.657 153.824C144.235 150.942 149.082 145.408 149.082 145.408L158.397 133.277C158.397 133.277 159.154 131.912 162.789 126.453C166.425 120.993 162.789 118.036 162.789 118.036L156.959 114.699C147.871 109.165 135.07 105.98 135.07 105.98L134.879 105.955L132.041 105.6L120.599 117.884Z" fill="#EFB7B9"/>
<path opacity="0.1" d="M136.358 154.886L137.873 156.629L142.265 158.601L146.43 160.421C146.43 160.421 150.824 160.648 150.899 160.421C150.974 160.193 150.974 157.843 150.974 157.843C150.44 157.498 149.932 157.111 149.457 156.688C148.986 156.94 148.452 157.413 148.968 158.146C148.968 158.146 149.763 159.083 149.168 159.169C148.573 159.256 147.01 158.915 147.01 158.915L137.096 153.683L137.04 153.644C136.621 154.406 136.358 154.886 136.358 154.886Z" fill="black"/>
<path d="M149.188 158.601C149.188 158.601 149.984 159.538 149.386 159.624C148.788 159.711 147.228 159.367 147.228 159.367L137.317 154.136C137.317 154.136 136.237 153.369 135.981 154.875C135.724 156.381 135.556 156.24 135.556 156.24C135.556 156.24 134.249 159.056 135.556 159.638C136.862 160.22 144.701 162.516 144.701 162.516C144.701 162.516 156.089 165.102 157.168 162.117C158.247 159.133 155.237 159.643 155.237 159.643C155.237 159.643 151.488 158.733 150.211 156.913C150.218 156.922 148.364 157.434 149.188 158.601Z" fill="#444053"/>
<path opacity="0.1" d="M121.203 57.6794C122.516 58.5893 124.52 60.0292 126.231 60.0292C126.673 60.0291 127.113 59.9941 127.549 59.9245C128.182 58.7004 128.896 57.5202 129.687 56.3919C129.687 56.3919 119.69 49.4155 121.962 53.8898C122.712 55.3774 121.973 56.1076 121.203 57.6794Z" fill="black"/>
<path d="M118.052 51.3853C118.051 52.751 118.391 54.0953 119.043 55.2953C119.694 56.4953 120.635 57.5128 121.78 58.2549C122.037 58.4228 122.304 58.5747 122.58 58.7099C124.172 59.505 125.98 59.7587 127.729 59.4326C129.478 59.1064 131.073 58.2181 132.273 56.9025C133.472 55.5868 134.211 53.9155 134.376 52.1419C134.541 50.3683 134.124 48.5892 133.188 47.0743C132.252 45.5594 130.848 44.3914 129.189 43.7473C127.53 43.1032 125.707 43.0182 123.995 43.5051C122.284 43.9921 120.778 45.0244 119.705 46.4457C118.632 47.8669 118.052 49.5995 118.052 51.3808V51.3853Z" fill="#EFB7B9"/>
<path opacity="0.1" d="M120.599 117.884C120.599 117.884 121.669 118.275 123.098 118.821C123.995 118.029 124.916 117.265 125.3 117.126C126.133 116.821 128.86 115.229 128.785 114.774C128.71 114.319 129.921 112.577 130.98 112.272C132.039 111.967 131.434 110.377 131.434 110.377C131.434 110.377 133.479 109.62 133.988 108.557C134.497 107.495 136.056 106.13 135.524 106.208C135.294 106.17 135.074 106.084 134.879 105.955L132.041 105.6L120.599 117.884Z" fill="black"/>
<path d="M114.387 115.154C114.387 115.154 117.872 118.036 118.033 119.324C118.195 120.611 120.521 120.538 120.521 120.538C120.521 120.538 124.007 117.201 124.838 116.899C125.67 116.596 128.399 115.002 128.324 114.547C128.249 114.092 129.46 112.349 130.519 112.045C131.577 111.74 130.973 110.15 130.973 110.15C130.973 110.15 133.018 109.392 133.527 108.33C134.036 107.268 135.595 105.903 135.063 105.98C134.913 106.001 134.433 105.753 133.825 105.391C133.077 104.936 132.13 104.32 131.357 103.799C130.539 103.244 129.914 102.803 129.914 102.803C129.914 102.803 129.558 102.739 128.946 102.65C125.65 102.172 114.912 100.953 112.419 104.925C112.087 105.45 111.838 106.023 111.681 106.624C110.565 110.855 114.387 115.154 114.387 115.154Z" fill="#1F2421"/>
<path opacity="0.1" d="M118.031 105.96C118.031 105.96 114.473 107.971 113.146 107.971C111.819 107.971 118.031 105.96 118.031 105.96Z" fill="black"/>
<path opacity="0.1" d="M120.408 107.495C120.408 107.495 115.109 109.279 115.109 110.68C115.109 112.081 114.614 106.927 120.408 107.495Z" fill="black"/>
<path opacity="0.1" d="M133.093 99.4633L133.018 99.5662C133.052 99.5397 133.079 99.504 133.093 99.4633Z" fill="black"/>
<path opacity="0.1" d="M116.659 64.5808L117.004 65.0176L117.197 65.261L118.402 66.7782C118.402 66.7782 121.276 67.7017 123.796 68.2999C126.42 68.9209 128.658 69.1916 126.879 67.7063C125.775 66.785 125.702 65.2428 126.104 63.5891L126.025 63.4867C126.025 63.4867 126.104 65.0198 125.198 65.0494C123.975 65.0881 123.959 64.6764 122.832 64.201C121.38 63.5868 119.892 62.5609 119.474 61.7625C118.612 62.7756 117.671 63.7181 116.659 64.5808Z" fill="black"/>
<path opacity="0.1" d="M111.681 106.617C112.301 106.883 112.999 106.899 113.63 106.663C115.977 105.903 119.69 104.074 121.43 104.875C122.825 105.516 128.444 105.498 130.519 104.959C131.034 104.825 131.33 104.659 131.284 104.463C131.255 104.238 131.282 104.009 131.364 103.797C131.605 103.025 132.259 101.954 132.748 101.215L132.598 100.639L131.057 99.2313L128.953 102.643C125.656 102.166 114.918 100.946 112.426 104.918C112.091 105.442 111.84 106.016 111.681 106.617Z" fill="black"/>
<path d="M110.147 104.843C110.147 104.843 111.056 106.965 113.403 106.208C115.75 105.45 119.463 103.619 121.203 104.42C122.944 105.221 131.278 104.993 131.05 104.008C130.823 103.023 133.095 99.9137 133.095 99.9137C133.095 99.9137 131.855 99.6862 131.087 95.6304C130.973 95.039 130.871 94.3657 130.785 93.6014C130.597 92.0361 130.553 90.457 130.653 88.8837C130.96 84.4935 132.496 82.701 132.496 82.701C132.496 82.701 134.615 80.2762 132.798 76.9392C131.846 75.19 128.004 70.3426 127.951 68.1817C127.904 66.2209 126.031 63.9416 126.031 63.9416C126.031 63.9416 126.111 65.4748 125.204 65.5043C123.982 65.543 123.966 65.1313 122.839 64.6559C121.183 63.9553 119.481 62.7201 119.37 61.8944C119.37 61.8944 112.426 61.5464 110.911 68.5979C109.395 75.6495 109.927 79.5165 110.154 80.3513C110.381 81.1861 112.349 91.9522 110.758 96.5016C109.168 101.051 110.147 104.843 110.147 104.843Z" fill="white"/>
<path opacity="0.1" d="M121.469 92.4549C122.721 94.5701 124.397 96.4032 126.39 97.8391C127.72 97.8502 129.047 97.939 130.366 98.1053C130.253 97.5139 130.139 96.8406 130.064 96.0763C129.877 94.511 129.832 92.9318 129.932 91.3585C129.714 91.249 129.522 91.0941 129.368 90.9043C129.215 90.7144 129.103 90.494 129.042 90.2576C128.662 88.9678 125.284 82.8262 125.284 82.8262C125.284 82.8262 117.379 80.7789 117.104 82.8262C116.829 84.8734 119.499 89.0429 121.469 92.4549Z" fill="black"/>
<path d="M124.089 78.9978C124.089 78.9978 128.86 88.0352 129.23 89.3249C129.327 89.683 129.535 90.0009 129.824 90.2325C130.113 90.464 130.469 90.5971 130.839 90.6124C130.839 90.6124 135.592 91.7498 136.728 91.9022C137.864 92.0546 147.719 92.8871 147.719 92.8871C147.719 92.8871 150.218 92.9645 150.52 92.0546C150.797 91.222 155.625 86.8478 158.42 90.6647C158.678 91.0178 158.849 91.4267 158.919 91.8583C158.989 92.2899 158.957 92.732 158.825 93.1487C158.311 94.7865 157.257 97.3865 156.125 95.7692C154.535 93.4945 152.685 94.1337 152.685 95.3461C152.685 96.5585 150.141 96.1081 149.309 96.2787C148.855 96.372 147.291 96.7882 145.939 97.1522C144.367 97.5775 142.755 97.845 141.129 97.9506C138.446 98.1257 134.49 98.2713 133.088 97.7413C131.398 97.0976 128.447 96.9497 127.181 96.9156C126.762 96.9055 126.358 96.7603 126.029 96.5016C124.276 95.1273 122.794 93.4388 121.658 91.5223C119.688 88.1103 115.636 81.0451 115.909 78.9978C116.182 76.9506 124.089 78.9978 124.089 78.9978Z" fill="#EFB7B9"/>
<path opacity="0.1" d="M122.498 66.4757C122.498 66.4757 125.054 70.7225 126.238 73.7547C127.422 76.7869 128.86 82.096 128.86 82.096L121.739 81.2612L121.135 80.2762C121.135 80.2762 116.05 83.4608 116.657 84.8256C117.263 86.1904 115.293 82.7784 115.446 78.9114C115.598 75.0444 114.898 68.143 115.446 66.4757C115.993 64.8083 120.824 65.1859 122.498 66.4757Z" fill="black"/>
<path d="M115.455 78.4565C115.302 82.3235 117.272 85.7355 116.666 84.3707C116.059 83.0059 121.144 79.8213 121.144 79.8213L121.742 80.8062L128.86 81.6411C128.86 81.6411 127.422 76.3319 126.238 73.2997C125.527 71.5843 124.714 69.9132 123.802 68.2954C123.073 66.9693 122.498 66.0207 122.498 66.0207C121.519 65.2632 119.44 64.8197 117.781 64.9243C117.523 64.939 117.266 64.9702 117.011 65.0176C116.329 65.1518 115.78 65.4111 115.537 65.8205C115.499 65.8839 115.469 65.951 115.446 66.0207C114.9 67.6881 115.6 74.5895 115.455 78.4565Z" fill="white"/>
<path opacity="0.1" d="M112.274 89.0429C112.274 89.0429 115.284 93.1942 116.193 93.308C116.186 93.3171 112.324 92.4549 112.274 89.0429Z" fill="black"/>
<path opacity="0.1" d="M112.274 94.9571C112.274 94.9571 117.954 100.701 119.772 100.758C121.589 100.814 112.274 94.9571 112.274 94.9571Z" fill="black"/>
<path opacity="0.1" d="M112.274 97.3546C112.274 97.3546 115.909 101.62 116.136 101.62C116.363 101.62 112.21 100.141 112.274 97.3546Z" fill="black"/>
<path opacity="0.1" d="M115.53 65.8205C116.114 65.7333 116.678 65.5439 117.197 65.261C117.393 65.1586 117.586 65.0449 117.774 64.9243C118.519 64.4251 119.213 63.8537 119.847 63.2183C120.892 62.2015 121.935 61.0915 122.366 59.6971C122.463 59.3757 122.535 59.0471 122.58 58.7144C122.839 56.9652 122.621 55.0339 123.87 53.8443C124.105 53.6224 124.375 53.4403 124.668 53.3052C126.44 52.4613 129.01 53.0072 130.332 51.4854C131.173 50.521 131.152 49.1812 131.798 48.1325C132.08 47.6776 132.598 47.2841 133.057 46.8655C132.388 45.8468 131.501 44.9904 130.46 44.3586C129.419 43.7268 128.25 43.3357 127.039 43.2137C125.827 43.0917 124.604 43.242 123.458 43.6536C122.312 44.0651 121.272 44.7276 120.415 45.5926C119.557 46.4577 118.903 47.5035 118.501 48.6537C118.098 49.804 117.957 51.0297 118.088 52.2415C118.219 53.4532 118.618 54.6205 119.257 55.6581C119.896 56.6957 120.758 57.5774 121.78 58.239C121.73 58.355 121.676 58.4665 121.619 58.587C120.058 61.7716 116.659 64.5649 116.659 64.5649L117.004 65.0017C116.316 65.1586 115.773 65.4111 115.53 65.8205Z" fill="black"/>
<path d="M129.878 51.2625C128.34 53.0277 125.106 51.9995 123.414 53.6168C121.928 55.0339 122.519 57.5065 121.912 59.4696C121.48 60.864 120.437 61.9718 119.392 62.9908C117.87 64.4739 115.923 65.9798 113.841 65.5544C112.608 65.3019 111.399 64.3784 110.206 64.8038C109.613 65.0176 109.188 65.5317 108.745 65.9843C107.24 67.5198 105.284 68.5329 103.162 68.8755C102.743 68.9702 102.306 68.9497 101.897 68.8163C101.261 68.557 100.918 67.8609 100.338 67.4902C99.2022 66.7623 97.7435 67.5084 96.5643 68.1589C93.2664 69.9466 89.626 71.0106 85.8854 71.28C82.1448 71.5495 78.3898 71.0182 74.8702 69.7216L76.7084 68.8118C76.3176 68.0133 75.261 67.8382 74.5885 67.2536C73.2025 66.0503 74.0182 63.6437 75.4837 62.5404C76.9492 61.4372 78.8464 61.0528 80.3642 60.0224C80.6732 59.8131 80.9867 59.5356 81.0163 59.1648C81.0113 58.8925 80.925 58.6279 80.7686 58.405C79.9598 56.9788 79.0645 55.4479 79.2463 53.817C79.5235 51.3148 82.2523 49.7771 84.7584 49.602C87.2646 49.4268 89.7457 50.182 92.2564 50.2252C93.1652 50.2412 94.1172 50.1525 94.8966 49.6816C95.9849 49.0265 96.5325 47.7777 97.1937 46.6926C98.3738 44.7661 100.065 43.2054 102.079 42.1842C104.351 41.0355 106.923 40.6329 109.286 39.682C111.699 38.713 113.894 37.1799 116.418 36.5634C120.083 35.6536 124.009 36.8432 127.174 38.8995C128.699 39.889 133.568 43.0645 133.536 45.0958C133.511 46.3014 131.945 46.9542 131.352 47.9005C130.698 48.9582 130.719 50.298 129.878 51.2625Z" fill="#1F2421"/>
<g opacity="0.1">
<path opacity="0.1" d="M80.546 57.2654C80.7013 57.4888 80.7874 57.7531 80.7936 58.0252C80.7846 58.1211 80.7576 58.2145 80.7141 58.3004C80.0461 57.1221 79.3508 55.8733 79.2395 54.5585C79.5349 55.498 80.0552 56.401 80.546 57.2654Z" fill="black"/>
<path opacity="0.1" d="M74.3658 66.114C75.0361 66.6986 76.0926 66.8737 76.4857 67.6722L75.8359 67.9952C75.398 67.789 74.9817 67.5399 74.593 67.2513C74.3466 67.0315 74.1544 66.7575 74.0314 66.4509C73.9084 66.1443 73.858 65.8133 73.8841 65.4839C74 65.7247 74.1639 65.9391 74.3658 66.114Z" fill="black"/>
<path opacity="0.1" d="M96.3416 67.0216C97.5208 66.371 98.9818 65.6249 100.116 66.3528C100.693 66.7236 101.038 67.4196 101.674 67.679C102.082 67.8124 102.519 67.8329 102.937 67.7381C105.06 67.3955 107.016 66.3825 108.522 64.847C108.963 64.392 109.388 63.8802 109.983 63.6664C111.169 63.241 112.378 64.1646 113.619 64.417C115.7 64.8424 117.645 63.3366 119.169 61.8535C120.215 60.8367 121.255 59.7266 121.687 58.3322C122.296 56.3692 121.705 53.8966 123.191 52.4795C124.888 50.8622 128.115 51.8903 129.655 50.1252C130.494 49.1607 130.475 47.8209 131.121 46.7723C131.666 45.8874 133.079 45.2596 133.279 44.1927C133.435 44.4712 133.522 44.7834 133.531 45.1026C133.506 46.3082 131.941 46.9611 131.348 47.9073C130.703 48.956 130.721 50.2958 129.882 51.2602C128.342 53.0254 125.111 51.9972 123.418 53.6145C121.932 55.0317 122.523 57.5043 121.914 59.4673C121.482 60.8617 120.442 61.9695 119.397 62.9885C117.872 64.4716 115.927 65.9775 113.846 65.5521C112.61 65.2996 111.401 64.3761 110.21 64.8015C109.615 65.0153 109.19 65.5294 108.75 65.982C107.244 67.5175 105.287 68.5306 103.165 68.8732C102.746 68.9679 102.309 68.9475 101.901 68.814C101.265 68.5547 100.92 67.8587 100.343 67.4879C99.2067 66.76 97.748 67.5061 96.5688 68.1566C93.2709 69.9443 89.6305 71.0083 85.8899 71.2777C82.1493 71.5472 78.3943 71.0159 74.8748 69.7194L76.1449 69.0893C79.4815 70.0928 82.9833 70.4268 86.4492 70.0719C89.9151 69.7171 93.2769 68.6805 96.3416 67.0216Z" fill="black"/>
</g>
<path opacity="0.1" d="M152.49 126.043L154.401 125.117V124.756C154.401 124.617 152.876 124.924 151.695 125.186C152.545 125.336 152.511 125.907 152.49 126.043Z" fill="black"/>
<path d="M154.151 105.125C156.693 105.125 158.754 102.615 158.754 99.5179C158.754 96.4212 156.693 93.9108 154.151 93.9108C151.609 93.9108 149.548 96.4212 149.548 99.5179C149.548 102.615 151.609 105.125 154.151 105.125Z" fill="#E4572E"/>
<path d="M109.845 92.2206L102.445 99.5269L78.1172 99.1016L84.8063 92.2206H109.845Z" fill="#DDA2A6"/>
<path d="M109.845 117.215V92.2206L102.445 99.527V123.984L109.845 117.215Z" fill="#B77B7F"/>
<path d="M78.1172 99.1016V123.984H102.445V99.527L78.1172 99.1016Z" fill="#DDA2A6"/>
<path opacity="0.3" d="M78.1172 99.1016V123.984H102.445V99.527L78.1172 99.1016Z" fill="white"/>
<path d="M100.468 106.376L82.375 103.267L80.0166 115.159L98.6433 118.584L100.468 106.376Z" fill="#84BD00"/>
<path d="M96.8938 109.153L84.7312 107.24L84.4268 108.828L96.5893 110.894L96.8938 109.153Z" fill="white"/>
<path d="M93.5492 112.55L86.6306 111.544L86.3262 113.307L93.5492 114.322V112.55Z" fill="white"/>
<path d="M106.853 105.339L106.523 95.4985L104.621 97.3774L104.953 107.24L106.853 105.339Z" fill="#65617D"/>
<path d="M82.3591 94.7387L105.737 95.0549L106.523 95.4985L104.621 97.3773L103.965 96.9907L80.8096 96.3333L82.3591 94.7387Z" fill="#65617D"/>
</svg>
