<svg width="42" height="42" viewBox="0 0 42 42" fill="none" xmlns="http://www.w3.org/2000/svg">
<path d="M21 0.166687C9.49996 0.166687 0.166626 9.50002 0.166626 21C0.166626 32.5 9.49996 41.8334 21 41.8334C32.5 41.8334 41.8333 32.5 41.8333 21C41.8333 9.50002 32.5 0.166687 21 0.166687ZM21 6.41669C24.4583 6.41669 27.25 9.20835 27.25 12.6667C27.25 16.125 24.4583 18.9167 21 18.9167C17.5416 18.9167 14.75 16.125 14.75 12.6667C14.75 9.20835 17.5416 6.41669 21 6.41669ZM21 36C15.7916 36 11.1875 33.3334 8.49996 29.2917C8.56246 25.1459 16.8333 22.875 21 22.875C25.1458 22.875 33.4375 25.1459 33.5 29.2917C30.8125 33.3334 26.2083 36 21 36Z" fill="#1F2421"/>
</svg>
