<svg width="365" height="262" viewBox="0 0 365 262" fill="none" xmlns="http://www.w3.org/2000/svg">
<path opacity="0.8" d="M182.5 262C283.292 262 365 252.072 365 239.826C365 227.58 283.292 217.652 182.5 217.652C81.708 217.652 0 227.58 0 239.826C0 252.072 81.708 262 182.5 262Z" fill="#575656"/>
<path d="M312.27 250.695C312.27 250.695 321.788 238.588 321.018 226.576C320.663 221.539 321.952 216.524 324.691 212.282C326.008 210.278 327.505 208.399 329.164 206.669" stroke="#535461" stroke-width="2" stroke-miterlimit="10"/>
<path d="M328.724 199.096C328.053 200.778 329.152 206.868 329.152 206.868C329.152 206.868 334.144 203.207 334.815 201.526C335.137 200.718 335.124 199.816 334.781 199.018C334.438 198.22 333.791 197.591 332.984 197.269C332.176 196.947 331.274 196.958 330.475 197.301C329.677 197.644 329.047 198.289 328.724 199.096Z" fill="#84BD00"/>
<path d="M319.972 206.402C320.323 208.178 324.557 212.693 324.557 212.693C324.557 212.693 326.757 206.908 326.406 205.132C326.323 204.71 326.157 204.308 325.918 203.95C325.679 203.591 325.372 203.284 325.015 203.044C324.657 202.804 324.256 202.637 323.833 202.553C323.411 202.468 322.976 202.468 322.554 202.551C322.132 202.634 321.73 202.8 321.371 203.039C321.013 203.278 320.705 203.584 320.465 203.942C320.226 204.3 320.059 204.701 319.974 205.123C319.889 205.545 319.889 205.979 319.972 206.402Z" fill="#84BD00"/>
<path d="M313.839 222.405C315.039 223.761 320.974 225.522 320.974 225.522C320.974 225.522 319.952 219.418 318.752 218.062C318.467 217.739 318.121 217.476 317.734 217.287C317.347 217.098 316.926 216.988 316.496 216.961C316.067 216.935 315.636 216.993 315.228 217.133C314.821 217.273 314.445 217.492 314.123 217.777C313.8 218.063 313.537 218.409 313.348 218.795C313.159 219.182 313.049 219.603 313.022 220.032C312.996 220.462 313.055 220.893 313.195 221.3C313.335 221.707 313.554 222.082 313.839 222.405Z" fill="#84BD00"/>
<path d="M311.927 235.558C312.88 237.097 318.433 239.835 318.433 239.835C318.433 239.835 318.456 233.646 317.503 232.107C317.277 231.741 316.98 231.423 316.631 231.171C316.281 230.919 315.885 230.739 315.466 230.64C315.047 230.542 314.612 230.526 314.187 230.596C313.762 230.665 313.354 230.817 312.988 231.044C312.622 231.27 312.304 231.567 312.052 231.917C311.801 232.266 311.621 232.662 311.522 233.081C311.423 233.5 311.409 233.935 311.478 234.359C311.548 234.784 311.7 235.192 311.927 235.558Z" fill="#84BD00"/>
<path d="M330.822 215.569C329.148 216.259 323.043 215.231 323.043 215.231C323.043 215.231 326.647 210.199 328.321 209.509C329.125 209.177 330.028 209.179 330.831 209.513C331.634 209.846 332.271 210.485 332.603 211.289C332.934 212.093 332.933 212.995 332.599 213.798C332.265 214.6 331.626 215.238 330.822 215.569Z" fill="#84BD00"/>
<path d="M328.39 230.923C326.586 231.081 321.068 228.274 321.068 228.274C321.068 228.274 326.014 224.55 327.818 224.392C328.247 224.354 328.679 224.401 329.09 224.53C329.502 224.66 329.883 224.869 330.213 225.145C330.544 225.422 330.816 225.761 331.015 226.143C331.214 226.525 331.336 226.942 331.374 227.371C331.411 227.8 331.364 228.233 331.234 228.643C331.105 229.054 330.895 229.435 330.618 229.765C330.341 230.095 330.002 230.367 329.62 230.566C329.237 230.764 328.819 230.886 328.39 230.923Z" fill="#84BD00"/>
<path d="M323.978 245.522C322.227 245.982 316.314 244.148 316.314 244.148C316.314 244.148 320.558 239.642 322.31 239.182C323.151 238.961 324.045 239.083 324.796 239.521C325.548 239.959 326.094 240.677 326.315 241.518C326.536 242.359 326.414 243.253 325.976 244.004C325.538 244.755 324.819 245.301 323.978 245.522Z" fill="#84BD00"/>
<path opacity="0.25" d="M328.724 199.096C328.053 200.778 329.152 206.868 329.152 206.868C329.152 206.868 334.144 203.207 334.815 201.526C335.137 200.718 335.124 199.816 334.781 199.018C334.438 198.22 333.791 197.591 332.984 197.269C332.176 196.947 331.274 196.958 330.475 197.301C329.677 197.644 329.047 198.289 328.724 199.096Z" fill="black"/>
<path opacity="0.25" d="M319.972 206.402C320.323 208.178 324.557 212.693 324.557 212.693C324.557 212.693 326.757 206.908 326.406 205.132C326.323 204.71 326.157 204.308 325.918 203.95C325.679 203.591 325.372 203.284 325.015 203.044C324.657 202.804 324.256 202.637 323.833 202.553C323.411 202.468 322.976 202.468 322.554 202.551C322.132 202.634 321.73 202.8 321.371 203.039C321.013 203.278 320.705 203.584 320.465 203.942C320.226 204.3 320.059 204.701 319.974 205.123C319.889 205.545 319.889 205.979 319.972 206.402Z" fill="black"/>
<path opacity="0.25" d="M313.839 222.405C315.039 223.761 320.974 225.522 320.974 225.522C320.974 225.522 319.952 219.418 318.752 218.062C318.467 217.739 318.121 217.476 317.734 217.287C317.347 217.098 316.926 216.988 316.496 216.961C316.067 216.935 315.636 216.993 315.228 217.133C314.821 217.273 314.445 217.492 314.123 217.777C313.8 218.063 313.537 218.409 313.348 218.795C313.159 219.182 313.049 219.603 313.022 220.032C312.996 220.462 313.055 220.893 313.195 221.3C313.335 221.707 313.554 222.082 313.839 222.405Z" fill="black"/>
<path opacity="0.25" d="M311.927 235.558C312.88 237.097 318.433 239.835 318.433 239.835C318.433 239.835 318.456 233.646 317.503 232.107C317.277 231.741 316.98 231.423 316.631 231.171C316.281 230.919 315.885 230.739 315.466 230.64C315.047 230.542 314.612 230.526 314.187 230.596C313.762 230.665 313.354 230.817 312.988 231.044C312.622 231.27 312.304 231.567 312.052 231.917C311.801 232.266 311.621 232.662 311.522 233.081C311.423 233.5 311.409 233.935 311.478 234.359C311.548 234.784 311.7 235.192 311.927 235.558Z" fill="black"/>
<path opacity="0.25" d="M330.822 215.569C329.148 216.259 323.043 215.231 323.043 215.231C323.043 215.231 326.647 210.199 328.321 209.509C329.125 209.177 330.028 209.179 330.831 209.513C331.634 209.846 332.271 210.485 332.603 211.289C332.934 212.093 332.933 212.995 332.599 213.798C332.265 214.6 331.626 215.238 330.822 215.569Z" fill="black"/>
<path opacity="0.25" d="M328.39 230.923C326.586 231.081 321.068 228.274 321.068 228.274C321.068 228.274 326.014 224.55 327.818 224.392C328.247 224.354 328.679 224.401 329.09 224.53C329.502 224.66 329.883 224.869 330.213 225.145C330.544 225.422 330.816 225.761 331.015 226.143C331.214 226.525 331.336 226.942 331.374 227.371C331.411 227.8 331.364 228.233 331.234 228.643C331.105 229.054 330.895 229.435 330.618 229.765C330.341 230.095 330.002 230.367 329.62 230.566C329.237 230.764 328.819 230.886 328.39 230.923Z" fill="black"/>
<path opacity="0.25" d="M323.978 245.522C322.227 245.982 316.314 244.148 316.314 244.148C316.314 244.148 320.558 239.642 322.31 239.182C323.151 238.961 324.045 239.083 324.796 239.521C325.548 239.959 326.094 240.677 326.315 241.518C326.536 242.359 326.414 243.253 325.976 244.004C325.538 244.755 324.819 245.301 323.978 245.522Z" fill="black"/>
<path d="M312.35 250.191C312.35 250.191 325.96 242.978 330.126 231.684C331.843 226.936 335.054 222.873 339.278 220.105C341.294 218.806 343.424 217.695 345.642 216.785" stroke="#535461" stroke-width="2" stroke-miterlimit="10"/>
<path d="M348.31 209.683C347.015 210.949 345.551 216.962 345.551 216.962C345.551 216.962 351.599 215.637 352.894 214.372C353.516 213.764 353.871 212.934 353.881 212.065C353.891 211.196 353.555 210.358 352.947 209.737C352.339 209.115 351.509 208.76 350.639 208.75C349.77 208.74 348.932 209.076 348.31 209.683Z" fill="white"/>
<path d="M337.348 212.817C336.948 214.583 338.989 220.426 338.989 220.426C338.989 220.426 343.345 216.028 343.744 214.262C343.839 213.843 343.851 213.408 343.778 212.984C343.705 212.56 343.549 212.154 343.319 211.79C343.089 211.426 342.789 211.111 342.438 210.863C342.086 210.614 341.689 210.438 341.269 210.343C340.849 210.248 340.414 210.237 339.99 210.31C339.566 210.383 339.16 210.538 338.796 210.768C338.431 210.998 338.116 211.297 337.868 211.649C337.619 212 337.443 212.397 337.348 212.817Z" fill="white"/>
<path d="M325.254 224.963C325.801 226.689 330.513 230.703 330.513 230.703C330.513 230.703 332.052 224.709 331.505 222.983C331.375 222.573 331.165 222.192 330.888 221.863C330.611 221.533 330.271 221.262 329.889 221.064C329.507 220.865 329.089 220.744 328.66 220.707C328.231 220.671 327.799 220.719 327.389 220.849C326.978 220.979 326.597 221.188 326.268 221.465C325.939 221.743 325.667 222.082 325.469 222.464C325.27 222.846 325.149 223.263 325.112 223.692C325.076 224.121 325.123 224.553 325.254 224.963Z" fill="white"/>
<path d="M318.173 236.213C318.421 238.006 322.387 242.759 322.387 242.759C322.387 242.759 324.917 237.111 324.67 235.317C324.611 234.891 324.469 234.48 324.251 234.109C324.034 233.737 323.745 233.412 323.402 233.152C323.058 232.893 322.667 232.703 322.251 232.594C321.834 232.485 321.4 232.459 320.974 232.518C320.547 232.577 320.136 232.719 319.765 232.937C319.393 233.154 319.068 233.443 318.808 233.786C318.548 234.129 318.358 234.52 318.249 234.936C318.14 235.353 318.114 235.787 318.173 236.213Z" fill="white"/>
<path d="M343.55 225.593C341.74 225.546 336.575 222.133 336.575 222.133C336.575 222.133 341.91 218.993 343.72 219.04C344.59 219.062 345.415 219.429 346.013 220.06C346.612 220.69 346.936 221.533 346.913 222.402C346.891 223.271 346.524 224.095 345.893 224.694C345.262 225.292 344.42 225.616 343.55 225.593H343.55Z" fill="white"/>
<path d="M335.103 238.645C333.39 238.058 329.483 233.257 329.483 233.257C329.483 233.257 335.514 231.856 337.227 232.443C338.05 232.724 338.727 233.321 339.11 234.102C339.492 234.882 339.549 235.783 339.267 236.605C338.986 237.428 338.389 238.105 337.608 238.487C336.827 238.87 335.926 238.926 335.103 238.645V238.645Z" fill="white"/>
<path d="M325.151 250.204C323.363 249.916 318.701 245.843 318.701 245.843C318.701 245.843 324.408 243.444 326.196 243.732C327.055 243.871 327.823 244.345 328.332 245.05C328.841 245.754 329.049 246.632 328.911 247.491C328.772 248.349 328.298 249.117 327.593 249.626C326.888 250.135 326.01 250.343 325.151 250.204Z" fill="white"/>
<path d="M177.134 229.88C183.906 229.88 189.395 224.056 189.395 216.87C189.395 209.685 183.906 203.86 177.134 203.86C170.362 203.86 164.872 209.685 164.872 216.87C164.872 224.056 170.362 229.88 177.134 229.88Z" fill="#FBD56F"/>
<path opacity="0.1" d="M177.134 229.88C183.906 229.88 189.395 224.056 189.395 216.87C189.395 209.685 183.906 203.86 177.134 203.86C170.362 203.86 164.872 209.685 164.872 216.87C164.872 224.056 170.362 229.88 177.134 229.88Z" fill="black"/>
<path d="M179.25 229.88C186.022 229.88 191.511 224.185 191.511 217.16C191.511 210.135 186.022 204.44 179.25 204.44C172.478 204.44 166.988 210.135 166.988 217.16C166.988 224.185 172.478 229.88 179.25 229.88Z" fill="#FBD56F"/>
<path d="M184.216 228.688L182.941 227.978C182.941 227.978 182.344 230.466 182.539 232.24C182.558 232.419 182.632 232.589 182.751 232.726C182.87 232.862 183.028 232.959 183.203 233.003C186.137 233.731 200.121 236.834 209.738 232.464C209.877 232.4 209.998 232.301 210.087 232.177C210.177 232.053 210.233 231.907 210.249 231.755C210.367 230.665 209.949 228.416 209.783 227.978C209.424 227.035 184.216 228.688 184.216 228.688Z" fill="#FBD56F"/>
<path opacity="0.1" d="M184.216 228.688L182.941 227.978C182.941 227.978 182.344 230.466 182.539 232.24C182.558 232.419 182.632 232.589 182.751 232.726C182.87 232.862 183.028 232.959 183.203 233.003C186.137 233.731 200.121 236.834 209.738 232.464C209.877 232.4 209.998 232.301 210.087 232.177C210.177 232.053 210.233 231.907 210.249 231.755C210.367 230.665 209.949 228.416 209.783 227.978C209.424 227.035 184.216 228.688 184.216 228.688Z" fill="black"/>
<path d="M196.362 231.002C203.774 231.002 209.783 229.648 209.783 227.978C209.783 226.308 203.774 224.954 196.362 224.954C188.949 224.954 182.941 226.308 182.941 227.978C182.941 229.648 188.949 231.002 196.362 231.002Z" fill="#FBD56F"/>
<path d="M189.344 224.226L188.068 223.516C188.068 223.516 187.472 226.005 187.667 227.778C187.686 227.958 187.76 228.127 187.879 228.264C187.997 228.4 188.155 228.497 188.331 228.541C191.265 229.269 205.249 232.373 214.865 228.002C215.005 227.938 215.125 227.839 215.215 227.715C215.304 227.591 215.36 227.445 215.376 227.293C215.494 226.203 215.077 223.954 214.91 223.516C214.551 222.573 189.344 224.226 189.344 224.226Z" fill="#FBD56F"/>
<path opacity="0.1" d="M189.344 224.226L188.068 223.516C188.068 223.516 187.472 226.005 187.667 227.778C187.686 227.958 187.76 228.127 187.879 228.264C187.997 228.4 188.155 228.497 188.331 228.541C191.265 229.269 205.249 232.373 214.865 228.002C215.005 227.938 215.125 227.839 215.215 227.715C215.304 227.591 215.36 227.445 215.376 227.293C215.494 226.203 215.077 223.954 214.91 223.516C214.551 222.573 189.344 224.226 189.344 224.226Z" fill="black"/>
<path d="M201.489 226.54C208.901 226.54 214.91 225.186 214.91 223.516C214.91 221.846 208.901 220.492 201.489 220.492C194.077 220.492 188.068 221.846 188.068 223.516C188.068 225.186 194.077 226.54 201.489 226.54Z" fill="#FBD56F"/>
<path d="M193.877 218.362L192.601 217.652C192.601 217.652 192.005 220.14 192.2 221.914C192.219 222.094 192.293 222.263 192.412 222.4C192.531 222.536 192.688 222.633 192.864 222.677C195.798 223.405 209.782 226.508 219.398 222.138C219.538 222.074 219.658 221.975 219.748 221.851C219.837 221.727 219.893 221.581 219.909 221.429C220.027 220.339 219.61 218.09 219.443 217.652C219.084 216.709 193.877 218.362 193.877 218.362Z" fill="#FBD56F"/>
<path opacity="0.1" d="M193.877 218.362L192.601 217.652C192.601 217.652 192.005 220.14 192.2 221.914C192.219 222.094 192.293 222.263 192.412 222.4C192.531 222.536 192.688 222.633 192.864 222.677C195.798 223.405 209.782 226.508 219.398 222.138C219.538 222.074 219.658 221.975 219.748 221.851C219.837 221.727 219.893 221.581 219.909 221.429C220.027 220.339 219.61 218.09 219.443 217.652C219.084 216.709 193.877 218.362 193.877 218.362Z" fill="black"/>
<path d="M206.022 220.676C213.434 220.676 219.443 219.322 219.443 217.652C219.443 215.982 213.434 214.628 206.022 214.628C198.61 214.628 192.601 215.982 192.601 217.652C192.601 219.322 198.61 220.676 206.022 220.676Z" fill="#FBD56F"/>
<path d="M188.857 212.257L187.581 211.547C187.581 211.547 186.985 214.036 187.18 215.809C187.199 215.989 187.273 216.159 187.392 216.295C187.511 216.432 187.668 216.528 187.844 216.572C190.778 217.301 204.762 220.404 214.378 216.033C214.518 215.97 214.638 215.871 214.728 215.746C214.818 215.622 214.873 215.477 214.889 215.324C215.007 214.234 214.59 211.985 214.423 211.547C214.065 210.604 188.857 212.257 188.857 212.257Z" fill="#FBD56F"/>
<path opacity="0.1" d="M188.857 212.257L187.581 211.547C187.581 211.547 186.985 214.036 187.18 215.809C187.199 215.989 187.273 216.159 187.392 216.295C187.511 216.432 187.668 216.528 187.844 216.572C190.778 217.301 204.762 220.404 214.378 216.033C214.518 215.97 214.638 215.871 214.728 215.746C214.818 215.622 214.873 215.477 214.889 215.324C215.007 214.234 214.59 211.985 214.423 211.547C214.065 210.604 188.857 212.257 188.857 212.257Z" fill="black"/>
<path d="M201.002 214.571C208.414 214.571 214.423 213.218 214.423 211.547C214.423 209.877 208.414 208.523 201.002 208.523C193.59 208.523 187.581 209.877 187.581 211.547C187.581 213.218 193.59 214.571 201.002 214.571Z" fill="#FBD56F"/>
<path d="M200.15 207.358L198.875 206.648C198.875 206.648 198.278 209.137 198.473 210.91C198.492 211.09 198.566 211.26 198.685 211.396C198.804 211.533 198.962 211.63 199.137 211.674C202.071 212.402 216.055 215.505 225.672 211.134C225.811 211.071 225.931 210.972 226.021 210.848C226.111 210.723 226.166 210.578 226.183 210.425C226.301 209.336 225.883 207.087 225.716 206.649C225.358 205.706 200.15 207.358 200.15 207.358Z" fill="#FBD56F"/>
<path opacity="0.1" d="M200.15 207.358L198.875 206.648C198.875 206.648 198.278 209.137 198.473 210.91C198.492 211.09 198.566 211.26 198.685 211.396C198.804 211.533 198.962 211.63 199.137 211.674C202.071 212.402 216.055 215.505 225.672 211.134C225.811 211.071 225.931 210.972 226.021 210.848C226.111 210.723 226.166 210.578 226.183 210.425C226.301 209.336 225.883 207.087 225.716 206.649C225.358 205.706 200.15 207.358 200.15 207.358Z" fill="black"/>
<path d="M212.295 209.672C219.708 209.672 225.716 208.319 225.716 206.648C225.716 204.978 219.708 203.624 212.295 203.624C204.883 203.624 198.875 204.978 198.875 206.648C198.875 208.319 204.883 209.672 212.295 209.672Z" fill="#FBD56F"/>
<path d="M192.52 204.066L191.244 203.356C191.244 203.356 190.648 205.844 190.843 207.618C190.862 207.798 190.936 207.967 191.055 208.104C191.173 208.24 191.331 208.337 191.507 208.381C194.441 209.109 208.425 212.212 218.041 207.842C218.181 207.778 218.301 207.679 218.391 207.555C218.48 207.431 218.536 207.285 218.552 207.133C218.67 206.043 218.253 203.794 218.086 203.356C217.727 202.413 192.52 204.066 192.52 204.066Z" fill="#FBD56F"/>
<path opacity="0.1" d="M192.52 204.066L191.244 203.356C191.244 203.356 190.648 205.844 190.843 207.618C190.862 207.798 190.936 207.967 191.055 208.104C191.173 208.24 191.331 208.337 191.507 208.381C194.441 209.109 208.425 212.212 218.041 207.842C218.181 207.778 218.301 207.679 218.391 207.555C218.48 207.431 218.536 207.285 218.552 207.133C218.67 206.043 218.253 203.794 218.086 203.356C217.727 202.413 192.52 204.066 192.52 204.066Z" fill="black"/>
<path d="M204.665 206.38C212.077 206.38 218.086 205.026 218.086 203.356C218.086 201.686 212.077 200.332 204.665 200.332C197.253 200.332 191.244 201.686 191.244 203.356C191.244 205.026 197.253 206.38 204.665 206.38Z" fill="#FBD56F"/>
<path d="M197.614 197.709L196.339 196.999C196.339 196.999 195.742 199.488 195.937 201.261C195.956 201.441 196.03 201.61 196.149 201.747C196.268 201.883 196.426 201.98 196.601 202.024C199.535 202.752 213.519 205.856 223.136 201.485C223.275 201.421 223.396 201.322 223.485 201.198C223.575 201.074 223.63 200.928 223.647 200.776C223.765 199.686 223.347 197.437 223.18 196.999C222.822 196.056 197.614 197.709 197.614 197.709Z" fill="#FBD56F"/>
<path opacity="0.1" d="M197.614 197.709L196.339 196.999C196.339 196.999 195.742 199.488 195.937 201.261C195.956 201.441 196.03 201.61 196.149 201.747C196.268 201.883 196.426 201.98 196.601 202.024C199.535 202.752 213.519 205.856 223.136 201.485C223.275 201.421 223.396 201.322 223.485 201.198C223.575 201.074 223.63 200.928 223.647 200.776C223.765 199.686 223.347 197.437 223.18 196.999C222.822 196.056 197.614 197.709 197.614 197.709Z" fill="black"/>
<path d="M209.76 200.023C217.172 200.023 223.18 198.669 223.18 196.999C223.18 195.329 217.172 193.975 209.76 193.975C202.347 193.975 196.339 195.329 196.339 196.999C196.339 198.669 202.347 200.023 209.76 200.023Z" fill="#FBD56F"/>
<path d="M200.127 190.164L198.851 189.454C198.851 189.454 198.255 191.942 198.45 193.716C198.469 193.896 198.543 194.065 198.662 194.202C198.781 194.338 198.938 194.435 199.114 194.479C202.048 195.207 216.032 198.31 225.648 193.94C225.788 193.876 225.908 193.777 225.998 193.653C226.087 193.529 226.143 193.383 226.159 193.231C226.277 192.141 225.86 189.892 225.693 189.454C225.334 188.511 200.127 190.164 200.127 190.164Z" fill="#FBD56F"/>
<path opacity="0.1" d="M200.127 190.164L198.851 189.454C198.851 189.454 198.255 191.942 198.45 193.716C198.469 193.896 198.543 194.065 198.662 194.202C198.781 194.338 198.938 194.435 199.114 194.479C202.048 195.207 216.032 198.31 225.648 193.94C225.788 193.876 225.908 193.777 225.998 193.653C226.087 193.529 226.143 193.383 226.159 193.231C226.277 192.141 225.86 189.892 225.693 189.454C225.334 188.511 200.127 190.164 200.127 190.164Z" fill="black"/>
<path d="M212.272 192.478C219.684 192.478 225.693 191.124 225.693 189.454C225.693 187.784 219.684 186.43 212.272 186.43C204.86 186.43 198.851 187.784 198.851 189.454C198.851 191.124 204.86 192.478 212.272 192.478Z" fill="#FBD56F"/>
<path d="M222.782 230.438L221.507 229.728C221.507 229.728 220.91 232.216 221.105 233.99C221.125 234.169 221.199 234.339 221.317 234.476C221.436 234.612 221.594 234.709 221.769 234.753C224.704 235.481 238.688 238.584 248.304 234.214C248.443 234.15 248.564 234.051 248.653 233.927C248.743 233.803 248.799 233.657 248.815 233.505C248.933 232.415 248.515 230.166 248.349 229.728C247.99 228.785 222.782 230.438 222.782 230.438Z" fill="#FBD56F"/>
<path opacity="0.1" d="M222.782 230.438L221.507 229.728C221.507 229.728 220.91 232.216 221.105 233.99C221.125 234.169 221.199 234.339 221.317 234.476C221.436 234.612 221.594 234.709 221.769 234.753C224.704 235.481 238.688 238.584 248.304 234.214C248.443 234.15 248.564 234.051 248.653 233.927C248.743 233.803 248.799 233.657 248.815 233.505C248.933 232.415 248.515 230.166 248.349 229.728C247.99 228.785 222.782 230.438 222.782 230.438Z" fill="black"/>
<path d="M234.928 232.752C242.34 232.752 248.349 231.398 248.349 229.728C248.349 228.058 242.34 226.704 234.928 226.704C227.516 226.704 221.507 228.058 221.507 229.728C221.507 231.398 227.516 232.752 234.928 232.752Z" fill="#FBD56F"/>
<path d="M227.315 224.573L226.04 223.864C226.04 223.864 225.444 226.352 225.639 228.125C225.658 228.305 225.732 228.475 225.851 228.611C225.969 228.748 226.127 228.845 226.303 228.889C229.237 229.617 243.221 232.72 252.837 228.349C252.977 228.286 253.097 228.187 253.187 228.063C253.276 227.938 253.332 227.793 253.348 227.641C253.466 226.551 253.049 224.302 252.882 223.864C252.523 222.921 227.315 224.573 227.315 224.573Z" fill="#FBD56F"/>
<path opacity="0.1" d="M227.315 224.573L226.04 223.864C226.04 223.864 225.444 226.352 225.639 228.125C225.658 228.305 225.732 228.475 225.851 228.611C225.969 228.748 226.127 228.845 226.303 228.889C229.237 229.617 243.221 232.72 252.837 228.349C252.977 228.286 253.097 228.187 253.187 228.063C253.276 227.938 253.332 227.793 253.348 227.641C253.466 226.551 253.049 224.302 252.882 223.864C252.523 222.921 227.315 224.573 227.315 224.573Z" fill="black"/>
<path d="M239.461 226.888C246.873 226.888 252.882 225.534 252.882 223.864C252.882 222.193 246.873 220.839 239.461 220.839C232.049 220.839 226.04 222.193 226.04 223.864C226.04 225.534 232.049 226.888 239.461 226.888Z" fill="#FBD56F"/>
<path d="M222.295 218.469L221.02 217.759C221.02 217.759 220.424 220.248 220.619 222.021C220.638 222.201 220.712 222.37 220.83 222.507C220.949 222.643 221.107 222.74 221.283 222.784C224.217 223.512 238.201 226.616 247.817 222.245C247.956 222.181 248.077 222.082 248.167 221.958C248.256 221.834 248.312 221.688 248.328 221.536C248.446 220.446 248.028 218.197 247.862 217.759C247.503 216.816 222.295 218.469 222.295 218.469Z" fill="#FBD56F"/>
<path opacity="0.1" d="M222.295 218.469L221.02 217.759C221.02 217.759 220.424 220.248 220.619 222.021C220.638 222.201 220.712 222.37 220.83 222.507C220.949 222.643 221.107 222.74 221.283 222.784C224.217 223.512 238.201 226.616 247.817 222.245C247.956 222.181 248.077 222.082 248.167 221.958C248.256 221.834 248.312 221.688 248.328 221.536C248.446 220.446 248.028 218.197 247.862 217.759C247.503 216.816 222.295 218.469 222.295 218.469Z" fill="black"/>
<path d="M234.441 220.783C241.853 220.783 247.862 219.429 247.862 217.759C247.862 216.089 241.853 214.735 234.441 214.735C227.029 214.735 221.02 216.089 221.02 217.759C221.02 219.429 227.029 220.783 234.441 220.783Z" fill="#FBD56F"/>
<path d="M233.589 213.57L232.313 212.86C232.313 212.86 231.717 215.349 231.912 217.122C231.931 217.302 232.005 217.472 232.124 217.608C232.242 217.745 232.4 217.841 232.576 217.885C235.51 218.614 249.494 221.717 259.11 217.346C259.25 217.282 259.37 217.184 259.46 217.059C259.549 216.935 259.605 216.789 259.621 216.637C259.739 215.547 259.322 213.298 259.155 212.86C258.796 211.917 233.589 213.57 233.589 213.57Z" fill="#FBD56F"/>
<path opacity="0.1" d="M233.589 213.57L232.313 212.86C232.313 212.86 231.717 215.349 231.912 217.122C231.931 217.302 232.005 217.472 232.124 217.608C232.242 217.745 232.4 217.841 232.576 217.885C235.51 218.614 249.494 221.717 259.11 217.346C259.25 217.282 259.37 217.184 259.46 217.059C259.549 216.935 259.605 216.789 259.621 216.637C259.739 215.547 259.322 213.298 259.155 212.86C258.796 211.917 233.589 213.57 233.589 213.57Z" fill="black"/>
<path d="M245.734 215.884C253.146 215.884 259.155 214.53 259.155 212.86C259.155 211.19 253.146 209.836 245.734 209.836C238.322 209.836 232.313 211.19 232.313 212.86C232.313 214.53 238.322 215.884 245.734 215.884Z" fill="#FBD56F"/>
<path d="M225.958 210.277L224.683 209.567C224.683 209.567 224.086 212.056 224.281 213.829C224.301 214.009 224.375 214.179 224.493 214.315C224.612 214.452 224.77 214.549 224.945 214.592C227.88 215.321 241.864 218.424 251.48 214.053C251.619 213.99 251.74 213.891 251.829 213.767C251.919 213.642 251.975 213.497 251.991 213.344C252.109 212.255 251.691 210.006 251.525 209.567C251.166 208.624 225.958 210.277 225.958 210.277Z" fill="#FBD56F"/>
<path opacity="0.1" d="M225.958 210.277L224.683 209.567C224.683 209.567 224.086 212.056 224.281 213.829C224.301 214.009 224.375 214.179 224.493 214.315C224.612 214.452 224.77 214.549 224.945 214.592C227.88 215.321 241.864 218.424 251.48 214.053C251.619 213.99 251.74 213.891 251.829 213.767C251.919 213.642 251.975 213.497 251.991 213.344C252.109 212.255 251.691 210.006 251.525 209.567C251.166 208.624 225.958 210.277 225.958 210.277Z" fill="black"/>
<path d="M238.104 212.591C245.516 212.591 251.525 211.238 251.525 209.567C251.525 207.897 245.516 206.543 238.104 206.543C230.692 206.543 224.683 207.897 224.683 209.567C224.683 211.238 230.692 212.591 238.104 212.591Z" fill="#FBD56F"/>
<path d="M231.053 203.921L229.777 203.211C229.777 203.211 229.181 205.699 229.376 207.473C229.395 207.653 229.469 207.822 229.588 207.959C229.706 208.095 229.864 208.192 230.04 208.236C232.974 208.964 246.958 212.067 256.574 207.697C256.714 207.633 256.834 207.534 256.924 207.41C257.013 207.286 257.069 207.14 257.085 206.988C257.203 205.898 256.786 203.649 256.619 203.211C256.26 202.268 231.053 203.921 231.053 203.921Z" fill="#FBD56F"/>
<path opacity="0.1" d="M231.053 203.921L229.777 203.211C229.777 203.211 229.181 205.699 229.376 207.473C229.395 207.653 229.469 207.822 229.588 207.959C229.706 208.095 229.864 208.192 230.04 208.236C232.974 208.964 246.958 212.067 256.574 207.697C256.714 207.633 256.834 207.534 256.924 207.41C257.013 207.286 257.069 207.14 257.085 206.988C257.203 205.898 256.786 203.649 256.619 203.211C256.26 202.268 231.053 203.921 231.053 203.921Z" fill="black"/>
<path d="M243.198 206.235C250.61 206.235 256.619 204.881 256.619 203.211C256.619 201.541 250.61 200.187 243.198 200.187C235.786 200.187 229.777 201.541 229.777 203.211C229.777 204.881 235.786 206.235 243.198 206.235Z" fill="#FBD56F"/>
<path d="M233.566 196.375L232.29 195.666C232.29 195.666 231.694 198.154 231.889 199.927C231.908 200.107 231.982 200.277 232.101 200.413C232.219 200.55 232.377 200.647 232.553 200.691C235.487 201.419 249.471 204.522 259.087 200.151C259.227 200.088 259.347 199.989 259.437 199.865C259.526 199.74 259.582 199.595 259.598 199.443C259.716 198.353 259.299 196.104 259.132 195.666C258.773 194.723 233.566 196.375 233.566 196.375Z" fill="#FBD56F"/>
<path opacity="0.1" d="M233.566 196.375L232.29 195.666C232.29 195.666 231.694 198.154 231.889 199.927C231.908 200.107 231.982 200.277 232.101 200.413C232.219 200.55 232.377 200.647 232.553 200.691C235.487 201.419 249.471 204.522 259.087 200.151C259.227 200.088 259.347 199.989 259.437 199.865C259.526 199.74 259.582 199.595 259.598 199.443C259.716 198.353 259.299 196.104 259.132 195.666C258.773 194.723 233.566 196.375 233.566 196.375Z" fill="black"/>
<path d="M245.711 198.69C253.123 198.69 259.132 197.336 259.132 195.666C259.132 193.995 253.123 192.641 245.711 192.641C238.299 192.641 232.29 193.995 232.29 195.666C232.29 197.336 238.299 198.69 245.711 198.69Z" fill="#FBD56F"/>
<path d="M314.459 248.236C312.59 248.17 312.524 247.446 310.122 246.196C308.766 245.49 306.707 243.441 305.172 241.792C305.05 241.66 304.931 241.531 304.815 241.405C305.221 241.396 305.451 241.392 305.451 241.392C305.451 241.392 304.851 236.127 305.385 234.876C305.918 233.626 305.518 226.189 305.518 226.189C305.518 226.189 305.852 220.529 305.251 219.213C304.651 217.897 305.451 209.473 305.451 209.473C305.451 209.473 305.985 204.471 306.119 194.27C306.252 184.069 300.247 183.74 300.247 183.74C300.247 183.74 299.447 183.678 298.231 183.563C298.114 183.551 297.991 183.54 297.867 183.528C298.654 181.88 299.113 180.647 299.113 180.647C299.113 180.647 298.112 171.104 297.845 169.459C297.578 167.814 295.977 161.035 295.977 161.035C295.977 161.035 294.843 158.139 294.176 156.099C293.509 154.059 291.507 151.69 291.507 151.69C291.507 151.69 287.904 144.582 286.903 143.529C286.439 143.041 285.788 142.425 285.223 141.905C285.122 141.811 285.024 141.722 284.93 141.636C285.081 140.894 285.161 140.14 285.169 139.383C285.169 139.383 281.432 135.697 281.165 134.776C280.899 133.855 277.362 130.432 277.362 130.432C277.362 130.432 275.361 126.747 273.092 126.681C272.02 126.62 270.945 126.653 269.879 126.779C270.345 125.055 270.896 123.249 271.391 121.699C271.446 121.527 271.5 121.358 271.554 121.192C273.366 119.967 274.789 118.247 275.652 116.237C275.7 116.13 275.742 116.022 275.785 115.914C275.809 115.914 275.833 115.918 275.857 115.918C275.951 115.917 276.045 115.908 276.138 115.893C276.885 115.764 277.517 114.921 277.172 114.256C277.195 114.294 277.227 114.325 277.265 114.346C277.303 114.367 277.346 114.377 277.39 114.376C277.639 114.367 277.943 114.007 278.001 113.691C278.011 113.636 278.017 113.58 278.025 113.525C278.036 113.456 278.047 113.388 278.055 113.319C278.063 113.254 278.068 113.189 278.073 113.124C278.079 113.057 278.084 112.99 278.087 112.922C278.091 112.859 278.093 112.796 278.094 112.733C278.095 112.661 278.095 112.588 278.093 112.516C278.092 112.458 278.091 112.4 278.089 112.342C278.085 112.254 278.077 112.166 278.069 112.078C278.066 112.042 278.065 112.005 278.061 111.969L278.06 111.974C278.021 111.615 277.949 111.26 277.845 110.913C277.477 109.69 276.703 108.477 277.001 107.235C277.005 107.221 277.01 107.209 277.014 107.196L277.014 107.198C277.263 106.235 278.097 105.534 278.607 104.673C278.656 104.591 278.699 104.506 278.741 104.421C278.749 104.406 278.758 104.391 278.765 104.375C278.796 104.311 278.822 104.246 278.849 104.18C278.867 104.138 278.886 104.097 278.902 104.054C278.923 103.997 278.941 103.938 278.96 103.88C278.977 103.827 278.995 103.774 279.01 103.721C279.024 103.669 279.036 103.617 279.048 103.565C279.063 103.502 279.078 103.439 279.09 103.376C279.099 103.33 279.105 103.285 279.112 103.239C279.124 103.167 279.134 103.095 279.142 103.023C279.146 102.983 279.149 102.944 279.152 102.905C279.158 102.824 279.163 102.743 279.165 102.662C279.165 102.629 279.166 102.597 279.166 102.564C279.166 102.476 279.164 102.387 279.159 102.298C279.158 102.272 279.156 102.245 279.154 102.218C279.148 102.124 279.138 102.03 279.125 101.936C279.124 101.922 279.123 101.908 279.121 101.895L279.12 101.898C279.007 101.071 278.678 100.289 278.165 99.6302C277.581 98.935 276.843 98.3855 276.009 98.0251C275.175 97.6647 274.269 97.5033 273.362 97.5538C272.861 97.6104 272.355 97.6197 271.852 97.5816C271.015 97.4589 270.306 96.927 269.639 96.413C267.776 94.9786 265.913 93.5443 264.05 92.1099C263.427 91.5684 262.711 91.1432 261.938 90.8545C261.148 90.6129 260.201 90.6963 259.617 91.2731C258.57 92.3053 259.235 94.0816 258.815 95.4812C258.452 96.6934 257.28 97.5149 256.068 97.9244C254.855 98.3339 253.558 98.4237 252.312 98.7202C251.941 98.7802 251.594 98.9398 251.307 99.1818C250.984 99.5734 250.827 100.076 250.87 100.581C250.862 101.821 251.16 103.043 251.737 104.14C251.973 104.587 252.258 105.038 252.509 105.496C252.53 105.534 252.55 105.572 252.57 105.61C252.598 105.663 252.626 105.715 252.653 105.768C252.696 105.853 252.738 105.939 252.777 106.025C252.794 106.062 252.809 106.1 252.825 106.137C252.851 106.198 252.876 106.259 252.9 106.32C252.915 106.359 252.929 106.398 252.943 106.437C252.968 106.509 252.991 106.581 253.011 106.654C253.144 107.079 253.157 107.534 253.047 107.966C252.855 108.673 252.303 109.218 251.815 109.771C251.418 110.203 251.135 110.727 250.992 111.297L250.99 111.309C250.963 111.442 250.958 111.578 250.975 111.712C250.977 111.728 250.979 111.745 250.982 111.761C250.989 111.791 250.997 111.821 251.007 111.849C251.015 111.87 251.023 111.891 251.033 111.911C251.043 111.934 251.055 111.957 251.068 111.979C251.092 112.016 251.12 112.049 251.153 112.079C251.168 112.091 251.183 112.103 251.199 112.114C251.226 112.134 251.255 112.151 251.285 112.166C251.303 112.175 251.322 112.184 251.342 112.191C251.387 112.208 251.432 112.22 251.479 112.229C251.492 112.231 251.503 112.235 251.517 112.237C251.588 112.246 251.66 112.249 251.731 112.246C251.752 112.245 251.775 112.243 251.796 112.241C251.865 112.236 251.933 112.228 252.001 112.215C252.026 112.211 252.05 112.207 252.076 112.202C252.175 112.182 252.278 112.157 252.391 112.121C252.766 112.008 253.131 111.864 253.481 111.691C253.481 111.731 253.478 111.77 253.478 111.81C253.478 111.879 253.478 111.952 253.485 112.021C253.504 113.312 253.748 114.589 254.206 115.796C254.921 117.676 256.121 119.334 257.685 120.601C257.666 120.715 257.644 120.829 257.621 120.944C257.3 122.522 256.627 124.105 256.212 123.983C255.806 123.892 255.391 123.847 254.975 123.847C254.849 123.844 254.727 123.842 254.611 123.841L254.611 123.841C254.234 123.797 253.854 123.797 253.477 123.841C253.308 123.852 253.139 123.829 252.98 123.772C251.902 123.433 250.756 123.369 249.647 123.585C247.34 124.058 243.83 124.923 242.868 125.957C241.4 127.537 239.265 129.05 236.863 135.632C236.863 135.632 235.663 139.646 234.728 140.173C234.934 140.066 235.146 139.971 235.362 139.888C235.238 140.105 235.067 140.293 234.862 140.436C235.2 140.263 235.552 140.117 235.913 139.998C235.184 144.286 236.263 156.551 236.263 156.551C236.263 156.551 235.396 158.666 236.53 159.916C237.204 160.659 237.57 161.818 237.758 162.638C237.705 162.721 237.65 162.806 237.593 162.894V162.895C236.993 163.826 236.19 165.039 235.663 165.708C234.728 166.892 234.995 170.644 234.995 170.644C234.995 170.644 234.795 172.421 234.128 173.079C233.461 173.737 233.594 176.172 233.594 176.172L231.86 182.556C231.86 182.556 230.258 184.004 230.258 184.662C230.258 185.32 228.991 187.162 228.991 187.162C228.991 187.162 227.056 190.321 228.991 189.861C229.696 189.654 230.358 189.322 230.944 188.879L230.943 188.926C230.94 189.042 230.938 189.16 230.936 189.279C230.881 192.72 231.256 197.561 233.794 197.561C237.731 197.561 247.872 202.233 247.872 202.233C249.941 203.813 252.743 203.286 252.743 203.286C252.743 203.286 247.806 208.222 247.939 210.262C248.072 212.303 245.137 215.659 245.137 215.659L236.063 233.363C236.114 234.596 236.332 235.817 236.713 236.991C236.67 237.029 236.625 237.065 236.583 237.103C233.097 240.287 232.794 246.591 232.794 246.591L231.993 249.815L244.136 255.146C244.136 255.146 259.882 255.475 262.617 254.751C265.353 254.027 264.752 251 261.149 250.408C257.547 249.815 256.679 248.236 255.478 247.512C254.668 247.024 251.791 243.867 250.006 241.867C249.979 241.836 249.954 241.808 249.927 241.778L250.341 239.483C251.142 239.088 252.342 235.139 252.342 235.139C252.342 235.139 252.342 233.56 253.143 233.099C253.944 232.639 255.612 227.9 255.612 227.9C255.612 227.9 259.215 221.911 259.014 221.121C258.814 220.332 261.617 216.317 261.617 216.317C261.617 216.317 266.354 211.71 266.153 210.888C265.953 210.065 269.956 205.853 269.956 205.853C271.403 204.749 272.608 203.362 273.499 201.775C273.86 201.717 274.247 201.656 274.655 201.587C279.894 200.729 288.599 199.177 289.572 198.745C290.906 198.153 290.64 200.786 290.106 203.023C289.572 205.261 289.172 215.988 289.772 217.37C290.373 218.752 290.106 220.99 290.106 220.99L289.305 233.033L289.839 235.6C289.839 235.6 288.038 237.048 288.771 237.903C289.505 238.759 288.838 242.445 288.838 242.445C288.901 242.421 288.976 242.398 289.06 242.376C288.995 242.52 288.934 242.669 288.88 242.825C287.845 245.772 288.438 250.605 288.438 250.605V254.422C288.438 254.422 306.919 254.751 310.989 254.751C315.059 254.751 320.663 252.777 320.997 251.198C321.331 249.618 316.327 248.302 314.459 248.236ZM261.894 179.723L260.683 179.824C261.084 179.766 261.489 179.732 261.894 179.723ZM269.275 129.208C269.444 128.446 269.65 127.627 269.877 126.787L269.275 129.208ZM271.558 181.568C270.403 182.025 269.118 182.027 267.963 181.572L267.955 181.568C267.955 181.568 268.022 176.962 268.555 175.053C269.089 173.144 269.823 169.656 269.823 169.656C269.823 169.656 270.424 164.852 271.024 162.68C271.624 160.509 273.96 148.399 275.161 147.609C276.362 146.82 277.029 148.202 277.029 148.202C277.029 148.202 277.208 148.198 277.509 148.165C277.565 148.291 277.629 148.425 277.7 148.568C279.124 151.444 283.3 157.35 283.3 157.35C284.539 158.114 285.589 159.149 286.37 160.377C287.504 162.286 287.837 166.761 287.837 166.761C287.837 166.761 290.373 176.698 291.574 178.08C292.174 178.771 291.907 179.183 291.491 179.422C290.64 179.887 289.917 180.555 289.385 181.366C289.214 181.637 289.033 181.935 288.85 182.252C288.391 182.146 287.98 182.035 287.637 181.92C284.368 180.822 273.359 180.779 271.558 181.568Z" fill="url(#paint0_linear)"/>
<path d="M288 250.644V254.429C288 254.429 306.085 254.755 310.067 254.755C314.049 254.755 319.534 252.797 319.86 251.231C320.186 249.665 315.29 248.36 313.462 248.294C311.634 248.229 311.569 247.511 309.218 246.271C307.892 245.572 305.877 243.539 304.375 241.904C303.217 240.642 302.363 239.615 302.363 239.615C302.363 239.615 292.636 239.419 289.828 240.985C289.182 241.347 288.735 242.054 288.432 242.929C287.421 245.851 288 250.644 288 250.644Z" fill="white"/>
<path opacity="0.1" d="M288.432 242.929C290.472 242.22 302.413 241.944 304.375 241.904C303.217 240.642 302.363 239.615 302.363 239.615C302.363 239.615 292.636 239.419 289.828 240.985C289.182 241.347 288.735 242.054 288.432 242.929Z" fill="black"/>
<path d="M235.967 182.576C235.967 182.576 236.344 182.805 237.022 183.213C237.145 183.286 237.277 183.367 237.418 183.452C237.847 183.712 238.363 184.021 238.952 184.376C247.157 189.319 269.54 202.719 270.765 202.612C271.086 202.584 272.051 202.439 273.383 202.223C273.735 202.165 274.114 202.104 274.513 202.036C279.64 201.185 288.158 199.646 289.11 199.218C290.416 198.631 290.155 201.241 289.632 203.46C289.11 205.679 288.718 216.316 289.306 217.687C289.894 219.057 289.632 221.276 289.632 221.276L288.849 233.219L289.371 235.764C289.371 235.764 287.609 237.2 288.327 238.048C289.045 238.897 288.392 242.551 288.392 242.551C290.481 241.768 304.648 241.507 304.648 241.507C304.648 241.507 304.061 236.286 304.583 235.046C305.105 233.806 304.714 226.432 304.714 226.432C304.714 226.432 305.04 220.819 304.452 219.514C303.865 218.209 304.648 209.856 304.648 209.856C304.648 209.856 305.171 204.896 305.301 194.78C305.432 184.665 299.556 184.338 299.556 184.338C299.556 184.338 298.773 184.277 297.583 184.162C295.256 183.939 291.378 183.512 288.788 182.95C288.257 182.84 287.732 182.701 287.217 182.533C284.018 181.445 273.246 181.402 271.483 182.185C270.354 182.638 269.095 182.639 267.965 182.189L267.957 182.185L266.586 179.966L253.491 181.082L252.103 181.201L239.212 182.3L238.325 182.375L235.967 182.576Z" fill="#1F2421"/>
<path opacity="0.1" d="M288.457 192.587C292.261 194.441 295.891 187.87 297.583 184.162C295.256 183.939 291.378 183.512 288.788 182.95C287.084 185.808 284.81 190.811 288.457 192.587Z" fill="black"/>
<path d="M277.032 148.184C277.111 148.633 277.267 149.064 277.493 149.46C278.886 152.312 282.973 158.169 282.973 158.169C284.189 158.929 285.216 159.956 285.976 161.171C287.086 163.063 287.413 167.501 287.413 167.501C287.413 167.501 289.893 177.356 291.069 178.726C291.656 179.411 291.395 179.82 290.988 180.056C290.153 180.52 289.445 181.182 288.927 181.984C287.215 184.735 284.482 190.192 288.327 192.065C293.549 194.611 298.446 181.271 298.446 181.271C298.446 181.271 297.467 171.808 297.205 170.177C296.944 168.545 295.377 161.823 295.377 161.823C295.377 161.823 294.268 158.952 293.615 156.929C292.962 154.906 291.003 152.556 291.003 152.556C291.003 152.556 287.478 145.508 286.499 144.464C286.044 143.98 285.407 143.369 284.855 142.853C284.216 142.257 283.691 141.788 283.691 141.788C283.691 141.788 276.967 146.618 277.032 148.184Z" fill="#EE8E9E"/>
<path d="M232.768 249.861L244.65 255.147C244.65 255.147 260.058 255.473 262.734 254.755C265.411 254.037 264.823 251.035 261.298 250.448C257.773 249.861 256.924 248.294 255.749 247.576C254.956 247.092 252.141 243.962 250.394 241.978C249.553 241.023 248.959 240.332 248.959 240.332C248.959 240.332 246.674 234.263 240.341 235.634C239.185 235.883 238.12 236.444 237.26 237.255C233.848 240.412 233.551 246.663 233.551 246.663L232.768 249.861Z" fill="white"/>
<path opacity="0.1" d="M237.418 183.452C237.847 183.712 238.363 184.021 238.952 184.376C247.157 189.319 269.54 202.719 270.765 202.612C271.086 202.584 272.051 202.439 273.383 202.223C273.735 202.165 274.114 202.104 274.513 202.036C274.529 202.011 274.543 201.986 274.558 201.962C275.215 200.814 275.718 199.584 276.053 198.304C277.424 193.083 270.634 189.103 270.634 189.103L269.198 187.987C267.566 185.239 255.814 182.642 255.814 182.642L254.299 181.625L253.491 181.082L253.278 180.94L251.44 179.705L242.235 180.358L239.5 182.114L239.212 182.3L238.197 182.952L237.418 183.452Z" fill="black"/>
<path opacity="0.1" d="M237.26 237.255C239.759 245.895 250.2 243.073 250.2 243.073L250.394 241.978C249.553 241.023 248.959 240.332 248.959 240.332C248.959 240.332 246.674 234.263 240.341 235.634C239.186 235.883 238.12 236.444 237.26 237.255Z" fill="black"/>
<path d="M234.531 198.043C238.383 198.043 248.306 202.677 248.306 202.677C250.33 204.243 253.072 203.721 253.072 203.721C253.072 203.721 248.241 208.616 248.371 210.639C248.502 212.662 245.629 215.99 245.629 215.99L236.75 233.545C237.403 246.01 250.199 242.551 250.199 242.551L250.722 239.615C251.505 239.223 252.68 235.307 252.68 235.307C252.68 235.307 252.68 233.741 253.464 233.284C254.247 232.827 255.879 228.129 255.879 228.129C255.879 228.129 259.405 222.19 259.209 221.407C259.013 220.624 261.755 216.643 261.755 216.643C261.755 216.643 266.39 212.074 266.195 211.259C265.999 210.443 269.916 206.266 269.916 206.266C271.335 205.168 272.514 203.792 273.383 202.223C274.04 201.075 274.543 199.845 274.878 198.565C275.982 194.361 271.794 190.96 270.121 189.797C269.716 189.515 269.459 189.364 269.459 189.364L268.023 188.248C267.281 186.997 264.445 185.779 261.574 184.823C259.503 184.132 257.412 183.577 256.076 183.245C255.192 183.025 254.639 182.903 254.639 182.903L253.124 181.886L252.591 181.528L252.103 181.201L250.265 179.966L246.169 180.256L241.059 180.619L238.325 182.375L237.022 183.213L231.919 186.492C231.919 186.492 231.785 187.748 231.742 189.433C231.739 189.563 231.736 189.695 231.734 189.831C231.68 193.243 232.047 198.043 234.531 198.043Z" fill="#1F2421"/>
<path d="M254.182 124.951L255.553 129.845C255.553 129.845 257.968 138.264 258.23 138.851C258.491 139.439 264.824 145.378 265.085 145.508C265.346 145.639 268.794 147.596 268.794 147.596C268.794 147.596 269.067 136.828 268.806 133.696C268.783 133.008 268.84 132.319 268.976 131.644C269.392 129.189 270.446 125.589 271.32 122.817C272.051 120.494 272.658 118.751 272.658 118.751C272.658 118.751 257.381 118.098 257.903 119.599C258.1 120.167 258.036 121.116 257.846 122.068C257.531 123.633 256.873 125.203 256.467 125.081C256.07 124.992 255.664 124.947 255.256 124.947C254.692 124.93 254.182 124.951 254.182 124.951Z" fill="#EE8E9E"/>
<path opacity="0.1" d="M257.846 122.068C259.712 123.625 262.031 124.539 264.458 124.674C266.886 124.809 269.292 124.157 271.32 122.817C272.051 120.494 272.658 118.751 272.658 118.751C272.658 118.751 257.381 118.098 257.903 119.599C258.1 120.167 258.036 121.116 257.846 122.068Z" fill="black"/>
<path d="M276.381 113.011C276.381 114.208 276.191 115.398 275.816 116.535C275.722 116.829 275.613 117.117 275.489 117.4C274.61 119.482 273.125 121.252 271.228 122.482C269.331 123.711 267.109 124.344 264.848 124.297C262.587 124.249 260.393 123.525 258.549 122.218C256.705 120.91 255.295 119.08 254.503 116.963C254.055 115.765 253.816 114.498 253.798 113.219C253.792 113.151 253.792 113.079 253.792 113.011C253.792 110.016 254.982 107.145 257.1 105.027C259.218 102.91 262.091 101.72 265.086 101.72C268.082 101.72 270.954 102.91 273.073 105.027C275.191 107.145 276.381 110.016 276.381 113.011H276.381Z" fill="#EE8E9E"/>
<path opacity="0.1" d="M254.182 124.951L255.553 129.845C255.553 129.845 257.968 138.264 258.23 138.851C258.491 139.439 264.824 145.378 265.085 145.508C265.346 145.639 268.794 147.596 268.794 147.596C268.794 147.596 269.067 136.828 268.806 133.696C268.783 133.008 268.84 132.319 268.976 131.644L268.088 135.262L268.153 142.506L268.675 142.898L267.5 144.66V143.354C267.5 143.354 263.322 139.308 262.669 137.611C262.016 135.915 259.666 132.842 259.666 132.842C259.666 132.842 256.989 128.344 256.924 127.561C256.873 126.95 255.749 125.538 255.257 124.947C254.692 124.93 254.182 124.951 254.182 124.951Z" fill="black"/>
<path opacity="0.1" d="M277.032 148.184C277.111 148.633 277.267 149.064 277.493 149.46C278.92 149.314 283.784 148.407 284.855 142.853C284.216 142.257 283.691 141.788 283.691 141.788C283.691 141.788 276.967 146.618 277.032 148.184Z" fill="black"/>
<path opacity="0.1" d="M231.734 189.831C233.051 188.899 234.305 187.628 235.053 187.275C236.163 186.753 237.86 185.056 237.86 185.056C237.86 185.056 238.291 184.764 238.952 184.376C240.163 183.666 242.149 182.638 243.671 182.511C245.034 182.398 249.562 182.108 253.124 181.886C255.702 181.724 257.772 181.597 257.772 181.597C257.772 181.597 262.016 180.096 263.844 181.075C265.153 181.731 266.533 182.235 267.957 182.576C267.957 182.576 267.958 182.434 267.965 182.189L267.957 182.185L266.586 179.966L252.103 181.201L250.265 179.966L241.059 180.619L238.325 182.375L235.967 182.576C235.967 182.576 236.344 182.805 237.022 183.213L231.919 186.492C231.919 186.492 231.762 187.95 231.734 189.831Z" fill="black"/>
<path d="M229.83 190.408C230.521 190.203 231.169 189.873 231.742 189.434V189.433C233.056 188.502 234.306 187.235 235.053 186.884C236.163 186.362 237.86 184.665 237.86 184.665C237.86 184.665 241.32 182.315 243.671 182.12C244.312 182.066 245.651 181.973 247.261 181.869C248.909 181.759 250.838 181.637 252.591 181.528C253.602 181.464 254.554 181.404 255.358 181.355C256.8 181.266 257.773 181.206 257.773 181.206C257.773 181.206 262.016 179.705 263.844 180.684C265.153 181.339 266.533 181.843 267.957 182.185C267.957 182.185 268.023 177.617 268.545 175.724C269.067 173.831 269.785 170.373 269.785 170.373C269.785 170.373 270.373 165.609 270.96 163.455C271.548 161.301 273.833 149.293 275.008 148.51C276.183 147.727 276.836 149.097 276.836 149.097C276.836 149.097 284.671 148.967 284.801 140.352C284.801 140.352 281.145 136.698 280.884 135.784C280.623 134.871 277.163 131.477 277.163 131.477C277.163 131.477 275.204 127.822 272.984 127.757C271.935 127.697 270.883 127.729 269.84 127.854L267.957 135.523L268.023 142.767L268.545 143.159L267.37 144.921V143.616C267.37 143.616 263.191 139.569 262.538 137.873C261.886 136.176 259.535 133.103 259.535 133.103C259.535 133.103 256.859 128.605 256.793 127.822C256.728 127.039 254.9 124.94 254.9 124.94C254.531 124.897 254.159 124.897 253.79 124.94C253.625 124.952 253.46 124.929 253.304 124.873C252.25 124.536 251.128 124.472 250.043 124.687C247.785 125.156 244.351 126.013 243.41 127.039C241.973 128.605 239.884 130.106 237.534 136.633L250.199 141.201L249.116 143.26L239.035 162.411C239.035 162.411 238.701 162.955 238.248 163.666V163.668C237.66 164.59 236.874 165.794 236.359 166.457C235.445 167.632 235.706 171.352 235.706 171.352C235.706 171.352 235.51 173.114 234.857 173.766C234.204 174.419 234.335 176.833 234.335 176.833L232.637 183.164C232.637 183.164 231.07 184.6 231.07 185.252C231.07 185.905 229.83 187.732 229.83 187.732C229.83 187.732 227.937 190.865 229.83 190.408Z" fill="white"/>
<path opacity="0.1" d="M296.683 195.107C296.683 195.107 292.57 196.477 291.46 198.435C290.35 200.393 296.683 195.107 296.683 195.107Z" fill="black"/>
<path opacity="0.1" d="M294.594 190.799C294.464 190.995 288.961 196.515 289.306 197.848C289.651 199.18 294.594 190.799 294.594 190.799Z" fill="black"/>
<path opacity="0.1" d="M264.367 194.715C264.367 194.715 258.23 197.608 257.707 198.87C257.185 200.132 264.367 194.715 264.367 194.715Z" fill="black"/>
<path opacity="0.1" d="M263.975 198.435C263.975 198.435 258.436 200.784 257.68 201.372C256.924 201.959 263.975 198.435 263.975 198.435Z" fill="black"/>
<path opacity="0.1" d="M261.428 203.46C261.428 203.46 258.976 205.287 257.623 203.852C256.271 202.416 261.428 203.46 261.428 203.46Z" fill="black"/>
<path opacity="0.1" d="M270.635 155.819C270.503 156.015 262.343 170.699 260.188 171.808C258.034 172.918 270.635 155.819 270.635 155.819Z" fill="black"/>
<path opacity="0.1" d="M270.242 161.367C270.242 161.693 262.277 178.726 260.972 178.922C259.666 179.118 270.242 161.367 270.242 161.367Z" fill="black"/>
<path opacity="0.1" d="M239.949 172.33C239.949 172.33 236.103 180.542 234.596 181.01C233.089 181.478 239.949 172.33 239.949 172.33Z" fill="black"/>
<path opacity="0.1" d="M239.297 168.676C239.297 168.676 237.97 171.547 237.165 171.547C236.359 171.547 239.297 168.676 239.297 168.676Z" fill="black"/>
<path opacity="0.1" d="M276.381 113.011C276.381 114.208 276.191 115.398 275.816 116.535C275.722 116.829 275.613 117.117 275.489 117.4C274.909 117.312 274.363 117.072 273.906 116.705C273.421 116.376 273.016 115.944 272.721 115.439C272.498 114.9 272.305 114.35 272.143 113.791C271.882 113.159 271.458 112.608 270.913 112.196C270.369 111.783 269.723 111.524 269.045 111.444C269.42 112.084 268.823 112.962 268.088 113.076C267.354 113.187 266.639 112.749 266.133 112.204C265.627 111.659 265.261 110.997 264.758 110.452C264.252 109.907 263.537 109.47 262.802 109.581C262.153 109.679 261.65 110.175 261.105 110.543C260.563 110.912 259.802 111.16 259.277 110.765C258.983 110.547 258.839 110.175 258.558 109.936C257.837 109.333 256.714 109.956 256.182 110.736C255.362 111.943 254.863 112.674 253.798 113.219C253.792 113.151 253.792 113.079 253.792 113.011C253.792 110.016 254.982 107.145 257.1 105.027C259.218 102.91 262.091 101.72 265.086 101.72C268.082 101.72 270.954 102.91 273.073 105.027C275.191 107.145 276.381 110.016 276.381 113.011Z" fill="black"/>
<path d="M256.183 110.409C256.714 109.629 257.836 109.005 258.56 109.611C258.84 109.847 258.984 110.219 259.277 110.44C259.801 110.835 260.563 110.587 261.106 110.217C261.648 109.847 262.153 109.353 262.802 109.254C263.537 109.143 264.253 109.58 264.757 110.126C265.262 110.671 265.628 111.333 266.132 111.878C266.637 112.424 267.353 112.861 268.088 112.749C268.823 112.636 269.421 111.758 269.044 111.118C269.722 111.198 270.367 111.457 270.912 111.87C271.456 112.282 271.881 112.833 272.141 113.464C272.304 114.023 272.497 114.574 272.72 115.112C273.015 115.617 273.421 116.049 273.906 116.377C274.505 116.816 275.231 117.186 275.963 117.059C276.695 116.931 277.314 116.093 276.974 115.433C277.208 115.788 277.71 115.294 277.786 114.875C277.952 113.958 277.9 113.015 277.635 112.121C277.275 110.908 276.518 109.705 276.809 108.473C277.04 107.498 277.874 106.798 278.38 105.933C279.277 104.4 279.039 102.334 277.948 100.932C277.381 100.245 276.66 99.7008 275.844 99.3431C275.027 98.9855 274.138 98.8246 273.249 98.8734C272.758 98.9295 272.263 98.9387 271.771 98.9009C270.951 98.7792 270.258 98.2518 269.605 97.7421L264.136 93.4751C263.528 92.939 262.828 92.5172 262.069 92.2302C261.297 91.9906 260.37 92.0733 259.798 92.6452C258.774 93.6688 259.425 95.4302 259.014 96.8181C258.658 98.0202 257.512 98.8348 256.325 99.2409C255.139 99.6469 253.869 99.736 252.65 100.03C252.287 100.09 251.946 100.248 251.667 100.488C251.35 100.878 251.197 101.375 251.239 101.875C251.231 103.103 251.523 104.314 252.088 105.404C252.721 106.622 253.725 107.873 253.37 109.199C253.182 109.9 252.641 110.44 252.165 110.988C251.131 112.177 250.782 113.932 252.727 113.319C254.6 112.728 255.125 111.963 256.183 110.409Z" fill="#1F2421"/>
<g opacity="0.1">
<path opacity="0.1" d="M277.787 113.589C277.711 114.007 277.209 114.501 276.976 114.146C277.316 114.807 276.696 115.645 275.964 115.772C275.233 115.899 274.507 115.529 273.907 115.09C273.422 114.763 273.017 114.33 272.721 113.825C272.498 113.287 272.305 112.737 272.142 112.177C271.882 111.546 271.458 110.996 270.913 110.583C270.368 110.171 269.724 109.911 269.045 109.831C269.423 110.471 268.824 111.35 268.089 111.462C267.354 111.574 266.638 111.137 266.133 110.592C265.629 110.046 265.263 109.385 264.758 108.839C264.254 108.294 263.538 107.856 262.803 107.968C262.154 108.067 261.65 108.56 261.107 108.93C260.564 109.301 259.802 109.549 259.278 109.153C258.985 108.933 258.842 108.56 258.561 108.325C257.837 107.718 256.715 108.342 256.184 109.123C255.127 110.676 254.601 111.442 252.728 112.032C252.113 112.226 251.729 112.182 251.522 111.995C251.111 112.939 251.298 113.77 252.728 113.319C254.601 112.728 255.127 111.963 256.184 110.409C256.715 109.629 257.837 109.005 258.561 109.612C258.842 109.847 258.985 110.219 259.278 110.44C259.802 110.835 260.564 110.587 261.107 110.217C261.65 109.847 262.154 109.353 262.803 109.254C263.538 109.143 264.254 109.58 264.758 110.126C265.263 110.671 265.629 111.333 266.133 111.878C266.638 112.424 267.354 112.861 268.089 112.749C268.824 112.636 269.423 111.758 269.045 111.118C269.724 111.198 270.368 111.457 270.913 111.87C271.458 112.282 271.882 112.833 272.142 113.464C272.305 114.023 272.498 114.574 272.721 115.112C273.017 115.617 273.422 116.049 273.907 116.377C274.507 116.816 275.233 117.186 275.964 117.059C276.696 116.931 277.316 116.093 276.976 115.433C277.209 115.788 277.711 115.294 277.787 114.875C277.889 114.312 277.909 113.737 277.846 113.168C277.831 113.309 277.813 113.449 277.787 113.589Z" fill="black"/>
<path opacity="0.1" d="M253.354 107.961C253.359 107.945 253.367 107.929 253.371 107.912C253.726 106.587 252.723 105.335 252.089 104.118C251.645 103.259 251.37 102.324 251.278 101.361C251.253 101.532 251.241 101.703 251.24 101.875C251.233 103.103 251.524 104.314 252.089 105.404C252.522 106.237 253.128 107.085 253.354 107.961Z" fill="black"/>
<path opacity="0.1" d="M278.381 104.647C277.875 105.512 277.041 106.212 276.811 107.187C276.721 107.599 276.725 108.026 276.822 108.437C277.065 107.482 277.881 106.787 278.381 105.933C278.852 105.097 279.029 104.127 278.884 103.178C278.813 103.696 278.642 104.194 278.381 104.647Z" fill="black"/>
</g>
<path opacity="0.1" d="M238.248 163.666V163.668C238.335 164.028 238.402 164.393 238.448 164.76C238.448 164.76 243.605 176.833 244.258 177.551C244.459 177.772 245.217 178.858 246.169 180.256C246.513 180.761 246.883 181.308 247.261 181.869C249.236 184.798 251.44 188.124 251.44 188.124L256.271 192.366C256.271 192.366 266.781 193.206 270.121 189.797C269.716 189.515 269.459 189.364 269.459 189.364L268.023 188.248C267.281 186.997 264.445 185.779 261.574 184.823C258.928 184.842 256.765 185.056 256.765 185.056L256.076 183.245L255.358 181.355L251.706 171.743C251.706 171.743 249.351 159.605 248.567 159.017C247.784 158.43 247.98 156.602 247.98 156.602C247.98 156.602 249.416 151.447 248.894 150.729C248.371 150.011 249.742 144.725 249.742 144.725C249.606 144.209 249.395 143.716 249.116 143.26L239.035 162.411C239.035 162.411 238.701 162.955 238.248 163.666Z" fill="black"/>
<path d="M249.873 144.333C249.873 144.333 248.502 149.619 249.024 150.337C249.546 151.055 248.11 156.211 248.11 156.211C248.11 156.211 247.914 158.038 248.698 158.626C249.481 159.213 251.837 171.351 251.837 171.351L256.895 184.665C256.895 184.665 272.723 183.098 271.091 188.058C269.459 193.018 256.402 191.974 256.402 191.974L251.57 187.732C251.57 187.732 245.042 177.878 244.389 177.16C243.736 176.442 238.578 164.369 238.578 164.369C238.578 164.369 238.317 161.954 237.207 160.714C236.097 159.474 236.946 157.377 236.946 157.377C236.946 157.377 235.575 141.592 237.011 139.7C238.448 137.807 248.371 138.656 249.873 144.333Z" fill="#EE8E9E"/>
<path opacity="0.1" d="M241.777 134.414L237.664 136.894C237.664 136.894 236.489 140.875 235.575 141.397C235.575 141.397 243.801 136.828 250.003 147.335C250.003 147.335 249.808 145.965 250.656 145.312C251.505 144.66 251.309 141.853 251.309 141.853C251.535 141.41 251.731 140.952 251.897 140.483C252.484 139.047 249.416 130.824 241.777 134.414Z" fill="black"/>
<path d="M241.647 134.153L237.534 136.632C237.534 136.632 236.359 140.613 235.445 141.136C235.445 141.136 243.671 136.567 249.873 147.074C249.873 147.074 249.677 145.704 250.526 145.051C251.375 144.399 251.179 141.592 251.179 141.592C251.405 141.149 251.601 140.691 251.766 140.222C252.354 138.786 249.286 130.563 241.647 134.153Z" fill="white"/>
<path d="M204.987 248.442C211.759 248.442 217.249 242.618 217.249 235.432C217.249 228.247 211.759 222.422 204.987 222.422C198.215 222.422 192.726 228.247 192.726 235.432C192.726 242.618 198.215 248.442 204.987 248.442Z" fill="#FBD56F"/>
<path opacity="0.1" d="M204.987 248.442C211.759 248.442 217.249 242.618 217.249 235.432C217.249 228.247 211.759 222.422 204.987 222.422C198.215 222.422 192.726 228.247 192.726 235.432C192.726 242.618 198.215 248.442 204.987 248.442Z" fill="black"/>
<path d="M207.103 248.442C213.875 248.442 219.365 242.747 219.365 235.722C219.365 228.697 213.875 223.002 207.103 223.002C200.331 223.002 194.842 228.697 194.842 235.722C194.842 242.747 200.331 248.442 207.103 248.442Z" fill="#FBD56F"/>
<path d="M29.4295 242.582C37.7931 242.582 44.5733 241.436 44.5733 240.023C44.5733 238.609 37.7931 237.464 29.4295 237.464C21.0658 237.464 14.2856 238.609 14.2856 240.023C14.2856 241.436 21.0658 242.582 29.4295 242.582Z" fill="#575656"/>
<path d="M35.6912 235.836C36.3398 235.234 36.9482 234.523 37.135 233.658C37.3219 232.793 36.9531 231.756 36.1261 231.44C35.1996 231.085 34.2094 231.727 33.4587 232.376C32.708 233.024 31.8477 233.764 30.8652 233.627C31.3706 233.169 31.7487 232.588 31.9627 231.941C32.1767 231.293 32.2193 230.602 32.0863 229.933C32.0431 229.657 31.9258 229.397 31.7467 229.183C31.2323 228.633 30.2999 228.869 29.684 229.302C27.7254 230.679 27.1789 233.339 27.1683 235.732C26.9707 234.869 27.1371 233.969 27.1322 233.083C27.1274 232.198 26.8845 231.216 26.1371 230.74C25.6715 230.49 25.1479 230.367 24.6194 230.384C23.739 230.351 22.7584 230.44 22.1572 231.083C21.4101 231.883 21.6039 233.225 22.2538 234.105C22.9037 234.986 23.8923 235.538 24.8023 236.146C25.5322 236.58 26.1547 237.174 26.6235 237.882C26.6786 237.981 26.7238 238.085 26.7585 238.192H32.2779C33.5169 237.565 34.6651 236.772 35.6912 235.836Z" fill="#84BD00"/>
<path d="M166.379 223.336C167.054 224.259 167.606 225.266 168.02 226.332C168.13 226.607 168.238 226.897 168.339 227.2C169.971 232.074 167.385 237.919 166.646 237.289C165.907 236.658 163.604 235.488 163.159 237.132C162.714 238.776 161.068 240.456 161.068 240.456C158.071 243.47 155.358 240.214 153.578 236.85C152.996 235.74 152.479 234.598 152.028 233.428C151.633 232.395 151.406 231.681 151.406 231.681L163.889 221.049C163.889 221.049 165.096 221.603 166.379 223.336Z" fill="#84BD00"/>
<path d="M146.704 230.134C147.379 231.057 147.931 232.065 148.346 233.13C148.455 233.406 148.563 233.695 148.664 233.999C150.296 238.873 147.711 244.718 146.972 244.087C146.232 243.457 143.929 242.287 143.484 243.931C143.039 245.575 141.394 247.255 141.394 247.255C138.397 250.268 135.684 247.012 133.903 243.648C133.321 242.539 132.804 241.396 132.354 240.227C131.958 239.194 131.731 238.48 131.731 238.48L144.215 227.848C144.215 227.848 145.421 228.401 146.704 230.134Z" fill="#84BD00"/>
<path d="M107.2 239.526C107.13 240.668 106.911 241.795 106.551 242.88C106.459 243.162 106.357 243.453 106.241 243.752C104.386 248.545 98.6638 251.396 98.4973 250.439C98.3308 249.482 97.3045 247.112 95.9122 248.094C94.5199 249.075 92.1807 249.319 92.1807 249.319C87.9495 249.727 87.9395 245.49 88.7162 241.764C88.9768 240.539 89.308 239.329 89.708 238.141C90.0632 237.094 90.3442 236.399 90.3442 236.399L106.743 236.178C106.743 236.178 107.318 237.374 107.2 239.526Z" fill="#84BD00"/>
<path d="M86.0118 234.185C85.9417 235.326 85.7235 236.453 85.3627 237.538C85.2712 237.82 85.1691 238.112 85.0534 238.41C83.1976 243.204 77.4758 246.054 77.3093 245.097C77.1428 244.14 76.1165 241.771 74.7242 242.752C73.3319 243.734 70.9927 243.978 70.9927 243.978C66.7615 244.386 66.7515 240.148 67.5282 236.422C67.7889 235.197 68.12 233.987 68.5201 232.8C68.8752 231.752 69.1563 231.058 69.1563 231.058L85.5549 230.836C85.5549 230.836 86.1304 232.032 86.0118 234.185Z" fill="#84BD00"/>
<path d="M166.379 223.336C167.054 224.259 167.606 225.266 168.02 226.332C168.13 226.607 168.238 226.897 168.339 227.2C169.971 232.074 167.385 237.919 166.646 237.289C165.907 236.658 163.604 235.488 163.159 237.132C162.714 238.776 161.068 240.456 161.068 240.456C158.071 243.47 155.358 240.214 153.578 236.85C152.996 235.74 152.479 234.598 152.028 233.428C151.633 232.395 151.406 231.681 151.406 231.681L163.889 221.049C163.889 221.049 165.096 221.603 166.379 223.336Z" fill="#B64625"/>
<path d="M146.704 230.134C147.379 231.057 147.931 232.065 148.346 233.13C148.455 233.406 148.563 233.695 148.664 233.999C150.296 238.873 147.711 244.718 146.972 244.087C146.232 243.457 143.929 242.287 143.484 243.931C143.039 245.575 141.394 247.255 141.394 247.255C138.397 250.268 135.684 247.012 133.903 243.648C133.321 242.539 132.804 241.396 132.354 240.227C131.958 239.194 131.731 238.48 131.731 238.48L144.215 227.848C144.215 227.848 145.421 228.401 146.704 230.134Z" fill="#B64625"/>
<path d="M107.2 239.526C107.13 240.668 106.911 241.795 106.551 242.88C106.459 243.162 106.357 243.453 106.241 243.752C104.386 248.545 98.6638 251.396 98.4973 250.439C98.3308 249.482 97.3045 247.112 95.9122 248.094C94.5199 249.075 92.1807 249.319 92.1807 249.319C87.9495 249.727 87.9395 245.49 88.7162 241.764C88.9768 240.539 89.308 239.329 89.708 238.141C90.0632 237.094 90.3442 236.399 90.3442 236.399L106.743 236.178C106.743 236.178 107.318 237.374 107.2 239.526Z" fill="#B64625"/>
<path d="M86.0118 234.185C85.9417 235.326 85.7235 236.453 85.3627 237.538C85.2712 237.82 85.1691 238.112 85.0534 238.41C83.1976 243.204 77.4758 246.054 77.3093 245.097C77.1428 244.14 76.1165 241.771 74.7242 242.752C73.3319 243.734 70.9927 243.978 70.9927 243.978C66.7615 244.386 66.7515 240.148 67.5282 236.422C67.7889 235.197 68.12 233.987 68.5201 232.8C68.8752 231.752 69.1563 231.058 69.1563 231.058L85.5549 230.836C85.5549 230.836 86.1304 232.032 86.0118 234.185Z" fill="#B64625"/>
<path d="M199.678 162.344C199.678 206.127 184.861 241.62 116.485 241.62C70.5393 241.62 34.993 230.208 33.2927 162.344C32.1961 118.575 70.5393 83.0684 116.485 83.0684C162.431 83.0684 199.678 118.561 199.678 162.344Z" fill="#E4572E"/>
<path opacity="0.2" d="M100.879 84.4524H100.89C100.887 84.4538 100.884 84.4547 100.882 84.4551L100.879 84.4524Z" fill="black"/>
<path opacity="0.2" d="M101.042 84.4256C101.253 84.3917 101.671 84.3334 102.278 84.2872L100.925 84.4475C100.944 84.4426 100.969 84.4378 100.998 84.4329C101.012 84.4305 101.025 84.4281 101.042 84.4256Z" fill="black"/>
<path opacity="0.2" d="M162.514 116.818L156.442 119.003C153.346 114.854 150.016 110.885 146.466 107.116C142.592 102.985 138.365 99.2 133.833 95.8034C118.285 84.2848 106.259 83.991 102.288 84.2872L111.416 83.214C120.043 84.6978 128.34 87.6957 135.922 92.0691C141.227 95.1258 146.167 98.7742 150.649 102.944C158.597 110.318 162.514 116.818 162.514 116.818Z" fill="black"/>
<path opacity="0.2" d="M107.619 120.946C107.619 120.946 99.6037 94.2374 106.405 86.9533C106.405 86.9533 117.092 83.3112 125.108 103.95L107.619 120.946Z" fill="black"/>
<path d="M148.208 96.0001C148.208 96.0001 169.464 77.9434 178.868 81.2476C178.868 81.2476 186.494 89.5716 170.799 105.193L148.208 96.0001Z" fill="#84BD00"/>
<path d="M148.208 96.0001C148.208 96.0001 169.464 77.9434 178.868 81.2476C178.868 81.2476 186.494 89.5716 170.799 105.193L148.208 96.0001Z" fill="#B64625"/>
<path d="M214.495 182.497C214.495 206.031 197.6 224.623 181.703 224.623C165.807 224.623 156.928 206.031 156.928 182.497C156.928 158.963 169.841 140.804 185.711 139.885C210.851 138.428 214.495 158.963 214.495 182.497Z" fill="#84BD00"/>
<path d="M214.495 182.497C214.495 206.031 197.6 224.623 181.703 224.623C165.807 224.623 156.928 206.031 156.928 182.497C156.928 158.963 169.841 140.804 185.711 139.885C210.851 138.428 214.495 158.963 214.495 182.497Z" fill="#B64625"/>
<path d="M180.732 192.816C183.683 192.816 186.076 189.772 186.076 186.017C186.076 182.263 183.683 179.219 180.732 179.219C177.781 179.219 175.388 182.263 175.388 186.017C175.388 189.772 177.781 192.816 180.732 192.816Z" fill="#E4572E"/>
<path d="M199.678 186.989C202.629 186.989 205.021 183.945 205.021 180.19C205.021 176.435 202.629 173.392 199.678 173.392C196.726 173.392 194.334 176.435 194.334 180.19C194.334 183.945 196.726 186.989 199.678 186.989Z" fill="#E4572E"/>
<path d="M151.686 98.5592C151.69 100.082 151.334 101.584 150.649 102.944C149.744 104.751 148.276 106.215 146.466 107.116C142.592 102.985 138.365 99.2 133.833 95.8034C134.237 94.4163 134.951 93.1392 135.922 92.0691C136.759 91.1363 137.783 90.3896 138.926 89.8772C140.07 89.3649 141.309 89.0983 142.563 89.0947C147.6 89.0947 151.686 93.3316 151.686 98.5592Z" fill="#FAD46F"/>
<defs>
<linearGradient id="paint0_linear" x1="274.572" y1="255.221" x2="274.572" y2="90.7274" gradientUnits="userSpaceOnUse">
<stop stop-color="#808080" stop-opacity="0.25"/>
<stop offset="0.53514" stop-color="#808080" stop-opacity="0.12"/>
<stop offset="1" stop-color="#808080" stop-opacity="0.1"/>
</linearGradient>
</defs>
</svg>
