<svg width="308" height="238" viewBox="0 0 308 238" fill="none" xmlns="http://www.w3.org/2000/svg">
<g clip-path="url(#clip0)">
<path d="M193.214 38.3701C180.391 46.4925 163.76 45.964 149.187 41.7418C134.614 37.5196 121.224 29.9896 107.031 24.6405C95.1082 20.1536 82.66 17.2177 69.9912 15.9045C51.8944 14.0303 31.6868 16.3115 19.0764 29.4428C5.03445 44.0685 6.11109 70.4495 21.2994 83.8694C29.024 90.6977 39.1414 94.0481 47.9639 99.379C56.7863 104.71 64.9476 113.564 64.1985 123.855C63.504 133.381 55.4185 140.693 47.051 145.279C40.582 148.824 32.6148 152.694 31.8354 160.036C31.0833 167.14 37.7797 172.708 44.1759 175.873C65.0416 186.201 90.7477 186.101 111.532 175.612C118.947 171.87 125.765 166.894 133.541 163.978C153.961 156.321 176.458 164.03 198.079 166.849C216.438 169.23 235.084 168.001 252.973 163.231C263.679 160.37 274.427 155.996 281.948 147.846C287.371 141.968 290.743 134.532 293.925 127.191C297.307 119.358 300.559 111.47 303.678 103.528C305.553 98.7594 307.396 93.8993 307.879 88.7962C308.755 79.553 305.064 70.4161 300.033 62.6127C288.084 44.0868 267.973 31.0618 246.197 27.7539C224.422 24.4461 201.376 30.913 184.483 45.0466" fill="#1F2421"/>
<path opacity="0.1" d="M41.1674 238C63.9035 238 82.3347 234.391 82.3347 229.938C82.3347 225.486 63.9035 221.877 41.1674 221.877C18.4313 221.877 0 225.486 0 229.938C0 234.391 18.4313 238 41.1674 238Z" fill="#84BD00"/>
<path opacity="0.1" d="M163.465 221.163C211.125 221.163 249.761 217.554 249.761 213.101C249.761 208.649 211.125 205.04 163.465 205.04C115.806 205.04 77.1699 208.649 77.1699 213.101C77.1699 217.554 115.806 221.163 163.465 221.163Z" fill="#84BD00"/>
<path d="M222.041 155.704C222.041 155.704 234.139 134.241 252.369 128.062C260.015 125.465 266.69 120.584 271.255 113.914C273.415 110.743 275.28 107.38 276.829 103.869" stroke="#535461" stroke-width="2" stroke-miterlimit="10"/>
<path d="M288.272 99.9015C286.194 101.918 276.526 104.005 276.526 104.005C276.526 104.005 278.9 94.3914 280.975 92.3715C281.972 91.4023 283.312 90.8696 284.701 90.8904C286.091 90.9111 287.415 91.4838 288.382 92.4824C289.35 93.4809 289.882 94.8235 289.861 96.2149C289.84 97.6063 289.269 98.9324 288.272 99.9015Z" fill="#84BD00"/>
<path d="M282.804 117.304C279.965 117.865 270.718 114.354 270.718 114.354C270.718 114.354 277.927 107.574 280.762 107.009C281.444 106.858 282.148 106.845 282.835 106.97C283.521 107.096 284.176 107.357 284.76 107.739C285.345 108.121 285.847 108.616 286.238 109.196C286.628 109.775 286.9 110.426 287.035 111.112C287.171 111.797 287.169 112.503 287.029 113.188C286.889 113.873 286.614 114.522 286.22 115.099C285.825 115.676 285.32 116.168 284.734 116.546C284.147 116.925 283.491 117.182 282.804 117.304Z" fill="#84BD00"/>
<path d="M262.878 136.133C260.148 135.185 253.931 127.479 253.931 127.479C253.931 127.479 263.572 125.268 266.305 126.216C266.97 126.429 267.587 126.773 268.118 127.228C268.648 127.683 269.083 128.24 269.396 128.866C269.709 129.491 269.893 130.174 269.939 130.872C269.985 131.57 269.891 132.271 269.662 132.932C269.434 133.593 269.075 134.202 268.608 134.723C268.141 135.244 267.575 135.665 266.943 135.964C266.311 136.262 265.626 136.431 264.928 136.46C264.229 136.489 263.533 136.378 262.878 136.133Z" fill="#84BD00"/>
<path d="M244.617 146.98C241.763 146.509 234.339 139.96 234.339 139.96C234.339 139.96 243.468 136.151 246.322 136.619C247 136.731 247.65 136.976 248.235 137.34C248.819 137.703 249.326 138.179 249.726 138.739C250.127 139.299 250.414 139.932 250.57 140.603C250.726 141.274 250.749 141.969 250.637 142.649C250.526 143.328 250.281 143.979 249.918 144.564C249.555 145.15 249.08 145.657 248.521 146.059C247.962 146.46 247.33 146.747 246.66 146.904C245.99 147.06 245.296 147.083 244.617 146.971V146.98Z" fill="#84BD00"/>
<path d="M262.653 106.851C262.653 109.749 267.888 118.154 267.888 118.154C267.888 118.154 273.129 109.752 273.132 106.854C273.099 105.485 272.532 104.182 271.553 103.225C270.575 102.268 269.261 101.732 267.893 101.732C266.525 101.732 265.211 102.268 264.232 103.225C263.253 104.182 262.686 105.485 262.653 106.854V106.851Z" fill="#84BD00"/>
<path d="M241.448 119.8C242.312 122.565 249.816 129.016 249.816 129.016C249.816 129.016 252.308 119.43 251.444 116.666C251.029 115.336 250.104 114.227 248.872 113.581C247.64 112.935 246.202 112.805 244.875 113.221C243.548 113.637 242.44 114.563 241.795 115.797C241.15 117.031 241.021 118.471 241.436 119.8H241.448Z" fill="#84BD00"/>
<path d="M222.56 135.228C222.945 138.101 229.256 145.729 229.256 145.729C229.256 145.729 233.329 136.704 232.944 133.831C232.759 132.452 232.035 131.202 230.93 130.358C229.826 129.514 228.431 129.144 227.054 129.329C225.677 129.514 224.43 130.24 223.587 131.346C222.744 132.452 222.375 133.849 222.56 135.228Z" fill="#84BD00"/>
<path opacity="0.25" d="M288.272 99.9015C286.194 101.918 276.526 104.005 276.526 104.005C276.526 104.005 278.9 94.3914 280.975 92.3715C281.972 91.4023 283.312 90.8696 284.701 90.8904C286.091 90.9111 287.415 91.4838 288.382 92.4824C289.35 93.4809 289.882 94.8235 289.861 96.2149C289.84 97.6063 289.269 98.9324 288.272 99.9015Z" fill="black"/>
<path opacity="0.25" d="M282.804 117.304C279.965 117.865 270.718 114.354 270.718 114.354C270.718 114.354 277.927 107.574 280.762 107.009C281.444 106.858 282.148 106.845 282.835 106.97C283.521 107.096 284.176 107.357 284.76 107.739C285.345 108.121 285.847 108.616 286.238 109.196C286.628 109.775 286.9 110.426 287.035 111.112C287.171 111.797 287.169 112.503 287.029 113.188C286.889 113.873 286.614 114.522 286.22 115.099C285.825 115.676 285.32 116.168 284.734 116.546C284.147 116.925 283.491 117.182 282.804 117.304Z" fill="black"/>
<path opacity="0.25" d="M262.878 136.133C260.148 135.185 253.931 127.479 253.931 127.479C253.931 127.479 263.572 125.268 266.305 126.216C266.97 126.429 267.587 126.773 268.118 127.228C268.648 127.683 269.083 128.24 269.396 128.866C269.709 129.491 269.893 130.174 269.939 130.872C269.985 131.57 269.891 132.271 269.662 132.932C269.434 133.593 269.075 134.202 268.608 134.723C268.141 135.244 267.575 135.665 266.943 135.964C266.311 136.262 265.626 136.431 264.928 136.46C264.229 136.489 263.533 136.378 262.878 136.133Z" fill="black"/>
<path opacity="0.25" d="M244.617 146.98C241.763 146.509 234.339 139.96 234.339 139.96C234.339 139.96 243.468 136.151 246.322 136.619C247 136.731 247.65 136.976 248.235 137.34C248.819 137.703 249.326 138.179 249.726 138.739C250.127 139.299 250.414 139.932 250.57 140.603C250.726 141.274 250.749 141.969 250.637 142.649C250.526 143.328 250.281 143.979 249.918 144.564C249.555 145.15 249.08 145.657 248.521 146.059C247.962 146.46 247.33 146.747 246.66 146.904C245.99 147.06 245.296 147.083 244.617 146.971V146.98Z" fill="black"/>
<path opacity="0.25" d="M262.653 106.851C262.653 109.749 267.888 118.154 267.888 118.154C267.888 118.154 273.129 109.752 273.132 106.854C273.099 105.485 272.532 104.182 271.553 103.225C270.575 102.268 269.261 101.732 267.893 101.732C266.525 101.732 265.211 102.268 264.232 103.225C263.253 104.182 262.686 105.485 262.653 106.854V106.851Z" fill="black"/>
<path opacity="0.25" d="M241.448 119.8C242.312 122.565 249.816 129.016 249.816 129.016C249.816 129.016 252.308 119.43 251.444 116.666C251.029 115.336 250.104 114.227 248.872 113.581C247.64 112.935 246.202 112.805 244.875 113.221C243.548 113.637 242.44 114.563 241.795 115.797C241.15 117.031 241.021 118.471 241.436 119.8H241.448Z" fill="black"/>
<path opacity="0.25" d="M222.56 135.228C222.945 138.101 229.256 145.729 229.256 145.729C229.256 145.729 233.329 136.704 232.944 133.831C232.759 132.452 232.035 131.202 230.93 130.358C229.826 129.514 228.431 129.144 227.054 129.329C225.677 129.514 224.43 130.24 223.587 131.346C222.744 132.452 222.375 133.849 222.56 135.228Z" fill="black"/>
<path d="M222.739 155.276C222.739 155.276 225.113 130.745 239.264 117.698C245.235 112.263 249.285 105.034 250.807 97.0978C251.499 93.3242 251.844 89.4951 251.838 85.6584" stroke="#535461" stroke-width="2" stroke-miterlimit="10"/>
<path d="M260.709 77.3873C259.627 80.0755 251.632 85.8924 251.632 85.8924C251.632 85.8924 249.91 76.1389 250.992 73.4385C251.552 72.2092 252.563 71.2436 253.816 70.7428C255.069 70.2419 256.467 70.2445 257.718 70.75C258.968 71.2555 259.976 72.2248 260.532 73.4562C261.087 74.6875 261.146 76.0859 260.697 77.36L260.709 77.3873Z" fill="#84BD00"/>
<path d="M262.748 95.5092C260.382 97.1768 250.507 97.7206 250.507 97.7206C250.507 97.7206 254.356 88.608 256.721 86.9282C257.858 86.1452 259.257 85.843 260.615 86.0872C261.973 86.3315 263.18 87.1024 263.973 88.2325C264.767 89.3627 265.084 90.7608 264.854 92.1233C264.624 93.4857 263.868 94.7025 262.748 95.5092Z" fill="#84BD00"/>
<path d="M252.16 120.806C249.279 121.049 240.48 116.526 240.48 116.526C240.48 116.526 248.399 110.594 251.283 110.351C251.969 110.293 252.659 110.371 253.314 110.581C253.969 110.79 254.577 111.127 255.102 111.571C255.628 112.016 256.061 112.56 256.376 113.172C256.692 113.784 256.884 114.453 256.941 115.139C256.999 115.826 256.921 116.517 256.711 117.173C256.502 117.829 256.166 118.438 255.722 118.964C255.278 119.49 254.735 119.924 254.124 120.24C253.513 120.556 252.845 120.748 252.16 120.806Z" fill="#84BD00"/>
<path d="M239.847 138.138C237.047 138.864 227.612 135.896 227.612 135.896C227.612 135.896 234.418 128.706 237.217 127.98C238.562 127.631 239.99 127.831 241.188 128.537C242.385 129.242 243.254 130.395 243.603 131.742C243.951 133.089 243.752 134.52 243.047 135.719C242.343 136.919 241.192 137.789 239.847 138.138Z" fill="#84BD00"/>
<path d="M240.095 94.1241C241.269 96.7728 249.455 102.325 249.455 102.325C249.455 102.325 250.847 92.5203 249.676 89.8716C249.113 88.5991 248.068 87.6028 246.772 87.1018C245.475 86.6008 244.033 86.6361 242.763 87.2C241.492 87.764 240.497 88.8103 239.997 90.1088C239.497 91.4073 239.532 92.8517 240.095 94.1241Z" fill="#84BD00"/>
<path d="M225.95 114.579C227.861 116.754 237.333 119.606 237.333 119.606C237.333 119.606 235.731 109.831 233.824 107.653C232.907 106.606 231.612 105.966 230.224 105.875C228.836 105.784 227.469 106.249 226.424 107.167C225.378 108.086 224.739 109.382 224.648 110.772C224.557 112.162 225.021 113.532 225.938 114.579H225.95Z" fill="#84BD00"/>
<path d="M214.926 136.349C216.442 138.818 225.295 143.232 225.295 143.232C225.295 143.232 225.368 133.327 223.855 130.857C223.128 129.671 221.96 128.823 220.608 128.5C219.257 128.176 217.833 128.403 216.649 129.132C215.465 129.86 214.618 131.029 214.295 132.383C213.972 133.736 214.199 135.163 214.926 136.349Z" fill="#84BD00"/>
<path d="M85.4767 0V8.31677V214.286H239.361V8.31677V0H85.4767Z" fill="url(#paint0_linear)"/>
<path d="M238.012 1.88025H86.8263V10.0482H238.012V1.88025Z" fill="#F6F7F9"/>
<g opacity="0.2">
<path opacity="0.2" d="M238.012 1.88025H86.8263V10.0482H238.012V1.88025Z" fill="#84BD00"/>
</g>
<path d="M238.012 10.0481H86.8263V212.406H238.012V10.0481Z" fill="#F6F7F9"/>
<path d="M90.8024 7.34775C91.5662 7.34775 92.1854 6.72761 92.1854 5.96263C92.1854 5.19765 91.5662 4.57751 90.8024 4.57751C90.0386 4.57751 89.4194 5.19765 89.4194 5.96263C89.4194 6.72761 90.0386 7.34775 90.8024 7.34775Z" fill="#F6F7F9"/>
<path d="M94.5509 7.34775C95.3147 7.34775 95.9339 6.72761 95.9339 5.96263C95.9339 5.19765 95.3147 4.57751 94.5509 4.57751C93.7871 4.57751 93.168 5.19765 93.168 5.96263C93.168 6.72761 93.7871 7.34775 94.5509 7.34775Z" fill="#F6F7F9"/>
<path d="M98.2993 7.34775C99.0631 7.34775 99.6823 6.72761 99.6823 5.96263C99.6823 5.19765 99.0631 4.57751 98.2993 4.57751C97.5356 4.57751 96.9164 5.19765 96.9164 5.96263C96.9164 6.72761 97.5356 7.34775 98.2993 7.34775Z" fill="#F6F7F9"/>
<g opacity="0.2">
<path opacity="0.2" d="M211.026 22.5233H113.809V26.3354H211.026V22.5233Z" fill="#84BD00"/>
</g>
<path d="M211.026 22.5233H198.109V26.3354H211.026V22.5233Z" fill="#84BD00"/>
<g opacity="0.2">
<path opacity="0.2" d="M161.054 100.427H99.8765V144.316H161.054V100.427Z" fill="#84BD00"/>
</g>
<g opacity="0.2">
<path opacity="0.2" d="M161.054 43.4945H99.8765V87.3839H161.054V43.4945Z" fill="#84BD00"/>
</g>
<g opacity="0.2">
<path opacity="0.2" d="M161.054 156.618H99.8765V200.508H161.054V156.618Z" fill="#84BD00"/>
</g>
<g opacity="0.2">
<path opacity="0.2" d="M224.962 100.427H163.784V144.316H224.962V100.427Z" fill="#84BD00"/>
</g>
<g opacity="0.2">
<path opacity="0.2" d="M224.962 43.4945H163.784V87.3839H224.962V43.4945Z" fill="#84BD00"/>
</g>
<g opacity="0.2">
<path opacity="0.2" d="M224.962 156.618H163.784V200.508H224.962V156.618Z" fill="#84BD00"/>
</g>
<path d="M282.527 192.732C282.527 192.732 284.693 195.566 281.53 199.843C278.366 204.119 275.767 207.74 276.814 210.401C276.814 210.401 281.584 202.455 285.469 202.345C289.354 202.236 286.801 197.51 282.527 192.732Z" fill="white"/>
<path opacity="0.1" d="M282.527 192.732C282.716 193.005 282.866 193.303 282.97 193.619C286.761 198.078 288.778 202.239 285.136 202.345C281.745 202.443 277.672 208.518 276.698 210.052C276.73 210.17 276.769 210.287 276.814 210.401C276.814 210.401 281.584 202.455 285.469 202.345C289.354 202.236 286.801 197.51 282.527 192.732Z" fill="black"/>
<path d="M286.552 196.343C286.552 197.34 286.44 198.148 286.303 198.148C286.167 198.148 286.052 197.34 286.052 196.343C286.052 195.347 286.191 195.815 286.331 195.815C286.47 195.815 286.552 195.344 286.552 196.343Z" fill="#FFD037"/>
<path d="M287.932 197.534C287.058 198.011 286.294 198.299 286.23 198.178C286.167 198.056 286.819 197.57 287.692 197.093C288.566 196.617 288.223 196.966 288.299 197.093C288.375 197.221 288.805 197.066 287.932 197.534Z" fill="#FFD037"/>
<path d="M271.1 192.732C271.1 192.732 268.934 195.566 272.098 199.843C275.261 204.119 277.86 207.74 276.814 210.401C276.814 210.401 272.043 202.455 268.158 202.345C264.273 202.236 266.821 197.51 271.1 192.732Z" fill="white"/>
<path opacity="0.1" d="M271.1 192.732C270.911 193.005 270.762 193.303 270.657 193.619C266.866 198.078 264.849 202.239 268.492 202.345C271.885 202.443 275.955 208.518 276.929 210.052C276.898 210.171 276.86 210.287 276.814 210.401C276.814 210.401 272.043 202.455 268.158 202.345C264.273 202.236 266.821 197.51 271.1 192.732Z" fill="black"/>
<path d="M267.075 196.343C267.075 197.34 267.187 198.148 267.327 198.148C267.466 198.148 267.576 197.34 267.576 196.343C267.576 195.347 267.436 195.815 267.3 195.815C267.163 195.815 267.075 195.344 267.075 196.343Z" fill="#FFD037"/>
<path d="M265.695 197.534C266.572 198.011 267.333 198.299 267.4 198.178C267.467 198.056 266.808 197.57 265.935 197.093C265.062 196.617 265.404 196.966 265.328 197.093C265.253 197.221 264.822 197.066 265.695 197.534Z" fill="#FFD037"/>
<path opacity="0.1" d="M276.814 232.083C289.309 232.083 299.438 230.526 299.438 228.605C299.438 226.684 289.309 225.127 276.814 225.127C264.318 225.127 254.189 226.684 254.189 228.605C254.189 230.526 264.318 232.083 276.814 232.083Z" fill="#84BD00"/>
<path d="M288.46 206.583L288.35 207.467L288.199 208.718L288.135 209.238L287.983 210.489L287.917 211.012L287.765 212.26L286.033 226.476C285.879 227.745 283.81 228.733 281.311 228.733H272.316C269.817 228.733 267.767 227.745 267.597 226.476L265.862 212.254L265.71 211.005L265.647 210.483L265.492 209.232L265.428 208.712L265.277 207.461L265.168 206.577C265.083 205.875 266.214 205.268 267.615 205.268H286.015C287.425 205.268 288.548 205.875 288.46 206.583Z" fill="#575656"/>
<path d="M288.35 207.467L288.199 208.715H265.428L265.277 207.467H288.35Z" fill="#9D9CB5"/>
<path d="M288.135 209.238L287.984 210.489H265.647L265.492 209.238H288.135Z" fill="#9D9CB5"/>
<path d="M287.917 211.009L287.765 212.26H265.862L265.71 211.009H287.917Z" fill="#9D9CB5"/>
<path d="M179.424 51.9752C179.424 51.9752 178.869 50.5871 182.611 50.9334C186.354 51.2796 197.099 52.4764 201.745 51.4285C206.392 50.3805 209.161 50.0464 208.885 51.4285C208.609 52.8105 200.845 55.9331 200.845 55.9331L190.791 56.975L183.376 55.7934L179.394 53.4332L179.424 51.9752Z" fill="#84BD00"/>
<path opacity="0.1" d="M208.894 51.4285C208.615 52.8106 200.854 55.9331 200.854 55.9331L190.8 56.975L183.385 55.7965L179.406 53.4363L179.433 51.9783C179.395 51.8582 179.394 51.729 179.432 51.6087C179.47 51.4884 179.545 51.3829 179.646 51.307C179.988 51.0032 180.789 50.7663 182.621 50.9364C186.366 51.2827 197.108 52.4764 201.755 51.4285C205.54 50.5749 208.081 50.1952 208.73 50.821C208.81 50.8976 208.868 50.9947 208.897 51.1018C208.926 51.2089 208.925 51.3219 208.894 51.4285Z" fill="black"/>
<path d="M214.868 72.4573C208.4 73.7046 202.299 76.4106 197.029 80.3701C196.763 79.6597 196.261 79.0624 195.607 78.6782C195.161 78.401 194.674 78.1959 194.163 78.0707C193.699 77.9523 193.254 78.2347 192.844 78.6418C192.373 79.1638 191.978 79.7497 191.67 80.3823C184.601 75.5222 173.877 72.4209 173.877 72.4209V71.4489C173.877 71.2575 173.91 71.0267 173.947 70.7654C173.983 70.5042 174.029 70.2734 174.086 69.9909C174.996 65.3556 178.593 54.7637 178.593 54.7637H179.706H182.66L190.545 56.404L199.416 55.8603L208.351 53.9983L209.509 53.7552C211.441 55.274 213.634 65.9054 214.495 70.4313C214.605 71.0054 214.689 71.4793 214.753 71.8286C214.829 72.2235 214.868 72.4573 214.868 72.4573Z" fill="#84BD00"/>
<path d="M175.345 70.4496C175.578 65.9996 179.109 56.3554 179.706 54.7546H178.593C178.593 54.7546 174.784 65.9935 174.01 70.3797C174.009 70.3908 174.009 70.4021 174.01 70.4131C173.989 70.5316 173.968 70.647 173.953 70.7564C173.916 71.0176 173.892 71.2485 173.883 71.4398V72.4118C173.883 72.4118 184.607 75.5162 191.677 80.3732C191.984 79.7407 192.379 79.1547 192.85 78.6327C190.148 76.1723 179.9 72.1628 175.345 70.4496Z" fill="#84BD00"/>
<path d="M214.753 71.8165C214.726 71.6616 214.693 71.4824 214.656 71.2849C214.611 71.0298 214.556 70.7412 214.495 70.4192C213.634 65.8872 211.441 55.2528 209.51 53.7432L208.351 53.9862C209.055 55.8786 213.589 68.2352 213.203 70.647C205.621 72.1658 197.936 77.1018 195.613 78.6783C196.267 79.0625 196.769 79.6597 197.036 80.3702C202.305 76.4107 208.406 73.7047 214.875 72.4574C214.875 72.4574 214.829 72.2235 214.753 71.8165Z" fill="#84BD00"/>
<path opacity="0.1" d="M175.624 70.1701C175.854 65.7201 179.388 56.0759 179.985 54.4781H178.869C178.869 54.4781 175.06 65.717 174.286 70.1002C174.286 70.1002 174.286 70.1245 174.286 70.1336C174.264 70.2551 174.246 70.3705 174.232 70.4799C174.195 70.7411 174.171 70.972 174.162 71.1633V72.1353C174.162 72.1353 184.883 75.2367 191.956 80.0967C192.261 79.4635 192.655 78.8773 193.126 78.3562C190.424 75.9019 180.179 71.8832 175.624 70.1701Z" fill="black"/>
<path d="M175.345 70.4496C175.578 65.9996 179.109 56.3554 179.706 54.7546H178.593C178.593 54.7546 174.784 65.9935 174.01 70.3797C174.009 70.3908 174.009 70.4021 174.01 70.4131C173.989 70.5316 173.968 70.647 173.953 70.7564C173.916 71.0176 173.892 71.2485 173.883 71.4398V72.4118C173.883 72.4118 184.607 75.5162 191.677 80.3732C191.984 79.7407 192.379 79.1547 192.85 78.6327C190.148 76.1723 179.9 72.1628 175.345 70.4496Z" fill="#84BD00"/>
<path opacity="0.1" d="M214.477 71.537L214.38 71.0054C214.332 70.7502 214.28 70.4647 214.219 70.1397C213.361 65.6107 211.165 54.9763 209.233 53.4636L208.078 53.7097C208.782 55.602 213.316 67.9587 212.93 70.3706C205.348 71.8893 197.66 76.8253 195.34 78.3988C195.994 78.7841 196.496 79.3824 196.763 80.0937C202.03 76.1321 208.13 73.425 214.599 72.1779C214.599 72.1779 214.553 71.9501 214.477 71.537Z" fill="black"/>
<path d="M214.753 71.8165C214.726 71.6616 214.693 71.4824 214.656 71.2849C214.611 71.0298 214.556 70.7412 214.495 70.4192C213.634 65.8872 211.441 55.2528 209.51 53.7432L208.351 53.9862C209.055 55.8786 213.589 68.2352 213.203 70.647C205.621 72.1658 197.936 77.1018 195.613 78.6783C196.267 79.0625 196.769 79.6597 197.036 80.3702C202.305 76.4107 208.406 73.7047 214.875 72.4574C214.875 72.4574 214.829 72.2235 214.753 71.8165Z" fill="#84BD00"/>
<path opacity="0.1" d="M177.98 60.2465C177.98 60.2465 185.017 64.6813 186.66 58.187L188.225 58.6062C188.225 58.6062 188.741 65.8021 177.513 61.6954L177.98 60.2465Z" fill="black"/>
<path d="M177.98 59.6907C177.98 59.6907 185.017 64.1255 186.66 57.6312L188.225 58.0504C188.225 58.0504 188.741 65.2463 177.513 61.1396L177.98 59.6907Z" fill="#84BD00"/>
<path opacity="0.1" d="M200.12 58.3966C200.12 58.3966 201.03 63.7032 210.671 61.1304L210.331 60.128C210.331 60.128 203.747 62.8618 201.36 58.1141L200.12 58.3966Z" fill="black"/>
<path d="M200.12 57.8407C200.12 57.8407 201.03 63.1473 210.671 60.5745L210.331 59.5721C210.331 59.5721 203.747 62.3059 201.36 57.5582L200.12 57.8407Z" fill="#84BD00"/>
<path opacity="0.1" d="M193.703 58.3267V69.4016H195.413C195.413 69.4016 197.779 68.548 197.724 63.5695C197.669 58.591 197.308 57.2515 197.308 57.2515L193.703 58.3267Z" fill="black"/>
<path d="M193.427 58.0504V69.1252H195.137C195.137 69.1252 197.503 68.2717 197.448 63.2932C197.393 58.3147 197.029 56.9751 197.029 56.9751L193.427 58.0504Z" fill="#84BD00"/>
<path opacity="0.1" d="M209.5 54.302C208.803 55.6021 202.47 57.7375 201.351 58.105L201.181 58.1597C201.181 58.1597 200.781 58.263 200.111 58.4027C198.073 58.8279 193.53 59.6177 190.103 58.9251C189.605 58.8279 189.09 58.7216 188.565 58.6214L187.352 58.3571C183.409 57.4793 179.33 56.3311 178.605 55.3196C178.605 55.3196 178.802 52.0178 179.467 52.1059C180.131 52.194 187.546 55.3196 187.546 55.3196L187.652 55.3348C187.843 55.3591 188.277 55.4138 188.886 55.4836C191.295 55.7479 196.368 56.1671 199.098 55.435C199.228 55.3986 199.35 55.3621 199.468 55.3196C199.674 55.2497 199.889 55.1768 200.111 55.0948C203.623 53.8494 208.882 51.6199 208.882 51.6199C208.882 51.6199 210.271 52.8713 209.5 54.302Z" fill="black"/>
<path opacity="0.1" d="M208.894 51.4285C208.615 52.8106 200.854 55.9332 200.854 55.9332L190.8 56.975L183.385 55.7965L179.406 53.4363L179.433 51.9783C179.395 51.8582 179.394 51.729 179.432 51.6087C179.47 51.4884 179.545 51.3829 179.646 51.307C180.965 51.7079 187.531 54.4751 187.531 54.4751L187.637 54.4903C187.828 54.5146 188.262 54.5693 188.871 54.6392C191.279 54.9034 196.353 55.3226 199.083 54.5906C199.213 54.5541 199.334 54.5177 199.453 54.4751C199.659 54.4083 199.874 54.3324 200.096 54.2504C203.271 53.1234 207.878 51.1916 208.73 50.8331C208.808 50.9086 208.864 51.0037 208.893 51.1084C208.922 51.2131 208.922 51.3236 208.894 51.4285Z" fill="black"/>
<path d="M209.5 53.743C208.803 55.0431 202.47 57.1755 201.351 57.543L201.181 57.6007C201.181 57.6007 200.781 57.7009 200.111 57.8407C198.073 58.2659 193.53 59.0557 190.103 58.3631C189.605 58.2659 189.09 58.1596 188.565 58.0594L187.352 57.7951C183.409 56.9173 179.33 55.7691 178.605 54.7576C178.605 54.7576 178.802 51.4558 179.467 51.5469C180.131 51.638 187.546 54.7576 187.546 54.7576L187.652 54.7728C187.843 54.7971 188.277 54.8548 188.886 54.9216C191.295 55.1859 196.368 55.605 199.098 54.873C199.228 54.8366 199.35 54.8001 199.468 54.7576C199.674 54.6908 199.889 54.6148 200.111 54.5328C203.623 53.2874 208.882 51.0579 208.882 51.0579C208.882 51.0579 210.271 52.3184 209.5 53.743Z" fill="#84BD00"/>
<path opacity="0.1" d="M194.903 58.3632C195.516 58.3632 196.013 57.8655 196.013 57.2515C196.013 56.6375 195.516 56.1398 194.903 56.1398C194.29 56.1398 193.793 56.6375 193.793 57.2515C193.793 57.8655 194.29 58.3632 194.903 58.3632Z" fill="black"/>
<path d="M194.903 58.0837C195.516 58.0837 196.013 57.586 196.013 56.972C196.013 56.358 195.516 55.8602 194.903 55.8602C194.29 55.8602 193.793 56.358 193.793 56.972C193.793 57.586 194.29 58.0837 194.903 58.0837Z" fill="#84BD00"/>
<path opacity="0.1" d="M189.15 54.9096L188.847 58.0443L187.634 57.78L187.937 54.7607C188.107 54.7911 188.544 54.8488 189.15 54.9096Z" fill="black"/>
<path d="M188.877 54.9096L188.574 58.0443L187.361 57.78L187.664 54.7607C187.831 54.7911 188.271 54.8488 188.877 54.9096Z" fill="#84BD00"/>
<path opacity="0.1" d="M201.081 57.5431L200.912 57.6008C200.912 57.6008 200.514 57.7011 199.841 57.8408L198.807 54.8671C198.937 54.8306 199.062 54.7942 199.18 54.7516C199.386 54.6848 199.601 54.6089 199.823 54.5269L201.081 57.5431Z" fill="black"/>
<path d="M201.36 57.5431L201.19 57.6008C201.19 57.6008 200.79 57.7011 200.12 57.8408L199.086 54.8671C199.216 54.8306 199.337 54.7942 199.456 54.7516C199.662 54.6848 199.877 54.6089 200.099 54.5269L201.36 57.5431Z" fill="#84BD00"/>
<g opacity="0.5">
<path opacity="0.5" d="M123.138 49.442C124.557 49.4512 125.948 49.8381 127.169 50.5628C127.169 50.5628 130.863 51.0124 132.876 50.5628C134.89 50.1132 135.909 48.5459 136.291 48.9924C136.674 49.4389 136.683 53.6459 136.683 53.6459L134.948 58.2994L131.03 61.2124L124.818 59.4203L122.762 54.1562L123.138 49.442Z" fill="#84BD00"/>
<path opacity="0.1" d="M136.683 53.652L134.948 58.3055L131.03 61.2185L124.818 59.4264L122.762 54.1563L123.153 49.4481H123.244C124.632 49.4834 125.988 49.8701 127.187 50.572C127.187 50.572 130.881 51.0215 132.895 50.572C134.808 50.1467 135.815 48.7069 136.231 48.9499C136.255 48.9614 136.277 48.9779 136.294 48.9985C136.683 49.442 136.683 53.652 136.683 53.652Z" fill="black"/>
<path opacity="0.1" d="M136.683 53.652L134.948 58.3055L131.03 61.2185L124.818 59.4263L122.762 54.1562L123.153 49.448H123.244C123.59 50.9334 125.064 55.6233 129.759 55.9544C134.587 56.2916 135.958 50.5385 136.243 48.9529C136.267 48.9643 136.289 48.9809 136.307 49.0015C136.683 49.4419 136.683 53.652 136.683 53.652Z" fill="black"/>
<path opacity="0.5" d="M123.138 49.4421C123.138 49.4421 124.145 56.0001 129.744 56.392C135.342 56.7838 136.291 48.9926 136.291 48.9926C136.291 48.9926 144.407 51.6565 146.3 56.4072C148.192 61.1579 149.602 64.97 149.602 64.97C149.602 64.97 148.996 66.0331 148.314 66.1455C147.631 66.2579 142.997 69.4534 142.997 69.4534C142.997 69.4534 142.942 78.5356 143.446 79.0945C143.949 79.6534 143.783 82.0652 142.269 81.9528C140.756 81.8404 130.293 79.4864 121.343 81.4486C121.343 81.4486 117.594 82.7942 117.703 80.6072C117.813 78.4202 117.982 69.8452 117.982 69.8452C117.982 69.8452 112.329 67.3787 111.996 67.3787C111.662 67.3787 110.819 66.9353 111.714 65.4742C112.608 64.0132 113.73 59.0286 113.73 59.0286C113.73 59.0286 115.975 51.8721 123.138 49.4421Z" fill="#84BD00"/>
<path opacity="0.1" d="M140.543 61.2185C140.543 61.2185 142.224 62.4517 141.832 63.4055C141.441 64.3593 140.543 61.2185 140.543 61.2185Z" fill="black"/>
<path opacity="0.1" d="M143.006 62.4031C142.85 62.95 142.85 63.5299 143.006 64.0767V62.4031Z" fill="black"/>
<path opacity="0.1" d="M144.125 65.4801C144.125 65.4801 144.35 66.9989 143.679 67.1599L144.125 65.4801Z" fill="black"/>
<path opacity="0.1" d="M121.291 60.8267C121.291 60.8267 118.158 63.5604 119.22 64.6388L121.291 60.8267Z" fill="black"/>
<path opacity="0.1" d="M119.332 67.4424C119.332 67.4424 119.28 70.3007 120.145 70.5255L119.332 67.4424Z" fill="black"/>
<path opacity="0.1" d="M128.343 77.0258C128.343 77.0258 130.465 75.5709 131.03 75.6255L128.343 77.0258Z" fill="black"/>
<path opacity="0.1" d="M130.465 78.5415C130.465 78.5415 132.764 76.9134 133.38 77.0227L130.465 78.5415Z" fill="black"/>
</g>
<g opacity="0.5">
<path opacity="0.5" d="M180.385 104.619C180.385 104.619 198.698 105.488 207.802 104.953L207.602 107.359L191.492 109.485L186.724 108.015L180.385 104.619Z" fill="#84BD00"/>
<path opacity="0.1" d="M207.814 104.953L207.614 107.359L191.507 109.485L186.736 108.015L180.385 104.619C180.385 104.619 180.762 104.64 181.432 104.667C185.405 104.841 199.711 105.399 207.566 104.971L207.814 104.953Z" fill="black"/>
<path opacity="0.5" d="M214.153 139.162C210.617 141.288 198.343 139.228 198.343 139.228L194.94 127.078L191.137 139.438C185.735 141.376 174.593 138.569 174.593 138.569L178.93 111.839L179.679 108.154L180.385 104.619L187.258 106.69C187.258 106.69 189.323 108.094 197.93 107.693C206.537 107.292 207.802 104.959 207.802 104.959C208.181 105.068 208.542 106.408 208.906 108.072C209.434 110.502 209.971 113.619 210.604 114.649C211.684 116.38 214.153 139.162 214.153 139.162Z" fill="#84BD00"/>
<path opacity="0.1" d="M208.918 108.334C201.245 112.553 194.64 112.437 194.64 112.437C193.005 112.638 179.679 108.419 179.679 108.419L180.385 104.886L187.258 106.958C187.258 106.958 189.323 108.361 197.93 107.96C206.537 107.559 207.802 105.226 207.802 105.226C208.193 105.333 208.554 106.669 208.918 108.334Z" fill="black"/>
<path opacity="0.1" d="M207.814 104.953L207.614 107.359L191.507 109.485L186.736 108.015L180.385 104.619C180.385 104.619 180.762 104.64 181.432 104.667L187.255 106.423C187.255 106.423 189.32 107.826 197.927 107.425C204.687 107.122 206.92 105.603 207.566 104.968L207.814 104.953Z" fill="black"/>
<path opacity="0.5" d="M208.918 108.066C201.245 112.286 194.64 112.17 194.64 112.17C193.005 112.371 179.679 108.151 179.679 108.151L180.385 104.619L187.258 106.69C187.258 106.69 189.323 108.094 197.93 107.693C206.537 107.292 207.802 104.959 207.802 104.959C208.193 105.062 208.554 106.402 208.918 108.066Z" fill="#84BD00"/>
<path opacity="0.1" d="M195.941 111.532C196.328 111.532 196.641 111.218 196.641 110.831C196.641 110.443 196.328 110.129 195.941 110.129C195.554 110.129 195.24 110.443 195.24 110.831C195.24 111.218 195.554 111.532 195.941 111.532Z" fill="black"/>
<path opacity="0.5" d="M195.941 111.265C196.328 111.265 196.641 110.951 196.641 110.563C196.641 110.176 196.328 109.862 195.941 109.862C195.554 109.862 195.24 110.176 195.24 110.563C195.24 110.951 195.554 111.265 195.941 111.265Z" stroke="#84BD00" stroke-miterlimit="10"/>
<path opacity="0.1" d="M178.029 123.126C178.029 123.126 179.263 126.802 180.131 126.735C180.998 126.668 178.029 123.126 178.029 123.126Z" fill="black"/>
<path opacity="0.1" d="M177.228 126.735C177.228 126.735 177.996 128.94 178.796 129.308L177.228 126.735Z" fill="black"/>
<path opacity="0.1" d="M177.228 129.041C177.228 129.041 178.441 130.578 179.16 130.945L177.228 129.041Z" fill="black"/>
<path opacity="0.1" d="M209.804 115.144C209.804 115.144 210.938 116.848 209.804 117.215V115.144Z" fill="black"/>
<path opacity="0.1" d="M210.319 117.914C209.003 116.35 209.816 120.04 209.816 120.04C209.816 120.04 210.656 118.315 210.319 117.914Z" fill="black"/>
<path opacity="0.1" d="M210.983 119.819C210.983 119.819 208.982 122.792 209.382 123.126L210.983 119.819Z" fill="black"/>
<path opacity="0.1" d="M184.504 115.208C182.05 115.208 179.491 114.096 179.348 114.029L179.457 113.783C179.506 113.807 184.404 115.937 187.054 114.339C188.055 113.731 188.616 112.662 188.726 111.15L188.992 111.171C188.877 112.775 188.271 113.905 187.191 114.567C186.37 115.021 185.441 115.243 184.504 115.208Z" fill="black"/>
<path opacity="0.5" d="M184.504 114.94C182.05 114.94 179.491 113.829 179.348 113.762L179.457 113.519C179.506 113.54 184.404 115.669 187.054 114.072C188.055 113.464 188.616 112.395 188.726 110.882L188.992 110.903C188.877 112.507 188.271 113.637 187.191 114.299C186.37 114.754 185.441 114.975 184.504 114.94Z" fill="#84BD00"/>
<path opacity="0.1" d="M204.648 115.408C204.02 115.417 203.397 115.283 202.828 115.016C200.839 114.056 200.517 111.705 200.502 111.605L200.769 111.572C200.769 111.596 201.087 113.883 202.947 114.776C204.602 115.575 206.953 115.08 209.922 113.257L210.058 113.485C207.945 114.767 206.134 115.408 204.648 115.408Z" fill="black"/>
<path opacity="0.5" d="M204.648 115.141C204.02 115.15 203.397 115.016 202.828 114.749C200.839 113.789 200.517 111.438 200.502 111.338L200.769 111.304C200.769 111.329 201.087 113.616 202.947 114.509C204.602 115.308 206.953 114.813 209.922 112.99L210.058 113.218C207.945 114.5 206.134 115.141 204.648 115.141Z" fill="#84BD00"/>
</g>
<path d="M124.685 105.029C124.685 105.029 128.127 109.843 130.465 109.376C132.804 108.908 133.034 108.394 135.112 105.029L136.816 108.956L134.808 113.816L132.431 116.899L127.39 116.107L125.758 110.591L124.685 105.029Z" fill="#84BD00"/>
<path opacity="0.1" d="M136.816 108.953L134.808 113.813L132.431 116.897L127.39 116.104L125.758 110.588L124.685 105.029C124.685 105.029 124.988 105.448 125.461 106.025C126.617 107.407 128.816 109.704 130.465 109.366C132.77 108.905 133.028 108.398 135.03 105.156L135.112 105.02L136.816 108.953Z" fill="black"/>
<path opacity="0.1" d="M136.816 108.953L134.808 113.813L132.431 116.896L127.39 116.104L125.758 110.587L124.685 105.029C124.685 105.029 124.988 105.448 125.461 106.025C126.213 108.455 127.83 112.352 130.465 112.319C133.441 112.285 134.642 107.349 135.03 105.166L135.112 105.029L136.816 108.953Z" fill="black"/>
<path d="M122.865 104.886C122.865 104.886 121.698 104.746 122.304 106.195C122.911 107.644 124.03 112.41 123.472 113.391C122.914 114.372 123.193 117.036 120.766 117.553L121.464 120.308C121.464 120.308 121.604 126.383 121.325 127.273C121.045 128.163 120.997 133.065 121.091 133.579C121.185 134.092 121.14 137.458 120.766 137.6C120.393 137.743 120.16 139.374 121.373 139.654C122.586 139.933 127.763 140.076 128.697 140.355C129.631 140.635 136.255 140.355 136.255 140.355C136.255 140.355 139.054 139.982 139.755 139.748C140.455 139.514 140.595 138.955 140.361 137.88C140.128 136.804 139.054 129.001 139.288 128.02C139.521 127.039 139.57 117.458 139.57 117.458C139.57 117.458 137.75 116.851 137.75 115.074C137.75 113.297 137.05 108.531 138.496 105.542C138.496 105.542 137.329 104.74 137.144 104.883C136.959 105.026 135.197 104.512 135.197 104.512C135.197 104.512 134.287 112.644 130.481 112.689C126.674 112.735 124.979 104.512 124.979 104.512C124.979 104.512 125.012 103.765 122.865 104.886Z" fill="#84BD00"/>
<path opacity="0.1" d="M128.37 130.963C128.37 130.963 129.155 132.88 130.465 133.159C131.775 133.439 128.37 130.963 128.37 130.963Z" fill="black"/>
<path opacity="0.1" d="M127.157 132.458C127.157 132.458 129.692 134.514 129.583 134.936L127.157 132.458Z" fill="black"/>
<path opacity="0.1" d="M122.071 120.308C122.071 120.308 124.078 121.662 124.078 122.643L122.071 120.308Z" fill="black"/>
<path opacity="0.1" d="M123.423 124.56C123.423 124.56 122.865 122.598 122.492 122.179L123.423 124.56Z" fill="black"/>
<path opacity="0.1" d="M122.492 125.307C122.492 125.307 123.332 126.99 123.423 127.458L122.492 125.307Z" fill="black"/>
<path opacity="0.1" d="M138.775 121.896C138.775 121.896 136.164 122.692 136.395 123.673L138.775 121.896Z" fill="black"/>
<path opacity="0.1" d="M136.382 130.963C136.382 130.963 139.803 126.99 138.775 127.084C137.747 127.179 136.382 130.963 136.382 130.963Z" fill="black"/>
<g opacity="0.1">
<path opacity="0.1" d="M137.747 115.074C137.747 114.254 137.599 112.796 137.58 111.171C137.562 113.036 137.747 114.761 137.747 115.681C137.747 117.419 139.485 118.035 139.567 118.063C139.567 117.683 139.567 117.455 139.567 117.455C139.567 117.455 137.747 116.851 137.747 115.074Z" fill="black"/>
<path opacity="0.1" d="M140.352 138.487C140.388 138.647 140.415 138.808 140.434 138.97C140.473 138.605 140.445 138.235 140.352 137.88C140.152 136.969 139.339 131.118 139.255 128.834C139.164 130.395 140.14 137.467 140.352 138.487Z" fill="black"/>
<path opacity="0.1" d="M121.049 132.427C121.049 130.76 121.143 128.46 121.325 127.871C121.473 127.397 121.503 125.459 121.5 123.746C121.5 125.283 121.455 126.844 121.325 127.264C121.118 127.926 121.039 130.775 121.049 132.427Z" fill="black"/>
<path opacity="0.1" d="M122.865 105.494C125.009 104.373 124.964 105.12 124.964 105.12C124.964 105.12 126.644 113.346 130.465 113.297C134.287 113.248 135.197 105.12 135.197 105.12C135.197 105.12 136.971 105.633 137.156 105.491C137.341 105.348 137.962 105.794 138.305 106.013C138.369 105.852 138.436 105.694 138.511 105.542C138.511 105.542 137.344 104.74 137.156 104.883C136.968 105.026 135.197 104.512 135.197 104.512C135.197 104.512 134.287 112.644 130.481 112.689C126.674 112.735 124.979 104.512 124.979 104.512C124.979 104.512 125.025 103.765 122.88 104.886C122.88 104.886 121.931 104.777 122.195 105.825C122.347 105.433 122.865 105.494 122.865 105.494Z" fill="black"/>
<path opacity="0.1" d="M120.763 138.208C121.067 138.095 121.149 136.015 121.13 134.866C121.115 136.021 121.009 137.506 120.763 137.6C120.518 137.694 120.4 138.208 120.494 138.703C120.542 138.442 120.639 138.25 120.763 138.208Z" fill="black"/>
<path opacity="0.1" d="M123.472 113.999C123.62 113.6 123.669 113.172 123.614 112.75C123.611 112.971 123.563 113.19 123.472 113.391C122.911 114.372 123.19 117.036 120.763 117.553L120.909 118.124C123.178 117.534 122.923 114.962 123.472 113.999Z" fill="black"/>
</g>
<path d="M136.95 162.025C135.803 164.115 124.166 162.025 124.166 162.025L124.197 161.816L124.427 160.197H136.689L136.922 161.813L136.95 162.025Z" fill="#84BD00"/>
<path opacity="0.1" d="M136.95 162.025C135.803 164.115 124.166 162.025 124.166 162.025L124.197 161.816C124.755 161.816 133.174 161.615 136.934 161.816L136.95 162.025Z" fill="black"/>
<path d="M124.166 162.025C124.166 162.025 122.08 162.548 118.844 171.326C115.608 180.105 114.461 191.447 114.461 191.447C114.461 191.447 112.642 194.533 120.409 194.739C120.409 194.739 119.784 196.778 124.166 196.465C128.549 196.152 127.918 196.155 127.918 196.155C127.918 196.155 130.735 194.378 131.988 194.691C133.24 195.004 134.023 195.11 135.379 196.258C136.734 197.406 141.068 196.939 141.12 196.052C141.154 195.616 141.154 195.178 141.12 194.742C141.12 194.742 147.746 195.162 146.494 190.353C145.241 185.545 144.198 177.653 144.198 177.653C144.198 177.653 140.807 162.238 136.943 162.028C133.08 161.819 124.166 162.025 124.166 162.025Z" fill="#84BD00"/>
<path opacity="0.1" d="M122.77 168.092L120.315 194.746L120.524 194.765L122.978 168.112L122.77 168.092Z" fill="black"/>
<path opacity="0.1" d="M127.914 168.072L127.806 196.136L128.016 196.137L128.123 168.073L127.914 168.072Z" fill="black"/>
<path opacity="0.1" d="M134.462 168.067L134.253 168.074L135.299 196.243L135.508 196.236L134.462 168.067Z" fill="black"/>
<path opacity="0.1" d="M141.02 194.742C140.656 178.689 137.926 167.699 137.893 167.602L138.096 167.55C138.123 167.66 140.868 178.671 141.229 194.752L141.02 194.742Z" fill="black"/>
<path opacity="0.1" d="M124.53 163.593C124.53 163.593 124.166 163.802 124.53 164.808V163.593Z" fill="black"/>
<path opacity="0.1" d="M125.577 163.593C125.577 163.593 124.585 164.218 125.577 165.266V163.593Z" fill="black"/>
<path opacity="0.1" d="M134.863 163.593C134.863 163.593 136.219 164.899 135.906 165.266L134.863 163.593Z" fill="black"/>
<path opacity="0.1" d="M135.955 163.28C135.955 163.28 136.167 164.847 136.95 165.266L135.955 163.28Z" fill="black"/>
<g opacity="0.5">
<path opacity="0.5" d="M191.34 160.774C191.34 160.774 196.459 158.732 198.673 161.223C200.887 163.714 197.157 166.745 197.157 166.745L195.592 169.874L191.91 169.47L191.043 165.145L191.34 160.774Z" fill="#84BD00"/>
<path opacity="0.1" d="M197.157 166.73L195.592 169.859L191.91 169.467L191.043 165.145L191.346 160.774L191.428 160.743C192.077 160.503 196.459 158.972 198.555 161.081C198.599 161.121 198.64 161.163 198.679 161.208C200.887 163.687 197.157 166.73 197.157 166.73Z" fill="black"/>
<path opacity="0.1" d="M197.157 166.73L195.592 169.859L191.91 169.467L191.043 165.145L191.346 160.774L191.428 160.743C192.062 164.221 193.754 165.689 194.039 165.907L194.082 165.938L195.122 165.853C197.145 164.735 198.212 162.077 198.555 161.071C198.599 161.112 198.64 161.154 198.679 161.199C200.887 163.687 197.157 166.73 197.157 166.73Z" fill="black"/>
<path opacity="0.5" d="M206.098 178.644C206.098 178.644 204.969 193.035 205.276 194.773C205.582 196.51 204.624 196.641 204.624 196.641C204.624 196.641 200.542 197.552 199.771 196.945C199.001 196.337 197.688 196.219 197.688 196.219C197.688 196.219 194.655 196.914 193.302 196.395C191.95 195.875 189.699 196.091 189.699 196.091C189.699 196.091 187.965 197.136 187.485 196.917C187.006 196.699 186.4 196.787 185.011 196.398C183.622 196.009 182.839 195.657 183.576 193.266C184.313 190.876 183.667 183.309 183.622 182.395C183.576 181.481 183.145 179.266 182.536 176.624C181.926 173.981 183.576 174.537 183.576 174.537C187.443 172.538 185.835 168.623 185.229 166.885C184.622 165.148 185.575 165.063 186.051 165.063C186.527 165.063 188.353 163.498 188.353 163.498L189.093 162.833L191.349 160.804C191.91 164.604 193.73 166.199 194.033 166.436L194.076 166.469L195.116 166.381C197.633 164.993 198.673 161.217 198.673 161.217C198.977 161.734 199.653 162.323 200.408 162.87C201.396 163.57 202.426 164.209 203.493 164.783C205.312 165.871 203.972 166.958 203.972 166.958C201.758 174.522 204.882 174.856 204.882 174.856C207.183 175.196 206.098 178.644 206.098 178.644Z" fill="#84BD00"/>
<path opacity="0.1" d="M189.038 165.078C189.038 165.078 188.386 165.427 188.386 165.816L189.038 165.078Z" fill="black"/>
<path opacity="0.1" d="M189.429 165.816C189.429 165.816 188.562 166.727 188.714 166.992L189.429 165.816Z" fill="black"/>
<path opacity="0.1" d="M189.429 166.995C189.429 166.995 188.777 167.69 189.038 168.082L189.429 166.995Z" fill="black"/>
<path opacity="0.1" d="M193.772 166.958L191.043 169.598C190.943 166.663 189.526 164.315 188.829 163.325L191.085 161.296C191.637 165.126 193.472 166.721 193.772 166.958Z" fill="black"/>
<path opacity="0.5" d="M194.033 166.436L191.304 169.078C191.207 166.141 189.787 163.796 189.093 162.803L191.349 160.774C191.91 164.604 193.73 166.199 194.033 166.436Z" fill="#84BD00"/>
<path opacity="0.1" d="M200.669 163.383C199.577 165.09 197.548 169.598 197.548 169.598L195.377 166.903C197.894 165.512 198.934 161.74 198.934 161.74C199.237 162.244 199.914 162.833 200.669 163.383Z" fill="black"/>
<path opacity="0.5" d="M200.402 162.86C199.313 164.571 197.281 169.078 197.281 169.078L195.116 166.387C197.633 164.999 198.673 161.223 198.673 161.223C198.977 161.724 199.653 162.314 200.402 162.86Z" fill="#84BD00"/>
<path opacity="0.1" d="M198.807 190.73C198.807 190.73 198.343 194.679 198.076 194.904L198.807 190.73Z" fill="black"/>
<path opacity="0.1" d="M202.625 191.425C202.625 191.425 203.147 194.25 202.928 194.903L202.625 191.425Z" fill="black"/>
<path opacity="0.1" d="M191.513 191.599C191.513 191.599 191.037 194.25 191.513 194.554V191.599Z" fill="black"/>
<path opacity="0.1" d="M188.695 191.207C188.695 191.207 188.301 194.338 188.392 194.903L188.695 191.207Z" fill="black"/>
<path opacity="0.1" d="M203.277 175.946C203.277 175.946 202.064 176.903 202.149 177.161L203.277 175.946Z" fill="black"/>
<path opacity="0.1" d="M204.145 176.557C204.145 176.557 201.822 178.513 202.983 178.294C204.145 178.075 204.145 176.557 204.145 176.557Z" fill="black"/>
</g>
<path d="M75.4502 120.52L75.4654 120.499L75.4381 120.478L75.2743 120.368L75.3077 120.393C75.1902 120.325 75.0516 120.303 74.9192 120.332C74.7867 120.362 74.67 120.44 74.5919 120.551L74.5252 120.645L70.8403 125.954L70.1974 126.899C68.2533 126.313 65.0962 128.779 63.4979 130.195C63.3978 130.283 63.3038 130.365 63.2189 130.444C63.0915 130.158 63.0157 129.976 63.0157 129.976C62.9368 130.845 59.8737 132.148 59.158 132.622C58.8328 132.819 58.4683 132.941 58.0904 132.98C58.1935 129.678 55.6429 126.204 55.6429 126.204L49.4105 118.26C49.1812 116.824 49.4038 115.351 50.0474 114.047C50.0989 113.944 50.1505 113.841 50.2081 113.744H50.2385C50.0027 114.411 49.8707 115.111 49.8472 115.818C49.8624 116.356 50.3598 118.962 51.0603 118.856C51.1298 118.863 51.1999 118.851 51.263 118.821C51.3261 118.791 51.3798 118.744 51.4182 118.686C51.9763 118.036 52.0248 116.93 51.9975 115.906C51.9878 116.207 51.9544 116.507 51.8974 116.802C51.9429 115.952 51.8459 115.053 51.8459 114.412C51.8459 114.157 51.8459 113.905 51.8641 113.649H51.9399C51.9399 113.747 51.9399 113.85 51.9399 113.953C51.9399 113.847 51.9399 113.744 51.9399 113.649H52.0187C53.4167 113.393 54.7265 112.785 55.8249 111.882C56.0961 111.871 56.3624 111.806 56.6082 111.69C56.854 111.575 57.0743 111.412 57.2564 111.21C57.3229 111.432 57.333 111.668 57.2859 111.895C57.2388 112.122 57.1358 112.333 56.9865 112.51C57.8205 112.471 58.5271 111.821 58.8486 111.058C59.1241 110.28 59.2053 109.446 59.0852 108.628C58.9653 107.811 58.9055 106.985 58.9062 106.159C58.9637 105.713 58.988 105.263 58.979 104.813C58.9656 104.676 58.9413 104.54 58.9062 104.406H58.9305C59.0104 104.408 59.0899 104.394 59.1643 104.364C59.2387 104.335 59.3066 104.292 59.3642 104.236C59.7099 103.969 59.8221 103.446 59.9101 103.045C60.1495 102.123 60.2577 101.171 60.2316 100.217C60.2134 100.506 60.177 100.798 60.1345 101.086C60.2103 99.9926 60.0587 98.9295 59.3369 98.1367C58.8395 97.593 58.145 97.2741 57.4778 96.9551C57.2392 96.8697 57.0291 96.7192 56.8712 96.5207C56.7533 96.2868 56.689 96.0294 56.6832 95.7674C56.4497 94.1697 54.9484 93.058 53.4532 92.4262C51.5304 91.5878 49.2073 91.2294 47.3725 92.2257C46.4626 92.7086 45.7651 93.465 44.9462 94.0816C43.9211 94.8622 42.7383 95.409 41.6435 96.0894C40.5486 96.7698 39.5205 97.6325 38.9837 98.805C38.18 100.627 38.7835 102.693 38.8836 104.67C39.0444 107.784 37.7645 111.049 35.2291 112.872C34.9252 113.058 34.6538 113.293 34.4254 113.567C34.314 113.706 34.2478 113.876 34.2359 114.054C34.224 114.231 34.2668 114.408 34.3587 114.561C34.4891 114.731 34.6953 114.828 34.8379 114.989C35.126 115.317 35.0683 115.818 34.9561 116.237C34.5879 117.609 33.854 118.854 32.8332 119.84C32.8787 120.162 33.276 120.289 33.6005 120.338C34.459 120.465 35.3257 120.527 36.1935 120.526H36.5666C36.5271 120.627 36.4847 120.733 36.4422 120.845C35.9721 122.085 35.3625 123.992 35.5657 125.159C35.869 126.999 36.8395 135.416 36.3603 136.893C35.8811 138.369 37.1307 149.073 37.1307 149.073C37.1307 149.073 37.2975 149.899 37.5856 151.133C36.8365 152.9 35.9812 154.863 35.5536 155.649C34.6923 157.226 35.1169 165.275 38.086 168.854C38.086 168.854 39.2991 170.591 38.9958 171.22C38.6926 171.849 39.0504 172.957 39.0504 172.957L39.5205 183.373C39.5105 184.437 39.4375 185.5 39.3022 186.556C38.0344 188.127 36.0813 190.417 35.1624 190.791C33.74 191.371 23.1312 204.259 23.1312 204.259C23.1312 204.259 23.2161 204.414 23.3829 204.666L23.0797 205.012L21.0446 207.376L20.8839 207.561C20.5018 207.488 17.9572 207.026 15.9404 206.88H15.7403V206.844C15.0334 206.763 14.3187 206.782 13.6173 206.902C13.4846 206.926 13.3622 206.99 13.2655 207.084C12.577 207.928 12.207 221.184 12.207 221.184C12.207 221.184 12.941 227.821 15.2398 228.192C15.357 228.233 15.4798 228.255 15.6038 228.259H15.7039C17.3416 228.137 18.0937 227.199 18.4334 226.555C18.5339 226.362 18.6103 226.158 18.6608 225.947C18.6608 225.947 18.394 224.765 19.1097 223.134C19.8254 221.503 21.1629 218.633 21.1629 218.633C21.1629 218.633 23.5892 216.078 23.1555 214.839C23.2222 214.739 23.301 214.629 23.386 214.505C24.2958 213.205 26.1398 210.638 27.6319 208.925C27.729 208.809 27.826 208.703 27.9352 208.597C28.478 208.826 29.0461 208.99 29.6275 209.086C29.6275 209.086 31.9082 208.193 32.7543 206.194C33.1152 205.343 34.5315 203.837 36.0388 202.388L35.9903 202.774L35.9388 215.452C36.4289 215.79 36.9511 216.077 37.4976 216.312V216.616C37.5083 218.422 37.3989 220.228 37.1701 222.02L37.1246 222.302C36.9366 222.168 36.7728 222.123 36.6697 222.226C36.2026 222.7 35.9115 225.725 35.8842 227.12C35.8842 227.165 35.8842 227.211 35.8842 227.259C35.8084 228.65 35.0168 230.673 37.4006 230.777C39.1839 230.853 46.872 230.968 50.9845 231.029C53.2002 231.071 55.3556 230.306 57.0501 228.875C58.3573 227.754 59.1489 226.421 57.3686 225.44C57.2594 225.379 57.1442 225.321 57.0168 225.264L53.0741 224.656L46.3383 221.212C46.3383 221.212 46.2988 219.128 45.4891 219.474C45.2485 219.527 45.0181 219.618 44.8067 219.744C44.7673 219.668 44.7248 219.586 44.6854 219.501C44.1368 218.413 43.8521 217.21 43.8544 215.99C43.8544 215.881 43.8544 215.768 43.8696 215.656C44.0668 215.476 44.2532 215.284 44.4276 215.082C44.4276 215.082 44.376 210.346 44.9068 209.453C45.4375 208.56 47.0813 199.508 47.0813 199.508C47.0813 199.508 47.1329 197.826 48.1944 196.826C49.2558 195.827 48.8828 192.932 48.8828 192.932C48.8828 192.932 50.3689 192.142 50.845 189.567C51.3212 186.991 52.8618 181.365 52.8618 181.365C52.8618 181.365 56.0433 173.051 55.834 167.793C55.6247 162.535 56.1373 159.796 56.1373 159.796L56.7984 147.573V147.384C57.0623 147.585 57.2412 147.749 57.2412 147.749C57.2412 147.749 57.2412 147.7 57.2412 147.615C57.3383 147.697 57.3929 147.749 57.3929 147.749C57.3929 147.749 57.7325 142.202 57.6173 140.003C59.4734 139.371 62.2999 138.332 62.4698 137.804C62.7063 137.017 65.8908 134.529 65.8908 134.529C65.8219 134.518 65.7559 134.493 65.6967 134.457C65.7968 134.411 65.8999 134.356 66 134.299C68.0865 133.181 71.9625 129.912 71.3104 127.92L75.5564 121.817C75.6894 121.622 75.7514 121.386 75.7321 121.15C75.7127 120.914 75.6133 120.692 75.4502 120.52Z" fill="url(#paint1_linear)"/>
<path d="M65.5724 135.258C65.2625 135.453 64.9172 135.584 64.5564 135.644C63.231 135.684 62.1301 132.09 62.1301 132.09C62.1301 132.09 62.5062 131.708 63.1067 131.179C64.8839 129.596 68.6112 126.674 70.3581 128.309C72.3295 130.134 67.8682 134.022 65.5724 135.258Z" fill="#ECB4B6"/>
<path d="M45.4254 220.956L40.5334 226.245C40.5334 226.245 36.0085 226.296 36.8941 223.796C37.071 223.255 37.1969 222.697 37.2701 222.132C37.493 220.357 37.5994 218.569 37.5886 216.78C37.5886 215.607 37.5704 214.784 37.5704 214.784C37.5704 214.784 44.6944 211.658 43.9666 214.915C43.876 215.322 43.8272 215.737 43.821 216.154C43.8181 217.361 44.0964 218.552 44.6338 219.632C44.8537 220.098 45.1188 220.542 45.4254 220.956Z" fill="#ECB4B6"/>
<path opacity="0.1" d="M45.4254 220.956L40.5334 226.245C40.5334 226.245 36.0085 226.296 36.8941 223.796C37.071 223.255 37.1969 222.697 37.2701 222.132C37.9161 222.633 38.8442 224.109 38.8442 224.109C38.8442 224.109 41.9649 225.021 42.8232 222.287C43.3024 220.768 44.0606 219.999 44.6429 219.632C44.8599 220.098 45.122 220.542 45.4254 220.956Z" fill="black"/>
<path d="M56.7742 228.921C55.1156 230.336 52.9962 231.093 50.8177 231.047C46.7841 230.989 39.2476 230.871 37.4976 230.798C35.1563 230.695 35.9327 228.693 36.0085 227.314C36.0085 227.265 36.0085 227.223 36.0085 227.177C36.0358 225.795 36.3118 222.8 36.7789 222.332C37.2459 221.865 38.8442 224.416 38.8442 224.416C38.8442 224.416 41.965 225.327 42.8233 222.594C43.6815 219.86 45.4254 219.596 45.4254 219.596C46.217 219.252 46.2564 221.315 46.2564 221.315L52.8618 224.726L56.7378 225.333C56.8621 225.391 56.9743 225.449 57.0805 225.507C58.8335 226.491 58.0571 227.809 56.7742 228.921Z" fill="#1F2421"/>
<path opacity="0.25" d="M44.5701 223.663C44.7276 223.663 44.8552 223.535 44.8552 223.377C44.8552 223.22 44.7276 223.092 44.5701 223.092C44.4127 223.092 44.285 223.22 44.285 223.377C44.285 223.535 44.4127 223.663 44.5701 223.663Z" fill="white"/>
<path opacity="0.25" d="M47.2511 224.993C47.4086 224.993 47.5362 224.865 47.5362 224.708C47.5362 224.55 47.4086 224.422 47.2511 224.422C47.0937 224.422 46.9661 224.55 46.9661 224.708C46.9661 224.865 47.0937 224.993 47.2511 224.993Z" fill="white"/>
<path opacity="0.25" d="M48.6281 225.61C48.7855 225.61 48.9132 225.482 48.9132 225.324C48.9132 225.167 48.7855 225.039 48.6281 225.039C48.4707 225.039 48.343 225.167 48.343 225.324C48.343 225.482 48.4707 225.61 48.6281 225.61Z" fill="white"/>
<path opacity="0.25" d="M51.488 226.71C51.6454 226.71 51.7731 226.582 51.7731 226.424C51.7731 226.266 51.6454 226.138 51.488 226.138C51.3305 226.138 51.2029 226.266 51.2029 226.424C51.2029 226.582 51.3305 226.71 51.488 226.71Z" fill="white"/>
<path opacity="0.25" d="M50.0323 226.242C50.1897 226.242 50.3174 226.114 50.3174 225.956C50.3174 225.798 50.1897 225.671 50.0323 225.671C49.8748 225.671 49.7472 225.798 49.7472 225.956C49.7472 226.114 49.8748 226.242 50.0323 226.242Z" fill="white"/>
<path d="M56.7742 228.921C55.1156 230.336 52.9962 231.093 50.8177 231.047C46.7841 230.989 39.2476 230.871 37.4976 230.798C35.1563 230.695 35.9327 228.693 36.0085 227.314L50.7086 228.225C50.7086 228.225 56.7287 227.314 57.0775 225.516C58.8335 226.491 58.0571 227.809 56.7742 228.921Z" fill="#C17174"/>
<path opacity="0.9" d="M56.7742 228.921C55.1156 230.336 52.9962 231.093 50.8177 231.047C46.7841 230.989 39.2476 230.871 37.4976 230.798C35.1563 230.695 35.9327 228.693 36.0085 227.314L50.7086 228.225C50.7086 228.225 56.7287 227.314 57.0775 225.516C58.8335 226.491 58.0571 227.809 56.7742 228.921Z" fill="white"/>
<path d="M29.4091 207.673C28.8682 208.115 28.3743 208.612 27.9351 209.156C26.4764 210.85 24.6718 213.408 23.7772 214.678C23.4314 215.176 23.2221 215.489 23.2221 215.489L21.269 215.2C21.269 215.2 19.1643 211.971 19.1915 211.895C19.2188 211.819 20.8596 208.351 20.8596 208.351L21.4934 207.606L23.4921 205.268L24.4019 204.21C24.4019 204.21 31.1711 206.397 29.4091 207.673Z" fill="#ECB4B6"/>
<path opacity="0.1" d="M23.7772 214.684C23.4314 215.182 23.2221 215.495 23.2221 215.495L21.269 215.206C21.269 215.206 19.1643 211.977 19.1915 211.902C19.2188 211.826 20.8596 208.351 20.8596 208.351L21.4934 207.606L21.6997 207.646H22.1971C20.4532 209.468 22.3244 213.478 22.3244 213.478C22.3244 213.478 23.1312 213.554 23.7772 214.684Z" fill="black"/>
<path d="M21.5966 218.766C21.5966 218.766 20.2956 221.579 19.592 223.195C18.8883 224.811 19.1492 225.98 19.1492 225.98C19.0996 226.191 19.0253 226.395 18.9278 226.588C18.6784 227.085 18.2989 227.504 17.8299 227.802C17.3609 228.099 16.82 228.263 16.265 228.277H16.1376C13.7659 228.216 13.0138 221.321 13.0138 221.321C13.0138 221.321 13.3777 208.196 14.054 207.348C14.1471 207.254 14.2666 207.19 14.3968 207.166C15.0869 207.046 15.7907 207.027 16.4864 207.108C18.6306 207.263 21.3874 207.792 21.3874 207.792H21.8817C20.1379 209.614 22.0091 213.627 22.0091 213.627C22.0091 213.627 22.8431 213.703 23.4921 214.875C24.1412 216.048 21.5966 218.766 21.5966 218.766Z" fill="#1F2421"/>
<path opacity="0.25" d="M18.7337 215.146C18.8911 215.146 19.0188 215.018 19.0188 214.86C19.0188 214.702 18.8911 214.574 18.7337 214.574C18.5762 214.574 18.4486 214.702 18.4486 214.86C18.4486 215.018 18.5762 215.146 18.7337 215.146Z" fill="white"/>
<path opacity="0.25" d="M18.5911 217.421C18.7486 217.421 18.8762 217.293 18.8762 217.135C18.8762 216.977 18.7486 216.85 18.5911 216.85C18.4337 216.85 18.306 216.977 18.306 217.135C18.306 217.293 18.4337 217.421 18.5911 217.421Z" fill="white"/>
<path d="M18.7366 226.53C18.4872 227.027 18.1077 227.446 17.6387 227.744C17.1697 228.041 16.6288 228.206 16.0738 228.219H15.9495C13.5778 228.158 12.8226 221.263 12.8226 221.263C12.8226 221.263 13.1866 208.138 13.8629 207.29C13.9559 207.196 14.0755 207.132 14.2056 207.108C14.8957 206.988 15.5995 206.969 16.2952 207.05C16.2558 209.411 16.1436 216.868 16.2952 217.609C16.4468 218.35 17.7904 224.553 18.7366 226.53Z" fill="#C17174"/>
<path opacity="0.9" d="M18.7366 226.53C18.4872 227.027 18.1077 227.446 17.6387 227.744C17.1697 228.041 16.6288 228.206 16.0738 228.219H15.9495C13.5778 228.158 12.8226 221.263 12.8226 221.263C12.8226 221.263 13.1866 208.138 13.8629 207.29C13.9559 207.196 14.0755 207.132 14.2056 207.108C14.8957 206.988 15.5995 206.969 16.2952 207.05C16.2558 209.411 16.1436 216.868 16.2952 217.609C16.4468 218.35 17.7904 224.553 18.7366 226.53Z" fill="white"/>
<path d="M15.9465 228.225C13.5749 228.164 12.8197 221.269 12.8197 221.269C12.8197 221.269 13.1836 208.144 13.86 207.297C13.953 207.202 14.0725 207.139 14.2027 207.114C14.7 207.855 15.1368 209.496 14.7425 213.104C14.0025 219.942 14.8941 220.373 14.8941 220.373C14.8941 220.373 16.0072 226.184 15.9465 228.225Z" fill="#C17174"/>
<path opacity="0.6" d="M15.9465 228.225C13.5749 228.164 12.8197 221.269 12.8197 221.269C12.8197 221.269 13.1836 208.144 13.86 207.297C13.953 207.202 14.0725 207.139 14.2027 207.114C14.7 207.855 15.1368 209.496 14.7425 213.104C14.0025 219.942 14.8941 220.373 14.8941 220.373C14.8941 220.373 16.0072 226.184 15.9465 228.225Z" fill="black"/>
<path opacity="0.1" d="M65.5724 135.258C65.2625 135.453 64.9172 135.584 64.5564 135.644C63.231 135.684 62.1301 132.09 62.1301 132.09C62.1301 132.09 62.5062 131.707 63.1067 131.179C63.5404 132.151 64.7353 134.772 65.5724 135.258Z" fill="black"/>
<path d="M57.0684 133.964C57.0684 133.964 58.1602 134.043 58.8607 133.576C59.5613 133.108 62.5668 131.817 62.6457 130.957C62.6457 130.957 64.4381 135.331 65.4541 135.489C65.4541 135.489 62.3333 137.95 62.0998 138.73C61.8663 139.511 55.7794 141.428 55.7794 141.428L57.0684 133.964Z" fill="#FF748E"/>
<path d="M57.0684 133.964C57.0684 133.964 58.1602 134.043 58.8607 133.576C59.5613 133.108 62.5668 131.817 62.6457 130.957C62.6457 130.957 64.4381 135.331 65.4541 135.489C65.4541 135.489 62.3333 137.95 62.0998 138.73C61.8663 139.511 55.7794 141.428 55.7794 141.428L57.0684 133.964Z" fill="#E4572E"/>
<path opacity="0.1" d="M29.4092 207.673C28.8683 208.115 28.3743 208.612 27.9352 209.156C25.5818 208.168 24.0654 206.151 23.4891 205.268L24.399 204.21C24.399 204.21 31.1712 206.397 29.4092 207.673Z" fill="black"/>
<path d="M40.5396 185.524C40.5396 185.524 36.7244 190.63 35.3293 191.204C33.9342 191.778 23.5347 204.538 23.5347 204.538C23.5347 204.538 25.7698 208.654 29.8793 209.329C29.8793 209.329 32.1145 208.445 32.9485 206.464C33.7825 204.484 40.3334 198.889 40.3334 198.889L40.5396 185.524Z" fill="#5E5A6B"/>
<path opacity="0.9" d="M40.5396 185.524C40.5396 185.524 36.7244 190.63 35.3293 191.204C33.9342 191.778 23.5347 204.538 23.5347 204.538C23.5347 204.538 25.7698 208.654 29.8793 209.329C29.8793 209.329 32.1145 208.445 32.9485 206.464C33.7825 204.484 40.3334 198.889 40.3334 198.889L40.5396 185.524Z" fill="white"/>
<path opacity="0.1" d="M28.9814 202.61C30.1358 202.731 31.2997 202.731 32.454 202.61C34.5072 202.412 32.9605 203.664 28.9814 202.61Z" fill="black"/>
<path opacity="0.1" d="M28.0444 203.937C28.0444 203.937 30.774 205.498 31.8294 204.718C32.8848 203.937 30.8134 205.471 28.0444 203.937Z" fill="black"/>
<path opacity="0.1" d="M43.9726 214.915C43.8821 215.322 43.8333 215.737 43.827 216.154C41.7192 218.071 39.1808 217.478 37.5946 216.78C37.5946 215.607 37.5764 214.784 37.5764 214.784C37.5764 214.784 44.7005 211.646 43.9726 214.915Z" fill="black"/>
<path d="M56.6104 146.962L56.5345 148.402L55.8855 160.506C55.8855 160.506 55.3639 163.216 55.5822 168.422C55.8006 173.629 52.6586 181.878 52.6586 181.878C52.6586 181.878 51.1422 187.452 50.6812 190.004C50.2202 192.555 48.7584 193.345 48.7584 193.345C48.7584 193.345 49.1223 196.21 48.0821 197.2C47.0418 198.19 46.9903 199.855 46.9903 199.855C46.9903 199.855 45.3768 208.815 44.8673 209.702C44.3578 210.589 44.3972 215.276 44.3972 215.276C41.0187 219.286 36.0782 215.641 36.0782 215.641L36.1298 203.087C36.1298 203.087 37.534 191.523 38.5742 189.907C39.6145 188.291 39.6145 183.865 39.6145 183.865L39.1505 173.537C39.1505 173.537 38.7805 172.444 39.0989 171.818C39.4174 171.192 38.2103 169.476 38.2103 169.476C35.2958 165.931 34.8742 157.961 35.7264 156.415C36.5787 154.869 39.0989 148.602 39.0989 148.602L42.5775 146.57L48.8646 146.755L56.6104 146.962Z" fill="white"/>
<path opacity="0.1" d="M41.8164 208.351C41.8164 208.351 42.6383 211.203 43.2995 211.516C43.9606 211.829 41.8164 208.351 41.8164 208.351Z" fill="black"/>
<path opacity="0.1" d="M42.9476 198.858C42.9476 198.858 45.0706 200.541 45.9804 200.538C46.8903 200.535 42.9476 198.858 42.9476 198.858Z" fill="black"/>
<path d="M55.7794 128.339V131.777L53.5139 130.799L51.2545 129.824L46.3353 124.979C46.3353 124.979 42.4442 122.449 40.3636 120.144C39.1748 118.828 38.5773 117.586 39.6236 116.93C40.1307 116.597 40.5891 116.195 40.9854 115.736C42.031 114.502 42.9401 113.157 43.6967 111.727C43.7301 111.669 43.7634 111.611 43.7938 111.553C44.8067 109.691 45.477 108.103 45.477 108.103C45.477 108.103 48.3278 109.014 50.1596 110.314C50.3082 110.417 50.4477 110.524 50.5812 110.633C51.6032 111.471 52.1128 112.456 51.1696 113.415C50.9273 113.666 50.7033 113.934 50.4993 114.217C50.347 114.428 50.2072 114.647 50.0808 114.873C50.0262 114.977 49.9716 115.077 49.9231 115.177C49.292 116.47 49.0739 117.926 49.2983 119.348L55.7794 128.339Z" fill="#ECB4B6"/>
<path d="M55.3639 103.814C55.4822 104.02 55.646 104.197 55.7551 104.406C55.9391 104.869 55.9987 105.371 55.928 105.864C55.8689 106.643 55.9199 107.426 56.0797 108.191C56.2404 108.877 56.5406 109.54 56.5649 110.244C56.5983 111.238 56.0827 112.158 55.5853 113.018C55.8555 113.009 56.1213 112.946 56.3663 112.832C56.6114 112.717 56.8306 112.554 57.0107 112.352C57.0766 112.571 57.0872 112.803 57.0417 113.028C56.9962 113.252 56.896 113.461 56.7499 113.637C57.5657 113.598 58.2663 112.954 58.5696 112.201C58.8463 111.422 58.9266 110.587 58.8031 109.77C58.6843 108.961 58.6255 108.144 58.6272 107.325C58.6836 106.883 58.7069 106.437 58.697 105.992C58.6212 105.108 58.0904 104.339 57.5566 103.623L56.5012 102.171C56.4279 102.052 56.3228 101.956 56.1979 101.894C55.2001 101.469 55.0849 103.31 55.3639 103.814Z" fill="#464353"/>
<path opacity="0.1" d="M51.1877 113.416C50.9454 113.666 50.7214 113.934 50.5174 114.217C50.3651 114.428 50.2254 114.647 50.0989 114.874C50.0443 114.977 49.9897 115.077 49.9412 115.177C48.7389 115.11 47.5662 114.778 46.5068 114.204C45.4473 113.631 44.5272 112.831 43.8119 111.86C43.7785 111.815 43.7452 111.769 43.7148 111.721C43.7482 111.663 43.7816 111.605 43.8119 111.547C44.8248 109.685 45.4951 108.097 45.4951 108.097C45.4951 108.097 48.3459 109.008 50.1778 110.308C50.3264 110.411 50.4659 110.518 50.5993 110.627C51.6092 111.471 52.1188 112.444 51.1877 113.416Z" fill="black"/>
<path d="M58.5817 106.681C58.5822 108.599 57.9116 110.456 56.6865 111.93C55.4614 113.404 53.7594 114.402 51.8762 114.749C51.3859 114.838 50.8885 114.883 50.3901 114.883H50.3537C50.2658 114.883 50.1748 114.883 50.0868 114.883C48.4815 114.823 46.9292 114.292 45.6231 113.355C44.317 112.419 43.3148 111.118 42.7412 109.615C42.1677 108.112 42.0482 106.474 42.3976 104.903C42.7469 103.333 43.5498 101.9 44.7061 100.783C45.8625 99.6665 47.3213 98.915 48.9009 98.6224C50.4805 98.3298 52.1111 98.509 53.5898 99.1376C55.0685 99.7663 56.3299 100.817 57.217 102.158C58.104 103.499 58.5776 105.072 58.5787 106.681H58.5817Z" fill="#ECB4B6"/>
<path opacity="0.1" d="M51.4638 126.96C51.4638 126.96 55.5884 129.29 54.533 127.324L49.1497 119.354L55.2608 127.218C55.2608 127.218 59.161 132.585 57.029 136.282C57.029 136.282 56.7257 139.356 57.0805 140.085C57.4354 140.814 56.9774 148.59 56.9774 148.59C56.9774 148.59 55.5186 147.235 54.7392 147.494C53.9598 147.752 48.4583 148.214 48.4583 148.214L51.4638 126.96Z" fill="black"/>
<path opacity="0.1" d="M56.6104 146.962L56.5346 148.402C56.0402 148.043 55.3518 147.642 54.8938 147.794C54.1144 148.056 48.6038 148.526 48.6038 148.526L48.8555 146.731L56.6104 146.962Z" fill="black"/>
<path d="M51.6184 126.96C51.6184 126.96 55.746 129.29 54.6876 127.324L49.3043 119.354L55.4155 127.218C55.4155 127.218 59.3156 132.585 57.1836 136.282C57.1836 136.282 56.8803 139.356 57.2351 140.085C57.59 140.814 57.132 148.59 57.132 148.59C57.132 148.59 55.6763 147.235 54.8968 147.494C54.1174 147.752 48.6038 148.226 48.6038 148.226L51.6184 126.96Z" fill="#464353"/>
<path opacity="0.1" d="M53.8232 130.954C53.5837 133.46 52.5555 136.44 52.5555 136.44C52.5555 136.44 51.8277 143.836 50.8845 146.036C49.9413 148.235 50.3628 151.245 49.8442 156.819C49.6562 158.827 49.0102 160.206 48.1398 161.135C46.7083 162.654 44.6642 162.985 43.0507 162.891L42.6686 162.861C40.0664 162.602 37.5704 150.048 37.5704 150.048C37.5704 150.048 36.3755 139.368 36.8425 137.898C37.3096 136.428 36.3816 128.114 36.0692 126.292C35.869 125.134 36.4665 123.254 36.9275 122.021C37.1974 121.31 37.4188 120.806 37.4188 120.806C37.4188 120.806 38.3044 117.993 39.7601 116.535C39.9608 116.329 40.2009 116.165 40.4661 116.053C40.7313 115.941 41.0161 115.884 41.3038 115.885C41.9882 115.913 42.6529 116.123 43.2296 116.493C43.253 116.506 43.2753 116.521 43.2964 116.538C43.2964 116.538 52.7648 126.228 53.6473 128.466C53.893 129.095 53.9173 129.988 53.8232 130.954Z" fill="black"/>
<path d="M53.5139 130.799C53.2713 133.302 52.2432 136.282 52.2432 136.282C52.2432 136.282 51.5153 143.681 50.5781 145.869C49.641 148.056 50.0595 151.078 49.5379 156.652C49.3499 158.657 48.7039 160.036 47.8334 160.968C46.402 162.487 44.3578 162.815 42.7444 162.724L42.3623 162.693C39.7601 162.432 37.2641 149.878 37.2641 149.878C37.2641 149.878 36.0692 139.201 36.5362 137.743C37.0033 136.285 36.0692 127.95 35.7568 126.125C35.5566 124.97 36.1541 123.087 36.6151 121.854C36.885 121.143 37.1064 120.654 37.1064 120.654C37.1064 120.654 37.992 117.841 39.4477 116.383C39.6478 116.176 39.8879 116.012 40.1532 115.901C40.4186 115.79 40.7038 115.734 40.9914 115.736C41.6764 115.761 42.3418 115.971 42.9173 116.344L42.984 116.386C42.984 116.386 52.4524 126.076 53.335 128.315C53.5806 128.937 53.614 129.833 53.5139 130.799Z" fill="#E4572E"/>
<path opacity="0.1" d="M42.9082 168.932C42.9082 168.932 40.761 170.846 40.021 170.755C39.281 170.664 42.9082 168.932 42.9082 168.932Z" fill="black"/>
<path opacity="0.1" d="M43.4785 170.77C43.4785 170.77 41.216 171.821 40.5397 171.985C39.8633 172.149 42.605 170.5 43.4785 170.77Z" fill="black"/>
<path opacity="0.1" d="M52.2311 142.014C52.2311 142.014 55.5854 142.053 56.0918 143.107C56.5983 144.161 53.3108 141.583 52.2311 142.014Z" fill="black"/>
<path opacity="0.1" d="M51.761 143.849C51.761 143.849 54.3358 144.395 55.1153 145.021C55.8947 145.647 51.761 143.849 51.761 143.849Z" fill="black"/>
<path opacity="0.1" d="M47.4331 137.482C47.4331 137.482 47.1298 148.068 45.9713 149.438C44.8128 150.807 47.4331 137.482 47.4331 137.482Z" fill="black"/>
<path opacity="0.1" d="M44.5458 167.408C44.5458 167.408 42.3925 176.745 46.7113 177.322C51.03 177.899 49.6956 166.691 49.6956 166.691L44.5458 167.408Z" fill="black"/>
<path d="M44.3882 167.253C44.3882 167.253 42.2471 176.59 46.5567 177.173C50.8663 177.757 49.5379 166.542 49.5379 166.542L44.3882 167.253Z" fill="#ECB4B6"/>
<path opacity="0.1" d="M58.5302 105.776C58.4101 105.598 58.3085 105.407 58.227 105.208C57.6538 104.011 56.1798 104.601 55.1001 105.169L54.5239 105.913C54.261 106.222 54.0397 106.564 53.8658 106.93C53.7551 107.228 53.6629 107.532 53.5898 107.842C53.4412 108.37 53.2228 108.874 53.0257 109.391C52.3719 111.108 51.9842 112.915 51.8762 114.749C51.3859 114.838 50.8885 114.883 50.3902 114.883H50.3538V114.846C50.4084 114.64 50.4539 114.43 50.4963 114.22C50.7221 113.039 50.7498 111.827 50.5782 110.636C50.5782 110.609 50.5782 110.585 50.5782 110.557C50.5388 110.293 50.4872 110.026 50.466 109.761C50.3659 109.944 50.2689 110.129 50.1627 110.317C49.5107 111.532 48.8252 112.747 47.5939 113.279C47.0943 113.475 46.5675 113.594 46.032 113.631C45.3709 113.667 44.7159 113.776 44.0789 113.956C43.8617 114.016 43.6653 114.135 43.5118 114.299C43.3403 114.554 43.2417 114.85 43.2267 115.156C43.1609 115.56 43.0594 115.958 42.9234 116.344C42.3665 117.785 41.4963 119.084 40.3758 120.147L40.0938 120.42C39.6134 120.917 39.0405 121.314 38.4075 121.59C37.8324 121.783 37.2277 121.874 36.6212 121.857C36.8911 121.146 37.1125 120.657 37.1125 120.657C37.1125 120.657 37.9981 117.844 39.4539 116.386C39.654 116.179 39.894 116.015 40.1594 115.904C40.4247 115.793 40.7099 115.737 40.9976 115.739C42.0842 114.453 43.026 113.05 43.8059 111.557C43.0606 110.544 42.558 109.373 42.3369 108.134C42.1159 106.895 42.1824 105.622 42.5313 104.413C42.8802 103.205 43.5021 102.092 44.3489 101.163C45.1957 100.234 46.2447 99.5116 47.4147 99.0532C48.5846 98.5948 49.8443 98.4122 51.096 98.5195C52.3477 98.6268 53.5581 99.0211 54.6333 99.6719C55.7085 100.323 56.6198 101.213 57.2966 102.273C57.9734 103.333 58.3976 104.535 58.5363 105.785L58.5302 105.776Z" fill="black"/>
<path d="M59.0519 99.376C58.5666 98.8353 57.8842 98.5194 57.2322 98.2066C57 98.1184 56.7958 97.9695 56.6408 97.7752C56.5276 97.5431 56.4656 97.2893 56.4588 97.031C56.2314 95.4454 54.7574 94.3489 53.2926 93.7049C51.4061 92.8757 49.1406 92.5203 47.3301 93.5045C46.4505 93.9844 45.756 94.7347 44.9614 95.3452C43.9545 96.1167 42.796 96.6574 41.7224 97.3317C40.6488 98.0061 39.6237 98.8505 39.1142 100.023C38.3256 101.815 38.917 103.872 39.0171 105.828C39.1718 108.914 37.9192 112.137 35.4323 113.962C35.1327 114.146 34.8661 114.379 34.6438 114.652C34.5351 114.79 34.4708 114.957 34.4594 115.132C34.448 115.308 34.4901 115.482 34.5801 115.633C34.7045 115.803 34.9107 115.9 35.0472 116.058C35.3323 116.383 35.2746 116.878 35.1624 117.297C34.8032 118.652 34.0842 119.883 33.0819 120.861C33.1244 121.182 33.5126 121.307 33.831 121.356C34.6734 121.481 35.5239 121.543 36.3755 121.541C37.0393 121.595 37.7065 121.494 38.3242 121.244C38.9418 120.995 39.4927 120.605 39.933 120.104C41.4494 118.677 42.7323 116.893 43.075 114.84C43.0929 114.534 43.1912 114.239 43.3601 113.984C43.5159 113.821 43.7114 113.703 43.9272 113.64C45.0585 113.251 46.3535 113.443 47.4423 112.963C48.8616 112.355 49.5652 110.837 50.3083 109.445C50.3325 109.71 50.3811 109.977 50.4235 110.244C50.6401 111.674 50.5679 113.132 50.2112 114.533C50.008 115.326 49.7138 116.116 49.7351 116.933C49.7502 117.54 50.3659 120.715 51.1757 119.764C51.9854 118.813 51.6882 116.711 51.6882 115.533C51.6891 113.326 52.0931 111.139 52.8801 109.078C53.0742 108.565 53.2956 108.057 53.4442 107.529C53.5177 107.22 53.6088 106.916 53.7171 106.618C53.8933 106.251 54.1155 105.909 54.3783 105.6L54.9576 104.856C56.0372 104.282 57.5112 103.698 58.0844 104.895C58.3028 105.354 58.421 105.861 58.9942 105.415C59.3309 105.15 59.4401 104.631 59.528 104.236C59.8889 102.581 60.1861 100.634 59.0519 99.376Z" fill="#464353"/>
<path opacity="0.1" d="M48.0761 128.053C47.8547 122.443 40.0149 121.283 38.1861 126.589C38.1712 126.625 38.1591 126.661 38.1497 126.699C36.9517 130.292 37.4734 139.392 37.4734 139.392C37.4734 139.392 37.6281 145.504 38.2013 147.536C38.7745 149.568 40.3849 155.4 40.3849 156.345C40.3849 157.29 41.8801 160.877 42.5079 161.138C43.1356 161.399 43.4541 163.428 43.6088 163.793C43.7634 164.157 44.2153 168.899 44.2153 168.899C44.2153 168.899 50.0929 168.535 50.196 167.596C50.2991 166.657 48.8949 162.074 48.8949 162.074C48.8949 162.074 47.8608 160.2 47.7273 158.69C47.5939 157.18 46.7811 156.494 46.9418 155.452C47.1026 154.41 46.4717 153.891 46.4717 153.213C46.4717 152.536 46.0047 150.713 46.0047 150.713C46.0047 150.713 45.016 149.93 45.1737 148.994C45.3314 148.059 43.7695 146.181 44.185 145.504C44.6005 144.827 44.7036 143.159 44.7036 143.159C44.7036 143.159 45.2252 135.659 45.5892 133.627C45.9531 131.595 48.0852 128.315 48.0852 128.315C48.0852 128.315 48.0822 128.22 48.0761 128.053Z" fill="black"/>
<path opacity="0.1" d="M47.8335 160.968C46.402 162.487 44.3579 162.815 42.7444 162.724C42.5564 162.013 42.2834 161.138 41.8861 160.974C41.2553 160.713 39.7632 157.12 39.7632 156.184C39.7632 155.248 38.1528 149.41 37.5796 147.375C37.0064 145.34 36.8517 139.234 36.8517 139.234C36.8517 139.234 36.33 130.122 37.528 126.538C37.528 126.504 37.5492 126.468 37.5644 126.431C39.3841 121.122 47.233 122.285 47.4544 127.895C47.4544 128.062 47.4544 128.154 47.4544 128.154C47.4544 128.154 45.3314 131.434 44.9584 133.466C44.5853 135.498 44.0789 142.998 44.0789 142.998C44.0789 142.998 43.9727 144.666 43.5572 145.343C43.1417 146.02 44.7006 147.898 44.5459 148.833C44.3912 149.769 45.3769 150.552 45.3769 150.552C45.3769 150.552 45.844 152.375 45.844 153.055C45.844 153.736 46.4687 154.252 46.314 155.294C46.1594 156.336 46.9904 157.013 47.1238 158.523C47.2352 159.369 47.4745 160.194 47.8335 160.968Z" fill="black"/>
<path d="M47.7637 127.898C47.5423 122.288 39.7025 121.128 37.8737 126.434L37.8373 126.541C36.6394 130.137 37.161 139.238 37.161 139.238C37.161 139.238 37.3157 145.346 37.8889 147.378C38.4621 149.41 40.0725 155.245 40.0725 156.187C40.0725 157.129 41.5677 160.719 42.1955 160.98C42.8233 161.241 43.1417 163.274 43.2964 163.638C43.4511 164.003 43.9029 168.741 43.9029 168.741C43.9029 168.741 49.7805 168.377 49.8837 167.441C49.9868 166.505 48.5856 161.919 48.5856 161.919C48.5856 161.919 47.5484 160.042 47.4149 158.532C47.2815 157.022 46.4505 156.345 46.6082 155.303C46.7659 154.261 46.1381 153.739 46.1381 153.061C46.1381 152.384 45.6711 150.561 45.6711 150.561C45.6711 150.561 44.6824 149.781 44.8401 148.842C44.9978 147.904 43.4359 146.029 43.8514 145.352C44.2669 144.675 44.37 143.01 44.37 143.01C44.37 143.01 44.8916 135.507 45.2556 133.475C45.6195 131.443 47.7516 128.163 47.7516 128.163C47.7516 128.163 47.7698 128.065 47.7637 127.898Z" fill="#E4572E"/>
<path opacity="0.1" d="M38.1102 142.327C38.2649 142.169 41.231 138.888 42.1651 140.061C43.0992 141.233 38.1102 142.327 38.1102 142.327Z" fill="black"/>
<path opacity="0.1" d="M38.3832 144.866C38.4984 144.748 41.3462 144.632 42.0498 143.044C42.7535 141.455 38.3832 144.866 38.3832 144.866Z" fill="black"/>
<g opacity="0.1">
<path opacity="0.1" d="M35.1381 116.058C35.2082 116.141 35.2608 116.237 35.2928 116.341C35.3501 116.164 35.366 115.975 35.3392 115.791C35.3123 115.607 35.2435 115.431 35.1381 115.278C34.9986 115.117 34.7954 115.022 34.668 114.852C34.668 114.852 34.6529 114.825 34.6438 114.81C34.5734 114.937 34.5386 115.08 34.5428 115.225C34.5471 115.37 34.5904 115.511 34.668 115.633C34.8106 115.803 34.9986 115.9 35.1381 116.058Z" fill="black"/>
<path opacity="0.1" d="M39.1081 105.94C39.1081 105.636 39.1081 105.333 39.1081 105.053C39.0535 103.99 38.8564 102.9 38.8048 101.833C38.7411 103.14 39.0323 104.509 39.1081 105.834C39.1081 105.864 39.1051 105.898 39.1081 105.94Z" fill="black"/>
<path opacity="0.1" d="M51.2635 118.983C50.5417 119.831 49.9746 117.392 49.8502 116.429C49.8305 116.596 49.8214 116.765 49.8229 116.933C49.8411 117.541 50.4537 120.715 51.2635 119.764C51.8124 119.12 51.8701 118.024 51.8337 117.012C51.7942 117.787 51.6729 118.503 51.2635 118.983Z" fill="black"/>
<path opacity="0.1" d="M50.5114 110.244C50.5731 110.653 50.6106 111.065 50.6236 111.478C50.65 110.803 50.6124 110.128 50.5114 109.461C50.472 109.196 50.4204 108.929 50.3962 108.662C49.6471 110.065 48.9525 111.566 47.5332 112.182C46.4323 112.659 45.1494 112.471 44.0182 112.86C43.801 112.919 43.6046 113.038 43.451 113.203C43.2804 113.457 43.1819 113.753 43.1659 114.06C42.8202 116.113 41.5343 117.896 40.0209 119.324C39.5806 119.824 39.0297 120.214 38.412 120.464C37.7944 120.713 37.1272 120.815 36.4634 120.76C35.6129 120.761 34.7634 120.699 33.9219 120.575C33.7915 120.555 33.6634 120.521 33.5398 120.475C33.4215 120.608 33.2972 120.736 33.1698 120.861C33.2123 121.183 33.6035 121.307 33.9219 121.356C34.7633 121.481 35.6128 121.543 36.4634 121.541C37.1272 121.596 37.7944 121.494 38.412 121.245C39.0297 120.995 39.5806 120.605 40.0209 120.104C41.5373 118.677 42.8202 116.894 43.1659 114.84C43.1823 114.534 43.2808 114.238 43.451 113.984C43.6058 113.82 43.8017 113.702 44.0182 113.64C45.1494 113.252 46.4444 113.443 47.5332 112.963C48.9525 112.356 49.6562 110.837 50.3962 109.446C50.4204 109.71 50.472 109.977 50.5114 110.244Z" fill="black"/>
<path opacity="0.1" d="M59.6159 103.456C59.528 103.85 59.4158 104.367 59.0791 104.634C58.509 105.078 58.3937 104.573 58.1693 104.115C57.5961 102.918 56.1221 103.507 55.0425 104.075L54.4632 104.819C54.2003 105.128 53.979 105.47 53.8051 105.837C53.694 106.134 53.6028 106.439 53.5321 106.748C53.3805 107.277 53.1621 107.781 52.965 108.294C52.181 110.356 51.7781 112.543 51.7761 114.749C51.7761 114.849 51.7761 114.959 51.7761 115.071C51.8301 113.021 52.2311 110.994 52.962 109.078C53.1591 108.565 53.3774 108.057 53.5291 107.529C53.5998 107.219 53.691 106.915 53.802 106.618C53.976 106.251 54.1972 105.909 54.4602 105.6L55.0394 104.856C56.1191 104.282 57.5931 103.699 58.1663 104.895C58.3876 105.354 58.5029 105.861 59.0761 105.415C59.4127 105.15 59.5249 104.631 59.6129 104.236C59.8416 103.321 59.9436 102.379 59.9162 101.436C59.8676 102.116 59.7672 102.791 59.6159 103.456Z" fill="black"/>
</g>
<path d="M66.7097 133.029L66.8704 133.138C66.7985 133.09 66.737 133.029 66.6895 132.956C66.642 132.884 66.6095 132.803 66.5939 132.718C66.5783 132.633 66.58 132.546 66.5989 132.461C66.6177 132.377 66.6534 132.297 66.7036 132.227L73.9338 121.735C73.9815 121.665 74.0426 121.606 74.1135 121.559C74.1845 121.513 74.2638 121.482 74.347 121.466C74.4302 121.451 74.5156 121.453 74.5983 121.471C74.6809 121.489 74.7592 121.523 74.8285 121.571L74.6678 121.459C74.8932 121.615 75.0477 121.854 75.0971 122.124C75.1466 122.394 75.0871 122.673 74.9316 122.899L68.1472 132.762C67.9914 132.987 67.7528 133.142 67.4835 133.192C67.2142 133.242 66.936 133.184 66.7097 133.029Z" fill="#464353"/>
<path d="M74.7455 121.499L74.8679 121.583L66.9092 133.155L66.7868 133.071C66.6716 132.991 66.5926 132.869 66.5672 132.731C66.5419 132.593 66.5722 132.451 66.6516 132.335L74.0098 121.636C74.0892 121.521 74.2112 121.442 74.3488 121.417C74.4864 121.391 74.6285 121.422 74.7438 121.501L74.7455 121.499Z" fill="#9F9EFF"/>
<path d="M73.8512 123.08L73.8287 123.064C73.8053 123.048 73.7732 123.054 73.757 123.078L73.1669 123.936C73.1508 123.959 73.1567 123.991 73.1801 124.007L73.2026 124.023C73.226 124.039 73.2581 124.033 73.2743 124.01L73.8644 123.152C73.8806 123.128 73.8746 123.096 73.8512 123.08Z" fill="#464353"/>
<path d="M227.279 85.6585C227.281 86.6965 226.976 87.712 226.402 88.5762C225.828 89.4405 225.011 90.1148 224.054 90.5137C223.097 90.9126 222.044 91.0182 221.027 90.8171C220.01 90.6161 219.076 90.1175 218.342 89.3843C217.608 88.6511 217.108 87.7165 216.905 86.6985C216.702 85.6806 216.805 84.6252 217.201 83.666C217.597 82.7067 218.268 81.8867 219.13 81.3097C219.992 80.7328 221.005 80.4248 222.041 80.4248C223.428 80.4248 224.759 80.9758 225.74 81.957C226.722 82.9381 227.276 84.2693 227.279 85.6585ZM221.435 88.4348L225.323 84.5437C225.385 84.4801 225.42 84.3945 225.42 84.3053C225.42 84.2161 225.385 84.1304 225.323 84.0668L224.843 83.5869C224.812 83.5552 224.775 83.53 224.734 83.5128C224.694 83.4957 224.65 83.4868 224.605 83.4868C224.561 83.4868 224.517 83.4957 224.476 83.5128C224.435 83.53 224.398 83.5552 224.367 83.5869L221.198 86.7611L219.718 85.2849C219.654 85.2222 219.568 85.187 219.478 85.187C219.389 85.187 219.303 85.2222 219.239 85.2849L218.763 85.7648C218.731 85.7959 218.706 85.833 218.689 85.874C218.672 85.9149 218.663 85.9588 218.663 86.0032C218.663 86.0476 218.672 86.0916 218.689 86.1325C218.706 86.1735 218.731 86.2106 218.763 86.2417L220.958 88.4409C220.989 88.4726 221.027 88.4977 221.067 88.5149C221.108 88.5321 221.152 88.5409 221.196 88.5409C221.241 88.5409 221.285 88.5321 221.326 88.5149C221.366 88.4977 221.403 88.4726 221.435 88.4409V88.4348Z" fill="#3ACC6C"/>
<path d="M163.829 143.232C163.829 144.269 163.522 145.284 162.947 146.146C162.371 147.009 161.553 147.681 160.596 148.078C159.639 148.475 158.586 148.579 157.57 148.377C156.554 148.175 155.621 147.675 154.888 146.941C154.156 146.208 153.657 145.273 153.455 144.255C153.253 143.238 153.356 142.183 153.753 141.224C154.149 140.266 154.82 139.447 155.682 138.87C156.543 138.294 157.556 137.986 158.592 137.986C159.981 137.986 161.313 138.539 162.295 139.523C163.278 140.506 163.829 141.841 163.829 143.232ZM157.985 146.008L161.885 142.117C161.917 142.086 161.942 142.048 161.959 142.007C161.977 141.966 161.985 141.922 161.985 141.877C161.985 141.833 161.977 141.788 161.959 141.747C161.942 141.706 161.917 141.669 161.885 141.637L161.394 141.175C161.363 141.144 161.325 141.118 161.284 141.101C161.243 141.084 161.199 141.075 161.154 141.075C161.11 141.075 161.066 141.084 161.025 141.101C160.983 141.118 160.946 141.144 160.915 141.175L157.746 144.335L156.265 142.852C156.234 142.821 156.197 142.795 156.157 142.778C156.116 142.761 156.072 142.752 156.027 142.752C155.983 142.752 155.939 142.761 155.898 142.778C155.857 142.795 155.82 142.821 155.789 142.852L155.31 143.329C155.248 143.393 155.213 143.479 155.213 143.569C155.213 143.659 155.248 143.745 155.31 143.809L157.506 146.008C157.537 146.04 157.575 146.065 157.616 146.082C157.657 146.1 157.701 146.109 157.746 146.109C157.79 146.109 157.834 146.1 157.875 146.082C157.916 146.065 157.954 146.04 157.985 146.008Z" fill="#3ACC6C"/>
<path d="M163.829 200.538C163.829 201.576 163.522 202.59 162.947 203.453C162.371 204.315 161.553 204.988 160.596 205.385C159.639 205.782 158.586 205.886 157.57 205.683C156.554 205.481 155.621 204.981 154.888 204.247C154.156 203.514 153.657 202.579 153.455 201.561C153.253 200.544 153.356 199.489 153.753 198.531C154.149 197.572 154.82 196.753 155.682 196.176C156.543 195.6 157.556 195.292 158.592 195.292C159.981 195.292 161.313 195.845 162.295 196.829C163.278 197.812 163.829 199.147 163.829 200.538ZM157.985 203.314L161.885 199.423C161.917 199.392 161.942 199.355 161.959 199.313C161.977 199.272 161.985 199.228 161.985 199.183C161.985 199.139 161.977 199.094 161.959 199.053C161.942 199.012 161.917 198.975 161.885 198.943L161.409 198.466C161.378 198.435 161.341 198.409 161.299 198.392C161.258 198.375 161.214 198.366 161.17 198.366C161.125 198.366 161.081 198.375 161.04 198.392C160.999 198.409 160.961 198.435 160.93 198.466L157.761 201.641L156.281 200.158C156.25 200.127 156.213 200.102 156.172 200.084C156.131 200.067 156.087 200.058 156.043 200.058C155.998 200.058 155.954 200.067 155.913 200.084C155.873 200.102 155.836 200.127 155.805 200.158L155.325 200.635C155.263 200.699 155.228 200.786 155.228 200.875C155.228 200.965 155.263 201.051 155.325 201.115L157.521 203.314C157.552 203.346 157.59 203.371 157.631 203.389C157.672 203.406 157.716 203.415 157.761 203.415C157.805 203.415 157.849 203.406 157.891 203.389C157.932 203.371 157.969 203.346 158 203.314H157.985Z" fill="#3ACC6C"/>
</g>
<defs>
<linearGradient id="paint0_linear" x1="162.419" y1="214.286" x2="162.419" y2="0" gradientUnits="userSpaceOnUse">
<stop stop-color="#808080" stop-opacity="0.25"/>
<stop offset="0.54" stop-color="#808080" stop-opacity="0.12"/>
<stop offset="1" stop-color="#808080" stop-opacity="0.1"/>
</linearGradient>
<linearGradient id="paint1_linear" x1="15080.5" y1="114252" x2="15080.5" y2="50220" gradientUnits="userSpaceOnUse">
<stop stop-color="#808080" stop-opacity="0.25"/>
<stop offset="0.54" stop-color="#808080" stop-opacity="0.12"/>
<stop offset="1" stop-color="#808080" stop-opacity="0.1"/>
</linearGradient>
<clipPath id="clip0">
<rect width="308" height="238" fill="white"/>
</clipPath>
</defs>
</svg>
