<svg width="126" height="119" viewBox="0 0 126 119" fill="none" xmlns="http://www.w3.org/2000/svg">
<g clip-path="url(#clip0)">
<path d="M3.73194 70.6877C3.73194 70.6877 3.62468 70.3726 3.45117 69.7863" stroke="#1F2421" stroke-width="9" stroke-miterlimit="10"/>
<path d="M2.94332 67.9583C-0.891157 53.2084 -12.8457 -14.7704 106.993 27.6671" stroke="#1F2421" stroke-width="9" stroke-miterlimit="10" stroke-dasharray="12.04 12.04"/>
<path d="M107.891 27.9823L108.782 28.2975" stroke="#1F2421" stroke-width="9" stroke-miterlimit="10"/>
<path d="M94.1033 80.4091C94.1041 77.2219 92.9144 74.1491 90.7671 71.792C88.6197 69.4349 85.6693 67.9632 82.4931 67.6648C79.3169 67.3664 76.1436 68.2628 73.594 70.1786C71.0445 72.0945 69.3023 74.8918 68.7083 78.0233L29.3398 76.9564L29.772 83.7137C29.772 83.7137 24.1583 96.6545 53.6622 100.102V113.182H87.7703V91.4353C89.6965 90.3085 91.2943 88.6982 92.4051 86.764C93.516 84.8298 94.1015 82.6391 94.1033 80.4091Z" fill="url(#paint0_linear)"/>
<path d="M31.1238 83.9973C31.1238 83.9973 25.7483 96.3898 54.0029 99.6959V112.227H86.6678V79.0397L30.7042 77.5253L31.1238 83.9973Z" fill="#F6B9AD"/>
<path d="M47.4491 32.2828C46.5974 33.6255 45.2483 34.5769 43.6967 34.9292C42.1451 35.2814 40.517 35.0059 39.1681 34.1627L21.6298 22.6165C20.2858 21.7656 19.3335 20.4179 18.9809 18.8677C18.6283 17.3175 18.9041 15.691 19.7481 14.3433C20.5997 13.0023 21.9476 12.0521 23.4977 11.7C25.0478 11.3478 26.6743 11.6222 28.0227 12.4634L45.561 24.0096C46.9061 24.8595 47.8597 26.2068 48.2135 27.757C48.5673 29.3072 48.2925 30.9344 47.4491 32.2828Z" fill="url(#paint1_linear)"/>
<path d="M46.4775 31.6509C45.6858 32.899 44.4319 33.7834 42.9896 34.1108C41.5474 34.4383 40.034 34.1822 38.7802 33.3985L22.4722 22.6654C21.2229 21.8744 20.3377 20.6217 20.0099 19.1808C19.6822 17.7399 19.9385 16.228 20.7229 14.9753C21.5146 13.7271 22.7686 12.8428 24.2108 12.5153C25.6531 12.1879 27.1664 12.444 28.4203 13.2276L44.7251 23.9623C45.9745 24.7528 46.86 26.005 47.1884 27.4455C47.5167 28.8861 47.2612 30.3979 46.4775 31.6509Z" fill="#F6B9AD"/>
<path d="M80.4657 93.0868C87.2405 93.0868 92.7326 87.5999 92.7326 80.8314C92.7326 74.063 87.2405 68.5761 80.4657 68.5761C73.6909 68.5761 68.1989 74.063 68.1989 80.8314C68.1989 87.5999 73.6909 93.0868 80.4657 93.0868Z" fill="#F6B9AD"/>
<path d="M78.2576 0H31.2658C30.1987 0 29.3336 0.864275 29.3336 1.93041V89.7775C29.3336 90.8437 30.1987 91.7079 31.2658 91.7079H78.2576C79.3247 91.7079 80.1898 90.8437 80.1898 89.7775V1.93041C80.1898 0.864275 79.3247 0 78.2576 0Z" fill="url(#paint2_linear)"/>
<path d="M77.3505 1.24017H32.1727C30.9845 1.24017 30.0212 2.20252 30.0212 3.38963V88.3214C30.0212 89.5085 30.9845 90.4708 32.1727 90.4708H77.3505C78.5387 90.4708 79.502 89.5085 79.502 88.3214V3.38963C79.502 2.20252 78.5387 1.24017 77.3505 1.24017Z" fill="white"/>
<path d="M67.1926 3.47632C67.0495 4.42261 66.5721 5.28648 65.8468 5.91167C65.1215 6.53685 64.1962 6.88207 63.2383 6.88487H46.1495C45.1918 6.8817 44.2669 6.53631 43.542 5.91116C42.817 5.28601 42.3398 4.42235 42.1967 3.47632H33.1429C32.896 3.47611 32.6516 3.52451 32.4235 3.61873C32.1954 3.71296 31.9881 3.85117 31.8135 4.02547C31.6389 4.19977 31.5004 4.40674 31.4058 4.63455C31.3113 4.86237 31.2627 5.10655 31.2627 5.35315V86.3516C31.2625 86.5982 31.3109 86.8425 31.4052 87.0704C31.4996 87.2982 31.6379 87.5053 31.8124 87.6798C31.9868 87.8542 32.194 87.9926 32.422 88.087C32.65 88.1814 32.8945 88.23 33.1413 88.23H76.3821C76.629 88.2302 76.8734 88.1819 77.1015 88.0876C77.3296 87.9934 77.5369 87.8552 77.7115 87.6809C77.8861 87.5066 78.0246 87.2996 78.1191 87.0718C78.2137 86.844 78.2623 86.5998 78.2623 86.3532V5.35473C78.2625 5.10813 78.2141 4.8639 78.1197 4.63601C78.0254 4.40812 77.8871 4.20104 77.7126 4.02659C77.5382 3.85214 77.331 3.71375 77.103 3.61934C76.8749 3.52492 76.6305 3.47632 76.3837 3.47632H67.1926Z" fill="#84BD00"/>
<path d="M60.03 4.54474H49.6338C49.4596 4.54474 49.3184 4.68584 49.3184 4.85991V4.91821C49.3184 5.09228 49.4596 5.23338 49.6338 5.23338H60.03C60.2042 5.23338 60.3454 5.09228 60.3454 4.91821V4.85991C60.3454 4.68584 60.2042 4.54474 60.03 4.54474Z" fill="#DBDBDB"/>
<path d="M62.6877 5.2334C62.9159 5.2334 63.1009 5.04855 63.1009 4.82053C63.1009 4.5925 62.9159 4.40765 62.6877 4.40765C62.4594 4.40765 62.2744 4.5925 62.2744 4.82053C62.2744 5.04855 62.4594 5.2334 62.6877 5.2334Z" fill="#DBDBDB"/>
<path d="M88.3966 82.992C84.8365 83.8146 82.3933 81.4949 81.5699 77.9398L73.3899 47.5953C72.9989 45.8809 73.3028 44.0816 74.2352 42.5902C75.1676 41.0989 76.6527 40.0368 78.3663 39.6357C80.0824 39.2451 81.8834 39.5487 83.3761 40.4802C84.8688 41.4117 85.932 42.8955 86.3334 44.6075L93.0087 75.7305C93.832 79.2919 91.955 82.1694 88.3966 82.992Z" fill="url(#paint3_linear)"/>
<path d="M85.4157 45.3519C84.7216 42.3509 81.7239 40.4802 78.7201 41.1736C75.7163 41.867 73.8439 44.8619 74.5379 47.8628L82.0598 80.3871C82.7538 83.3881 85.7515 85.2588 88.7553 84.5654C91.7591 83.872 93.6315 80.8771 92.9375 77.8761L85.4157 45.3519Z" fill="#F6B9AD"/>
<path d="M92.6822 108.127H45.9933V119H92.6822V108.127Z" fill="url(#paint4_linear)"/>
<path d="M91.4203 109.387H47.2551V117.897H91.4203V109.387Z" fill="white"/>
<path d="M65.1782 28.7403L61.5598 26.0188L63.1372 23.9702L60.5046 21.9058L58.8594 23.9891L55.1385 21.192C54.9968 21.0857 54.8244 21.0283 54.6472 21.0283C54.47 21.0283 54.2976 21.0857 54.1559 21.192L44.2928 28.5275C43.919 28.8427 43.5689 29.2036 43.5657 30.0293H43.5547L43.5294 41.3313V41.834C43.529 41.9958 43.5605 42.1561 43.6221 42.3058C43.6837 42.4555 43.7742 42.5915 43.8885 42.7063C44.0027 42.821 44.1385 42.9121 44.2879 42.9744C44.4374 43.0367 44.5978 43.069 44.7597 43.0694H45.2456L54.5975 43.0899L64.4369 43.112C64.5989 43.1124 64.7593 43.0809 64.9091 43.0194C65.059 42.9578 65.1952 42.8674 65.31 42.7533C65.4248 42.6391 65.516 42.5035 65.5784 42.3542C65.6408 42.2048 65.6731 42.0446 65.6735 41.8828L65.7003 30.0986H65.7208C65.7208 29.2713 65.552 29.0554 65.1782 28.7403Z" fill="url(#paint5_linear)"/>
<path d="M64.7493 30.2704C64.7493 29.5172 64.5915 29.3249 64.254 29.0334L55.0944 22.1517C54.965 22.0546 54.8075 22.0022 54.6457 22.0022C54.4838 22.0022 54.3264 22.0546 54.1969 22.1517L45.1983 28.8459C44.9818 29.0003 44.8077 29.2067 44.6919 29.446C44.5762 29.6853 44.5225 29.9498 44.5358 30.2153H44.5263L44.5027 40.5276V40.9862C44.5023 41.2843 44.6203 41.5704 44.8309 41.7817C45.0414 41.993 45.3273 42.1121 45.6257 42.1129H46.069L54.6023 42.1318L63.5789 42.1523C63.8773 42.1527 64.1637 42.0348 64.3751 41.8244C64.5866 41.6141 64.7058 41.3284 64.7067 41.0303L64.7303 30.2783L64.7493 30.2704Z" fill="url(#paint6_linear)"/>
<path d="M44.6918 30.2566L64.5392 30.3016L64.5144 41.2111C64.5142 41.2976 64.497 41.3832 64.4637 41.4631C64.4304 41.5429 64.3816 41.6154 64.3203 41.6764C64.2589 41.7375 64.1861 41.7858 64.106 41.8187C64.026 41.8517 63.9402 41.8685 63.8536 41.8683L45.399 41.8265C45.2061 41.826 45.0213 41.7491 44.8853 41.6125C44.7492 41.476 44.673 41.291 44.6735 41.0984L44.6981 30.2566L44.6918 30.2566Z" fill="#84BD00"/>
<path opacity="0.2" d="M44.6918 30.2566L64.5392 30.3016L64.5144 41.2111C64.5142 41.2976 64.497 41.3832 64.4637 41.4631C64.4304 41.5429 64.3816 41.6154 64.3203 41.6764C64.2589 41.7375 64.1861 41.7858 64.106 41.8187C64.026 41.8517 63.9402 41.8685 63.8536 41.8683L45.399 41.8265C45.2061 41.826 45.0213 41.7491 44.8853 41.6125C44.7492 41.476 44.673 41.291 44.6735 41.0984L44.6981 30.2566L44.6918 30.2566Z" fill="white"/>
<path d="M44.6935 30.2531L44.6714 40.2739C44.671 40.4761 44.7104 40.6764 44.7875 40.8633C44.8646 41.0503 44.9777 41.2202 45.1205 41.3635C45.2633 41.5067 45.433 41.6205 45.6198 41.6983C45.8066 41.776 46.0069 41.8162 46.2093 41.8167L62.9747 41.8545" fill="#F5F5F5"/>
<path d="M64.5427 30.2972L64.5206 40.3243C64.5202 40.5265 64.4799 40.7266 64.4021 40.9133C64.3242 41.0999 64.2104 41.2694 64.067 41.4121C63.9236 41.5547 63.7535 41.6678 63.5663 41.7448C63.3792 41.8218 63.1787 41.8612 62.9764 41.8608L46.2109 41.8229" fill="white"/>
<path d="M54.1954 22.4132L45.3624 28.9215C45.1502 29.0705 44.9792 29.2708 44.8653 29.5036C44.7514 29.7364 44.6983 29.9942 44.7109 30.2531L64.5679 30.3161C64.5679 29.5833 64.4102 29.3911 64.0821 29.1137L55.0834 22.4164C54.9557 22.3199 54.8001 22.2674 54.6399 22.2669C54.4798 22.2663 54.3238 22.3177 54.1954 22.4132Z" fill="#84BD00"/>
<path opacity="0.2" d="M54.1954 22.4132L45.3624 28.9215C45.1502 29.0705 44.9792 29.2708 44.8653 29.5036C44.7514 29.7364 44.6983 29.9942 44.7109 30.2531L64.5679 30.3161C64.5679 29.5833 64.4102 29.3911 64.0821 29.1137L55.0834 22.4164C54.9557 22.3199 54.8001 22.2674 54.6399 22.2669C54.4798 22.2663 54.3238 22.3177 54.1954 22.4132Z" fill="black"/>
<path d="M62.3928 24.6777L59.9905 22.7962L54.1844 30.1428L51.0644 27.7254L49.1101 30.2074L53.6512 33.6727L54.7774 34.5756L62.3928 24.6777Z" fill="url(#paint7_linear)"/>
<path d="M62.216 24.6321L60.0393 22.9648L54.271 30.48L51.0675 28.0264L49.3971 30.2011L53.689 33.4852L54.79 34.3093L62.216 24.6321Z" fill="white"/>
<path d="M43.6825 48.8213C42.8369 50.1539 41.4979 51.0981 39.9579 51.4477C38.4178 51.7973 36.8019 51.5239 35.463 50.6871L20.5573 40.9909C19.2234 40.1462 18.2783 38.8084 17.9284 37.2698C17.5785 35.7312 17.8522 34.1168 18.6897 32.7792C19.5353 31.4466 20.8743 30.5024 22.4143 30.1528C23.9543 29.8032 25.5703 30.0766 26.9092 30.9134L41.8149 40.6096C43.1488 41.4543 44.0939 42.7921 44.4438 44.3306C44.7937 45.8692 44.52 47.4836 43.6825 48.8213Z" fill="url(#paint8_linear)"/>
<path d="M42.8907 48.3107C42.099 49.5588 40.8451 50.4432 39.4028 50.7707C37.9606 51.0981 36.4472 50.842 35.1934 50.0583L21.2324 40.9767C19.9831 40.1858 19.0979 38.933 18.7702 37.4921C18.4424 36.0512 18.6988 34.5393 19.4832 33.2866C20.2749 32.0385 21.5288 31.1541 22.9711 30.8267C24.4133 30.4992 25.9267 30.7553 27.1805 31.539L41.1415 40.6206C42.3907 41.4115 43.2759 42.6643 43.6037 44.1052C43.9315 45.5461 43.6751 47.058 42.8907 48.3107Z" fill="#F6B9AD"/>
<path d="M40.6414 64.835C39.8 66.1618 38.4672 67.102 36.9342 67.4501C35.4012 67.7982 33.7925 67.526 32.4598 66.693L20.6961 59.0895C19.368 58.2489 18.427 56.9174 18.0785 55.3858C17.7301 53.8542 18.0026 52.2471 18.8364 50.9156C19.6778 49.5888 21.0106 48.6486 22.5436 48.3005C24.0766 47.9524 25.6852 48.2246 27.018 49.0577L38.7801 56.6627C40.108 57.503 41.049 58.8341 41.3978 60.3654C41.7465 61.8966 41.4746 63.5035 40.6414 64.835Z" fill="url(#paint9_linear)"/>
<path d="M37.6886 80.9307C36.8398 82.2697 35.4949 83.2185 33.948 83.5699C32.4011 83.9212 30.7778 83.6466 29.4329 82.806L22.1473 77.4954C20.807 76.6473 19.8573 75.3037 19.5056 73.7582C19.1539 72.2127 19.4288 70.591 20.2702 69.2474C21.1201 67.9095 22.4654 66.962 24.0123 66.6118C25.5591 66.2616 27.1818 66.5372 28.526 67.3784L35.8116 72.6875C37.1505 73.5355 38.0993 74.8782 38.451 76.4225C38.8026 77.9669 38.5286 79.5875 37.6886 80.9307Z" fill="url(#paint10_linear)"/>
<path d="M37.1003 80.5352C36.3086 81.7833 35.0547 82.6677 33.6124 82.9951C32.1702 83.3226 30.6568 83.0665 29.4029 82.2828L22.6094 77.3315C21.3601 76.5405 20.4749 75.2878 20.1471 73.8469C19.8194 72.406 20.0757 70.8941 20.8601 69.6414C21.6518 68.3933 22.9058 67.5089 24.348 67.1814C25.7903 66.854 27.3036 67.1101 28.5575 67.8938L35.351 72.8451C36.6003 73.636 37.4855 74.8888 37.8133 76.3297C38.141 77.7706 37.8847 79.2825 37.1003 80.5352Z" fill="#F6B9AD"/>
<path d="M70.8504 50.9897H38.673V60.6023H70.8504V50.9897Z" fill="url(#paint11_linear)"/>
<path d="M69.7462 51.9352H39.777V58.8689H69.7462V51.9352Z" fill="#1F2421"/>
<path d="M125.434 33.805L126 33.8933L125.912 33.8098H125.959L125.885 33.7846L115.618 24.0569L113.126 27.9854L111.053 31.5689L112.014 31.7186L111.588 33.6601L125.434 33.805Z" fill="url(#paint12_linear)"/>
<path d="M113.556 28.1903L111.664 31.4696L125.544 33.7278L116.604 27.508L113.556 28.1903Z" fill="#84BD00"/>
<path d="M113.556 28.1903L111.664 31.4696L125.544 33.7278L116.604 27.508L113.556 28.1903Z" fill="#979797"/>
<path d="M115.836 24.5974L125.544 33.7278L113.557 28.1903L115.836 24.5974Z" fill="white"/>
<path d="M112.175 33.3969L125.506 33.6506L113.061 29.2351L112.175 33.3969Z" fill="white"/>
<path d="M39.9947 64.4237C39.203 65.6719 37.9491 66.5562 36.5068 66.8837C35.0646 67.2111 33.5512 66.955 32.2974 66.1714L21.2308 59.017C19.9816 58.2261 19.0964 56.9733 18.7686 55.5324C18.4408 54.0915 18.6972 52.5796 19.4816 51.3269C20.272 50.0775 21.5254 49.1915 22.9677 48.8625C24.4101 48.5336 25.9241 48.7884 27.1789 49.5714L38.2455 56.7257C39.4969 57.5168 40.3837 58.771 40.7115 60.2138C41.0394 61.6566 40.7816 63.1704 39.9947 64.4237Z" fill="#F6B9AD"/>
</g>
<defs>
<linearGradient id="paint0_linear" x1="61.7239" y1="113.188" x2="61.7239" y2="67.6101" gradientUnits="userSpaceOnUse">
<stop stop-color="#808080" stop-opacity="0.25"/>
<stop offset="0.54" stop-color="#808080" stop-opacity="0.12"/>
<stop offset="1" stop-color="#808080" stop-opacity="0.1"/>
</linearGradient>
<linearGradient id="paint1_linear" x1="12166.9" y1="6953.44" x2="12166.9" y2="3439.67" gradientUnits="userSpaceOnUse">
<stop stop-color="#808080" stop-opacity="0.25"/>
<stop offset="0.54" stop-color="#808080" stop-opacity="0.12"/>
<stop offset="1" stop-color="#808080" stop-opacity="0.1"/>
</linearGradient>
<linearGradient id="paint2_linear" x1="27741.1" y1="60001.3" x2="27741.1" y2="6630.99" gradientUnits="userSpaceOnUse">
<stop stop-color="#808080" stop-opacity="0.25"/>
<stop offset="0.54" stop-color="#808080" stop-opacity="0.12"/>
<stop offset="1" stop-color="#808080" stop-opacity="0.1"/>
</linearGradient>
<linearGradient id="paint3_linear" x1="14574.4" y1="26258.3" x2="14574.4" y2="14144.8" gradientUnits="userSpaceOnUse">
<stop stop-color="#808080" stop-opacity="0.25"/>
<stop offset="0.54" stop-color="#808080" stop-opacity="0.12"/>
<stop offset="1" stop-color="#808080" stop-opacity="0.1"/>
</linearGradient>
<linearGradient id="paint4_linear" x1="29799.4" y1="9095.16" x2="29799.4" y2="8344.9" gradientUnits="userSpaceOnUse">
<stop stop-color="#808080" stop-opacity="0.25"/>
<stop offset="0.54" stop-color="#808080" stop-opacity="0.12"/>
<stop offset="1" stop-color="#808080" stop-opacity="0.1"/>
</linearGradient>
<linearGradient id="paint5_linear" x1="54.6243" y1="43.1104" x2="54.6243" y2="21.0265" gradientUnits="userSpaceOnUse">
<stop stop-opacity="0.12"/>
<stop offset="0.55" stop-opacity="0.09"/>
<stop offset="1" stop-opacity="0.02"/>
</linearGradient>
<linearGradient id="paint6_linear" x1="11071.8" y1="6870.23" x2="11071.8" y2="4293.83" gradientUnits="userSpaceOnUse">
<stop stop-color="#808080" stop-opacity="0.25"/>
<stop offset="0.54" stop-color="#808080" stop-opacity="0.12"/>
<stop offset="1" stop-color="#808080" stop-opacity="0.1"/>
</linearGradient>
<linearGradient id="paint7_linear" x1="7333.37" y1="3466.89" x2="7335.37" y2="2585.43" gradientUnits="userSpaceOnUse">
<stop stop-opacity="0.12"/>
<stop offset="0.55" stop-opacity="0.09"/>
<stop offset="1" stop-opacity="0.02"/>
</linearGradient>
<linearGradient id="paint8_linear" x1="10636.9" y1="8663.73" x2="10636.9" y2="5705" gradientUnits="userSpaceOnUse">
<stop stop-color="#808080" stop-opacity="0.25"/>
<stop offset="0.54" stop-color="#808080" stop-opacity="0.12"/>
<stop offset="1" stop-color="#808080" stop-opacity="0.1"/>
</linearGradient>
<linearGradient id="paint9_linear" x1="9154.07" y1="9798.03" x2="9154.07" y2="7398.48" gradientUnits="userSpaceOnUse">
<stop stop-color="#808080" stop-opacity="0.25"/>
<stop offset="0.54" stop-color="#808080" stop-opacity="0.12"/>
<stop offset="1" stop-color="#808080" stop-opacity="0.1"/>
</linearGradient>
<linearGradient id="paint10_linear" x1="7372.05" y1="10483.5" x2="7372.05" y2="8593.52" gradientUnits="userSpaceOnUse">
<stop stop-color="#808080" stop-opacity="0.25"/>
<stop offset="0.54" stop-color="#808080" stop-opacity="0.12"/>
<stop offset="1" stop-color="#808080" stop-opacity="0.1"/>
</linearGradient>
<linearGradient id="paint11_linear" x1="11210" y1="3747.73" x2="11210" y2="3161.36" gradientUnits="userSpaceOnUse">
<stop stop-opacity="0.12"/>
<stop offset="0.55" stop-opacity="0.09"/>
<stop offset="1" stop-opacity="0.02"/>
</linearGradient>
<linearGradient id="paint12_linear" x1="10441.8" y1="10430.6" x2="10784.7" y2="9888.96" gradientUnits="userSpaceOnUse">
<stop stop-color="#808080" stop-opacity="0.25"/>
<stop offset="0.54" stop-color="#808080" stop-opacity="0.12"/>
<stop offset="1" stop-color="#808080" stop-opacity="0.1"/>
</linearGradient>
<clipPath id="clip0">
<rect width="126" height="119" fill="white"/>
</clipPath>
</defs>
</svg>
