<svg width="156" height="163" viewBox="0 0 156 163" fill="none" xmlns="http://www.w3.org/2000/svg">
<path d="M129.42 77.4724L78.3995 65.1446V161.616L129.42 148.218V77.4724Z" fill="#535461"/>
<path opacity="0.3" d="M129.42 77.4724L78.3995 65.1446V161.616L129.42 148.218V77.4724Z" fill="#84BD00"/>
<path d="M27.3809 77.4724L78.3997 65.1446V161.616L27.3809 148.485V77.4724Z" fill="#535461"/>
<path opacity="0.2" d="M27.3809 77.046L78.3997 64.7181V161.616L27.3809 148.485V77.046Z" fill="#84BD00"/>
<path d="M77.9745 65.571L104.845 43.171L155.866 56.3027L128.995 77.8989L77.9745 65.571Z" fill="#84BD00"/>
<path d="M1.62805 56.9956L27.8059 77.8989L78.8247 65.571L52.9146 43.5974L1.62805 56.9956Z" fill="#535461"/>
<path opacity="0.7" d="M1.203 56.5692L28.0184 77.8989L79.0372 65.571L52.4896 43.171L1.203 56.5692Z" fill="#84BD00"/>
<path d="M27.3809 77.4724V148.485L78.3997 161.616L79.0883 91.1393L27.3809 77.4724Z" fill="#84BD00"/>
<path d="M129.42 148.218L78.3995 161.616V91.1393L129.42 77.4724V148.218Z" fill="#535461"/>
<path opacity="0.7" d="M129.42 148.218L78.3995 161.616V91.1393L129.42 77.4724V148.218Z" fill="#84BD00"/>
<path opacity="0.07" d="M109.119 124.637V147.949L129.421 142.323V119.008L109.119 124.637Z" fill="#84BD00"/>
<path opacity="0.1" d="M26.7134 114.32L55.295 121.554L78.2678 102.796V91.2736L27.2468 78.4106L26.7134 114.32Z" fill="black"/>
<path opacity="0.1" d="M129.822 114.32L101.241 121.554L78.2677 102.796V91.2736L129.289 78.4106L129.822 114.32Z" fill="black"/>
<path d="M27.3808 77.4724L1.203 99.1773L52.2218 112.04L78.3996 91.1393L27.3808 77.4724Z" fill="#84BD00"/>
<path d="M129.42 77.4724L155.866 99.1773L105.113 112.04L78.3995 91.1393L129.42 77.4724Z" fill="#535461"/>
<path opacity="0.7" d="M129.42 77.4724L155.866 99.1773L105.113 112.04L78.3995 91.1393L129.42 77.4724Z" fill="#84BD00"/>
</svg>
