<svg width="175" height="150" viewBox="0 0 175 150" fill="none" xmlns="http://www.w3.org/2000/svg">
<path d="M69.4318 50.4569V71.6904C69.4311 72.9395 69.6757 74.1764 70.1516 75.3305C70.6276 76.4846 71.3255 77.5332 72.2056 78.4164C73.0856 79.2995 74.1305 79.9999 75.2804 80.4774C76.4303 80.9549 77.6627 81.2001 78.9072 81.1992H91.5387C92.657 81.1999 93.7645 80.9793 94.7978 80.5499C95.831 80.1205 96.7698 79.4908 97.5603 78.6968C98.3509 77.9029 98.9776 76.9602 99.4048 75.9228C99.8319 74.8855 100.051 73.7737 100.05 72.6512V50.4569C100.05 46.3817 98.4367 42.4733 95.5657 39.5917C92.6948 36.7101 88.8009 35.0912 84.7407 35.0912C80.6805 35.0912 76.7866 36.7101 73.9156 39.5917C71.0447 42.4733 69.4318 46.3817 69.4318 50.4569Z" fill="#65617D"/>
<path opacity="0.9" d="M69.4318 50.4569V71.6904C69.4311 72.9395 69.6757 74.1764 70.1516 75.3305C70.6276 76.4846 71.3255 77.5332 72.2056 78.4164C73.0856 79.2995 74.1305 79.9999 75.2804 80.4774C76.4303 80.9549 77.6627 81.2001 78.9072 81.1992H91.5387C92.657 81.1999 93.7645 80.9793 94.7978 80.5499C95.831 80.1205 96.7698 79.4908 97.5603 78.6968C98.3509 77.9029 98.9776 76.9602 99.4048 75.9228C99.8319 74.8855 100.051 73.7737 100.05 72.6512V50.4569C100.05 46.3817 98.4367 42.4733 95.5657 39.5917C92.6948 36.7101 88.8009 35.0912 84.7407 35.0912C80.6805 35.0912 76.7866 36.7101 73.9156 39.5917C71.0447 42.4733 69.4318 46.3817 69.4318 50.4569Z" fill="#84BD00"/>
<path d="M69.887 50.6845V71.2877C69.8865 72.4995 70.124 73.6994 70.5858 74.819C71.0476 75.9386 71.7248 76.9559 72.5786 77.8126C73.4323 78.6694 74.4459 79.3489 75.5615 79.8122C76.677 80.2755 77.8726 80.5136 79.0799 80.5129H91.3371C92.4215 80.5136 93.4954 80.2998 94.4974 79.8837C95.4995 79.4675 96.4099 78.8573 97.1768 78.0877C97.9437 77.3181 98.5519 76.4044 98.9667 75.3988C99.3816 74.3931 99.5948 73.3153 99.5944 72.2269V50.6845C99.5944 46.7304 98.0294 42.9383 95.2438 40.1424C92.4582 37.3464 88.6801 35.7757 84.7407 35.7757C80.8012 35.7757 77.0231 37.3464 74.2375 40.1424C71.4519 42.9383 69.887 46.7304 69.887 50.6845Z" fill="#84BD00"/>
<path opacity="0.1" d="M73.5757 53.7295V70.8651C73.5684 72.4155 73.9982 73.9363 74.8154 75.2519C76.0642 77.2386 78.137 78.5371 80.4852 78.5371H89.6997C91.9381 78.5371 93.8994 77.2241 94.9898 75.2519C95.597 74.146 95.9122 72.9026 95.9057 71.6399V53.7295C95.9057 46.8828 90.9071 41.331 84.7407 41.331C81.6584 41.331 78.8676 42.7181 76.8469 44.963C74.7139 47.3785 73.5484 50.5018 73.5757 53.7295Z" fill="black"/>
<path d="M104.444 114.288C105.377 114.288 106.133 113.528 106.133 112.592C106.133 111.655 105.377 110.896 104.444 110.896C103.51 110.896 102.754 111.655 102.754 112.592C102.754 113.528 103.51 114.288 104.444 114.288Z" fill="#333F4F"/>
<path d="M101.421 120.923C102.354 120.923 103.11 120.164 103.11 119.227C103.11 118.29 102.354 117.531 101.421 117.531C100.488 117.531 99.7311 118.29 99.7311 119.227C99.7311 120.164 100.488 120.923 101.421 120.923Z" fill="#333F4F"/>
<path d="M71.2761 122.124C72.2093 122.124 72.9657 121.365 72.9657 120.428C72.9657 119.491 72.2093 118.732 71.2761 118.732C70.343 118.732 69.5865 119.491 69.5865 120.428C69.5865 121.365 70.343 122.124 71.2761 122.124Z" fill="#333F4F"/>
<path d="M64.541 113.468C65.4742 113.468 66.2306 112.708 66.2306 111.772C66.2306 110.835 65.4742 110.076 64.541 110.076C63.6079 110.076 62.8514 110.835 62.8514 111.772C62.8514 112.708 63.6079 113.468 64.541 113.468Z" fill="#333F4F"/>
<path d="M85.7213 82.6422H83.6052V95.9111H85.7213V82.6422Z" fill="#333F4F"/>
<path opacity="0.1" d="M85.7213 93.7638H83.6052V95.9129H85.7213V93.7638Z" fill="#333F4F"/>
<path d="M83.1968 108.99H86.1298V94.2676H83.1968V108.99Z" fill="#333F4F"/>
<path d="M64.9082 108.895L84.1092 108.105V111.201H61.8259C62.0484 110.55 62.4617 109.981 63.0117 109.569C63.5617 109.158 64.2228 108.923 64.9082 108.895Z" fill="#333F4F"/>
<path d="M103.312 108.895L84.1091 108.105V111.201H106.394C106.172 110.55 105.758 109.981 105.208 109.569C104.658 109.158 103.997 108.923 103.312 108.895Z" fill="#333F4F"/>
<path d="M86.1316 108.422L101.46 116.007C102.109 116.329 102.655 116.827 103.037 117.445C103.419 118.062 103.62 118.775 103.62 119.502V119.731L85.7159 111.896L83.1968 111.716L68.309 121.257C68.2143 120.552 68.3137 119.835 68.5963 119.182C68.8789 118.53 69.334 117.968 69.9122 117.556L83.1968 108.115L86.1316 108.422Z" fill="#333F4F"/>
<path opacity="0.1" d="M83.6071 82.6422V84.0726C83.9753 84.087 84.3526 84.0943 84.7389 84.0943C85.0717 84.0943 85.3992 84.0943 85.7213 84.078V82.6422H83.6071Z" fill="#333F4F"/>
<path d="M84.7389 83.5904C89.0508 83.5904 92.5463 82.5643 92.5463 81.2985C92.5463 80.0328 89.0508 79.0067 84.7389 79.0067C80.427 79.0067 76.9315 80.0328 76.9315 81.2985C76.9315 82.5643 80.427 83.5904 84.7389 83.5904Z" fill="#333F4F"/>
<path d="M76.9999 81.2967C77.0072 81.4242 77.0405 81.5488 77.0977 81.6628C77.155 81.7768 77.235 81.8778 77.3328 81.9595C77.4101 82.0345 77.4931 82.1033 77.5811 82.1654C78.7435 82.9998 81.5397 83.5886 84.8055 83.5886C88.0713 83.5886 90.8909 82.9944 92.0479 82.1528C92.1056 82.1128 92.1609 82.0694 92.2134 82.0228C92.3285 81.9387 92.4239 81.8305 92.4932 81.7058C92.5625 81.5811 92.6039 81.4427 92.6147 81.3003C92.6147 80.0361 89.1204 79.0085 84.8055 79.0085C80.4906 79.0085 76.9999 80.0307 76.9999 81.2967Z" fill="#333F4F"/>
<path opacity="0.1" d="M76.9999 81.2967C77.0072 81.4242 77.0405 81.5488 77.0977 81.6628C77.155 81.7768 77.235 81.8778 77.3328 81.9595C77.4101 82.0345 77.4931 82.1033 77.5811 82.1654C78.7435 82.9998 81.5397 83.5886 84.8055 83.5886C88.0713 83.5886 90.8909 82.9944 92.0479 82.1528C92.1056 82.1128 92.1609 82.0694 92.2134 82.0228C92.3285 81.9387 92.4239 81.8305 92.4932 81.7058C92.5625 81.5811 92.6039 81.4427 92.6147 81.3003C92.6147 80.0361 89.1204 79.0085 84.8055 79.0085C80.4906 79.0085 76.9999 80.0307 76.9999 81.2967Z" fill="#333F4F"/>
<path opacity="0.1" d="M76.9332 81.2967C76.9404 81.4242 76.9737 81.5489 77.0309 81.6629C77.0882 81.7769 77.1683 81.8779 77.2661 81.9595C78.2611 81.7121 78.9485 81.5044 78.9485 81.5044C78.9485 81.5044 85.8292 81.8909 92.1468 82.0228C92.2619 81.9388 92.3574 81.8306 92.4267 81.7059C92.496 81.5811 92.5374 81.4428 92.548 81.3003C92.548 80.0361 89.0537 79.0085 84.7388 79.0085C80.424 79.0085 76.9332 80.0307 76.9332 81.2967Z" fill="#333F4F"/>
<path opacity="0.1" d="M71.5352 76.5613C72.3814 77.7825 73.5097 78.7798 74.8235 79.468C76.1374 80.1561 77.5978 80.5147 79.0799 80.5129H91.3371C92.7493 80.514 94.138 80.1512 95.3705 79.4593C96.603 78.7674 97.6379 77.7696 98.3762 76.5613H71.5352Z" fill="#333F4F"/>
<path opacity="0.1" d="M76.9999 81.2967C77.0072 81.4242 77.0405 81.5488 77.0977 81.6628C77.155 81.7768 77.235 81.8778 77.3328 81.9595C77.4101 82.0345 77.4931 82.1033 77.5811 82.1654C82.399 82.4592 87.2305 82.455 92.0479 82.1528C92.1056 82.1128 92.1609 82.0694 92.2134 82.0227C92.3285 81.9387 92.4239 81.8305 92.4932 81.7058C92.5625 81.5811 92.6039 81.4427 92.6147 81.3003C92.6147 80.0361 89.1204 79.0085 84.8055 79.0085C80.4906 79.0085 76.9999 80.0307 76.9999 81.2967Z" fill="#333F4F"/>
<path d="M69.9824 81.0872C79.8265 82.3352 89.788 82.3352 99.6322 81.0872C99.9054 81.0884 100.176 81.0354 100.429 80.9313C100.682 80.8272 100.911 80.674 101.105 80.4805C101.299 80.287 101.452 80.0571 101.557 79.8038C101.662 79.5506 101.716 79.2791 101.716 79.0049C101.716 78.4526 101.497 77.9229 101.108 77.5324C100.719 77.1419 100.191 76.9225 99.6412 76.9225H69.9824C69.4321 76.9225 68.9044 77.1419 68.5154 77.5324C68.1263 77.9229 67.9077 78.4526 67.9077 79.0049C67.9077 79.5571 68.1263 80.0868 68.5154 80.4773C68.9044 80.8678 69.4321 81.0872 69.9824 81.0872Z" fill="#333F4F"/>
<path d="M97.3092 103.767C97.3092 103.767 99.3551 105.87 100.751 106.07C102.148 106.271 103.296 110.777 101.351 111.127C99.4055 111.477 95.6628 110.076 95.114 109.474C94.5652 108.873 92.5697 105.321 92.5697 105.321L97.3092 103.767Z" fill="white"/>
<path d="M86.0345 81.3347C86.0345 81.3347 91.0241 90.8976 91.1231 92.1998C91.222 93.5019 95.4631 99.0193 95.4631 99.0193L90.1748 105.72C90.1748 105.72 89.4766 104.017 88.2801 103.415C87.0835 102.814 87.3318 101.463 87.3318 101.463C87.3318 101.463 86.0849 101.463 85.187 99.9603C84.2891 98.4577 83.1915 96.9569 83.1915 96.3103C83.1915 95.6637 76.6058 88.8496 76.6058 88.8496L77.1042 81.5893L78.452 79.2866L86.0345 81.3347Z" fill="#1F2421"/>
<path opacity="0.1" d="M99.006 81.8855L99.0492 81.9234C99.6537 82.4652 106.439 88.501 106.439 88.6437C106.439 88.7863 108.883 92.8499 105.84 96.3554C102.797 99.8609 95.8121 105.619 95.8121 105.619C95.8121 105.619 92.7694 107.822 92.3699 108.273C91.9705 108.725 85.9354 108.273 89.527 104.167C93.1185 100.06 96.5103 95.4542 96.5103 95.4542C96.5103 95.4542 90.5238 94.0094 90.1261 93.0016C89.7285 91.9938 98.0073 79.4817 98.0073 79.4817L99.006 81.8855Z" fill="black"/>
<path d="M99.2058 81.8855L99.249 81.9234C99.8535 82.4652 106.639 88.501 106.639 88.6437C106.639 88.7863 109.082 92.8499 106.04 96.3554C102.997 99.8609 96.0119 105.619 96.0119 105.619C96.0119 105.619 92.9692 107.822 92.5697 108.273C92.1703 108.725 86.1335 108.273 89.7268 104.167C93.3201 100.06 96.7101 95.4542 96.7101 95.4542C96.7101 95.4542 90.7236 94.0094 90.3242 93.0016C89.9247 91.9938 82.0471 79.7309 82.0471 79.7309L98.2107 79.4817L99.2058 81.8855Z" fill="#1F2421"/>
<path d="M81.9445 54.9521L82.5418 60.41C82.5418 60.41 88.6777 62.8644 88.8288 62.8138C88.9799 62.7632 92.9187 59.2017 92.271 56.8539C91.9453 55.6746 91.7959 54.0383 91.7312 52.7C91.6664 51.3617 91.6754 50.3431 91.6754 50.3431C91.6754 50.3431 82.7452 47.1374 83.5441 49.3408C83.8338 50.1409 83.7024 51.0999 83.4181 51.9957C83.061 53.0429 82.5653 54.0373 81.9445 54.9521Z" fill="#FBBEBE"/>
<path opacity="0.1" d="M83.4146 51.9921C83.4685 52.0553 83.5243 52.1149 83.5801 52.1727C84.6201 53.2788 86.0395 53.9477 87.5517 54.0443C89.064 54.1408 90.5564 53.6578 91.7276 52.6928C91.6592 51.3672 91.6718 50.3359 91.6718 50.3359C91.6718 50.3359 82.7416 47.1302 83.5405 49.3336C83.8302 50.1373 83.6988 51.0963 83.4146 51.9921Z" fill="black"/>
<path d="M81.9445 47.8508C81.9448 49.0387 82.2961 50.1998 82.9538 51.1874C83.6115 52.1749 84.5462 52.9446 85.6397 53.399C86.7332 53.8534 87.9364 53.9722 89.0971 53.7404C90.2579 53.5085 91.3241 52.9365 92.1609 52.0965C92.9978 51.2566 93.5677 50.1864 93.7987 49.0214C94.0297 47.8563 93.9113 46.6487 93.4586 45.5511C93.0058 44.4536 92.239 43.5154 91.2551 42.8553C90.2712 42.1951 89.1144 41.8425 87.9309 41.8422C87.1434 41.8371 86.3626 41.9891 85.6341 42.2893C84.9055 42.5895 84.2436 43.0319 83.6867 43.5908C83.1298 44.1498 82.689 44.8142 82.3899 45.5455C82.0909 46.2767 81.9394 47.0604 81.9445 47.8508Z" fill="#FBBEBE"/>
<path opacity="0.1" d="M89.3273 60.6122C89.3273 60.6122 91.6665 55.3964 92.4708 55.3964C93.2751 55.3964 94.5184 82.3768 94.5184 82.3768L82.2972 82.5682L81.797 68.4035L84.2891 55.8552C84.2891 55.8552 86.5329 60.8055 89.3273 60.6122Z" fill="black"/>
<path opacity="0.1" d="M89.3273 61.0132C89.3273 61.0132 91.6664 55.7974 92.4707 55.7974C93.275 55.7974 94.5184 82.7759 94.5184 82.7759L80.6508 82.9872L81.7969 68.8044L84.2926 56.2471C84.2926 56.2471 86.5329 61.2064 89.3273 61.0132Z" fill="black"/>
<path d="M89.3273 60.8127C89.3273 60.8127 91.6664 55.5969 92.4707 55.5969C93.275 55.5969 94.5184 82.5844 94.5184 82.5844L80.6508 82.7957L81.7969 68.613L84.2926 56.0556C84.2926 56.0556 86.5329 61.006 89.3273 60.8127Z" fill="#84BD00"/>
<path opacity="0.1" d="M91.6017 53.9588C91.6017 53.9588 92.0209 53.343 92.6201 53.5434C93.2193 53.7439 93.6673 53.1931 94.2665 53.7439C94.8657 54.2947 97.2589 55.046 97.7087 54.795C98.1585 54.544 99.7528 55.6475 100.104 56.2976C100.455 56.9478 101.599 58.7015 101.599 58.7015C101.599 58.7015 102.598 59.9025 102.448 60.5544C102.299 61.2064 102.797 61.9559 103.395 62.2557C103.992 62.5555 105.194 65.5608 105.194 65.5608C105.194 65.5608 104.868 69.581 106.214 70.2799C107.56 70.9789 106.563 74.0365 106.563 74.0365L100.201 72.5212L98.4015 68.4143C98.4015 68.4143 99.0996 80.4334 99.9471 81.5333C100.795 82.6332 100.895 83.3393 100.895 83.3393C100.895 83.3393 97.6025 84.0401 96.9044 84.6397C96.2062 85.2393 94.3601 84.4898 94.3601 84.4898L92.5607 68.5172C92.5607 68.5172 91.913 65.512 91.913 63.9606C91.913 62.4092 91.6017 53.9588 91.6017 53.9588Z" fill="black"/>
<path d="M91.8013 53.9588C91.8013 53.9588 92.2205 53.343 92.8197 53.5434C93.4189 53.7439 93.8669 53.1931 94.4661 53.7439C95.0653 54.2947 97.4584 55.046 97.9083 54.795C98.3581 54.544 99.9523 55.6475 100.301 56.2976C100.65 56.9478 101.798 58.7015 101.798 58.7015C101.798 58.7015 102.797 59.9025 102.648 60.5544C102.498 61.2064 102.997 61.9559 103.594 62.2557C104.192 62.5555 105.394 65.5608 105.394 65.5608C105.394 65.5608 105.072 69.5792 106.419 70.2799C106.756 70.4605 106.946 70.8452 107.042 71.3328C107.429 73.2942 105.825 75.0894 103.834 75.028L100.415 73.6048L98.6154 68.4143C98.6154 68.4143 99.3136 80.4334 100.161 81.5333C101.009 82.6332 101.109 83.3393 101.109 83.3393C101.109 83.3393 97.8165 84.0401 97.1184 84.6397C96.4202 85.2393 94.5741 84.4898 94.5741 84.4898L92.7747 68.5172C92.7747 68.5172 92.127 65.512 92.127 63.9606C92.127 62.4092 91.8013 53.9588 91.8013 53.9588Z" fill="#1F2421"/>
<path opacity="0.1" d="M102.795 62.6567C102.795 62.6567 102.196 64.3092 100.55 64.1593C98.9035 64.0094 102.795 62.6567 102.795 62.6567Z" fill="black"/>
<path opacity="0.1" d="M101.201 60.1535C101.201 60.1535 100.104 60.354 99.7042 61.3039C99.3047 62.2539 101.201 60.1535 101.201 60.1535Z" fill="black"/>
<path opacity="0.1" d="M98.1171 58.4504C98.1171 58.6509 97.4172 62.1564 98.1171 63.6085C98.8171 65.0605 98.7145 66.7636 98.7145 66.7636L98.1171 58.4504Z" fill="black"/>
<path opacity="0.1" d="M83.3822 52.7524C83.3822 52.7524 82.9917 52.2918 82.5923 52.3424C82.1928 52.393 81.9445 52.6422 81.4443 52.8427C80.9441 53.0432 79.7493 53.0937 79.7493 53.2436C79.7493 53.3935 78.7003 53.9949 78.0021 54.1466C77.304 54.2983 75.1087 55.7992 74.5599 58.7033C74.0111 61.6074 73.0629 62.458 73.0629 62.458L78.3512 65.0659C78.3512 65.0659 74.2612 82.4905 73.7628 83.7421C73.2644 84.9937 73.223 92.411 73.223 92.411C73.223 92.411 76.4619 93.8559 77.3129 94.3128C78.164 94.7697 77.8114 90.0072 79.5585 87.253C81.3057 84.4988 83.2994 80.493 83.2994 80.493L86.3331 71.9288C86.3331 71.9288 88.28 60.5129 86.6336 58.4089C84.9872 56.3048 83.2328 53.5073 83.3822 52.7524Z" fill="black"/>
<path d="M83.1825 52.7524C83.1825 52.7524 82.792 52.2918 82.3926 52.3424C81.9931 52.393 81.7448 52.6422 81.2446 52.8427C80.7443 53.0432 79.5496 53.0937 79.5496 53.2436C79.5496 53.3935 78.5023 53.9949 77.8024 54.1466C77.1024 54.2983 74.9054 55.7974 74.3656 58.7015C73.8258 61.6056 72.8704 62.4562 72.8704 62.4562L78.1443 65.0659C78.1443 65.0659 74.0543 82.4905 73.5559 83.7421C73.0575 84.9937 73.0161 92.411 73.0161 92.411C73.0161 92.411 76.2549 93.8559 77.106 94.3128C77.9571 94.7697 77.6045 89.9892 79.3498 87.2422C81.0952 84.4952 83.0907 80.4822 83.0907 80.4822L86.1334 71.9288C86.1334 71.9288 88.0803 60.5129 86.4339 58.4089C84.7875 56.3049 83.0331 53.5073 83.1825 52.7524Z" fill="#1F2421"/>
<path opacity="0.1" d="M72.3647 74.674C72.5122 74.6975 72.7012 74.721 72.9189 74.7408C74.5167 74.8871 77.653 74.9214 77.653 74.9214C77.653 74.9214 79.9922 70.2637 81.9931 70.4064C81.9931 70.4064 80.1469 68.3041 79.4002 68.5552C79.2742 68.5967 79.1951 68.5046 79.1573 68.324C78.9575 67.421 79.6485 64.3507 79.6485 64.3507L80.5968 60.1969L75.1087 61.5478C74.6103 61.6489 73.0629 62.4508 73.0629 62.4508C73.0629 62.4508 73.0143 64.6036 72.6148 65.1056C72.2154 65.6077 71.7673 68.0097 71.8159 68.6094C71.8645 69.209 71.2671 72.0155 71.8663 72.7632C72.4655 73.5109 71.1267 74.4735 72.3647 74.674Z" fill="black"/>
<path d="M92.8684 107.472C92.8684 107.472 93.1689 109.124 92.8199 110.181C92.4708 111.237 92.5194 113.536 92.7695 114.334C93.0196 115.133 93.8671 116.236 91.5729 116.737C89.2787 117.237 87.7313 116.787 87.6305 116.386C87.5297 115.985 87.0331 114.383 87.4308 113.482C87.8284 112.581 87.9706 110.231 87.231 108.875C86.4915 107.519 86.9827 105.42 87.6809 105.171C88.379 104.921 89.5774 104.369 89.5774 104.369C89.5774 104.369 88.2801 106.717 89.4766 107.224C90.6732 107.732 92.8684 107.472 92.8684 107.472Z" fill="white"/>
<path opacity="0.1" d="M81.9445 47.8508C81.9412 49.3857 82.527 50.8629 83.5801 51.9758C83.5857 51.9666 83.5905 51.9569 83.5945 51.9469C83.7745 51.5658 83.9418 51.1703 83.9274 50.7531C83.9112 50.2492 83.6215 49.7941 83.528 49.2957C83.411 48.6672 83.6161 48.0314 83.8177 47.421C83.9652 46.9767 84.2513 46.4367 84.7173 46.4909C84.8072 46.514 84.8998 46.525 84.9926 46.5234C85.2391 46.4855 85.2895 46.1622 85.3183 45.913C85.3931 45.3275 85.6521 44.7812 86.0576 44.3538C86.4631 43.9263 86.994 43.6399 87.5729 43.5362C87.7041 43.507 87.841 43.5164 87.967 43.5633C88.1469 43.641 88.2351 43.8288 88.3916 43.9372C88.8972 44.2893 89.5414 43.6157 90.1568 43.6681C90.6804 43.7114 90.9989 44.2478 91.2148 44.7282C91.4307 45.2086 91.6988 45.7558 92.2117 45.8678C92.2519 45.8798 92.2941 45.8835 92.3358 45.8789C92.3775 45.8742 92.4179 45.8612 92.4546 45.8407C92.6129 45.7233 92.5031 45.4795 92.4222 45.2989C92.2117 44.8221 92.352 44.4447 92.6021 44.1051C91.8279 43.1321 90.7716 42.4245 89.5793 42.0804C88.3869 41.7364 87.1175 41.7727 85.9466 42.1845C84.7758 42.5962 83.7614 43.3631 83.0437 44.3789C82.3261 45.3946 81.9407 46.6092 81.9409 47.8544L81.9445 47.8508Z" fill="black"/>
<path d="M92.4185 45.0948C92.4994 45.2754 92.611 45.5246 92.4491 45.6366C92.4129 45.6576 92.3728 45.6708 92.3313 45.6755C92.2898 45.6802 92.2478 45.6762 92.2079 45.6637C91.6951 45.5535 91.4252 45.0045 91.2093 44.5241C90.9934 44.0437 90.6695 43.5073 90.1531 43.464C89.5377 43.4116 88.8935 44.0852 88.3861 43.7331C88.2314 43.6247 88.136 43.4369 87.9633 43.3592C87.8371 43.3129 87.7002 43.3041 87.5692 43.3339C86.9902 43.4371 86.4591 43.7231 86.0533 44.1503C85.6474 44.5774 85.388 45.1235 85.3128 45.7089C85.2876 45.9563 85.2354 46.2814 84.9889 46.3193C84.8961 46.321 84.8035 46.31 84.7136 46.2868C84.2494 46.2326 83.9651 46.7708 83.814 47.2151C83.6124 47.8237 83.4073 48.4631 83.5243 49.0916C83.6178 49.59 83.9075 50.0451 83.9237 50.5508C83.9363 50.9662 83.7618 51.3635 83.5908 51.7428C83.4199 52.1221 83.1374 52.5664 82.7271 52.5122C82.3889 52.4688 82.2035 52.1094 82.0416 51.8078C81.8796 51.5062 81.5882 51.1847 81.2607 51.2787C81.1131 51.322 80.962 51.4466 80.8288 51.3708C80.794 51.345 80.7648 51.3123 80.7432 51.2747C80.7215 51.2371 80.7078 51.1954 80.7029 51.1522C80.5427 50.4533 80.773 49.6659 80.433 49.0338C80.1721 48.5479 79.6431 48.2843 79.213 47.9393C78.8468 47.6456 78.5431 47.2808 78.3202 46.8669C78.0973 46.4529 77.9597 45.9981 77.9156 45.5297C77.8714 45.0612 77.9216 44.5886 78.0632 44.14C78.2048 43.6914 78.4349 43.276 78.7398 42.9185C79.2004 42.3767 79.8626 41.8999 79.9004 41.1902C79.9274 40.6484 79.5639 40.1517 79.5603 39.6099C79.5567 39.0681 79.8932 38.613 80.28 38.2536C80.8352 37.7435 81.5055 37.3765 82.2333 37.184C82.9611 36.9914 83.7246 36.9792 84.4581 37.1483C84.845 37.2422 85.2336 37.3867 85.6277 37.3379C86.0865 37.2801 86.468 36.9767 86.8873 36.7636C87.5734 36.4404 88.3516 36.3719 89.0833 36.5703C89.815 36.7687 90.4529 37.2212 90.8836 37.8472C91.355 38.5859 91.5404 39.5485 92.2457 40.0668C92.7082 40.4064 93.3739 40.5346 93.6294 41.0493C93.7824 41.3599 93.7392 41.7266 93.6924 42.0679C93.62 42.6294 93.3508 43.1467 92.9331 43.5272C92.4994 43.9751 92.1306 44.4428 92.4185 45.0948Z" fill="black"/>
<g opacity="0.1">
<path opacity="0.1" d="M79.6862 40.2258C79.6397 40.0898 79.6042 39.9503 79.5801 39.8086C79.6268 39.9445 79.6623 40.084 79.6862 40.2258Z" fill="black"/>
<path opacity="0.1" d="M92.3178 44.6578C92.2926 44.5659 92.2595 44.4765 92.2188 44.3905C91.9309 43.7367 92.2998 43.2707 92.7298 42.8337C93.1465 42.4526 93.4149 41.9355 93.4873 41.3744C93.5116 41.2214 93.526 41.0669 93.5305 40.912C93.5658 40.9574 93.5971 41.0057 93.6241 41.0565C93.777 41.3672 93.7339 41.7338 93.6871 42.0751C93.6146 42.6366 93.3455 43.1539 92.9277 43.5344C92.6003 43.8721 92.3088 44.2225 92.3178 44.6578Z" fill="black"/>
<path opacity="0.1" d="M81.0645 50.5815C81.392 50.4858 81.6835 50.8109 81.8455 51.1107C82.0074 51.4105 82.1928 51.7717 82.531 51.8151C82.9413 51.8674 83.2238 51.4231 83.3947 51.0457C83.5657 50.6682 83.742 50.2691 83.7276 49.8537C83.7255 49.8035 83.7207 49.7535 83.7132 49.7038C83.8302 49.9738 83.9025 50.2611 83.9274 50.5544C83.9399 50.9698 83.7654 51.3672 83.5945 51.7464C83.4235 52.1257 83.141 52.57 82.7308 52.5158C82.3925 52.4725 82.2072 52.113 82.0452 51.8114C81.8833 51.5098 81.5918 51.1884 81.2643 51.2823C81.1167 51.3256 80.9656 51.4502 80.8324 51.3744C80.7976 51.3486 80.7684 51.3159 80.7468 51.2783C80.7251 51.2407 80.7114 51.199 80.7065 51.1559C80.673 50.999 80.6531 50.8394 80.6471 50.6791C80.7766 50.7369 80.9242 50.6177 81.0645 50.5815Z" fill="black"/>
<path opacity="0.1" d="M79.0169 47.2422C79.447 47.5871 79.9778 47.8508 80.2387 48.3366C80.3439 48.5478 80.4051 48.7782 80.4186 49.0139C80.1541 48.5443 79.6359 48.2825 79.213 47.9429C78.5491 47.4059 78.1016 46.6456 77.9535 45.8028C78.1781 46.3668 78.5445 46.8627 79.0169 47.2422Z" fill="black"/>
<path opacity="0.1" d="M83.5171 49.0121C83.4374 48.8118 83.3742 48.6052 83.3282 48.3944C83.2112 47.7659 83.4164 47.1302 83.6179 46.518C83.7654 46.0737 84.0515 45.5355 84.5176 45.5897C84.6075 45.6128 84.7001 45.6238 84.7929 45.6222C85.0394 45.5842 85.0916 45.261 85.1168 45.0099C85.1929 44.4251 85.4526 43.8797 85.8583 43.453C86.2641 43.0263 86.7946 42.7404 87.3732 42.6368C87.5041 42.606 87.6412 42.6148 87.7672 42.6621C87.9471 42.7397 88.0353 42.9276 88.1901 43.0359C88.6975 43.3971 89.3417 42.7145 89.957 42.7668C90.4788 42.8102 90.7991 43.3466 91.0151 43.827C91.231 44.3074 91.5009 44.8546 92.0119 44.9666C92.0518 44.979 92.0938 44.983 92.1353 44.9784C92.1768 44.9737 92.2169 44.9605 92.253 44.9395C92.2766 44.9221 92.296 44.8996 92.3097 44.8736C92.3234 44.8477 92.3311 44.8189 92.3322 44.7896C92.3483 44.8949 92.3786 44.9976 92.4221 45.0948C92.5031 45.2754 92.6147 45.5246 92.4527 45.6366C92.4166 45.6576 92.3765 45.6709 92.335 45.6755C92.2935 45.6802 92.2515 45.6762 92.2116 45.6637C91.6988 45.5535 91.4289 45.0045 91.213 44.5241C90.9971 44.0437 90.6732 43.5073 90.1568 43.464C89.5414 43.4116 88.8972 44.0852 88.3898 43.7331C88.235 43.6247 88.1397 43.4369 87.9669 43.3592C87.8408 43.3129 87.7039 43.3041 87.5729 43.3339C86.9939 43.4371 86.4628 43.7231 86.057 44.1503C85.6511 44.5774 85.3917 45.1235 85.3165 45.7089C85.2913 45.9563 85.2391 46.2814 84.9926 46.3193C84.8998 46.321 84.8072 46.31 84.7173 46.2868C84.2531 46.2326 83.9688 46.7708 83.8176 47.2151C83.6251 47.8003 83.4326 48.4107 83.5171 49.0121Z" fill="black"/>
</g>
<path opacity="0.1" d="M72.9261 74.7408C74.524 74.8871 77.6603 74.9214 77.6603 74.9214C77.6603 74.9214 79.9994 70.2637 82.0003 70.4064C82.0003 70.4064 80.1542 68.3041 79.4074 68.5552C79.2815 68.5967 79.2023 68.5046 79.1645 68.324C77.2104 68.9236 73.4858 70.3883 73.1205 72.9601C73.0161 73.6608 72.9531 74.246 72.9261 74.7408Z" fill="black"/>
<path d="M72.7191 74.7408C74.3169 74.8871 77.4532 74.9214 77.4532 74.9214C77.4532 74.9214 79.7924 70.2637 81.7933 70.4064C81.7933 70.4064 79.9489 68.3041 79.2004 68.5552C79.0744 68.5967 78.9971 68.5046 78.9575 68.324C77.0034 68.9236 73.2787 70.3883 72.9134 72.9601C72.8163 73.6608 72.7551 74.246 72.7191 74.7408Z" fill="#84BD00"/>
<path opacity="0.1" d="M86.7326 88.1434C86.7326 88.1434 82.2342 87.0417 81.5451 87.6431C80.8559 88.2445 86.7326 88.1434 86.7326 88.1434Z" fill="black"/>
<path opacity="0.1" d="M99.6034 92.4508C99.6034 92.4508 97.7086 93.5525 97.5089 94.4537C97.3092 95.3549 99.6034 92.4508 99.6034 92.4508Z" fill="black"/>
<path opacity="0.1" d="M92.0208 112.745C92.0208 112.745 89.4262 112.344 88.7622 112.778C88.0983 113.211 92.0208 112.745 92.0208 112.745Z" fill="black"/>
<path d="M66.1012 147.699C66.1012 147.699 76.156 147.157 78.6067 145.712C81.0574 144.268 84.5266 144.268 84.5446 144.268L124.58 135.501L141.224 131.528L144.193 131.136L134.387 119.874L134.088 119.744L119.632 113.468C119.632 113.468 113.154 113.829 111.875 118.066C111.787 118.364 111.727 118.67 111.695 118.98C111.561 120.3 111.926 121.624 112.717 122.687C113.228 123.39 113.856 124.383 114.054 125.261C114.166 125.756 114.14 126.213 113.874 126.561C113.334 127.099 112.738 127.577 112.096 127.986C108.571 130.334 99.661 134.203 84.0948 128.277C84.0948 128.277 77.4371 121.685 72.3989 124.484C67.3607 127.284 66.1012 147.699 66.1012 147.699Z" fill="#E1DEE5"/>
<path opacity="0.1" d="M114.047 125.268C114.158 125.763 114.133 126.22 113.867 126.569C113.327 127.106 112.731 127.584 112.089 127.994L142.394 130.264L134.088 119.744L119.632 113.468C119.632 113.468 113.154 113.829 111.875 118.066C111.787 118.364 111.727 118.67 111.695 118.98C111.561 120.3 111.925 121.624 112.717 122.687C113.221 123.401 113.849 124.39 114.047 125.268Z" fill="black"/>
<path d="M143.653 83.8559L118.822 84.3977V114.232L142.394 130.271L148.062 125.033L146.892 107.696L148.062 91.5315L143.653 83.8559Z" fill="#65617D"/>
<path d="M157.778 78.9724L128.787 70.0126C128.264 69.8507 127.714 69.7894 127.168 69.832L57.9105 74.907C51.9867 75.3141 46.2851 77.3326 41.4177 80.7459C36.9355 83.9191 32.4964 88.79 30.4416 96.164C28.9601 101.607 29.0681 107.362 30.7529 112.745L36.8617 132.612C36.8617 132.612 32.2733 89.4474 78.0669 87.2801L157.778 78.9724Z" fill="#D9D6DF"/>
<path opacity="0.1" d="M112.71 122.695C113.221 123.397 113.849 124.39 114.047 125.268C114.831 124.356 115 123.327 113.867 122.505C112.447 121.468 111.974 119.67 111.868 118.073C111.78 118.371 111.72 118.677 111.688 118.987C111.554 120.308 111.918 121.631 112.71 122.695Z" fill="white"/>
<path d="M40.0105 127.555L43.4293 139.204L51.1665 146.789L60.883 148.776L75.9976 146.066V92.1564C75.9976 92.1564 73.3886 90.4407 73.1187 90.4407C72.8488 90.4407 65.5614 91.6146 65.5614 91.6146L49.0613 103.493L48.3775 103.986L41.0001 115.003L40.0105 127.555Z" fill="white"/>
<path d="M75.9976 89.9061V146.074L74.5402 146.336V89.9061H75.9976Z" fill="#65617D"/>
<path opacity="0.5" d="M143.653 83.8559L118.822 84.3977V114.232L142.394 130.271L148.062 125.033L146.892 107.696L148.062 91.5315L143.653 83.8559Z" fill="white"/>
<path opacity="0.5" d="M75.9976 89.9061V146.074L74.5402 146.336V89.9061H75.9976Z" fill="white"/>
<path opacity="0.1" d="M48.7374 107.244C59.5336 98.3403 71.5353 97.0309 75.9977 96.8683V92.1564C75.9977 92.1564 73.3886 90.4407 73.1187 90.4407C72.8488 90.4407 65.5614 91.6146 65.5614 91.6146L49.0613 103.493L48.7374 107.244Z" fill="black"/>
<path d="M168.754 102.451C168.754 102.451 167.641 105.405 166.446 108.846C165.388 111.904 164.265 115.348 163.806 117.441C163.626 118.241 163.175 119.066 162.536 119.874C159.623 123.585 152.909 127.181 151.751 128.458C150.338 130.014 142.394 131.136 142.394 131.136V83.2238L147.702 81.508H154.45L163.176 85.4813L167.675 92.1636L168.754 102.451Z" fill="white"/>
<path d="M76.165 74.4248C76.514 74.851 87.1158 74.9503 87.6646 74.8257L88.6615 74.6C88.6615 74.6 93.7788 77.365 97.2984 72.8409C97.4495 72.6476 97.5971 72.4418 97.741 72.2214C101.259 66.8394 89.5342 70.7766 89.5342 70.7766C89.5342 70.7766 85.0448 70.8019 83.8968 70.8019H83.778C82.5851 70.7531 80.2063 70.0271 80.2063 70.0271C80.2063 70.0271 75.8177 74.0004 76.165 74.4248Z" fill="#FBBEBE"/>
<path opacity="0.1" d="M91.6395 72.8029C91.6395 72.8029 96.1289 72.8282 97.2769 72.8409H97.3039C97.455 72.6476 97.6026 72.4417 97.7465 72.2214C101.264 66.8394 89.5396 70.7766 89.5396 70.7766C89.5396 70.7766 85.0502 70.8019 83.9023 70.8019H83.7835C83.6701 70.95 83.5586 71.1053 83.4488 71.2696C79.8699 76.6046 91.6395 72.8029 91.6395 72.8029Z" fill="black"/>
<path d="M100.956 73.2978C100.956 73.2978 98.4212 72.4923 97.2732 72.4797C96.1252 72.467 91.6358 72.4436 91.6358 72.4436C91.6358 72.4436 79.8699 76.2362 83.4452 70.8994C87.0205 65.5626 92.5517 68.622 92.5517 68.622L93.5503 68.4071C94.1009 68.2879 104.706 68.5064 105.045 68.9362C105.383 69.3661 100.956 73.2978 100.956 73.2978Z" fill="#FBBEBE"/>
<path d="M106.214 70.28C106.214 70.28 106.142 73.753 103.744 73.9516C98.7055 74.3652 99.9867 72.4111 99.9867 72.4111L100.422 68.5209L102.795 66.3645C102.795 66.3645 103.837 66.8449 103.972 66.7636C104.107 66.6823 106.214 70.28 106.214 70.28Z" fill="#1F2421"/>
<path d="M72.1651 74.674C72.3126 74.6975 72.5015 74.721 72.7192 74.7408C74.3171 74.8871 77.4534 74.9214 77.4534 74.9214C77.4534 74.9214 79.7925 70.2637 81.7934 70.4064C81.7934 70.4064 79.9491 68.3041 79.2005 68.5552C79.0746 68.5967 78.9972 68.5046 78.9576 68.324C78.7597 67.421 79.4488 64.3507 79.4488 64.3507L80.3971 60.1969L74.9055 61.555C74.407 61.6561 72.8614 62.458 72.8614 62.458C72.8614 62.458 72.811 64.6108 72.4116 65.1129C72.0121 65.615 71.5641 68.017 71.6126 68.6166C71.6612 69.2162 71.0638 72.0228 71.663 72.7705C72.2622 73.5181 70.9181 74.4735 72.1651 74.674Z" fill="#1F2421"/>
<path opacity="0.1" d="M77.8023 63.7584C77.8023 63.7584 73.214 64.2586 73.0143 65.4109C72.8145 66.5631 77.8023 63.7584 77.8023 63.7584Z" fill="black"/>
<path opacity="0.1" d="M75.0584 68.2644C74.7597 68.3655 73.0143 68.8152 72.6652 69.8682C72.3162 70.9211 75.0584 68.2644 75.0584 68.2644Z" fill="black"/>
<path opacity="0.1" d="M72.9261 74.9269C74.524 75.0731 77.6603 75.1075 77.6603 75.1075C77.6603 75.1075 79.9994 70.4497 82.0003 70.5924C82.0003 70.5924 80.1542 68.4902 79.4074 68.7412C79.2815 68.7827 79.2023 68.6906 79.1645 68.51C77.2104 69.1096 73.4858 70.5743 73.1205 73.1461C73.0161 73.8468 72.9531 74.432 72.9261 74.9269Z" fill="black"/>
<path opacity="0.1" d="M148.085 20.6791C150.235 20.6791 151.977 18.9301 151.977 16.7726C151.977 14.6152 150.235 12.8662 148.085 12.8662C145.936 12.8662 144.193 14.6152 144.193 16.7726C144.193 18.9301 145.936 20.6791 148.085 20.6791Z" fill="#84BD00"/>
<path opacity="0.1" d="M165.359 29.4167C167.049 29.4167 168.42 28.0412 168.42 26.3446C168.42 24.6479 167.049 23.2725 165.359 23.2725C163.669 23.2725 162.298 24.6479 162.298 26.3446C162.298 28.0412 163.669 29.4167 165.359 29.4167Z" fill="#84BD00"/>
<path opacity="0.1" d="M173.92 12.6242C174.517 12.6242 175 12.139 175 11.5405C175 10.9421 174.517 10.4569 173.92 10.4569C173.324 10.4569 172.841 10.9421 172.841 11.5405C172.841 12.139 173.324 12.6242 173.92 12.6242Z" fill="#84BD00"/>
<path d="M22.339 124.53C22.339 124.53 23.622 126.215 21.7471 128.757C19.8721 131.3 18.3283 133.453 18.9491 135.035C18.9491 135.035 21.7794 130.311 24.0844 130.246C26.3894 130.181 24.8833 127.374 22.339 124.53Z" fill="#84BD00"/>
<path opacity="0.1" d="M22.339 124.53C22.4511 124.692 22.5396 124.869 22.6017 125.057C24.8491 127.708 26.0475 130.182 23.8864 130.246C21.8729 130.303 19.4582 133.915 18.8806 134.828C18.8988 134.898 18.9216 134.968 18.949 135.035C18.949 135.035 21.7794 130.311 24.0844 130.246C26.3893 130.181 24.8833 127.374 22.339 124.53Z" fill="black"/>
<path d="M24.7249 126.677C24.7249 127.269 24.6583 127.75 24.5774 127.75C24.4964 127.75 24.4298 127.269 24.4298 126.677C24.4298 126.085 24.5126 126.363 24.5936 126.363C24.6745 126.363 24.7249 126.083 24.7249 126.677Z" fill="#FFD037"/>
<path d="M25.5437 127.385C25.0255 127.668 24.5739 127.84 24.5343 127.768C24.4947 127.696 24.8833 127.407 25.4034 127.123C25.9234 126.839 25.7165 127.045 25.7632 127.123C25.81 127.201 26.0637 127.101 25.5437 127.385Z" fill="#FFD037"/>
<path d="M15.5572 124.53C15.5572 124.53 14.2743 126.215 16.1492 128.757C18.0241 131.3 19.568 133.453 18.949 135.035C18.949 135.035 16.1168 130.311 13.8136 130.246C11.5105 130.181 13.0219 127.374 15.5572 124.53Z" fill="#84BD00"/>
<path opacity="0.1" d="M15.5572 124.53C15.4451 124.692 15.3566 124.869 15.2945 125.057C13.0471 127.708 11.8488 130.182 14.0098 130.246C16.0233 130.303 18.438 133.915 19.0174 134.828C18.9984 134.898 18.9756 134.967 18.949 135.035C18.949 135.035 16.1168 130.311 13.8136 130.246C11.5105 130.181 13.0219 127.374 15.5572 124.53Z" fill="black"/>
<path d="M13.1713 126.677C13.1713 127.269 13.2378 127.75 13.3188 127.75C13.3998 127.75 13.4664 127.269 13.4664 126.677C13.4664 126.085 13.3836 126.363 13.3026 126.363C13.2216 126.363 13.1713 126.083 13.1713 126.677Z" fill="#FFD037"/>
<path d="M12.3525 127.385C12.8707 127.668 13.3224 127.84 13.362 127.768C13.4016 127.696 13.0129 127.407 12.4929 127.123C11.9729 126.839 12.1798 127.045 12.133 127.123C12.0862 127.201 11.8325 127.101 12.3525 127.385Z" fill="#FFD037"/>
<path opacity="0.1" d="M19.0812 147.927C26.4761 147.401 32.4057 146.051 32.3254 144.912C32.245 143.773 26.1851 143.276 18.7902 143.801C11.3953 144.327 5.46566 145.676 5.54602 146.815C5.62639 147.955 11.6863 148.452 19.0812 147.927Z" fill="#84BD00"/>
<path d="M25.8568 132.765L25.792 133.291L25.702 134.035L25.666 134.344L25.5761 135.088L25.5365 135.398L25.4465 136.141L24.4191 144.593C24.3273 145.348 23.1001 145.935 21.6175 145.935H16.2788C14.7961 145.935 13.5707 145.348 13.479 144.593L12.4497 136.141L12.3598 135.398L12.322 135.088L12.2302 134.344L12.1942 134.035L12.1043 133.291L12.0395 132.765C11.9873 132.337 12.6531 131.978 13.4916 131.978H24.4065C25.2432 131.978 25.9089 132.337 25.8568 132.765Z" fill="#65617D"/>
<path d="M25.7919 133.292L25.702 134.035H12.1924L12.1024 133.292H25.7919Z" fill="#9D9CB5"/>
<path d="M25.6642 134.345L25.5743 135.089H12.322L12.2302 134.345H25.6642Z" fill="#9D9CB5"/>
<path d="M25.5346 135.398L25.4447 136.141H12.4497L12.3597 135.398H25.5346Z" fill="#9D9CB5"/>
<path opacity="0.1" d="M126.158 72.8625L131.074 73.1136L122.972 75.6746L118.822 75.4343L126.158 72.8625Z" fill="black"/>
<path d="M126.156 72.6476L131.072 72.9005L122.968 75.4614L118.819 75.2194L126.156 72.6476Z" fill="white"/>
<path d="M125.577 73.2075C125.77 73.1226 125.978 73.2761 126.185 73.3123C126.304 73.3339 126.426 73.3123 126.545 73.3303C126.786 73.3592 127.027 73.5109 127.265 73.4333L125.577 73.2075Z" fill="#D3DAE1"/>
<path d="M125.325 73.3592C125.518 73.2744 125.726 73.4279 125.933 73.464C126.052 73.4856 126.174 73.464 126.293 73.482C126.534 73.5109 126.775 73.6626 127.004 73.5832L125.325 73.3592Z" fill="#D3DAE1"/>
<path d="M124.748 73.6626C124.94 73.5777 125.149 73.7313 125.358 73.7674C125.474 73.789 125.597 73.7674 125.717 73.7854C125.959 73.8143 126.2 73.966 126.437 73.8866L124.748 73.6626Z" fill="#D3DAE1"/>
<path d="M137.178 71.8963C137.178 71.8963 136.562 74.7715 139.299 75.1111L139.468 74.7932C139.468 74.7932 137.343 72.7903 137.178 71.8963Z" fill="#84BD00"/>
<path d="M140.339 74.7715L139.702 74.907L139.639 74.9196C139.639 74.9196 137.941 73.5362 137.962 70.4479C138.189 70.9032 138.461 71.3346 138.774 71.7356C139.447 72.6296 140.211 73.8234 140.339 74.7715Z" fill="#84BD00"/>
<path d="M140.553 75.0677C140.503 75.1001 140.446 75.1208 140.387 75.1283C140.328 75.1358 140.268 75.1299 140.211 75.1111C138.577 74.7282 139.132 69.3841 139.132 69.3841C139.222 69.4275 139.32 70.1066 139.697 70.9843C140.353 72.5266 141.078 74.6794 140.553 75.0677Z" fill="#84BD00"/>
<path d="M144.181 71.8963C144.181 71.8963 144.287 74.7715 141.55 75.1111L141.381 74.7932C141.381 74.7932 144.001 72.7903 144.181 71.8963Z" fill="#84BD00"/>
<path d="M143.393 70.4479C143.414 73.5362 141.208 74.9196 141.208 74.9196L141.143 74.907L140.508 74.7715C140.634 73.8234 141.408 72.6296 142.072 71.7356C142.453 71.2492 142.897 70.8162 143.393 70.4479Z" fill="#84BD00"/>
<path d="M141.134 74.7878C141.037 74.9068 140.914 75.0025 140.774 75.0677C140.731 75.0868 140.686 75.1013 140.64 75.1111C140.238 75.2068 140.1 74.9142 140.121 74.4212C140.159 73.5398 140.71 72.0137 141.201 70.8723C141.437 70.3107 141.786 69.8041 142.227 69.3841C142.227 69.3841 142.201 73.5543 141.134 74.7878Z" fill="#84BD00"/>
<path d="M140.677 67.5095C140.677 67.5095 138.853 74.0112 140.424 74.9847C141.994 75.9581 141.08 68.0856 140.677 67.5095Z" fill="#84BD00"/>
<path opacity="0.1" d="M137.178 71.8963C137.178 71.8963 136.562 74.7715 139.299 75.1111L139.468 74.7932C139.468 74.7932 137.343 72.7903 137.178 71.8963Z" fill="black"/>
<path opacity="0.1" d="M140.339 74.7715L139.702 74.907L139.639 74.9196C139.639 74.9196 137.941 73.5362 137.962 70.4479C138.189 70.9032 138.461 71.3346 138.774 71.7356C139.447 72.6296 140.211 73.8234 140.339 74.7715Z" fill="black"/>
<path opacity="0.1" d="M140.553 75.0677C140.503 75.1001 140.446 75.1208 140.387 75.1283C140.328 75.1358 140.268 75.1299 140.211 75.1111C138.577 74.7282 139.132 69.3841 139.132 69.3841C139.222 69.4275 139.32 70.1066 139.697 70.9843C140.353 72.5266 141.078 74.6794 140.553 75.0677Z" fill="black"/>
<path opacity="0.1" d="M144.181 71.8963C144.181 71.8963 144.287 74.7715 141.55 75.1111L141.381 74.7932C141.381 74.7932 144.001 72.7903 144.181 71.8963Z" fill="black"/>
<path opacity="0.1" d="M143.393 70.4479C143.414 73.5362 141.208 74.9196 141.208 74.9196L141.143 74.907L140.508 74.7715C140.634 73.8234 141.408 72.6296 142.072 71.7356C142.453 71.2492 142.897 70.8162 143.393 70.4479Z" fill="black"/>
<path opacity="0.1" d="M141.134 74.7878C141.037 74.9068 140.914 75.0025 140.774 75.0677C140.731 75.0868 140.686 75.1013 140.64 75.1111C140.238 75.2068 140.1 74.9142 140.121 74.4212C140.159 73.5398 140.71 72.0137 141.201 70.8723C141.437 70.3107 141.786 69.8041 142.227 69.3841C142.227 69.3841 142.201 73.5543 141.134 74.7878Z" fill="black"/>
<path opacity="0.1" d="M140.677 67.5095C140.677 67.5095 138.853 74.0112 140.424 74.9847C141.994 75.9581 141.08 68.0856 140.677 67.5095Z" fill="black"/>
<path d="M137.177 71.8963C137.177 71.8963 136.818 74.7715 139.553 75.1111L139.722 74.7932C139.722 74.7932 137.343 72.7903 137.177 71.8963Z" fill="#84BD00"/>
<path d="M140.593 74.7715L139.956 74.907L139.893 74.9196C139.893 74.9196 137.94 73.5362 137.962 70.4479C137.962 70.4479 138.462 70.9897 139.027 71.7356C139.7 72.6296 140.465 73.8234 140.593 74.7715Z" fill="#84BD00"/>
<path opacity="0.1" d="M140.593 74.7715L139.956 74.907C139.353 74.3742 139.114 72.9872 139.027 71.7356C139.7 72.6296 140.465 73.8234 140.593 74.7715Z" fill="black"/>
<path d="M140.809 75.0677C140.758 75.1 140.701 75.1207 140.642 75.1282C140.582 75.1356 140.522 75.1298 140.465 75.1111C138.831 74.7282 139.13 69.3841 139.13 69.3841C139.22 69.4275 139.574 70.1066 139.949 70.9843C140.609 72.5266 141.332 74.6794 140.809 75.0677Z" fill="#84BD00"/>
<path d="M144.181 71.8963C144.181 71.8963 144.54 74.7715 141.805 75.1111L141.636 74.7932C141.636 74.7932 144.001 72.7903 144.181 71.8963Z" fill="#84BD00"/>
<path d="M143.392 70.4479C143.414 73.5362 141.462 74.9196 141.462 74.9196L141.399 74.907L140.762 74.7715C140.888 73.8234 141.662 72.6296 142.327 71.7356C142.892 70.9861 143.392 70.4479 143.392 70.4479Z" fill="#84BD00"/>
<path opacity="0.1" d="M142.327 71.7356C142.245 72.9023 142.032 74.1864 141.516 74.7878C141.48 74.8302 141.44 74.87 141.399 74.907L140.762 74.7715C140.888 73.8234 141.662 72.6296 142.327 71.7356Z" fill="black"/>
<path d="M141.388 74.7878C141.291 74.9074 141.168 75.0031 141.028 75.0677C140.985 75.0865 140.941 75.101 140.895 75.1111C140.492 75.2068 140.355 74.9142 140.375 74.4212C140.415 73.5398 140.965 72.0137 141.455 70.8723C141.815 70.0488 142.14 69.4275 142.227 69.3841C142.227 69.3841 142.457 73.5543 141.388 74.7878Z" fill="#84BD00"/>
<path opacity="0.1" d="M140.809 75.0677C140.716 75.067 140.626 75.038 140.55 74.9847C139.781 74.5042 139.765 72.7 139.949 70.9843C140.609 72.5266 141.332 74.6794 140.809 75.0677Z" fill="black"/>
<path opacity="0.1" d="M141.388 74.7878C141.3 74.9792 141.181 75.0804 141.028 75.0677C140.95 75.0563 140.876 75.0279 140.81 74.9847C140.611 74.8463 140.459 74.6495 140.375 74.4212C140.415 73.5398 140.965 72.0137 141.455 70.8723C141.631 72.4562 141.69 74.1376 141.388 74.7878Z" fill="black"/>
<path d="M140.677 67.5095C140.677 67.5095 139.108 74.0112 140.677 74.9847C142.246 75.9581 141.08 68.0856 140.677 67.5095Z" fill="#84BD00"/>
<path d="M143.139 75.3043L143.029 75.8786L142.63 77.9863H138.831L138.432 75.8786L138.322 75.3043H143.139Z" fill="#65617D"/>
<path opacity="0.1" d="M143.139 75.3043L143.029 75.8786H138.432L138.322 75.3043H143.139Z" fill="black"/>
<path d="M143.943 74.665H137.41V75.7504H143.943V74.665Z" fill="#65617D"/>
<path d="M154.989 83.8487C154.989 83.8487 167.902 91.9758 165.077 105.051C164.846 106.119 164.647 107.19 164.515 108.272C163.999 112.509 160.9 124.665 142.394 130.264V131.528L150.245 129.33L155.574 126.381L159.643 122.716L164.616 116.628L166.925 111.662L167.77 105.12L168.251 97.6504L167.061 91.2534L164.256 87.0869L160.837 84.4176L154.989 83.8487Z" fill="#D9D6DF"/>
<path d="M35.9907 118.732C34.7707 125.234 35.7172 131.997 38.9021 137.797C48.1885 154.705 67.9239 149.729 73.7466 147.811C75.1321 147.354 76.5356 146.959 77.9571 146.635L142.093 132.046C164.166 128.194 168.724 110.253 168.724 110.253C173.094 96.415 170.099 88.3529 166.144 83.7836C164.577 81.995 162.626 80.5882 160.437 79.6701C158.247 78.7519 155.879 78.3465 153.51 78.4847L145.903 78.8893L78.2774 86.294C46.6645 86.6335 38.2201 106.83 35.9907 118.732ZM42.2543 119.547C44.3865 109.314 52.7499 94.4717 79.6485 93.5561C80.8828 93.5127 82.1154 93.4044 83.3408 93.24L143.821 85.1309L150.824 84.7697C156.085 84.5042 161.163 86.9622 164.08 91.3635C166.865 95.5698 168.371 102.2 164.925 112.507C164.925 112.507 160.71 128.169 140.298 131.533L81.0574 144.266C79.7097 144.555 78.3781 144.909 77.0628 145.317C71.6899 146.982 53.8241 151.205 45.1458 137.024C41.9556 131.81 41.0055 125.535 42.2543 119.547Z" fill="#E1DEE5"/>
</svg>
